<?xml version="1.0" encoding="utf-8"?>
<!-- Generator: Adobe Illustrator 16.0.0, SVG Export Plug-In . SVG Version: 6.00 Build 0)  -->
<!DOCTYPE svg PUBLIC "-//W3C//DTD SVG 1.1//EN" "http://www.w3.org/Graphics/SVG/1.1/DTD/svg11.dtd">
<svg version="1.1" id="Layer_1" xmlns="http://www.w3.org/2000/svg" xmlns:xlink="http://www.w3.org/1999/xlink" x="0px" y="0px"
	 width="64px" height="64px" viewBox="0 0 64 64" enable-background="new 0 0 64 64" xml:space="preserve">
<g>
	<path d="M61.23,33.956l-8.57,8.57c-0.4,0.401-0.937,0.636-1.506,0.636c-1.172,0-2.143-0.971-2.143-2.143v-4.285H14.73v4.285
		c0,1.172-0.971,2.143-2.143,2.143c-0.569,0-1.105-0.234-1.506-0.636l-8.57-8.57c-0.402-0.402-0.636-0.938-0.636-1.507
		s0.234-1.104,0.636-1.507l8.57-8.57c0.401-0.401,0.937-0.636,1.506-0.636c1.172,0,2.143,0.971,2.143,2.143v4.285h34.281v-4.285
		c0-1.172,0.971-2.143,2.143-2.143c0.569,0,1.105,0.234,1.506,0.636l8.57,8.57c0.402,0.402,0.637,0.938,0.637,1.507
		S61.633,33.554,61.23,33.956z"/>
</g>
</svg>
