<?xml version="1.0" encoding="utf-8"?>
<!-- Generator: Adobe Illustrator 16.0.0, SVG Export Plug-In . SVG Version: 6.00 Build 0)  -->
<!DOCTYPE svg PUBLIC "-//W3C//DTD SVG 1.1//EN" "http://www.w3.org/Graphics/SVG/1.1/DTD/svg11.dtd">
<svg version="1.1" id="Layer_1" xmlns="http://www.w3.org/2000/svg" xmlns:xlink="http://www.w3.org/1999/xlink" x="0px" y="0px"
	 width="64px" height="64px" viewBox="0 0 64 64" enable-background="new 0 0 64 64" xml:space="preserve">
<g>
	<path d="M51.392,51.748c-2.879,4.386-5.758,6.562-8.604,6.562c-1.138,0-2.679-0.368-4.687-1.071
		c-1.976-0.736-3.684-1.071-5.056-1.071c-1.339,0-2.946,0.368-4.754,1.104c-1.841,0.771-3.314,1.139-4.419,1.139
		c-3.448,0-6.763-2.912-10.077-8.671C10.549,43.981,8.875,38.391,8.875,32.9c0-5.122,1.272-9.273,3.783-12.521
		c2.511-3.213,5.658-4.82,9.507-4.82c1.641,0,3.583,0.335,5.926,1.004c2.31,0.67,3.85,1.005,4.62,1.005
		c0.971,0,2.578-0.368,4.787-1.139c2.21-0.736,4.152-1.138,5.792-1.138c2.679,0,5.056,0.736,7.131,2.176
		c1.172,0.804,2.343,1.941,3.481,3.348c-1.74,1.474-3.013,2.779-3.816,3.95c-1.439,2.076-2.176,4.386-2.176,6.931
		c0,2.745,0.77,5.256,2.311,7.465c1.539,2.21,3.313,3.616,5.289,4.219C54.673,46.023,53.334,48.836,51.392,51.748z M41.951,8.662
		c-0.67,1.674-1.707,3.214-3.113,4.62c-1.205,1.205-2.41,2.009-3.615,2.41c-0.771,0.234-1.908,0.436-3.482,0.569
		c0.067-3.314,0.938-6.193,2.611-8.604c1.674-2.411,4.486-4.051,8.369-4.955c0.067,0.302,0.135,0.535,0.168,0.736
		c0,0.234,0.033,0.436,0.033,0.67C42.922,5.481,42.587,7.021,41.951,8.662z"/>
</g>
</svg>
