<?xml version="1.0" encoding="utf-8"?>
<!-- Generator: Adobe Illustrator 16.0.0, SVG Export Plug-In . SVG Version: 6.00 Build 0)  -->
<!DOCTYPE svg PUBLIC "-//W3C//DTD SVG 1.1//EN" "http://www.w3.org/Graphics/SVG/1.1/DTD/svg11.dtd">
<svg version="1.1" id="Layer_1" xmlns="http://www.w3.org/2000/svg" xmlns:xlink="http://www.w3.org/1999/xlink" x="0px" y="0px"
	 width="64px" height="64px" viewBox="0 0 64 64" enable-background="new 0 0 64 64" xml:space="preserve">
<g enable-background="new    ">
	<path d="M54.995,47.376c0,5.323-4.318,9.642-9.642,9.642H17.5c-5.323,0-9.642-4.318-9.642-9.642V19.522
		c0-5.323,4.319-9.642,9.642-9.642h27.854c5.323,0,9.642,4.319,9.642,9.642V47.376z M50.71,19.522c0-2.946-2.41-5.356-5.356-5.356
		H17.5c-2.946,0-5.356,2.41-5.356,5.356v27.854c0,2.946,2.41,5.356,5.356,5.356h27.854c2.946,0,5.356-2.41,5.356-5.356V19.522z
		 M46.425,34.521c0,0.603-0.469,1.071-1.071,1.071H33.569v11.784c0,0.603-0.469,1.071-1.071,1.071h-2.143
		c-0.603,0-1.071-0.469-1.071-1.071V35.592H17.5c-0.603,0-1.071-0.469-1.071-1.071v-2.143c0-0.603,0.469-1.071,1.071-1.071h11.784
		V19.522c0-0.603,0.469-1.071,1.071-1.071h2.143c0.603,0,1.071,0.469,1.071,1.071v11.784h11.784c0.603,0,1.071,0.469,1.071,1.071
		V34.521z"/>
</g>
</svg>
