<?xml version="1.0" encoding="utf-8"?>
<!-- Generator: Adobe Illustrator 16.0.0, SVG Export Plug-In . SVG Version: 6.00 Build 0)  -->
<!DOCTYPE svg PUBLIC "-//W3C//DTD SVG 1.1//EN" "http://www.w3.org/Graphics/SVG/1.1/DTD/svg11.dtd">
<svg version="1.1" id="Layer_1" xmlns="http://www.w3.org/2000/svg" xmlns:xlink="http://www.w3.org/1999/xlink" x="0px" y="0px"
	 width="64px" height="64px" viewBox="0 0 64 64" enable-background="new 0 0 64 64" xml:space="preserve">
<g>
	<path d="M32.086,58.41c-14.194,0-25.711-11.517-25.711-25.711S17.892,6.988,32.086,6.988s25.711,11.517,25.711,25.711
		S46.28,58.41,32.086,58.41z M13.874,32.699c0,10.043,8.168,18.212,18.212,18.212c10.043,0,18.212-8.169,18.212-18.212
		s-8.169-18.212-18.212-18.212C22.042,14.487,13.874,22.656,13.874,32.699z M43.535,34.574l-10.68,10.679
		c-0.234,0.201-0.502,0.302-0.77,0.302s-0.536-0.101-0.77-0.302L20.603,34.54c-0.301-0.334-0.402-0.77-0.234-1.171
		c0.167-0.402,0.569-0.67,1.004-0.67h6.428V20.915c0-0.603,0.469-1.071,1.071-1.071H35.3c0.603,0,1.071,0.469,1.071,1.071v11.784
		h6.428c0.603,0,1.071,0.469,1.071,1.071C43.87,34.072,43.736,34.34,43.535,34.574z"/>
</g>
</svg>
