<?xml version="1.0" encoding="utf-8"?>
<!-- Generator: Adobe Illustrator 16.0.0, SVG Export Plug-In . SVG Version: 6.00 Build 0)  -->
<!DOCTYPE svg PUBLIC "-//W3C//DTD SVG 1.1//EN" "http://www.w3.org/Graphics/SVG/1.1/DTD/svg11.dtd">
<svg version="1.1" id="Layer_1" xmlns="http://www.w3.org/2000/svg" xmlns:xlink="http://www.w3.org/1999/xlink" x="0px" y="0px"
	 width="64px" height="64px" viewBox="0 0 64 64" enable-background="new 0 0 64 64" xml:space="preserve">
<g>
	<path d="M60.39,33.152L47.534,45.003c-0.335,0.302-0.771,0.369-1.171,0.201c-0.369-0.167-0.637-0.535-0.637-0.971v-7.499H3.946
		c-0.603,0-1.071-0.469-1.071-1.071v-6.428c0-0.603,0.469-1.071,1.071-1.071h41.78v-7.499c0-0.436,0.234-0.804,0.637-0.971
		c0.4-0.168,0.836-0.101,1.171,0.167L60.39,31.579c0.201,0.2,0.335,0.469,0.335,0.77C60.725,32.65,60.591,32.951,60.39,33.152z"/>
</g>
</svg>
