<?xml version="1.0" encoding="utf-8"?>
<!-- Generator: Adobe Illustrator 16.0.0, SVG Export Plug-In . SVG Version: 6.00 Build 0)  -->
<!DOCTYPE svg PUBLIC "-//W3C//DTD SVG 1.1//EN" "http://www.w3.org/Graphics/SVG/1.1/DTD/svg11.dtd">
<svg version="1.1" id="Layer_1" xmlns="http://www.w3.org/2000/svg" xmlns:xlink="http://www.w3.org/1999/xlink" x="0px" y="0px"
	 width="64px" height="64px" viewBox="0 0 64 64" enable-background="new 0 0 64 64" xml:space="preserve">
<g>
	<path d="M15.738,26.947v14.396c0,1.908-1.506,3.448-3.415,3.448s-3.448-1.54-3.448-3.448V26.947c0-1.874,1.54-3.414,3.448-3.414
		C14.198,23.533,15.738,25.073,15.738,26.947z M47.91,22.964H16.943c0-5.323,3.18-9.943,7.9-12.354l-2.377-4.386
		C22.333,5.99,22.4,5.689,22.634,5.556c0.234-0.101,0.536-0.034,0.669,0.2l2.411,4.419c2.042-0.903,4.319-1.405,6.729-1.405
		s4.688,0.502,6.729,1.405l2.411-4.419c0.134-0.234,0.435-0.301,0.669-0.2c0.234,0.134,0.302,0.435,0.168,0.669l-2.377,4.386
		C44.729,13.021,47.91,17.641,47.91,22.964z M47.81,46.465c0,2.042-1.64,3.683-3.649,3.683h-2.51v7.6
		c0,1.908-1.541,3.448-3.449,3.448s-3.447-1.54-3.447-3.448v-7.6h-4.621v7.6c0,1.908-1.54,3.448-3.448,3.448
		c-1.875,0-3.415-1.54-3.415-3.448l-0.034-7.6H20.76c-2.042,0-3.683-1.641-3.683-3.683V24.169H47.81V46.465z M26.685,16.067
		c0-0.703-0.569-1.306-1.306-1.306c-0.703,0-1.272,0.603-1.272,1.306s0.569,1.306,1.272,1.306
		C26.116,17.373,26.685,16.771,26.685,16.067z M40.779,16.067c0-0.703-0.569-1.306-1.271-1.306c-0.737,0-1.307,0.603-1.307,1.306
		s0.569,1.306,1.307,1.306C40.21,17.373,40.779,16.771,40.779,16.067z M56.012,41.343c0,1.908-1.54,3.448-3.448,3.448
		c-1.874,0-3.415-1.54-3.415-3.448V26.947c0-1.908,1.541-3.414,3.415-3.414c1.908,0,3.448,1.506,3.448,3.414V41.343z"/>
</g>
</svg>
