<?xml version="1.0" encoding="utf-8"?>
<!-- Generator: Adobe Illustrator 16.0.0, SVG Export Plug-In . SVG Version: 6.00 Build 0)  -->
<!DOCTYPE svg PUBLIC "-//W3C//DTD SVG 1.1//EN" "http://www.w3.org/Graphics/SVG/1.1/DTD/svg11.dtd">
<svg version="1.1" id="Layer_1" xmlns="http://www.w3.org/2000/svg" xmlns:xlink="http://www.w3.org/1999/xlink" x="0px" y="0px"
	 width="64px" height="64px" viewBox="0 0 64 64" enable-background="new 0 0 64 64" xml:space="preserve">
<g>
	<path d="M44.592,47.487L32.874,60.343c-0.201,0.201-0.469,0.335-0.77,0.335s-0.603-0.134-0.804-0.335L19.416,47.487
		c-0.268-0.335-0.334-0.77-0.167-1.172c0.167-0.368,0.536-0.636,0.971-0.636h7.499V3.899c0-0.603,0.469-1.071,1.071-1.071h6.427
		c0.604,0,1.072,0.469,1.072,1.071v41.78h7.498c0.436,0,0.805,0.234,0.971,0.636C44.926,46.718,44.859,47.152,44.592,47.487z"/>
</g>
</svg>
