<?xml version="1.0" encoding="utf-8"?>
<!-- Generator: Adobe Illustrator 16.0.0, SVG Export Plug-In . SVG Version: 6.00 Build 0)  -->
<!DOCTYPE svg PUBLIC "-//W3C//DTD SVG 1.1//EN" "http://www.w3.org/Graphics/SVG/1.1/DTD/svg11.dtd">
<svg version="1.1" id="Layer_1" xmlns="http://www.w3.org/2000/svg" xmlns:xlink="http://www.w3.org/1999/xlink" x="0px" y="0px"
	 width="64px" height="64px" viewBox="0 0 64 64" enable-background="new 0 0 64 64" xml:space="preserve">
<g>
	<path d="M31.604,58.16c-14.194,0-25.711-11.517-25.711-25.711S17.41,6.738,31.604,6.738c14.195,0,25.71,11.517,25.71,25.711
		S45.799,58.16,31.604,58.16z M48.275,30.977l-3.046-3.047c-0.401-0.401-0.938-0.603-1.507-0.603c-0.568,0-1.104,0.201-1.506,0.603
		l-6.328,6.327V17.451c0-1.172-0.971-2.143-2.143-2.143h-4.285c-1.172,0-2.143,0.971-2.143,2.143v16.806l-6.327-6.327
		c-0.402-0.401-0.938-0.636-1.507-0.636c-0.569,0-1.104,0.234-1.506,0.636l-3.046,3.047c-0.402,0.401-0.603,0.938-0.603,1.506
		c0,0.569,0.201,1.105,0.603,1.507l12.119,12.119l3.046,3.046c0.401,0.402,0.937,0.603,1.506,0.603s1.105-0.2,1.506-0.603
		l3.046-3.046l12.119-12.119c0.402-0.401,0.604-0.938,0.604-1.507C48.879,31.914,48.678,31.378,48.275,30.977z"/>
</g>
</svg>
