<?xml version="1.0" encoding="utf-8"?>
<!-- Generator: Adobe Illustrator 16.0.0, SVG Export Plug-In . SVG Version: 6.00 Build 0)  -->
<!DOCTYPE svg PUBLIC "-//W3C//DTD SVG 1.1//EN" "http://www.w3.org/Graphics/SVG/1.1/DTD/svg11.dtd">
<svg version="1.1" id="Layer_1" xmlns="http://www.w3.org/2000/svg" xmlns:xlink="http://www.w3.org/1999/xlink" x="0px" y="0px"
	 width="64px" height="64px" viewBox="0 0 64 64" enable-background="new 0 0 64 64" xml:space="preserve">
<g>
	<path d="M31.336,58.035c-14.194,0-25.711-11.517-25.711-25.711S17.142,6.613,31.336,6.613S57.047,18.13,57.047,32.324
		S45.53,58.035,31.336,58.035z M13.124,32.324c0,10.043,8.168,18.212,18.212,18.212c10.043,0,18.212-8.169,18.212-18.212
		s-8.169-18.212-18.212-18.212C21.292,14.112,13.124,22.281,13.124,32.324z M42.049,32.324h-6.428v11.784
		c0,0.603-0.469,1.071-1.071,1.071h-6.428c-0.603,0-1.071-0.469-1.071-1.071V32.324h-6.428c-0.603,0-1.071-0.469-1.071-1.071
		c0-0.302,0.134-0.569,0.335-0.804l10.679-10.679c0.234-0.201,0.502-0.302,0.77-0.302s0.536,0.101,0.77,0.302l10.712,10.713
		c0.302,0.334,0.402,0.77,0.234,1.171C42.886,32.057,42.484,32.324,42.049,32.324z"/>
</g>
</svg>
