<?xml version="1.0" encoding="utf-8"?>
<!-- Generator: Adobe Illustrator 16.0.0, SVG Export Plug-In . SVG Version: 6.00 Build 0)  -->
<!DOCTYPE svg PUBLIC "-//W3C//DTD SVG 1.1//EN" "http://www.w3.org/Graphics/SVG/1.1/DTD/svg11.dtd">
<svg version="1.1" id="Layer_1" xmlns="http://www.w3.org/2000/svg" xmlns:xlink="http://www.w3.org/1999/xlink" x="0px" y="0px"
	 width="64px" height="64px" viewBox="0 0 64 64" enable-background="new 0 0 64 64" xml:space="preserve">
<g>
	<path d="M31.461,58.66C17.267,58.66,5.75,47.144,5.75,32.949S17.267,7.238,31.461,7.238s25.711,11.517,25.711,25.711
		S45.655,58.66,31.461,58.66z M48.166,31.442l-3.046-3.046L33.001,16.277c-0.401-0.401-0.938-0.603-1.506-0.603
		c-0.569,0-1.105,0.201-1.507,0.603l-3.046,3.047c-0.402,0.401-0.603,0.937-0.603,1.506s0.201,1.104,0.603,1.507l6.327,6.327H16.463
		c-1.172,0-2.143,0.971-2.143,2.143v4.285c0,1.172,0.971,2.143,2.143,2.143h16.806l-6.327,6.327
		c-0.402,0.402-0.636,0.938-0.636,1.507s0.234,1.104,0.636,1.506l3.046,3.047c0.402,0.401,0.938,0.603,1.507,0.603
		c0.569,0,1.105-0.201,1.506-0.603L45.12,37.502l3.046-3.046c0.402-0.402,0.604-0.938,0.604-1.507S48.568,31.845,48.166,31.442z"/>
</g>
</svg>
