<?xml version="1.0" encoding="utf-8"?>
<!-- Generator: Adobe Illustrator 16.0.0, SVG Export Plug-In . SVG Version: 6.00 Build 0)  -->
<!DOCTYPE svg PUBLIC "-//W3C//DTD SVG 1.1//EN" "http://www.w3.org/Graphics/SVG/1.1/DTD/svg11.dtd">
<svg version="1.1" id="Layer_1" xmlns="http://www.w3.org/2000/svg" xmlns:xlink="http://www.w3.org/1999/xlink" x="0px" y="0px"
	 width="64px" height="64px" viewBox="0 0 64 64" enable-background="new 0 0 64 64" xml:space="preserve">
<g>
	<path d="M31.961,57.91C17.767,57.91,6.25,46.394,6.25,32.199S17.767,6.488,31.961,6.488s25.711,11.517,25.711,25.711
		S46.155,57.91,31.961,57.91z M48.633,30.659L36.514,18.54l-3.047-3.046c-0.4-0.402-0.937-0.603-1.506-0.603s-1.105,0.2-1.506,0.603
		l-3.046,3.046L15.289,30.659c-0.402,0.401-0.603,0.938-0.603,1.507c0,0.568,0.201,1.104,0.603,1.506l3.046,3.047
		c0.402,0.401,0.938,0.603,1.506,0.603c0.569,0,1.105-0.201,1.507-0.603l6.327-6.327v16.806c0,1.172,0.971,2.143,2.143,2.143h4.285
		c1.172,0,2.143-0.971,2.143-2.143V30.392l6.327,6.327c0.401,0.401,0.938,0.636,1.507,0.636c0.568,0,1.104-0.234,1.506-0.636
		l3.047-3.047c0.402-0.401,0.603-0.938,0.603-1.506C49.235,31.597,49.035,31.061,48.633,30.659z"/>
</g>
</svg>
