<?xml version="1.0" encoding="utf-8"?>
<!-- Generator: Adobe Illustrator 16.0.0, SVG Export Plug-In . SVG Version: 6.00 Build 0)  -->
<!DOCTYPE svg PUBLIC "-//W3C//DTD SVG 1.1//EN" "http://www.w3.org/Graphics/SVG/1.1/DTD/svg11.dtd">
<svg version="1.1" id="Layer_1" xmlns="http://www.w3.org/2000/svg" xmlns:xlink="http://www.w3.org/1999/xlink" x="0px" y="0px"
	 width="64px" height="64px" viewBox="0 0 64 64" enable-background="new 0 0 64 64" xml:space="preserve">
<g>
	<path d="M56.693,37.848l-2.51,2.512c-0.804,0.803-1.908,1.271-3.047,1.271s-2.243-0.469-3.014-1.271l-9.842-9.81v23.568
		c0,2.41-2.009,3.917-4.285,3.917h-4.285c-2.276,0-4.285-1.507-4.285-3.917V30.55l-9.842,9.81c-0.77,0.803-1.875,1.271-3.013,1.271
		s-2.243-0.469-3.013-1.271l-2.511-2.512c-0.803-0.803-1.272-1.874-1.272-3.013c0-1.138,0.469-2.243,1.272-3.046L28.84,9.994
		c0.77-0.803,1.875-1.238,3.013-1.238c1.139,0,2.243,0.436,3.047,1.238l21.793,21.795c0.771,0.803,1.239,1.908,1.239,3.046
		C57.933,35.974,57.464,37.045,56.693,37.848z"/>
</g>
</svg>
