<?xml version="1.0" encoding="utf-8"?>
<!-- Generator: Adobe Illustrator 16.0.0, SVG Export Plug-In . SVG Version: 6.00 Build 0)  -->
<!DOCTYPE svg PUBLIC "-//W3C//DTD SVG 1.1//EN" "http://www.w3.org/Graphics/SVG/1.1/DTD/svg11.dtd">
<svg version="1.1" id="Layer_1" xmlns="http://www.w3.org/2000/svg" xmlns:xlink="http://www.w3.org/1999/xlink" x="0px" y="0px"
	 width="64px" height="64px" viewBox="0 0 64 64" enable-background="new 0 0 64 64" xml:space="preserve">
<g enable-background="new    ">
	<path d="M55.162,34.995c0,1.774-1.439,3.214-3.214,3.214H38.021v13.927c0,1.774-1.439,3.214-3.214,3.214H28.38
		c-1.774,0-3.214-1.439-3.214-3.214V38.209H11.239c-1.774,0-3.214-1.439-3.214-3.214v-6.428c0-1.774,1.439-3.214,3.214-3.214h13.927
		V11.427c0-1.774,1.439-3.214,3.214-3.214h6.428c1.774,0,3.214,1.439,3.214,3.214v13.927h13.927c1.774,0,3.214,1.439,3.214,3.214
		V34.995z"/>
</g>
</svg>
