<?xml version="1.0" encoding="utf-8"?>
<!-- Generator: Adobe Illustrator 16.0.0, SVG Export Plug-In . SVG Version: 6.00 Build 0)  -->
<!DOCTYPE svg PUBLIC "-//W3C//DTD SVG 1.1//EN" "http://www.w3.org/Graphics/SVG/1.1/DTD/svg11.dtd">
<svg version="1.1" id="Layer_1" xmlns="http://www.w3.org/2000/svg" xmlns:xlink="http://www.w3.org/1999/xlink" x="0px" y="0px"
	 width="64px" height="64px" viewBox="0 0 64 64" enable-background="new 0 0 64 64" xml:space="preserve">
<g>
	<path d="M30.961,57.535c-14.194,0-25.711-11.517-25.711-25.711S16.767,6.113,30.961,6.113S56.672,17.63,56.672,31.824
		S45.155,57.535,30.961,57.535z M48.102,29.682c0-1.172-0.971-2.143-2.143-2.143H29.153l6.327-6.327
		c0.402-0.402,0.637-0.938,0.637-1.507s-0.234-1.104-0.637-1.506l-3.046-3.047c-0.402-0.401-0.938-0.603-1.507-0.603
		c-0.569,0-1.104,0.201-1.506,0.603L17.302,27.271l-3.046,3.046c-0.401,0.402-0.603,0.938-0.603,1.507s0.201,1.104,0.603,1.507
		l3.046,3.046l12.119,12.119c0.402,0.401,0.938,0.603,1.506,0.603c0.569,0,1.105-0.201,1.507-0.603l3.046-3.047
		c0.402-0.401,0.603-0.937,0.603-1.506s-0.2-1.104-0.603-1.507l-6.327-6.327h16.806c1.172,0,2.143-0.971,2.143-2.143V29.682z"/>
</g>
</svg>
