<?xml version="1.0" encoding="utf-8"?>
<!-- Generator: Adobe Illustrator 16.0.0, SVG Export Plug-In . SVG Version: 6.00 Build 0)  -->
<!DOCTYPE svg PUBLIC "-//W3C//DTD SVG 1.1//EN" "http://www.w3.org/Graphics/SVG/1.1/DTD/svg11.dtd">
<svg version="1.1" id="Layer_1" xmlns="http://www.w3.org/2000/svg" xmlns:xlink="http://www.w3.org/1999/xlink" x="0px" y="0px"
	 width="64px" height="64px" viewBox="0 0 64 64" enable-background="new 0 0 64 64" xml:space="preserve">
<g>
	<path d="M32.086,58.285c-14.194,0-25.711-11.517-25.711-25.711S17.892,6.863,32.086,6.863S57.797,18.38,57.797,32.574
		S46.28,58.285,32.086,58.285z M32.086,14.362c-10.043,0-18.212,8.169-18.212,18.212s8.168,18.212,18.212,18.212
		c10.043,0,18.212-8.169,18.212-18.212S42.129,14.362,32.086,14.362z M44.641,33.344L33.928,44.057
		c-0.201,0.201-0.503,0.302-0.771,0.302c-0.569,0-1.071-0.502-1.071-1.071v-6.428H20.302c-0.569,0-1.071-0.502-1.071-1.071V29.36
		c0-0.569,0.502-1.071,1.071-1.071h11.784v-6.428c0-0.603,0.469-1.071,1.071-1.071c0.302,0,0.569,0.134,0.804,0.335l10.68,10.68
		c0.2,0.2,0.301,0.502,0.301,0.77S44.841,33.144,44.641,33.344z"/>
</g>
</svg>
