<?xml version="1.0" encoding="utf-8"?>
<!-- Generator: Adobe Illustrator 16.0.0, SVG Export Plug-In . SVG Version: 6.00 Build 0)  -->
<!DOCTYPE svg PUBLIC "-//W3C//DTD SVG 1.1//EN" "http://www.w3.org/Graphics/SVG/1.1/DTD/svg11.dtd">
<svg version="1.1" id="Layer_1" xmlns="http://www.w3.org/2000/svg" xmlns:xlink="http://www.w3.org/1999/xlink" x="0px" y="0px"
	 width="64px" height="64px" viewBox="0 0 64 64" enable-background="new 0 0 64 64" xml:space="preserve">
<g>
	<path d="M56.818,32.944L35.025,54.772c-0.804,0.77-1.908,1.238-3.047,1.238c-1.138,0-2.243-0.469-3.013-1.238L7.171,32.944
		c-0.803-0.77-1.272-1.874-1.272-3.013s0.469-2.243,1.272-3.047l2.478-2.511c0.803-0.77,1.908-1.238,3.046-1.238
		s2.243,0.469,3.013,1.238l9.842,9.843V10.648c0-2.344,1.942-4.285,4.285-4.285h4.285c2.344,0,4.285,1.941,4.285,4.285v23.568
		l9.842-9.843c0.771-0.77,1.875-1.238,3.014-1.238s2.243,0.469,3.047,1.238l2.51,2.511c0.771,0.804,1.239,1.908,1.239,3.047
		S57.589,32.175,56.818,32.944z"/>
</g>
</svg>
