<?xml version="1.0" encoding="utf-8"?>
<!-- Generator: Adobe Illustrator 16.0.0, SVG Export Plug-In . SVG Version: 6.00 Build 0)  -->
<!DOCTYPE svg PUBLIC "-//W3C//DTD SVG 1.1//EN" "http://www.w3.org/Graphics/SVG/1.1/DTD/svg11.dtd">
<svg version="1.1" id="Layer_1" xmlns="http://www.w3.org/2000/svg" xmlns:xlink="http://www.w3.org/1999/xlink" x="0px" y="0px"
	 width="64px" height="64px" viewBox="0 0 64 64" enable-background="new 0 0 64 64" xml:space="preserve">
<g>
	<path d="M43.784,18.073h-7.499v41.78c0,0.603-0.469,1.071-1.071,1.071h-6.428c-0.603,0-1.071-0.469-1.071-1.071v-41.78h-7.499
		c-0.435,0-0.804-0.234-0.971-0.636c-0.167-0.402-0.101-0.837,0.167-1.172L31.129,3.41c0.201-0.201,0.469-0.335,0.77-0.335
		s0.603,0.134,0.804,0.335l11.885,12.855c0.268,0.335,0.334,0.77,0.167,1.172C44.588,17.806,44.219,18.073,43.784,18.073z"/>
</g>
</svg>
