<?xml version="1.0" encoding="utf-8"?>
<!-- Generator: Adobe Illustrator 16.0.0, SVG Export Plug-In . SVG Version: 6.00 Build 0)  -->
<!DOCTYPE svg PUBLIC "-//W3C//DTD SVG 1.1//EN" "http://www.w3.org/Graphics/SVG/1.1/DTD/svg11.dtd">
<svg version="1.1" id="Layer_1" xmlns="http://www.w3.org/2000/svg" xmlns:xlink="http://www.w3.org/1999/xlink" x="0px" y="0px"
	 width="64px" height="64px" viewBox="0 0 64 64" enable-background="new 0 0 64 64" xml:space="preserve">
<g>
	<path d="M55.16,53.349c-1.037,1.339-9.373,8.972-23.367,8.972c-13.994,0-24.707-9.574-27.987-13.525
		c-0.904-1.037,0.134-1.506,0.736-1.104c9.809,5.959,25.142,15.769,49.882,4.051C55.428,51.239,56.198,52.009,55.16,53.349z
		 M52.482,40.125l-7.6,7.499c-2.979-2.812-5.223-5.156-5.223-5.156c-0.334-0.335-0.603-0.736-0.837-1.104
		c-6.06,9.475-24.573,8.871-24.573-5.792c0-13.658,16.17-15.5,22.699-15.734v-4.252c0-0.903,0.334-5.021-4.754-5.021
		c0,0-5.089,0-7.265,6.629l-9.842-0.904c0-6.595,6.26-13.96,18.045-13.96c11.75,0,15.031,7.633,15.031,11.015v19.718
		C48.164,36.743,52.482,40.125,52.482,40.125z M36.949,31.454V26.03c-4.52,0.134-11.283,1.406-11.283,7.733
		C25.667,40.56,36.949,42.167,36.949,31.454z M60.483,53.649c-0.87,2.109-2.143,3.582-2.846,4.151
		c-0.736,0.603-1.272,0.368-0.87-0.502c0.402-0.871,2.578-6.227,1.707-7.365c-0.87-1.104-4.955-0.569-6.428-0.436
		c-1.439,0.134-1.74,0.269-1.875-0.033c-0.301-0.77,2.913-2.075,5.021-2.344c2.109-0.234,5.491-0.101,6.16,0.771
		C61.855,48.561,61.354,51.507,60.483,53.649z"/>
</g>
</svg>
