<?xml version="1.0" encoding="utf-8"?>
<!-- Generator: Adobe Illustrator 16.0.0, SVG Export Plug-In . SVG Version: 6.00 Build 0)  -->
<!DOCTYPE svg PUBLIC "-//W3C//DTD SVG 1.1//EN" "http://www.w3.org/Graphics/SVG/1.1/DTD/svg11.dtd">
<svg version="1.1" id="Layer_1" xmlns="http://www.w3.org/2000/svg" xmlns:xlink="http://www.w3.org/1999/xlink" x="0px" y="0px"
	 width="64px" height="64px" viewBox="0 0 64 64" enable-background="new 0 0 64 64" xml:space="preserve">
<g>
	<path d="M37.468,31.949l11.885,11.885l4.821-4.821c0.602-0.636,1.539-0.803,2.343-0.469c0.771,0.335,1.306,1.105,1.306,1.976
		v14.998c0,1.172-0.971,2.143-2.143,2.143H40.682c-0.871,0-1.641-0.535-1.975-1.339c-0.336-0.771-0.168-1.708,0.469-2.311l4.82-4.82
		L32.111,37.306L20.227,49.19l4.821,4.82c0.636,0.603,0.804,1.54,0.469,2.311c-0.334,0.804-1.104,1.339-1.975,1.339H8.543
		c-1.172,0-2.143-0.971-2.143-2.143V40.52c0-0.87,0.536-1.641,1.339-1.976c0.77-0.334,1.708-0.167,2.31,0.469l4.821,4.821
		l11.885-11.885L14.87,20.064l-4.821,4.821c-0.401,0.401-0.937,0.636-1.506,0.636c-0.268,0-0.569-0.067-0.804-0.167
		C6.936,25.02,6.4,24.249,6.4,23.379V8.381c0-1.172,0.971-2.143,2.143-2.143h14.998c0.871,0,1.641,0.535,1.975,1.339
		c0.335,0.771,0.167,1.708-0.469,2.311l-4.821,4.82l11.885,11.885l11.885-11.885l-4.82-4.82c-0.637-0.603-0.805-1.54-0.469-2.311
		c0.334-0.804,1.104-1.339,1.975-1.339H55.68c1.172,0,2.143,0.971,2.143,2.143v14.998c0,0.87-0.535,1.641-1.306,1.976
		c-0.268,0.1-0.569,0.167-0.837,0.167c-0.569,0-1.105-0.234-1.506-0.636l-4.821-4.821L37.468,31.949z"/>
</g>
</svg>
