<?xml version="1.0" encoding="utf-8"?>
<!-- Generator: Adobe Illustrator 16.0.0, SVG Export Plug-In . SVG Version: 6.00 Build 0)  -->
<!DOCTYPE svg PUBLIC "-//W3C//DTD SVG 1.1//EN" "http://www.w3.org/Graphics/SVG/1.1/DTD/svg11.dtd">
<svg version="1.1" id="Layer_1" xmlns="http://www.w3.org/2000/svg" xmlns:xlink="http://www.w3.org/1999/xlink" x="0px" y="0px"
	 width="64px" height="64px" viewBox="0 0 64 64" enable-background="new 0 0 64 64" xml:space="preserve">
<g>
	<path d="M55.416,37.139L33.621,58.933c-0.803,0.77-1.908,1.238-3.046,1.238s-2.209-0.469-3.013-1.238l-2.511-2.511
		c-0.803-0.804-1.272-1.908-1.272-3.047s0.469-2.243,1.272-3.047l9.809-9.809H11.292c-2.411,0-3.917-2.009-3.917-4.285v-4.285
		c0-2.276,1.506-4.285,3.917-4.285H34.86l-9.809-9.843c-0.803-0.77-1.272-1.874-1.272-3.013s0.469-2.243,1.272-3.013l2.511-2.511
		c0.804-0.804,1.875-1.272,3.013-1.272s2.243,0.469,3.046,1.272l21.795,21.794c0.803,0.77,1.238,1.874,1.238,3.013
		S56.219,36.335,55.416,37.139z"/>
</g>
</svg>
