<?xml version="1.0" encoding="utf-8"?>
<!-- Generator: Adobe Illustrator 16.0.0, SVG Export Plug-In . SVG Version: 6.00 Build 0)  -->
<!DOCTYPE svg PUBLIC "-//W3C//DTD SVG 1.1//EN" "http://www.w3.org/Graphics/SVG/1.1/DTD/svg11.dtd">
<svg version="1.1" id="Layer_1" xmlns="http://www.w3.org/2000/svg" xmlns:xlink="http://www.w3.org/1999/xlink" x="0px" y="0px"
	 width="64px" height="64px" viewBox="0 0 64 64" enable-background="new 0 0 64 64" xml:space="preserve">
<g enable-background="new    ">
	<path d="M56.924,48.993c0,5.323-4.318,9.642-9.642,9.642H15.144c-5.323,0-9.642-4.318-9.642-9.642V16.854
		c0-5.323,4.319-9.642,9.642-9.642h32.139c5.323,0,9.642,4.319,9.642,9.642V48.993z M48.354,30.781c0-1.172-0.971-2.143-2.143-2.143
		H35.498V17.926c0-1.172-0.971-2.143-2.143-2.143H29.07c-1.172,0-2.143,0.971-2.143,2.143v10.713H16.215
		c-1.172,0-2.143,0.971-2.143,2.143v4.285c0,1.172,0.971,2.143,2.143,2.143h10.713v10.713c0,1.172,0.971,2.143,2.143,2.143h4.285
		c1.172,0,2.143-0.971,2.143-2.143V37.209h10.713c1.172,0,2.143-0.971,2.143-2.143V30.781z"/>
</g>
</svg>
