<?xml version="1.0" encoding="utf-8"?>
<!-- Generator: Adobe Illustrator 16.0.0, SVG Export Plug-In . SVG Version: 6.00 Build 0)  -->
<!DOCTYPE svg PUBLIC "-//W3C//DTD SVG 1.1//EN" "http://www.w3.org/Graphics/SVG/1.1/DTD/svg11.dtd">
<svg version="1.1" id="Layer_1" xmlns="http://www.w3.org/2000/svg" xmlns:xlink="http://www.w3.org/1999/xlink" x="0px" y="0px"
	 width="64px" height="64px" viewBox="0 0 64 64" enable-background="new 0 0 64 64" xml:space="preserve">
<g>
	<path d="M56.172,36.859c0,2.276-1.506,4.285-3.917,4.285H28.687l9.81,9.843c0.803,0.77,1.271,1.874,1.271,3.013
		s-0.469,2.243-1.271,3.013l-2.512,2.545c-0.77,0.77-1.875,1.238-3.013,1.238c-1.138,0-2.243-0.469-3.046-1.238L8.131,37.729
		c-0.77-0.77-1.239-1.874-1.239-3.013s0.469-2.243,1.239-3.047L29.925,9.91c0.803-0.804,1.908-1.272,3.046-1.272
		c1.138,0,2.21,0.469,3.013,1.272l2.512,2.477c0.803,0.804,1.271,1.908,1.271,3.047s-0.469,2.243-1.271,3.047l-9.81,9.809h23.568
		c2.411,0,3.917,2.009,3.917,4.285V36.859z"/>
</g>
</svg>
