<?xml version="1.0" encoding="utf-8"?>
<!-- Generator: Adobe Illustrator 16.0.0, SVG Export Plug-In . SVG Version: 6.00 Build 0)  -->
<!DOCTYPE svg PUBLIC "-//W3C//DTD SVG 1.1//EN" "http://www.w3.org/Graphics/SVG/1.1/DTD/svg11.dtd">
<svg version="1.1" id="Layer_1" xmlns="http://www.w3.org/2000/svg" xmlns:xlink="http://www.w3.org/1999/xlink" x="0px" y="0px"
	 width="64px" height="64px" viewBox="0 0 64 64" enable-background="new 0 0 64 64" xml:space="preserve">
<g>
	<path d="M32,58.285c-14.194,0-25.711-11.517-25.711-25.711S17.806,6.863,32,6.863S57.711,18.38,57.711,32.574
		S46.194,58.285,32,58.285z M32,14.362c-10.043,0-18.212,8.169-18.212,18.212S21.957,50.786,32,50.786
		c10.043,0,18.212-8.169,18.212-18.212S42.043,14.362,32,14.362z M44.855,35.788c0,0.569-0.502,1.071-1.071,1.071H32v6.428
		c0,0.603-0.469,1.071-1.071,1.071c-0.301,0-0.569-0.134-0.804-0.335l-10.679-10.68c-0.201-0.2-0.301-0.502-0.301-0.77
		s0.101-0.569,0.301-0.77l10.713-10.713c0.201-0.201,0.502-0.302,0.77-0.302c0.569,0,1.071,0.502,1.071,1.071v6.428h11.784
		c0.569,0,1.071,0.502,1.071,1.071V35.788z"/>
</g>
</svg>
