<?xml version="1.0" encoding="utf-8"?>
<!-- Generator: Adobe Illustrator 16.0.0, SVG Export Plug-In . SVG Version: 6.00 Build 0)  -->
<!DOCTYPE svg PUBLIC "-//W3C//DTD SVG 1.1//EN" "http://www.w3.org/Graphics/SVG/1.1/DTD/svg11.dtd">
<svg version="1.1" id="Layer_1" xmlns="http://www.w3.org/2000/svg" xmlns:xlink="http://www.w3.org/1999/xlink" x="0px" y="0px"
	 width="64px" height="64px" viewBox="0 0 64 64" enable-background="new 0 0 64 64" xml:space="preserve">
<g>
	<path d="M55.445,54H40.447c0,4.721-3.85,8.57-8.57,8.57c-4.72,0-8.57-3.85-8.57-8.57H8.309c-2.343,0-4.285-1.941-4.285-4.285
		c4.955-4.186,10.713-11.684,10.713-27.854c0-6.428,5.323-13.458,14.194-14.764c-0.167-0.401-0.268-0.837-0.268-1.306
		c0-1.774,1.439-3.214,3.214-3.214s3.214,1.439,3.214,3.214c0,0.469-0.101,0.904-0.268,1.306
		c8.872,1.306,14.194,8.336,14.194,14.764c0,16.17,5.758,23.668,10.713,27.854C59.73,52.059,57.789,54,55.445,54z M53.638,49.715
		c-5.993-6.764-8.905-15.936-8.905-27.854c0-4.318-4.084-10.713-12.855-10.713c-8.771,0-12.855,6.395-12.855,10.713
		c0,11.918-2.913,21.09-8.905,27.854H53.638z M31.877,58.82c-2.645,0-4.821-2.176-4.821-4.82c0-0.303-0.234-0.535-0.536-0.535
		S25.985,53.697,25.985,54c0,3.246,2.645,5.893,5.892,5.893c0.301,0,0.536-0.234,0.536-0.537
		C32.413,59.055,32.178,58.82,31.877,58.82z"/>
</g>
</svg>
