<?xml version="1.0" encoding="utf-8"?>
<!-- Generator: Adobe Illustrator 16.0.0, SVG Export Plug-In . SVG Version: 6.00 Build 0)  -->
<!DOCTYPE svg PUBLIC "-//W3C//DTD SVG 1.1//EN" "http://www.w3.org/Graphics/SVG/1.1/DTD/svg11.dtd">
<svg version="1.1" id="Layer_1" xmlns="http://www.w3.org/2000/svg" xmlns:xlink="http://www.w3.org/1999/xlink" x="0px" y="0px"
	 width="64px" height="64px" viewBox="0 0 64 64" enable-background="new 0 0 64 64" xml:space="preserve">
<g>
	<path d="M45.782,30.267c4.888,1.171,7.968,4.084,7.365,10.612c-0.77,8.135-6.796,10.311-15.433,10.779v8.537h-5.156v-8.403
		c-1.306,0-2.678,0-4.084-0.033v8.437h-5.155v-8.537c-1.205,0-2.411-0.033-3.649-0.033h-6.695l1.037-6.126
		c3.783,0.066,3.717,0,3.717,0c1.439,0,1.841-1.038,1.941-1.708V30.333c0.167,0,0.368,0,0.535,0c-0.2-0.033-0.401-0.033-0.535-0.033
		v-9.608c-0.201-1.071-0.87-2.276-2.979-2.276c0,0,0.067-0.067-3.716,0v-5.49l7.097,0.033c1.038,0,2.143,0,3.248-0.033V4.488h5.155
		v8.269c1.373-0.033,2.745-0.066,4.084-0.066V4.488h5.156v8.437c6.628,0.569,11.884,2.611,12.453,8.704
		C50.604,26.081,48.729,28.76,45.782,30.267z M28.575,18.783v10.277c2.912,0,12.019,0.67,12.019-5.122
		C40.594,17.879,31.487,18.783,28.575,18.783z M28.575,34.217v11.315c3.481,0,14.396,0.736,14.396-5.658
		C42.971,33.246,32.057,34.217,28.575,34.217z"/>
</g>
</svg>
