<?xml version="1.0" encoding="utf-8"?>
<!-- Generator: Adobe Illustrator 16.0.0, SVG Export Plug-In . SVG Version: 6.00 Build 0)  -->
<!DOCTYPE svg PUBLIC "-//W3C//DTD SVG 1.1//EN" "http://www.w3.org/Graphics/SVG/1.1/DTD/svg11.dtd">
<svg version="1.1" id="Layer_1" xmlns="http://www.w3.org/2000/svg" xmlns:xlink="http://www.w3.org/1999/xlink" x="0px" y="0px"
	 width="64px" height="64px" viewBox="0 0 64 64" enable-background="new 0 0 64 64" xml:space="preserve">
<g>
	<path d="M63.003,8.648l-58.3,50.514c-0.405,0.344-1.059,0.312-1.401-0.123l-2.616-2.99c-0.342-0.436-0.312-1.059,0.094-1.402
		l5.792-5.014c-0.374-0.623-0.592-1.309-0.592-2.055c4.609-3.893,9.966-10.869,9.966-25.912c0-5.979,4.952-12.52,13.205-13.734
		c-0.156-0.374-0.249-0.778-0.249-1.214c0-1.65,1.339-2.99,2.99-2.99s2.989,1.339,2.989,2.99c0,0.436-0.093,0.841-0.249,1.214
		c5.357,0.779,9.312,3.8,11.43,7.475L59.079,4.102c0.404-0.342,1.059-0.311,1.401,0.125l2.615,2.99
		C63.438,7.652,63.407,8.275,63.003,8.648z M57.802,47.578c0,2.18-1.807,3.986-3.986,3.986H39.863c0,4.391-3.581,7.973-7.973,7.973
		c-4.391,0-7.941-3.551-7.973-7.941l24.604-21.333C50.109,39.543,54.189,44.525,57.802,47.578z M32.389,56.547
		c0-0.281-0.218-0.498-0.498-0.498c-2.46,0-4.484-2.025-4.484-4.484c0-0.281-0.218-0.498-0.499-0.498s-0.499,0.217-0.499,0.498
		c0,3.02,2.46,5.48,5.481,5.48C32.171,57.045,32.389,56.828,32.389,56.547z"/>
</g>
</svg>
