<?xml version="1.0" encoding="utf-8"?>
<!-- Generator: Adobe Illustrator 16.0.0, SVG Export Plug-In . SVG Version: 6.00 Build 0)  -->
<!DOCTYPE svg PUBLIC "-//W3C//DTD SVG 1.1//EN" "http://www.w3.org/Graphics/SVG/1.1/DTD/svg11.dtd">
<svg version="1.1" id="Layer_1" xmlns="http://www.w3.org/2000/svg" xmlns:xlink="http://www.w3.org/1999/xlink" x="0px" y="0px"
	 width="64px" height="64px" viewBox="0 0 64 64" enable-background="new 0 0 64 64" xml:space="preserve">
<g>
	<path d="M59.473,22.399L50.266,52.73c-0.836,2.845-3.782,5.055-6.662,5.055H12.704c-3.415,0-7.063-2.712-8.302-6.193
		c-0.536-1.507-0.536-2.979-0.067-4.252c0.067-0.669,0.201-1.339,0.234-2.143c0.033-0.535-0.268-0.971-0.201-1.372
		c0.134-0.804,0.837-1.373,1.373-2.276c1.004-1.674,2.143-4.386,2.511-6.127c0.167-0.636-0.167-1.372,0-1.941
		c0.167-0.637,0.804-1.104,1.139-1.708c0.904-1.539,2.075-4.519,2.243-6.093c0.067-0.703-0.268-1.473-0.067-2.009
		c0.234-0.77,0.971-1.104,1.473-1.774c0.803-1.104,2.143-4.285,2.343-6.059c0.067-0.569-0.268-1.139-0.167-1.741
		c0.134-0.636,0.938-1.306,1.473-2.075c1.406-2.076,1.674-6.662,5.926-5.457L22.58,6.665c0.569-0.135,1.138-0.302,1.708-0.302
		h25.476c1.574,0,2.98,0.703,3.816,1.875c0.871,1.205,1.072,2.778,0.604,4.352L45.01,42.921c-1.572,5.155-2.443,6.294-6.695,6.294
		H9.223c-0.436,0-0.971,0.101-1.272,0.502c-0.268,0.402-0.301,0.703-0.033,1.439c0.669,1.942,2.979,2.344,4.821,2.344h30.9
		c1.239,0,2.679-0.703,3.046-1.908l10.044-33.043c0.2-0.636,0.2-1.306,0.167-1.908c0.771,0.302,1.474,0.771,1.976,1.439
		C59.707,19.286,59.941,20.859,59.473,22.399z M21.208,27.789h20.355c0.568,0,1.205-0.469,1.406-1.071l0.703-2.143
		c0.2-0.603-0.135-1.071-0.737-1.071H22.58c-0.569,0-1.205,0.469-1.406,1.071l-0.703,2.143C20.27,27.32,20.605,27.789,21.208,27.789
		z M23.986,19.219h20.354c0.569,0,1.205-0.469,1.405-1.071l0.703-2.143c0.201-0.603-0.133-1.071-0.736-1.071H25.359
		c-0.569,0-1.205,0.469-1.406,1.071l-0.703,2.143C23.049,18.75,23.384,19.219,23.986,19.219z"/>
</g>
</svg>
