<?xml version="1.0" encoding="utf-8"?>
<!-- Generator: Adobe Illustrator 16.0.0, SVG Export Plug-In . SVG Version: 6.00 Build 0)  -->
<!DOCTYPE svg PUBLIC "-//W3C//DTD SVG 1.1//EN" "http://www.w3.org/Graphics/SVG/1.1/DTD/svg11.dtd">
<svg version="1.1" id="Layer_1" xmlns="http://www.w3.org/2000/svg" xmlns:xlink="http://www.w3.org/1999/xlink" x="0px" y="0px"
	 width="64px" height="64px" viewBox="0 0 64 64" enable-background="new 0 0 64 64" xml:space="preserve">
<g>
	<path d="M50.603,7.166c1.473,0.568,2.41,1.941,2.41,3.448v43.152c0,1.508-0.938,2.879-2.41,3.449
		c-0.469,0.201-0.972,0.268-1.474,0.268c-1.037,0-2.008-0.369-2.778-1.072L31.587,42.217L16.823,56.41
		c-0.77,0.703-1.741,1.105-2.779,1.105c-0.502,0-1.004-0.1-1.473-0.301c-1.473-0.57-2.41-1.941-2.41-3.449V10.614
		c0-1.507,0.938-2.88,2.41-3.448c0.469-0.201,0.971-0.302,1.473-0.302c1.038,0,34.047,0,35.084,0
		C49.631,6.864,50.134,6.964,50.603,7.166z M14.446,11.149v41.58l14.161-13.592l2.979-2.846l2.979,2.846l14.161,13.592v-41.58
		H14.446z"/>
</g>
</svg>
