<?xml version="1.0" encoding="utf-8"?>
<!-- Generator: Adobe Illustrator 16.0.0, SVG Export Plug-In . SVG Version: 6.00 Build 0)  -->
<!DOCTYPE svg PUBLIC "-//W3C//DTD SVG 1.1//EN" "http://www.w3.org/Graphics/SVG/1.1/DTD/svg11.dtd">
<svg version="1.1" id="Layer_1" xmlns="http://www.w3.org/2000/svg" xmlns:xlink="http://www.w3.org/1999/xlink" x="0px" y="0px"
	 width="64px" height="64px" viewBox="0 0 64 64" enable-background="new 0 0 64 64" xml:space="preserve">
<g>
	<path d="M55.355,54H40.357c0,4.721-3.85,8.57-8.57,8.57s-8.57-3.85-8.57-8.57H8.219c-2.343,0-4.285-1.941-4.285-4.285
		c4.955-4.185,10.713-11.684,10.713-27.854c0-6.428,5.323-13.458,14.194-14.764c-0.167-0.401-0.268-0.837-0.268-1.306
		c0-1.774,1.439-3.214,3.214-3.214c1.775,0,3.214,1.439,3.214,3.214c0,0.469-0.102,0.904-0.268,1.306
		c8.871,1.306,14.193,8.336,14.193,14.764c0,16.17,5.759,23.669,10.713,27.854C59.641,52.059,57.699,54,55.355,54z M31.788,58.82
		c-2.645,0-4.821-2.176-4.821-4.82c0-0.302-0.234-0.535-0.536-0.535S25.896,53.698,25.896,54c0,3.247,2.645,5.893,5.892,5.893
		c0.301,0,0.536-0.234,0.536-0.536S32.089,58.82,31.788,58.82z"/>
</g>
</svg>
