<?xml version="1.0" encoding="utf-8"?>
<!-- Generator: Adobe Illustrator 16.0.0, SVG Export Plug-In . SVG Version: 6.00 Build 0)  -->
<!DOCTYPE svg PUBLIC "-//W3C//DTD SVG 1.1//EN" "http://www.w3.org/Graphics/SVG/1.1/DTD/svg11.dtd">
<svg version="1.1" id="Layer_1" xmlns="http://www.w3.org/2000/svg" xmlns:xlink="http://www.w3.org/1999/xlink" x="0px" y="0px"
	 width="64px" height="64px" viewBox="0 0 64 64" enable-background="new 0 0 64 64" xml:space="preserve">
<g>
	<path d="M47.823,22.91L29.745,61.644c-0.268,0.502-0.804,0.837-1.406,0.837c-0.134,0-0.301-0.033-0.469-0.067
		c-0.736-0.234-1.171-0.937-1.004-1.64l6.595-27.051l-13.592,3.382c-0.134,0.033-0.268,0.033-0.402,0.033
		c-0.368,0-0.77-0.134-1.038-0.368c-0.402-0.335-0.536-0.837-0.435-1.306l6.729-27.619c0.167-0.636,0.77-1.071,1.473-1.071h10.981
		c0.836,0,1.506,0.636,1.506,1.406c0,0.201-0.066,0.401-0.168,0.603l-5.724,15.5l13.257-3.28c0.134-0.034,0.268-0.067,0.402-0.067
		c0.435,0,0.836,0.201,1.138,0.502C47.957,21.839,48.058,22.407,47.823,22.91z"/>
</g>
</svg>
