<?xml version="1.0" encoding="utf-8"?>
<!-- Generator: Adobe Illustrator 16.0.0, SVG Export Plug-In . SVG Version: 6.00 Build 0)  -->
<!DOCTYPE svg PUBLIC "-//W3C//DTD SVG 1.1//EN" "http://www.w3.org/Graphics/SVG/1.1/DTD/svg11.dtd">
<svg version="1.1" id="Layer_1" xmlns="http://www.w3.org/2000/svg" xmlns:xlink="http://www.w3.org/1999/xlink" x="0px" y="0px"
	 width="64px" height="64px" viewBox="0 0 64 64" enable-background="new 0 0 64 64" xml:space="preserve">
<g>
	<path d="M62.91,7.389c0.342,0.435,0.311,1.056-0.093,1.429L4.689,59.183c-0.404,0.342-1.056,0.311-1.397-0.124l-2.608-2.98
		c-0.341-0.435-0.311-1.056,0.093-1.397l5.775-4.999c-0.373-0.621-0.59-1.305-0.59-2.05c4.596-3.882,9.937-10.837,9.937-25.835
		c0-5.962,4.937-12.483,13.166-13.694c-0.155-0.373-0.249-0.776-0.249-1.211c0-1.646,1.335-2.981,2.981-2.981
		s2.981,1.335,2.981,2.981c0,0.435-0.094,0.838-0.249,1.211c5.341,0.776,9.284,3.789,11.396,7.453L58.905,4.284
		c0.403-0.341,1.056-0.311,1.397,0.125L62.91,7.389z M42.852,18.226c-1.553-3.261-5.155-6.366-11.055-6.366
		c-8.136,0-11.924,5.931-11.924,9.937c0,7.949-1.397,14.595-4.254,20.028L42.852,18.226z M53.657,51.606H39.746
		c0,4.378-3.571,7.949-7.949,7.949c-4.378,0-7.918-3.54-7.949-7.918l4.626-4.006H51.98c-3.446-3.882-5.775-8.602-7.049-14.253
		l3.447-3.012c1.583,9.253,5.651,14.222,9.253,17.265C57.632,49.806,55.831,51.606,53.657,51.606z M31.797,56.078
		c-2.453,0-4.472-2.019-4.472-4.472c0-0.279-0.217-0.497-0.497-0.497s-0.497,0.218-0.497,0.497c0,3.012,2.453,5.465,5.465,5.465
		c0.279,0,0.497-0.217,0.497-0.496C32.294,56.295,32.076,56.078,31.797,56.078z"/>
</g>
</svg>
