<?xml version="1.0" encoding="utf-8"?>
<!-- Generator: Adobe Illustrator 16.0.0, SVG Export Plug-In . SVG Version: 6.00 Build 0)  -->
<!DOCTYPE svg PUBLIC "-//W3C//DTD SVG 1.1//EN" "http://www.w3.org/Graphics/SVG/1.1/DTD/svg11.dtd">
<svg version="1.1" id="Layer_1" xmlns="http://www.w3.org/2000/svg" xmlns:xlink="http://www.w3.org/1999/xlink" x="0px" y="0px"
	 width="64px" height="64px" viewBox="0 0 64 64" enable-background="new 0 0 64 64" xml:space="preserve">
<g>
	<path d="M62.922,14.48v4.135h-4.135c0,1.13-1.001,2.067-2.229,2.067H7.264c-1.228,0-2.229-0.937-2.229-2.067H0.9V14.48
		L31.911,2.076L62.922,14.48z M62.922,55.828v4.135H0.9v-4.135c0-1.131,1.001-2.067,2.229-2.067h57.564
		C61.921,53.761,62.922,54.697,62.922,55.828z M17.439,22.75v24.809h4.135V22.75h8.27v24.809h4.135V22.75h8.27v24.809h4.135V22.75
		h8.27v24.809h1.906c1.228,0,2.229,0.937,2.229,2.067v2.067H5.035v-2.067c0-1.131,1.001-2.067,2.229-2.067H9.17V22.75H17.439z"/>
</g>
</svg>
