<?xml version="1.0" encoding="utf-8"?>
<!-- Generator: Adobe Illustrator 16.0.0, SVG Export Plug-In . SVG Version: 6.00 Build 0)  -->
<!DOCTYPE svg PUBLIC "-//W3C//DTD SVG 1.1//EN" "http://www.w3.org/Graphics/SVG/1.1/DTD/svg11.dtd">
<svg version="1.1" id="Layer_1" xmlns="http://www.w3.org/2000/svg" xmlns:xlink="http://www.w3.org/1999/xlink" x="0px" y="0px"
	 width="64px" height="64px" viewBox="0 0 64 64" enable-background="new 0 0 64 64" xml:space="preserve">
<g>
	<path d="M31.461,57.688c-14.194,0-25.711-11.517-25.711-25.711S17.267,6.267,31.461,6.267s25.711,11.517,25.711,25.711
		S45.655,57.688,31.461,57.688z M43.58,38.037l-6.06-6.06l6.06-6.06c0.401-0.401,0.636-0.938,0.636-1.507
		c0-0.568-0.234-1.138-0.636-1.539l-3.014-3.014c-0.401-0.401-0.971-0.636-1.539-0.636c-0.569,0-1.105,0.234-1.507,0.636l-6.06,6.06
		l-6.06-6.06c-0.402-0.401-0.938-0.636-1.506-0.636c-0.569,0-1.138,0.234-1.54,0.636l-3.013,3.014
		c-0.401,0.401-0.636,0.971-0.636,1.539c0,0.569,0.234,1.105,0.636,1.507l6.06,6.06l-6.06,6.06
		c-0.401,0.401-0.636,0.938-0.636,1.507c0,0.568,0.234,1.138,0.636,1.539l3.013,3.014c0.402,0.401,0.971,0.636,1.54,0.636
		c0.569,0,1.104-0.234,1.506-0.636l6.06-6.06l6.06,6.06c0.401,0.401,0.938,0.636,1.507,0.636c0.568,0,1.138-0.234,1.539-0.636
		l3.014-3.014c0.401-0.401,0.636-0.971,0.636-1.539C44.216,38.975,43.981,38.438,43.58,38.037z"/>
</g>
</svg>
