<?xml version="1.0" encoding="utf-8"?>
<!-- Generator: Adobe Illustrator 16.0.0, SVG Export Plug-In . SVG Version: 6.00 Build 0)  -->
<!DOCTYPE svg PUBLIC "-//W3C//DTD SVG 1.1//EN" "http://www.w3.org/Graphics/SVG/1.1/DTD/svg11.dtd">
<svg version="1.1" id="Layer_1" xmlns="http://www.w3.org/2000/svg" xmlns:xlink="http://www.w3.org/1999/xlink" x="0px" y="0px"
	 width="64px" height="64px" viewBox="0 0 64 64" enable-background="new 0 0 64 64" xml:space="preserve">
<g>
	<path d="M62.98,48.722c0,1.99-1.587,3.604-3.551,3.604H4.551C2.587,52.326,1,50.712,1,48.722V14.611
		c0-1.991,1.587-3.605,3.551-3.605H59.43c1.964,0,3.551,1.614,3.551,3.605V48.722z M6.407,23.972H3.852v8.958h2.556
		c1.345,0,2.34-0.295,3.201-1.021c1.022-0.861,1.614-2.125,1.614-3.443C11.223,25.829,9.259,23.972,6.407,23.972z M8.452,30.725
		c-0.538,0.484-1.264,0.699-2.394,0.699H5.6v-5.918h0.458c1.13,0,1.829,0.188,2.394,0.726C9.07,26.77,9.42,27.604,9.42,28.465
		S9.07,30.16,8.452,30.725z M13.778,32.93v-8.958h-1.749v8.958H13.778z M18.055,27.416c-1.049-0.376-1.345-0.646-1.345-1.13
		c0-0.565,0.538-0.995,1.291-0.995c0.538,0,0.969,0.215,1.426,0.726l0.915-1.184c-0.753-0.672-1.667-0.995-2.636-0.995
		c-1.587,0-2.798,1.103-2.798,2.556c0,1.237,0.565,1.883,2.206,2.475c0.672,0.242,1.022,0.377,1.21,0.511
		c0.35,0.215,0.511,0.538,0.511,0.915c0,0.727-0.565,1.265-1.345,1.265c-0.833,0-1.506-0.404-1.91-1.184l-1.13,1.076
		c0.807,1.184,1.775,1.721,3.094,1.721c1.829,0,3.093-1.21,3.093-2.958C20.638,28.788,20.046,28.142,18.055,27.416z M61.259,34.706
		c-4.304,2.689-19.449,11.298-43.93,15.898h42.208c0.941,0,1.722-0.78,1.722-1.722V34.706z M28.116,30.563
		c-0.699,0.7-1.318,0.996-2.098,0.996c-1.775,0-3.013-1.292-3.013-3.094c0-1.722,1.291-3.094,2.932-3.094
		c0.834,0,1.453,0.296,2.179,1.022v-2.072c-0.753-0.376-1.398-0.538-2.152-0.538c-2.636,0-4.762,2.071-4.762,4.681
		c0,2.636,2.072,4.681,4.735,4.681c0.753,0,1.399-0.134,2.179-0.511V30.563z M33.497,23.649c-2.69,0-4.87,2.179-4.87,4.869
		s2.179,4.869,4.87,4.869c2.689,0,4.869-2.179,4.869-4.869S36.187,23.649,33.497,23.649z M46.328,23.972h-1.909l-2.422,6.026
		l-2.394-6.026h-1.91l3.82,9.2h0.941L46.328,23.972z M52.059,32.93v-1.506h-3.201v-2.421h3.094v-1.507h-3.094v-1.99h3.201v-1.534
		h-4.95v8.958H52.059z M59.779,32.93l-2.824-3.766c1.317-0.269,2.044-1.157,2.044-2.529c0-1.694-1.156-2.663-3.174-2.663h-2.61
		v8.958h1.749v-3.577h0.242l2.421,3.577H59.779z M55.475,28.115h-0.511v-2.717h0.538c1.103,0,1.694,0.458,1.694,1.318
		C57.196,27.631,56.604,28.115,55.475,28.115z"/>
</g>
</svg>
