<?xml version="1.0" encoding="utf-8"?>
<!-- Generator: Adobe Illustrator 16.0.0, SVG Export Plug-In . SVG Version: 6.00 Build 0)  -->
<!DOCTYPE svg PUBLIC "-//W3C//DTD SVG 1.1//EN" "http://www.w3.org/Graphics/SVG/1.1/DTD/svg11.dtd">
<svg version="1.1" id="Layer_1" xmlns="http://www.w3.org/2000/svg" xmlns:xlink="http://www.w3.org/1999/xlink" x="0px" y="0px"
	 width="64px" height="64px" viewBox="0 0 64 64" enable-background="new 0 0 64 64" xml:space="preserve">
<g enable-background="new    ">
	<path d="M31.586,57.66c-14.194,0-25.711-11.517-25.711-25.711S17.392,6.238,31.586,6.238s25.711,11.517,25.711,25.711
		S45.78,57.66,31.586,57.66z M45.077,33.456c0.837-0.837,0.837-2.177,0-3.014L29.878,15.244c-0.837-0.837-2.176-0.837-3.013,0
		l-3.415,3.415c-0.837,0.837-0.837,2.176,0,3.013l10.278,10.277L23.451,42.227c-0.837,0.837-0.837,2.177,0,3.014l3.415,3.414
		c0.837,0.837,2.176,0.837,3.013,0L45.077,33.456z"/>
</g>
</svg>
