<?xml version="1.0" encoding="utf-8"?>
<!-- Generator: Adobe Illustrator 16.0.0, SVG Export Plug-In . SVG Version: 6.00 Build 0)  -->
<!DOCTYPE svg PUBLIC "-//W3C//DTD SVG 1.1//EN" "http://www.w3.org/Graphics/SVG/1.1/DTD/svg11.dtd">
<svg version="1.1" id="Layer_1" xmlns="http://www.w3.org/2000/svg" xmlns:xlink="http://www.w3.org/1999/xlink" x="0px" y="0px"
	 width="64px" height="64px" viewBox="0 0 64 64" enable-background="new 0 0 64 64" xml:space="preserve">
<g>
	<path d="M63.273,20.057v29.107c0,4.58-3.736,8.316-8.316,8.316H9.217c-4.581,0-8.316-3.736-8.316-8.316V20.057
		c0-4.581,3.736-8.316,8.316-8.316h7.277l1.657-4.418c0.812-2.144,3.346-3.898,5.62-3.898h16.633c2.274,0,4.808,1.754,5.62,3.898
		l1.656,4.418h7.277C59.537,11.74,63.273,15.476,63.273,20.057z M46.641,34.61c0-8.024-6.529-14.554-14.554-14.554
		c-8.024,0-14.554,6.53-14.554,14.554c0,8.024,6.53,14.554,14.554,14.554C40.111,49.164,46.641,42.635,46.641,34.61z M41.443,34.61
		c0,5.165-4.191,9.356-9.356,9.356s-9.356-4.191-9.356-9.356s4.191-9.356,9.356-9.356S41.443,29.445,41.443,34.61z"/>
</g>
</svg>
