<?xml version="1.0" encoding="utf-8"?>
<!-- Generator: Adobe Illustrator 16.0.0, SVG Export Plug-In . SVG Version: 6.00 Build 0)  -->
<!DOCTYPE svg PUBLIC "-//W3C//DTD SVG 1.1//EN" "http://www.w3.org/Graphics/SVG/1.1/DTD/svg11.dtd">
<svg version="1.1" id="Layer_1" xmlns="http://www.w3.org/2000/svg" xmlns:xlink="http://www.w3.org/1999/xlink" x="0px" y="0px"
	 width="64px" height="64px" viewBox="0 0 64 64" enable-background="new 0 0 64 64" xml:space="preserve">
<g>
	<path d="M32.322,58.286c-14.194,0-25.711-11.517-25.711-25.711S18.128,6.864,32.322,6.864s25.711,11.517,25.711,25.711
		S46.517,58.286,32.322,58.286z M32.322,14.363c-10.043,0-18.212,8.168-18.212,18.212c0,10.044,8.168,18.212,18.212,18.212
		c10.043,0,18.212-8.168,18.212-18.212C50.534,22.532,42.365,14.363,32.322,14.363z M31.686,43.924
		c-0.837,0.838-2.176,0.838-3.013,0l-9.843-9.842c-0.837-0.838-0.837-2.176,0-3.013l3.415-3.415c0.837-0.837,2.176-0.837,3.013,0
		l4.921,4.921l9.207-9.207c0.836-0.837,2.176-0.837,3.012,0l3.416,3.415c0.836,0.837,0.836,2.176,0,3.013L31.686,43.924z"/>
</g>
</svg>
