<?xml version="1.0" encoding="utf-8"?>
<!-- Generator: Adobe Illustrator 16.0.0, SVG Export Plug-In . SVG Version: 6.00 Build 0)  -->
<!DOCTYPE svg PUBLIC "-//W3C//DTD SVG 1.1//EN" "http://www.w3.org/Graphics/SVG/1.1/DTD/svg11.dtd">
<svg version="1.1" id="Layer_1" xmlns="http://www.w3.org/2000/svg" xmlns:xlink="http://www.w3.org/1999/xlink" x="0px" y="0px"
	 width="64px" height="64px" viewBox="0 0 64 64" enable-background="new 0 0 64 64" xml:space="preserve">
<g>
	<path d="M51.267,48.266l-4.553,4.553c-0.603,0.603-1.439,0.938-2.276,0.938s-1.674-0.335-2.277-0.938l-9.842-9.843l-9.842,9.843
		c-0.603,0.603-1.44,0.938-2.277,0.938s-1.674-0.335-2.276-0.938l-4.553-4.553c-0.603-0.603-0.938-1.439-0.938-2.276
		s0.335-1.674,0.938-2.276l9.842-9.843l-9.842-9.843c-0.603-0.603-0.938-1.439-0.938-2.276s0.335-1.674,0.938-2.276l4.553-4.553
		c0.603-0.603,1.439-0.938,2.276-0.938s1.674,0.335,2.277,0.938l9.842,9.843l9.842-9.843c0.604-0.603,1.44-0.938,2.277-0.938
		s1.674,0.335,2.276,0.938l4.553,4.553c0.603,0.603,0.938,1.439,0.938,2.276s-0.335,1.674-0.938,2.276l-9.843,9.843l9.843,9.843
		c0.603,0.603,0.938,1.439,0.938,2.276S51.869,47.663,51.267,48.266z"/>
</g>
</svg>
