<?xml version="1.0" encoding="utf-8"?>
<!-- Generator: Adobe Illustrator 16.0.0, SVG Export Plug-In . SVG Version: 6.00 Build 0)  -->
<!DOCTYPE svg PUBLIC "-//W3C//DTD SVG 1.1//EN" "http://www.w3.org/Graphics/SVG/1.1/DTD/svg11.dtd">
<svg version="1.1" id="Layer_1" xmlns="http://www.w3.org/2000/svg" xmlns:xlink="http://www.w3.org/1999/xlink" x="0px" y="0px"
	 width="64px" height="64px" viewBox="0 0 64 64" enable-background="new 0 0 64 64" xml:space="preserve">
<g>
	<path d="M62.762,49.308c0,1.857-1.539,3.396-3.396,3.396H5.021c-1.857,0-3.396-1.539-3.396-3.396V15.343
		c0-1.857,1.539-3.396,3.396-3.396h54.344c1.857,0,3.396,1.539,3.396,3.396V49.308z M14.176,25.267
		c-0.212-1.088-1.035-1.433-1.99-1.433H5.074l-0.053,0.345c4.882,1.248,8.889,3.901,10.694,8.916L14.176,25.267z M16.166,35.456
		l-0.451-2.361c-0.929-2.468-3.185-4.75-5.732-5.785l3.583,13.533h4.644l6.926-17.009h-4.67L16.166,35.456z M28.558,40.869
		l2.76-17.035h-4.405l-2.76,17.035H28.558z M40.578,23.542c-4.352,0-7.403,2.309-7.43,5.625c-0.026,2.441,2.176,3.794,3.848,4.617
		c1.725,0.823,2.281,1.38,2.281,2.123c0,1.142-1.38,1.646-2.627,1.646c-1.777,0-2.732-0.213-4.139-0.876l-0.584-0.292l-0.61,3.821
		c1.035,0.478,2.919,0.902,4.909,0.902c4.617,0.026,7.615-2.282,7.668-5.812c0-1.937-1.193-3.396-3.715-4.617
		c-1.539-0.77-2.468-1.327-2.468-2.123c0-0.716,0.796-1.459,2.521-1.459c1.433-0.026,2.494,0.266,3.29,0.637l0.397,0.212l0.61-3.688
		C43.656,23.914,42.276,23.542,40.578,23.542z M52.412,23.834c-1.061,0-1.857,0.318-2.308,1.433l-6.528,15.602h4.617
		c0.743-2.096,0.929-2.547,0.929-2.547c0.504,0,4.988,0,5.626,0c0,0,0.132,0.584,0.53,2.547h4.087l-3.557-17.035H52.412z
		 M50.369,34.819c0,0,0.372-0.981,1.752-4.75c-0.027,0.026,0.371-0.982,0.583-1.619l0.318,1.459c0.823,4.06,1.009,4.909,1.009,4.909
		C53.341,34.819,51.245,34.819,50.369,34.819z"/>
</g>
</svg>
