<?xml version="1.0" encoding="utf-8"?>
<!-- Generator: Adobe Illustrator 16.0.0, SVG Export Plug-In . SVG Version: 6.00 Build 0)  -->
<!DOCTYPE svg PUBLIC "-//W3C//DTD SVG 1.1//EN" "http://www.w3.org/Graphics/SVG/1.1/DTD/svg11.dtd">
<svg version="1.1" id="Layer_1" xmlns="http://www.w3.org/2000/svg" xmlns:xlink="http://www.w3.org/1999/xlink" x="0px" y="0px"
	 width="64px" height="64px" viewBox="0 0 64 64" enable-background="new 0 0 64 64" xml:space="preserve">
<g>
	<path d="M41.709,35.286l-15.6,15.602c-0.201,0.2-0.502,0.334-0.77,0.334s-0.569-0.134-0.77-0.334l-1.674-1.675
		c-0.201-0.2-0.335-0.468-0.335-0.77c0-0.268,0.134-0.569,0.335-0.77l13.157-13.157L22.895,21.359
		c-0.201-0.2-0.335-0.502-0.335-0.77s0.134-0.569,0.335-0.77l1.674-1.675c0.201-0.2,0.502-0.334,0.77-0.334s0.569,0.134,0.77,0.334
		l15.6,15.602c0.201,0.2,0.336,0.502,0.336,0.77S41.91,35.086,41.709,35.286z"/>
</g>
</svg>
