<?xml version="1.0" encoding="utf-8"?>
<!-- Generator: Adobe Illustrator 16.0.0, SVG Export Plug-In . SVG Version: 6.00 Build 0)  -->
<!DOCTYPE svg PUBLIC "-//W3C//DTD SVG 1.1//EN" "http://www.w3.org/Graphics/SVG/1.1/DTD/svg11.dtd">
<svg version="1.1" id="Layer_1" xmlns="http://www.w3.org/2000/svg" xmlns:xlink="http://www.w3.org/1999/xlink" x="0px" y="0px"
	 width="64px" height="64px" viewBox="0 0 64 64" enable-background="new 0 0 64 64" xml:space="preserve">
<g>
	<path d="M62.564,48.912c0,1.863-1.544,3.406-3.406,3.406h-54.5c-1.863,0-3.406-1.543-3.406-3.406V14.85
		c0-1.863,1.543-3.406,3.406-3.406h54.5c1.862,0,3.406,1.543,3.406,3.406V48.912z M35.606,14.85h-8.01
		c-9.42,0-17.191,7.025-17.191,17.191c0,9.288,7.771,16.872,17.191,16.872h8.01c9.314,0,17.804-7.584,17.804-16.872
		C53.41,21.875,44.921,14.85,35.606,14.85z M27.623,47.448c-8.595,0-15.594-6.999-15.594-15.594c0-8.622,6.999-15.595,15.594-15.595
		c8.622,0,15.595,6.973,15.595,15.595C43.218,40.449,36.245,47.448,27.623,47.448z M24.084,22.62
		c-3.699,1.437-6.333,5.029-6.333,9.234c0,4.204,2.634,7.797,6.333,9.207V22.62z M31.163,22.62v18.468
		c3.699-1.437,6.333-5.029,6.333-9.233C37.496,27.649,34.861,24.057,31.163,22.62z"/>
</g>
</svg>
