<?xml version="1.0" encoding="utf-8"?>
<!-- Generator: Adobe Illustrator 16.0.0, SVG Export Plug-In . SVG Version: 6.00 Build 0)  -->
<!DOCTYPE svg PUBLIC "-//W3C//DTD SVG 1.1//EN" "http://www.w3.org/Graphics/SVG/1.1/DTD/svg11.dtd">
<svg version="1.1" id="Layer_1" xmlns="http://www.w3.org/2000/svg" xmlns:xlink="http://www.w3.org/1999/xlink" x="0px" y="0px"
	 width="64px" height="64px" viewBox="0 0 64 64" enable-background="new 0 0 64 64" xml:space="preserve">
<g>
	<path d="M62.354,48.435c0,1.939-1.567,3.56-3.507,3.56H4.654c-1.939,0-3.507-1.62-3.507-3.56V30.423h2.949l0.664-1.621h1.461
		l0.664,1.621h5.791v-1.222l0.505,1.222h3.002l0.531-1.249v1.249h14.372v-2.63l0.266-0.026c0.239,0,0.266,0.186,0.266,0.372v2.285
		h7.412v-0.611c1.727,0.903,4.091,0.611,5.897,0.611l0.664-1.621h1.487l0.664,1.621h6.03v-1.541l0.903,1.541h4.835V20.381H54.73
		v1.168l-0.664-1.168h-4.915v1.168l-0.611-1.168h-6.614c-0.983,0-2.02,0.106-2.896,0.584v-0.584h-4.569v0.584
		c-0.531-0.479-1.249-0.584-1.939-0.584H15.838l-1.143,2.577l-1.142-2.577h-5.26v1.168l-0.584-1.168H3.22l-2.072,4.755V14.749
		c0-1.939,1.567-3.56,3.507-3.56h54.193c1.939,0,3.507,1.621,3.507,3.56v18.012h-3.188c-0.744,0-1.541,0.133-2.152,0.584v-0.584
		h-4.702c-0.664,0-1.567,0.106-2.072,0.584v-0.584h-8.395v0.584c-0.638-0.451-1.567-0.584-2.311-0.584h-5.553v0.584
		c-0.558-0.53-1.7-0.584-2.417-0.584h-6.217l-1.435,1.541l-1.328-1.541h-9.271v10.042h9.112l1.461-1.567l1.381,1.567h5.605v-2.364
		h0.558c0.797,0,1.621-0.027,2.391-0.346v2.71h4.622v-2.63h0.213c0.266,0,0.318,0.026,0.318,0.318v2.312H53.03
		c0.771,0,1.727-0.16,2.338-0.638v0.638h4.463c0.85,0,1.753-0.08,2.523-0.452V48.435z M19.717,28.988h-1.753v-5.632l-2.497,5.632
		h-1.514l-2.497-5.632v5.632H7.948l-0.664-1.594H3.698l-0.664,1.594h-1.86l3.082-7.199h2.55l2.922,6.827v-6.827h2.816l2.258,4.888
		l2.045-4.888h2.869V28.988z M6.673,25.907l-1.195-2.869l-1.169,2.869H6.673z M29.36,38.977v2.418h-3.347l-2.125-2.391l-2.205,2.391
		h-6.801v-7.199h6.907l2.125,2.364l2.178-2.364h5.5c1.62,0,2.896,0.558,2.896,2.364C34.487,39.455,31.326,38.977,29.36,38.977z
		 M22.772,37.781l-1.86-2.099h-4.33v1.302h3.772v1.461h-3.772v1.435h4.224L22.772,37.781z M26.757,28.988h-5.765v-7.199h5.765v1.514
		h-4.038v1.302h3.932v1.461h-3.932V27.5h4.038V28.988z M27.633,40.73v-5.765l-2.63,2.843L27.633,40.73z M33.637,25.667
		c0.983,0.346,1.143,0.957,1.143,1.913v1.408h-1.727c-0.026-1.541,0.372-2.604-1.541-2.604h-1.859v2.604h-1.7v-7.199l4.064,0.026
		c1.382,0,2.843,0.213,2.843,1.913C34.859,24.552,34.407,25.349,33.637,25.667z M31.592,35.683H29.36v1.833h2.206
		c0.61,0,1.089-0.292,1.089-0.956C32.654,35.922,32.176,35.683,31.592,35.683z M31.831,23.303h-2.179v1.594h2.151
		c0.585,0,1.143-0.133,1.143-0.824C32.946,23.41,32.362,23.303,31.831,23.303z M40.996,38.047c0.956,0.346,1.142,0.983,1.142,1.913
		v1.435h-1.727v-1.195c0-1.223-0.398-1.435-1.541-1.435h-1.833v2.63h-1.727v-7.199h4.092c1.354,0,2.815,0.239,2.815,1.939
		C42.218,36.932,41.793,37.729,40.996,38.047z M37.596,28.988h-1.754v-7.199h1.754V28.988z M39.216,35.683h-2.179v1.621h2.152
		c0.584,0,1.143-0.133,1.143-0.851C40.332,35.789,39.747,35.683,39.216,35.683z M57.971,28.988h-2.443l-3.241-5.393v5.393h-3.507
		l-0.69-1.594h-3.56l-0.664,1.594h-1.993c-2.364,0-3.427-1.222-3.427-3.533c0-2.417,1.09-3.666,3.533-3.666h1.674v1.567
		c-1.807-0.026-3.453-0.425-3.453,2.045c0,1.222,0.292,2.072,1.673,2.072h0.771l2.444-5.659h2.577l2.896,6.801v-6.801h2.63
		l3.028,4.995v-4.995h1.753V28.988z M48.912,41.395h-5.738v-7.199h5.738v1.487h-4.011v1.302h3.932v1.461h-3.932v1.435l4.011,0.027
		V41.395z M47.504,25.907l-1.168-2.869l-1.196,2.869H47.504z M53.296,41.395h-3.348v-1.541h3.348c0.425,0,0.903-0.106,0.903-0.664
		c0-1.541-4.437,0.585-4.437-2.843c0-1.461,1.115-2.151,2.443-2.151h3.454v1.514h-3.161c-0.452,0-0.957,0.08-0.957,0.665
		c0,1.567,4.463-0.718,4.463,2.735C56.005,40.81,54.837,41.395,53.296,41.395z M62.354,40.465c-0.505,0.744-1.487,0.93-2.338,0.93
		h-3.32v-1.541h3.32c0.425,0,0.877-0.133,0.877-0.664c0-1.514-4.437,0.585-4.437-2.843c0-1.461,1.143-2.151,2.471-2.151h3.427v1.514
		H59.22c-0.479,0-0.956,0.08-0.956,0.665c0,1.274,3.002-0.027,4.091,1.407V40.465z"/>
</g>
</svg>
