<?xml version="1.0" encoding="utf-8"?>
<!-- Generator: Adobe Illustrator 16.0.0, SVG Export Plug-In . SVG Version: 6.00 Build 0)  -->
<!DOCTYPE svg PUBLIC "-//W3C//DTD SVG 1.1//EN" "http://www.w3.org/Graphics/SVG/1.1/DTD/svg11.dtd">
<svg version="1.1" id="Layer_1" xmlns="http://www.w3.org/2000/svg" xmlns:xlink="http://www.w3.org/1999/xlink" x="0px" y="0px"
	 width="64px" height="64px" viewBox="0 0 64 64" enable-background="new 0 0 64 64" xml:space="preserve">
<g>
	<path d="M59.858,57.925c0,2.344-1.942,4.285-4.285,4.285H8.437c-2.343,0-4.285-1.941-4.285-4.285V15.073
		c0-2.344,1.942-4.285,4.285-4.285h4.285V7.574c0-2.946,2.41-5.356,5.356-5.356h2.143c2.946,0,5.356,2.41,5.356,5.356v3.214h12.855
		V7.574c0-2.946,2.41-5.356,5.356-5.356h2.143c2.946,0,5.356,2.41,5.356,5.356v3.214h4.285c2.343,0,4.285,1.941,4.285,4.285V57.925z
		 M18.078,33.285v-9.642H8.437v9.642H18.078z M18.078,46.141V35.428H8.437v10.713H18.078z M18.078,57.925v-9.642H8.437v9.642H18.078
		z M21.292,7.574c0-0.569-0.502-1.071-1.071-1.071h-2.143c-0.569,0-1.071,0.502-1.071,1.071v9.642c0,0.569,0.502,1.071,1.071,1.071
		h2.143c0.569,0,1.071-0.502,1.071-1.071V7.574z M30.934,33.285v-9.642H20.221v9.642H30.934z M30.934,46.141V35.428H20.221v10.713
		H30.934z M30.934,57.925v-9.642H20.221v9.642H30.934z M43.789,33.285v-9.642H33.076v9.642H43.789z M43.789,46.141V35.428H33.076
		v10.713H43.789z M43.789,57.925v-9.642H33.076v9.642H43.789z M47.003,7.574c0-0.569-0.502-1.071-1.071-1.071h-2.143
		c-0.569,0-1.071,0.502-1.071,1.071v9.642c0,0.569,0.502,1.071,1.071,1.071h2.143c0.569,0,1.071-0.502,1.071-1.071V7.574z
		 M55.573,33.285v-9.642h-9.642v9.642H55.573z M55.573,46.141V35.428h-9.642v10.713H55.573z M55.573,57.925v-9.642h-9.642v9.642
		H55.573z"/>
</g>
</svg>
