<?xml version="1.0" encoding="utf-8"?>
<!-- Generator: Adobe Illustrator 16.0.0, SVG Export Plug-In . SVG Version: 6.00 Build 0)  -->
<!DOCTYPE svg PUBLIC "-//W3C//DTD SVG 1.1//EN" "http://www.w3.org/Graphics/SVG/1.1/DTD/svg11.dtd">
<svg version="1.1" id="Layer_1" xmlns="http://www.w3.org/2000/svg" xmlns:xlink="http://www.w3.org/1999/xlink" x="0px" y="0px"
	 width="64px" height="64px" viewBox="0 0 64 64" enable-background="new 0 0 64 64" xml:space="preserve">
<g>
	<path d="M31.086,49.715c0,1.172-0.971,2.143-2.143,2.143c-0.569,0-1.105-0.234-1.506-0.636L22.616,46.4L11.501,57.516
		c-0.201,0.2-0.502,0.334-0.77,0.334s-0.569-0.134-0.77-0.334l-3.816-3.817c-0.201-0.2-0.335-0.502-0.335-0.77
		s0.134-0.569,0.335-0.77L17.26,41.044l-4.821-4.82c-0.402-0.402-0.636-0.938-0.636-1.507c0-1.172,0.971-2.143,2.143-2.143h14.998
		c1.172,0,2.143,0.971,2.143,2.143V49.715z M56.027,12.989L44.912,24.104l4.82,4.82c0.402,0.402,0.637,0.938,0.637,1.507
		c0,1.172-0.971,2.143-2.143,2.143H33.229c-1.172,0-2.143-0.971-2.143-2.143V15.434c0-1.172,0.971-2.143,2.143-2.143
		c0.569,0,1.105,0.234,1.506,0.636l4.821,4.821L50.67,7.633c0.201-0.2,0.503-0.334,0.771-0.334s0.569,0.134,0.771,0.334l3.816,3.817
		c0.2,0.2,0.334,0.502,0.334,0.77S56.228,12.789,56.027,12.989z"/>
</g>
</svg>
