<?xml version="1.0" encoding="utf-8"?>
<!-- Generator: Adobe Illustrator 16.0.0, SVG Export Plug-In . SVG Version: 6.00 Build 0)  -->
<!DOCTYPE svg PUBLIC "-//W3C//DTD SVG 1.1//EN" "http://www.w3.org/Graphics/SVG/1.1/DTD/svg11.dtd">
<svg version="1.1" id="Layer_1" xmlns="http://www.w3.org/2000/svg" xmlns:xlink="http://www.w3.org/1999/xlink" x="0px" y="0px"
	 width="64px" height="64px" viewBox="0 0 64 64" enable-background="new 0 0 64 64" xml:space="preserve">
<g>
	<path d="M31.979,58.035c-14.194,0-25.711-11.517-25.711-25.711S17.785,6.613,31.979,6.613c14.195,0,25.71,11.517,25.71,25.711
		S46.174,58.035,31.979,58.035z M48.685,30.617c0.837-0.837,0.837-2.177,0-3.014l-3.415-3.414c-0.837-0.837-2.176-0.837-3.013,0
		L31.979,34.467L21.701,24.189c-0.837-0.837-2.176-0.837-3.013,0l-3.415,3.414c-0.837,0.837-0.837,2.177,0,3.014l15.199,15.198
		c0.837,0.837,2.176,0.837,3.013,0L48.685,30.617z"/>
</g>
</svg>
