<?xml version="1.0" encoding="utf-8"?>
<!-- Generator: Adobe Illustrator 16.0.0, SVG Export Plug-In . SVG Version: 6.00 Build 0)  -->
<!DOCTYPE svg PUBLIC "-//W3C//DTD SVG 1.1//EN" "http://www.w3.org/Graphics/SVG/1.1/DTD/svg11.dtd">
<svg version="1.1" id="Layer_1" xmlns="http://www.w3.org/2000/svg" xmlns:xlink="http://www.w3.org/1999/xlink" x="0px" y="0px"
	 width="64px" height="64px" viewBox="0 0 64 64" enable-background="new 0 0 64 64" xml:space="preserve">
<g>
	<path d="M63.016,49.84c0,1.877-1.555,3.432-3.432,3.432H4.678c-1.876,0-3.432-1.555-3.432-3.432V15.523
		c0-1.876,1.555-3.432,3.432-3.432h54.906c1.877,0,3.432,1.555,3.432,3.432V49.84z M41.917,18.097c-3.298,0-6.327,1.099-8.794,2.949
		c2.198,2.011,3.808,4.638,4.585,7.614h-1.341c-0.777-2.654-2.252-4.986-4.236-6.783c-1.984,1.796-3.458,4.128-4.236,6.783h-1.341
		c0.778-2.976,2.386-5.603,4.584-7.614c-2.466-1.85-5.496-2.949-8.793-2.949c-8.07,0-14.584,6.542-14.584,14.584
		s6.515,14.584,14.584,14.584c3.298,0,6.327-1.099,8.793-2.948c-2.064-1.904-3.619-4.344-4.423-7.078h1.34
		c0.804,2.413,2.225,4.585,4.075,6.247c1.85-1.662,3.271-3.834,4.075-6.247h1.341c-0.805,2.734-2.359,5.174-4.424,7.078
		c2.467,1.85,5.496,2.948,8.794,2.948c8.069,0,14.584-6.541,14.584-14.584S49.986,18.097,41.917,18.097z M16.448,29.196l-1.18,7.024
		h-1.501l0.858-5.389l-1.903,5.389h-1.045l-0.107-5.362l-0.912,5.362H9.236l1.18-7.024h2.171l0.054,4.37l1.475-4.37H16.448z
		 M20.791,33.191c-0.134,0.831-0.429,2.601-0.456,3.029c0,0-0.214,0-1.26,0l0.027-0.59c-0.375,0.482-0.885,0.697-1.555,0.697
		c-0.831,0-1.394-0.644-1.394-1.556c0-1.394,0.992-2.198,2.654-2.198c0.161,0,0.375,0,0.616,0.027
		c0.027-0.188,0.054-0.269,0.054-0.349c0-0.402-0.268-0.537-0.965-0.537c-0.751,0-1.341,0.188-1.582,0.268c0,0,0-0.107,0.188-1.287
		c0.75-0.214,1.26-0.295,1.796-0.295c1.314,0,1.984,0.563,1.984,1.662C20.898,32.36,20.844,32.709,20.791,33.191z M18.887,33.674
		c-0.831,0-1.26,0.295-1.26,0.857c0,0.349,0.188,0.59,0.536,0.59c0.617,0,1.045-0.59,1.072-1.447
		C19.075,33.674,19.021,33.674,18.887,33.674z M24.866,31.824c-0.402-0.054-0.804-0.081-1.099-0.081
		c-0.482,0-0.724,0.161-0.724,0.456c0,0.268,0.054,0.348,0.697,0.617c0.751,0.348,1.073,0.83,1.073,1.607
		c0,1.314-0.751,1.931-2.333,1.904c-0.912,0-1.233-0.081-1.555-0.161c0,0,0-0.054,0.188-1.313c0.482,0.134,0.911,0.214,1.367,0.214
		c0.59,0,0.858-0.16,0.858-0.509c0-0.269-0.107-0.349-0.697-0.644c-0.804-0.376-1.153-0.858-1.153-1.582
		c0-1.072,0.563-1.93,2.252-1.93c0.349,0,0.938,0.027,1.341,0.107L24.866,31.824z M28.19,30.51l-0.188,1.394h-0.777
		c-0.161,1.072-0.429,2.439-0.429,2.601c0,0.295,0.161,0.429,0.509,0.429c0.188,0,0.322-0.026,0.429-0.054l-0.214,1.26
		c-0.402,0.135-0.724,0.188-1.072,0.188c-0.777,0-1.18-0.43-1.207-1.261c0-0.241,0.107-0.911,0.214-1.501
		c0,0,0.081-0.536,0.67-3.914h1.475l-0.161,0.858H28.19z M32.694,33.861h-2.976c-0.107,0.831,0.429,1.18,1.287,1.18
		c0.536,0,1.019-0.107,1.555-0.375l-0.242,1.447c-0.509,0.134-1.019,0.215-1.528,0.215c-1.689,0-2.547-0.885-2.547-2.547
		c0-1.958,1.099-3.378,2.601-3.378c1.233,0,2.037,0.804,2.037,2.064C32.882,32.869,32.828,33.299,32.694,33.861z M31.488,32.709
		c0-0.107,0.161-1.02-0.697-1.02c-0.483,0-0.831,0.375-0.965,1.02H31.488z M36.019,32.146c-0.831-0.081-0.965,0.59-1.501,4.075
		h-1.502l0.081-0.376c0.295-1.769,0.59-3.565,0.777-5.334h1.367c0.027,0.295-0.054,0.59-0.08,0.884
		c0.455-0.697,0.804-1.045,1.447-0.911C36.421,30.805,36.18,31.421,36.019,32.146z M41.381,30.912
		c-0.536-0.268-0.912-0.375-1.341-0.375c-1.126,0-1.903,1.099-1.903,2.627c0,1.072,0.51,1.716,1.395,1.716
		c0.375,0,0.777-0.107,1.286-0.349l-0.268,1.582c-0.563,0.161-0.912,0.215-1.341,0.215c-1.608,0-2.627-1.153-2.627-3.029
		c0-2.521,1.394-4.263,3.404-4.263c0.644,0,1.421,0.268,1.636,0.349L41.381,30.912z M45.857,33.191
		c-0.134,0.831-0.401,2.601-0.455,3.029c0,0-0.188,0-1.233,0l0.026-0.59c-0.375,0.482-0.885,0.697-1.581,0.697
		c-0.831,0-1.367-0.644-1.367-1.556c0-1.394,0.965-2.198,2.627-2.198c0.188,0,0.402,0,0.616,0.027
		c0.054-0.188,0.054-0.269,0.054-0.349c0-0.402-0.268-0.537-0.965-0.537c-0.724,0-1.341,0.188-1.582,0.268c0,0,0-0.107,0.215-1.287
		c0.751-0.214,1.233-0.295,1.796-0.295c1.287,0,1.957,0.563,1.957,1.662C45.965,32.36,45.938,32.709,45.857,33.191z M43.981,33.674
		c-0.858,0-1.287,0.295-1.287,0.857c0,0.349,0.215,0.59,0.536,0.59c0.617,0,1.046-0.59,1.072-1.447
		C44.143,33.674,44.089,33.674,43.981,33.674z M49.183,32.146c-0.858-0.081-0.966,0.59-1.528,4.075h-1.502l0.081-0.376
		c0.321-1.769,0.59-3.565,0.777-5.334h1.395c0,0.295-0.054,0.59-0.107,0.884c0.482-0.697,0.831-1.045,1.447-0.911
		C49.558,30.805,49.316,31.421,49.183,32.146z M55.026,29.196l-1.152,7.024h-1.421l0.08-0.51c-0.429,0.429-0.831,0.617-1.394,0.617
		c-1.1,0-1.823-0.938-1.823-2.359c0-1.904,1.126-3.512,2.467-3.512c0.562,0,1.019,0.241,1.421,0.777l0.321-2.038H55.026z
		 M52.051,31.877c-0.67,0-1.152,0.777-1.152,1.904c0,0.75,0.241,1.126,0.75,1.126c0.697,0,1.207-0.778,1.207-1.931
		C52.855,32.253,52.561,31.877,52.051,31.877z"/>
</g>
</svg>
