<?xml version="1.0" encoding="utf-8"?>
<!-- Generator: Adobe Illustrator 16.0.0, SVG Export Plug-In . SVG Version: 6.00 Build 0)  -->
<!DOCTYPE svg PUBLIC "-//W3C//DTD SVG 1.1//EN" "http://www.w3.org/Graphics/SVG/1.1/DTD/svg11.dtd">
<svg version="1.1" id="Layer_1" xmlns="http://www.w3.org/2000/svg" xmlns:xlink="http://www.w3.org/1999/xlink" x="0px" y="0px"
	 width="64px" height="64px" viewBox="0 0 64 64" enable-background="new 0 0 64 64" xml:space="preserve">
<g>
	<path d="M31.336,57.535c-14.194,0-25.711-11.517-25.711-25.711S17.142,6.113,31.336,6.113S57.047,17.63,57.047,31.824
		S45.53,57.535,31.336,57.535z M39.471,45.115c0.838-0.837,0.838-2.177,0-3.014L29.193,31.824l10.277-10.277
		c0.838-0.837,0.838-2.177,0-3.014l-3.414-3.414c-0.838-0.837-2.176-0.837-3.014,0L17.844,30.317c-0.837,0.837-0.837,2.177,0,3.014
		l15.199,15.198c0.838,0.837,2.176,0.837,3.014,0L39.471,45.115z"/>
</g>
</svg>
