<?xml version="1.0" encoding="utf-8"?>
<!-- Generator: Adobe Illustrator 16.0.0, SVG Export Plug-In . SVG Version: 6.00 Build 0)  -->
<!DOCTYPE svg PUBLIC "-//W3C//DTD SVG 1.1//EN" "http://www.w3.org/Graphics/SVG/1.1/DTD/svg11.dtd">
<svg version="1.1" id="Layer_1" xmlns="http://www.w3.org/2000/svg" xmlns:xlink="http://www.w3.org/1999/xlink" x="0px" y="0px"
	 width="64px" height="64px" viewBox="0 0 64 64" enable-background="new 0 0 64 64" xml:space="preserve">
<g>
	<path d="M32.057,53.55c-1.641,0-3.281-0.101-4.854-0.268c-4.385,3.883-9.608,6.628-15.399,8.102
		c-1.206,0.335-2.511,0.569-3.816,0.736c-0.737,0.067-1.44-0.469-1.607-1.272c0-0.033,0-0.033,0-0.033
		c-0.167-0.837,0.401-1.339,0.904-1.941c2.109-2.377,4.52-4.386,6.093-9.977C6.48,44.979,2.061,38.92,2.061,32.124
		c0-11.817,13.425-21.426,29.996-21.426c16.572,0,29.996,9.574,29.996,21.426S48.629,53.55,32.057,53.55z"/>
</g>
</svg>
