<?xml version="1.0" encoding="utf-8"?>
<!-- Generator: Adobe Illustrator 16.0.0, SVG Export Plug-In . SVG Version: 6.00 Build 0)  -->
<!DOCTYPE svg PUBLIC "-//W3C//DTD SVG 1.1//EN" "http://www.w3.org/Graphics/SVG/1.1/DTD/svg11.dtd">
<svg version="1.1" id="Layer_1" xmlns="http://www.w3.org/2000/svg" xmlns:xlink="http://www.w3.org/1999/xlink" x="0px" y="0px"
	 width="64px" height="64px" viewBox="0 0 64 64" enable-background="new 0 0 64 64" xml:space="preserve">
<g>
	<path d="M56.885,23.803L32.647,48.041l-4.553,4.553c-0.603,0.603-1.439,0.938-2.276,0.938s-1.674-0.335-2.276-0.938l-4.553-4.553
		L6.87,35.922c-0.603-0.603-0.938-1.439-0.938-2.276s0.335-1.674,0.938-2.276l4.553-4.553c0.603-0.603,1.439-0.937,2.277-0.937
		c0.837,0,1.674,0.334,2.276,0.937l9.842,9.875l21.961-21.994c0.603-0.603,1.439-0.938,2.276-0.938s1.675,0.335,2.276,0.938
		l4.553,4.553c0.604,0.603,0.938,1.439,0.938,2.276S57.488,23.2,56.885,23.803z"/>
</g>
</svg>
