<?xml version="1.0" encoding="utf-8"?>
<!-- Generator: Adobe Illustrator 16.0.0, SVG Export Plug-In . SVG Version: 6.00 Build 0)  -->
<!DOCTYPE svg PUBLIC "-//W3C//DTD SVG 1.1//EN" "http://www.w3.org/Graphics/SVG/1.1/DTD/svg11.dtd">
<svg version="1.1" id="Layer_1" xmlns="http://www.w3.org/2000/svg" xmlns:xlink="http://www.w3.org/1999/xlink" x="0px" y="0px"
	 width="64px" height="64px" viewBox="0 0 64 64" enable-background="new 0 0 64 64" xml:space="preserve">
<g>
	<path d="M63.362,11.904v39.578c0,2.863-2.344,5.207-5.208,5.207H6.079c-2.864,0-5.208-2.344-5.208-5.207V11.904
		c0-2.864,2.343-5.208,5.208-5.208h52.075C61.019,6.696,63.362,9.04,63.362,11.904z M5.038,11.904v7.291h54.159v-7.291
		c0-0.553-0.488-1.042-1.042-1.042H6.079C5.526,10.862,5.038,11.351,5.038,11.904z M59.196,51.481V31.692H5.038v19.789
		c0,0.553,0.488,1.041,1.042,1.041h52.075C58.708,52.522,59.196,52.034,59.196,51.481z M9.204,44.19h8.332v4.166H9.204V44.19z
		 M21.702,44.19H34.2v4.166H21.702V44.19z"/>
</g>
</svg>
