<?xml version="1.0" encoding="utf-8"?>
<!-- Generator: Adobe Illustrator 16.0.0, SVG Export Plug-In . SVG Version: 6.00 Build 0)  -->
<!DOCTYPE svg PUBLIC "-//W3C//DTD SVG 1.1//EN" "http://www.w3.org/Graphics/SVG/1.1/DTD/svg11.dtd">
<svg version="1.1" id="Layer_1" xmlns="http://www.w3.org/2000/svg" xmlns:xlink="http://www.w3.org/1999/xlink" x="0px" y="0px"
	 width="64px" height="64px" viewBox="0 0 64 64" enable-background="new 0 0 64 64" xml:space="preserve">
<g>
	<path d="M40.156,21.608L26.999,34.766l13.157,13.157c0.2,0.2,0.334,0.502,0.334,0.77s-0.134,0.569-0.334,0.77l-1.674,1.675
		c-0.201,0.2-0.503,0.334-0.771,0.334s-0.569-0.134-0.771-0.334l-15.6-15.602c-0.201-0.2-0.335-0.502-0.335-0.77
		s0.134-0.569,0.335-0.77l15.6-15.602c0.201-0.2,0.503-0.334,0.771-0.334s0.569,0.134,0.771,0.334l1.674,1.675
		c0.2,0.2,0.334,0.468,0.334,0.77C40.49,21.106,40.356,21.408,40.156,21.608z"/>
</g>
</svg>
