<?xml version="1.0" encoding="utf-8"?>
<!-- Generator: Adobe Illustrator 16.0.0, SVG Export Plug-In . SVG Version: 6.00 Build 0)  -->
<!DOCTYPE svg PUBLIC "-//W3C//DTD SVG 1.1//EN" "http://www.w3.org/Graphics/SVG/1.1/DTD/svg11.dtd">
<svg version="1.1" id="Layer_1" xmlns="http://www.w3.org/2000/svg" xmlns:xlink="http://www.w3.org/1999/xlink" x="0px" y="0px"
	 width="64px" height="64px" viewBox="0 0 64 64" enable-background="new 0 0 64 64" xml:space="preserve">
<g>
	<path d="M31.158,53.551c-2.444,0-4.821-0.201-7.064-0.603c-3.816,3.816-8.805,6.428-14.562,7.666
		c-0.904,0.168-1.875,0.335-2.879,0.436c-0.536,0.067-1.038-0.302-1.171-0.804c-0.134-0.535,0.268-0.87,0.669-1.238
		c2.109-1.976,4.62-3.549,5.49-10.612C5.246,44.479,1.162,38.653,1.162,32.125c0-11.852,13.425-21.426,29.996-21.426
		c16.571,0,29.997,9.574,29.997,21.426S47.729,53.551,31.158,53.551z M18.302,27.84c-2.377,0-4.285,1.908-4.285,4.285
		s1.908,4.285,4.285,4.285s4.285-1.908,4.285-4.285S20.679,27.84,18.302,27.84z M31.158,27.84c-2.377,0-4.285,1.908-4.285,4.285
		s1.908,4.285,4.285,4.285c2.377,0,4.286-1.908,4.286-4.285S33.535,27.84,31.158,27.84z M44.014,27.84
		c-2.377,0-4.285,1.908-4.285,4.285s1.908,4.285,4.285,4.285s4.285-1.908,4.285-4.285S46.391,27.84,44.014,27.84z"/>
</g>
</svg>
