<?xml version="1.0" encoding="utf-8"?>
<!-- Generator: Adobe Illustrator 16.0.0, SVG Export Plug-In . SVG Version: 6.00 Build 0)  -->
<!DOCTYPE svg PUBLIC "-//W3C//DTD SVG 1.1//EN" "http://www.w3.org/Graphics/SVG/1.1/DTD/svg11.dtd">
<svg version="1.1" id="Layer_1" xmlns="http://www.w3.org/2000/svg" xmlns:xlink="http://www.w3.org/1999/xlink" x="0px" y="0px"
	 width="64px" height="64px" viewBox="0 0 64 64" enable-background="new 0 0 64 64" xml:space="preserve">
<g>
	<path d="M50.859,53.004H15.63c-7.998,0-14.506-6.508-14.506-14.506c0-5.634,3.271-10.75,8.354-13.114
		c-0.033-0.485-0.065-0.939-0.065-1.392c0-9.163,7.415-16.578,16.578-16.578c6.735,0,12.79,4.08,15.348,10.296
		c1.489-1.295,3.399-2.007,5.375-2.007c4.565,0,8.289,3.724,8.289,8.289c0,1.586-0.454,3.141-1.328,4.468
		c5.634,1.328,9.617,6.346,9.617,12.11C63.293,47.435,57.724,53.004,50.859,53.004z M42.278,30.5L30.881,19.103
		c-0.194-0.194-0.453-0.292-0.745-0.292c-0.259,0-0.55,0.097-0.745,0.292L18.026,30.468c-0.194,0.227-0.324,0.486-0.324,0.777
		c0,0.583,0.453,1.036,1.036,1.036h7.253v11.397c0,0.551,0.486,1.036,1.036,1.036h6.216c0.551,0,1.037-0.485,1.037-1.036V32.281
		h7.252c0.583,0,1.037-0.486,1.037-1.036C42.57,30.986,42.473,30.695,42.278,30.5z"/>
</g>
</svg>
