<?xml version="1.0" encoding="utf-8"?>
<!-- Generator: Adobe Illustrator 16.0.0, SVG Export Plug-In . SVG Version: 6.00 Build 0)  -->
<!DOCTYPE svg PUBLIC "-//W3C//DTD SVG 1.1//EN" "http://www.w3.org/Graphics/SVG/1.1/DTD/svg11.dtd">
<svg version="1.1" id="Layer_1" xmlns="http://www.w3.org/2000/svg" xmlns:xlink="http://www.w3.org/1999/xlink" x="0px" y="0px"
	 width="64px" height="64px" viewBox="0 0 64 64" enable-background="new 0 0 64 64" xml:space="preserve">
<g>
	<path d="M49.029,34.214l-1.674,1.675c-0.201,0.2-0.469,0.334-0.771,0.334c-0.268,0-0.569-0.134-0.771-0.334L32.658,22.731
		L19.501,35.889c-0.201,0.2-0.502,0.334-0.77,0.334s-0.569-0.134-0.77-0.334l-1.674-1.675c-0.201-0.2-0.335-0.502-0.335-0.77
		s0.134-0.569,0.335-0.77l15.601-15.602c0.201-0.2,0.502-0.334,0.77-0.334s0.569,0.134,0.77,0.334l15.602,15.602
		c0.2,0.2,0.334,0.502,0.334,0.77S49.229,34.014,49.029,34.214z M49.029,47.069l-1.674,1.675c-0.201,0.2-0.469,0.334-0.771,0.334
		c-0.268,0-0.569-0.134-0.771-0.334L32.658,35.587L19.501,48.744c-0.201,0.2-0.502,0.334-0.77,0.334s-0.569-0.134-0.77-0.334
		l-1.674-1.675c-0.201-0.2-0.335-0.502-0.335-0.77s0.134-0.569,0.335-0.77l15.601-15.602c0.201-0.2,0.502-0.334,0.77-0.334
		s0.569,0.134,0.77,0.334L49.029,45.53c0.2,0.2,0.334,0.502,0.334,0.77S49.229,46.869,49.029,47.069z"/>
</g>
</svg>
