<?xml version="1.0" encoding="utf-8"?>
<!-- Generator: Adobe Illustrator 16.0.0, SVG Export Plug-In . SVG Version: 6.00 Build 0)  -->
<!DOCTYPE svg PUBLIC "-//W3C//DTD SVG 1.1//EN" "http://www.w3.org/Graphics/SVG/1.1/DTD/svg11.dtd">
<svg version="1.1" id="Layer_1" xmlns="http://www.w3.org/2000/svg" xmlns:xlink="http://www.w3.org/1999/xlink" x="0px" y="0px"
	 width="64px" height="64px" viewBox="0 0 64 64" enable-background="new 0 0 64 64" xml:space="preserve">
<g>
	<path d="M57.854,48.644c0,5.323-4.319,9.642-9.643,9.642H16.073c-5.323,0-9.642-4.318-9.642-9.642V16.505
		c0-5.323,4.319-9.642,9.642-9.642h32.138c5.323,0,9.643,4.319,9.643,9.642V48.644z M49.919,25.51c0.837-0.837,0.837-2.176,0-3.013
		l-3.415-3.415c-0.837-0.837-2.176-0.837-3.013,0L27.857,34.717l-7.064-7.064c-0.837-0.837-2.176-0.837-3.013,0l-3.415,3.415
		c-0.837,0.837-0.837,2.176,0,3.012l11.985,11.986c0.837,0.836,2.176,0.836,3.013,0L49.919,25.51z"/>
</g>
</svg>
