<?xml version="1.0" encoding="utf-8"?>
<!-- Generator: Adobe Illustrator 16.0.0, SVG Export Plug-In . SVG Version: 6.00 Build 0)  -->
<!DOCTYPE svg PUBLIC "-//W3C//DTD SVG 1.1//EN" "http://www.w3.org/Graphics/SVG/1.1/DTD/svg11.dtd">
<svg version="1.1" id="Layer_1" xmlns="http://www.w3.org/2000/svg" xmlns:xlink="http://www.w3.org/1999/xlink" x="0px" y="0px"
	 width="64px" height="64px" viewBox="0 0 64 64" enable-background="new 0 0 64 64" xml:space="preserve">
<g>
	<path d="M59.229,57.744c0,2.344-1.942,4.285-4.285,4.285H7.806c-2.343,0-4.285-1.941-4.285-4.285V14.893
		c0-2.344,1.942-4.285,4.285-4.285h4.285V7.394c0-2.946,2.41-5.356,5.356-5.356h2.143c2.946,0,5.356,2.41,5.356,5.356v3.214h12.856
		V7.394c0-2.946,2.41-5.356,5.355-5.356h2.143c2.947,0,5.357,2.41,5.357,5.356v3.214h4.285c2.343,0,4.285,1.941,4.285,4.285V57.744z
		 M54.943,57.744V23.463H7.806v34.281H54.943z M20.662,7.394c0-0.603-0.469-1.071-1.071-1.071h-2.143
		c-0.603,0-1.071,0.469-1.071,1.071v9.642c0,0.603,0.469,1.071,1.071,1.071h2.143c0.603,0,1.071-0.469,1.071-1.071V7.394z
		 M46.373,7.394c0-0.603-0.469-1.071-1.072-1.071h-2.143c-0.602,0-1.07,0.469-1.07,1.071v9.642c0,0.603,0.469,1.071,1.07,1.071
		h2.143c0.604,0,1.072-0.469,1.072-1.071V7.394z"/>
</g>
</svg>
