<?xml version="1.0" encoding="utf-8"?>
<!-- Generator: Adobe Illustrator 16.0.0, SVG Export Plug-In . SVG Version: 6.00 Build 0)  -->
<!DOCTYPE svg PUBLIC "-//W3C//DTD SVG 1.1//EN" "http://www.w3.org/Graphics/SVG/1.1/DTD/svg11.dtd">
<svg version="1.1" id="Layer_1" xmlns="http://www.w3.org/2000/svg" xmlns:xlink="http://www.w3.org/1999/xlink" x="0px" y="0px"
	 width="64px" height="64px" viewBox="0 0 64 64" enable-background="new 0 0 64 64" xml:space="preserve">
<g>
	<path d="M51.738,44.449c0,5.322-4.318,9.642-9.642,9.642H14.243c-5.323,0-9.642-4.319-9.642-9.642V16.596
		c0-5.323,4.319-9.642,9.642-9.642h27.854c1.339,0,2.679,0.268,3.917,0.837c0.301,0.134,0.535,0.435,0.603,0.77
		c0.067,0.368-0.034,0.703-0.302,0.971l-1.641,1.641c-0.2,0.201-0.502,0.334-0.77,0.334c-0.1,0-0.201-0.033-0.301-0.067
		c-0.502-0.134-1.005-0.201-1.507-0.201H14.243c-2.946,0-5.356,2.41-5.356,5.356v27.854c0,2.946,2.41,5.356,5.356,5.356h27.854
		c2.946,0,5.356-2.41,5.356-5.356v-8.504c0-0.268,0.101-0.535,0.301-0.736l2.143-2.143c0.234-0.234,0.503-0.334,0.771-0.334
		c0.134,0,0.268,0.034,0.401,0.101c0.402,0.167,0.67,0.536,0.67,0.97V44.449z M32.221,44.684c-1.071,1.071-2.745,1.071-3.816,0
		L14.009,30.288c-1.071-1.071-1.071-2.745,0-3.816l3.683-3.683c1.071-1.071,2.745-1.071,3.816,0l8.805,8.805l21.66-21.66
		c1.071-1.071,2.745-1.071,3.816,0l3.683,3.683c1.071,1.071,1.071,2.745,0,3.816L32.221,44.684z"/>
</g>
</svg>
