<?xml version="1.0" encoding="utf-8"?>
<!-- Generator: Adobe Illustrator 16.0.0, SVG Export Plug-In . SVG Version: 6.00 Build 0)  -->
<!DOCTYPE svg PUBLIC "-//W3C//DTD SVG 1.1//EN" "http://www.w3.org/Graphics/SVG/1.1/DTD/svg11.dtd">
<svg version="1.1" id="Layer_1" xmlns="http://www.w3.org/2000/svg" xmlns:xlink="http://www.w3.org/1999/xlink" x="0px" y="0px"
	 width="64px" height="64px" viewBox="0 0 64 64" enable-background="new 0 0 64 64" xml:space="preserve">
<g>
	<path d="M32.058,54c-1.641,0-3.281-0.101-4.854-0.268c-4.385,3.883-9.608,6.628-15.399,8.102c-1.206,0.335-2.511,0.569-3.816,0.736
		c-0.067,0-0.134,0-0.167,0c-0.669,0-1.272-0.535-1.439-1.272c0-0.033,0-0.033,0-0.033c-0.167-0.837,0.401-1.339,0.904-1.941
		c2.109-2.377,4.52-4.386,6.093-9.977C6.48,45.43,2.062,39.37,2.062,32.574c0-11.817,13.425-21.426,29.996-21.426
		s29.996,9.608,29.996,21.426C62.054,44.426,48.629,54,32.058,54z M6.347,32.574c0,4.988,3.348,9.742,9.14,13.022l2.912,1.674
		l-0.904,3.214c-0.636,2.377-1.473,4.219-2.343,5.759c3.381-1.406,6.461-3.314,9.207-5.725l1.439-1.272l1.908,0.201
		c1.439,0.167,2.913,0.268,4.352,0.268c13.927,0,25.711-7.834,25.711-17.141S45.984,15.434,32.058,15.434S6.347,23.268,6.347,32.574
		z M19.202,36.859c-2.377,0-4.285-1.908-4.285-4.285s1.908-4.285,4.285-4.285s4.285,1.908,4.285,4.285S21.579,36.859,19.202,36.859z
		 M32.058,36.859c-2.377,0-4.285-1.908-4.285-4.285s1.908-4.285,4.285-4.285s4.285,1.908,4.285,4.285S34.435,36.859,32.058,36.859z
		 M44.913,36.859c-2.377,0-4.285-1.908-4.285-4.285s1.908-4.285,4.285-4.285s4.285,1.908,4.285,4.285S47.29,36.859,44.913,36.859z"
		/>
</g>
</svg>
