<?xml version="1.0" encoding="utf-8"?>
<!-- Generator: Adobe Illustrator 16.0.0, SVG Export Plug-In . SVG Version: 6.00 Build 0)  -->
<!DOCTYPE svg PUBLIC "-//W3C//DTD SVG 1.1//EN" "http://www.w3.org/Graphics/SVG/1.1/DTD/svg11.dtd">
<svg version="1.1" id="Layer_1" xmlns="http://www.w3.org/2000/svg" xmlns:xlink="http://www.w3.org/1999/xlink" x="0px" y="0px"
	 width="64px" height="64px" viewBox="0 0 64 64" enable-background="new 0 0 64 64" xml:space="preserve">
<g>
	<path d="M50.633,52.904H15.387c-8.001,0-14.513-6.512-14.513-14.513c0-5.799,3.434-10.819,8.358-13.119
		c-0.033-0.454-0.065-0.939-0.065-1.394c0-9.167,7.418-16.586,16.586-16.586c6.932,0,12.861,4.244,15.355,10.302
		c1.426-1.264,3.304-2.009,5.378-2.009c4.567,0,8.293,3.726,8.293,8.293c0,1.652-0.486,3.175-1.329,4.471
		c5.508,1.296,9.622,6.22,9.622,12.115C63.072,47.332,57.5,52.904,50.633,52.904z"/>
</g>
</svg>
