<?xml version="1.0" encoding="utf-8"?>
<!-- Generator: Adobe Illustrator 16.0.0, SVG Export Plug-In . SVG Version: 6.00 Build 0)  -->
<!DOCTYPE svg PUBLIC "-//W3C//DTD SVG 1.1//EN" "http://www.w3.org/Graphics/SVG/1.1/DTD/svg11.dtd">
<svg version="1.1" id="Layer_1" xmlns="http://www.w3.org/2000/svg" xmlns:xlink="http://www.w3.org/1999/xlink" x="0px" y="0px"
	 width="64px" height="64px" viewBox="0 0 64 64" enable-background="new 0 0 64 64" xml:space="preserve">
<g>
	<path d="M31.086,58.535c-14.194,0-25.711-11.517-25.711-25.711S16.892,7.113,31.086,7.113S56.797,18.63,56.797,32.824
		S45.28,58.535,31.086,58.535z M31.086,14.612c-10.043,0-18.212,8.169-18.212,18.212s8.168,18.212,18.212,18.212
		c10.043,0,18.212-8.169,18.212-18.212S41.129,14.612,31.086,14.612z M37.213,43.839c-0.436,0.435-1.105,0.435-1.541,0l-4.586-4.587
		L26.5,43.839c-0.435,0.435-1.105,0.435-1.54,0l-4.888-4.889c-0.435-0.435-0.435-1.104,0-1.539l4.586-4.587l-4.586-4.587
		c-0.435-0.435-0.435-1.104,0-1.539l4.888-4.889c0.435-0.435,1.105-0.435,1.54,0l4.586,4.587l4.586-4.587
		c0.436-0.435,1.105-0.435,1.541,0l4.887,4.889c0.436,0.435,0.436,1.104,0,1.539l-4.586,4.587l4.586,4.587
		c0.436,0.435,0.436,1.104,0,1.539L37.213,43.839z"/>
</g>
</svg>
