<?xml version="1.0" encoding="utf-8"?>
<!-- Generator: Adobe Illustrator 16.0.0, SVG Export Plug-In . SVG Version: 6.00 Build 0)  -->
<!DOCTYPE svg PUBLIC "-//W3C//DTD SVG 1.1//EN" "http://www.w3.org/Graphics/SVG/1.1/DTD/svg11.dtd">
<svg version="1.1" id="Layer_1" xmlns="http://www.w3.org/2000/svg" xmlns:xlink="http://www.w3.org/1999/xlink" x="0px" y="0px"
	 width="64px" height="64px" viewBox="0 0 64 64" enable-background="new 0 0 64 64" xml:space="preserve">
<g>
	<path d="M62.144,54.361c0,2.377-1.908,4.285-4.285,4.285H6.437c-2.377,0-4.285-1.908-4.285-4.285V11.509
		c0-2.377,1.908-4.285,4.285-4.285h51.422c2.377,0,4.285,1.908,4.285,4.285V54.361z M57.858,20.08v-3.95v-4.62h-27.72l-2.143,4.285
		H6.437v4.285H57.858z M57.858,54.361v-4.285H6.437v4.285H57.858z M23.577,13.652V9.367H10.722v4.285H23.577z M32.147,22.29
		c-7.097,0-12.855,5.758-12.855,12.855C19.292,42.242,25.05,48,32.147,48c7.097,0,12.855-5.758,12.855-12.855
		C45.003,28.047,39.244,22.29,32.147,22.29z M32.147,43.715c-4.72,0-8.57-3.85-8.57-8.57c0-4.72,3.85-8.57,8.57-8.57
		c4.72,0,8.57,3.85,8.57,8.57C40.718,39.865,36.867,43.715,32.147,43.715z M32.147,29.721c-2.946,0-5.356,2.41-5.356,5.357
		c0,0.602,0.469,1.07,1.071,1.07s1.071-0.469,1.071-1.07c0-1.775,1.439-3.214,3.214-3.214c0.603,0,1.071-0.469,1.071-1.071
		S32.75,29.721,32.147,29.721z"/>
</g>
</svg>
