<?xml version="1.0" encoding="utf-8"?>
<!-- Generator: Adobe Illustrator 16.0.0, SVG Export Plug-In . SVG Version: 6.00 Build 0)  -->
<!DOCTYPE svg PUBLIC "-//W3C//DTD SVG 1.1//EN" "http://www.w3.org/Graphics/SVG/1.1/DTD/svg11.dtd">
<svg version="1.1" id="Layer_1" xmlns="http://www.w3.org/2000/svg" xmlns:xlink="http://www.w3.org/1999/xlink" x="0px" y="0px"
	 width="64px" height="64px" viewBox="0 0 64 64" enable-background="new 0 0 64 64" xml:space="preserve">
<g>
	<path d="M32.502,58.027c-14.194,0-25.711-11.516-25.711-25.71c0-14.194,11.517-25.711,25.711-25.711
		c14.195,0,25.71,11.517,25.71,25.711C58.213,46.512,46.697,58.027,32.502,58.027z M32.502,14.105
		c-10.043,0-18.212,8.169-18.212,18.212c0,10.042,8.168,18.212,18.212,18.212s18.212-8.17,18.212-18.212
		C50.715,22.274,42.546,14.105,32.502,14.105z M36.787,35.531c0,0.602-0.469,1.07-1.07,1.07H25.003c-0.603,0-1.071-0.469-1.071-1.07
		v-2.143c0-0.603,0.469-1.072,1.071-1.072h7.499V20.533c0-0.603,0.469-1.071,1.072-1.071h2.143c0.602,0,1.07,0.469,1.07,1.071
		V35.531z"/>
</g>
</svg>
