<?xml version="1.0" encoding="utf-8"?>
<!-- Generator: Adobe Illustrator 16.0.0, SVG Export Plug-In . SVG Version: 6.00 Build 0)  -->
<!DOCTYPE svg PUBLIC "-//W3C//DTD SVG 1.1//EN" "http://www.w3.org/Graphics/SVG/1.1/DTD/svg11.dtd">
<svg version="1.1" id="Layer_1" xmlns="http://www.w3.org/2000/svg" xmlns:xlink="http://www.w3.org/1999/xlink" x="0px" y="0px"
	 width="64px" height="64px" viewBox="0 0 64 64" enable-background="new 0 0 64 64" xml:space="preserve">
<g>
	<path d="M25.278,45.43c-2.042,0-4.018-0.201-5.892-0.535c-2.779,1.975-5.926,3.414-9.307,4.285
		c-0.904,0.234-1.875,0.402-2.879,0.535c-0.033,0-0.067,0-0.1,0c-0.502,0-0.971-0.4-1.071-0.971
		c-0.134-0.637,0.301-1.037,0.669-1.473c1.306-1.473,2.778-2.779,3.917-5.557C5.191,38.566,1.71,33.713,1.71,28.29
		c0-9.475,10.545-17.141,23.568-17.141c13.022,0,23.568,7.666,23.568,17.141C48.847,37.764,38.301,45.43,25.278,45.43z
		 M52.797,50.285c1.139,2.777,2.611,4.084,3.917,5.557c0.368,0.436,0.804,0.836,0.669,1.473c-0.133,0.604-0.635,1.039-1.171,0.971
		c-1.005-0.133-1.976-0.301-2.88-0.535c-3.381-0.871-6.527-2.311-9.307-4.285C42.151,53.799,40.176,54,38.134,54
		c-6.06,0-11.617-1.674-15.802-4.418c0.971,0.066,1.976,0.133,2.946,0.133c7.198,0,13.993-2.074,19.183-5.824
		c5.591-4.084,8.671-9.609,8.671-15.601c0-1.741-0.268-3.448-0.771-5.089c5.658,3.113,9.341,8.068,9.341,13.659
		C61.702,42.316,58.221,47.137,52.797,50.285z"/>
</g>
</svg>
