<?xml version="1.0" encoding="utf-8"?>
<!-- Generator: Adobe Illustrator 16.0.0, SVG Export Plug-In . SVG Version: 6.00 Build 0)  -->
<!DOCTYPE svg PUBLIC "-//W3C//DTD SVG 1.1//EN" "http://www.w3.org/Graphics/SVG/1.1/DTD/svg11.dtd">
<svg version="1.1" id="Layer_1" xmlns="http://www.w3.org/2000/svg" xmlns:xlink="http://www.w3.org/1999/xlink" x="0px" y="0px"
	 width="64px" height="64px" viewBox="0 0 64 64" enable-background="new 0 0 64 64" xml:space="preserve">
<g>
	<path d="M50.586,51.844H15.64c-7.934,0-14.39-6.456-14.39-14.39c0-5.589,3.244-10.664,8.287-13.008
		c-0.032-0.482-0.064-0.932-0.064-1.381c0-9.09,7.355-16.445,16.445-16.445c6.681,0,12.688,4.047,15.225,10.214
		c1.478-1.285,3.373-1.991,5.332-1.991c4.529,0,8.223,3.694,8.223,8.223c0,1.574-0.449,3.116-1.317,4.433
		c5.589,1.317,9.54,6.295,9.54,12.013C62.92,46.319,57.396,51.844,50.586,51.844z M41.336,31.287h-7.195V19.981
		c0-0.546-0.481-1.028-1.027-1.028h-6.167c-0.546,0-1.028,0.482-1.028,1.028v11.306h-7.195c-0.578,0-1.028,0.482-1.028,1.028
		c0,0.257,0.096,0.546,0.289,0.739l11.306,11.306c0.193,0.193,0.45,0.289,0.739,0.289c0.257,0,0.546-0.096,0.739-0.289
		l11.274-11.273c0.192-0.225,0.321-0.481,0.321-0.771C42.363,31.737,41.914,31.287,41.336,31.287z"/>
</g>
</svg>
