<?xml version="1.0" encoding="utf-8"?>
<!-- Generator: Adobe Illustrator 16.0.0, SVG Export Plug-In . SVG Version: 6.00 Build 0)  -->
<!DOCTYPE svg PUBLIC "-//W3C//DTD SVG 1.1//EN" "http://www.w3.org/Graphics/SVG/1.1/DTD/svg11.dtd">
<svg version="1.1" id="Layer_1" xmlns="http://www.w3.org/2000/svg" xmlns:xlink="http://www.w3.org/1999/xlink" x="0px" y="0px"
	 width="64px" height="64px" viewBox="0 0 64 64" enable-background="new 0 0 64 64" xml:space="preserve">
<g>
	<path d="M62.441,48.99c0,1.855-1.537,3.393-3.393,3.393H4.768c-1.855,0-3.393-1.537-3.393-3.393V15.064
		c0-1.855,1.537-3.393,3.393-3.393h54.281c1.855,0,3.393,1.537,3.393,3.393V48.99z M20.67,25.269h-6.043v8.163
		c0,1.988-1.352,3.473-3.791,3.473c-2.067,0-4.108-0.609-6.069-1.564v2.969c3.181,0.875,7.209,0.875,7.209,0.875
		c6.732,0,8.694-2.571,8.694-5.752V25.269z M39.595,35.314c-1.379,0.715-3.128,1.404-5.301,1.563
		c-3.817,0.291-6.096-1.563-6.096-4.851c0-3.287,2.279-5.142,6.096-4.85c2.173,0.159,3.896,0.821,5.301,1.537v-2.969
		c-2.836-0.715-5.513-0.821-5.513-0.821c-9.33-0.424-11.98,3.26-11.98,7.103c0,3.843,2.65,7.527,11.98,7.104
		c0,0,2.677-0.106,5.513-0.822V35.314z M55.021,31.868v-0.08c2.067-0.292,3.207-1.643,3.207-3.207c0-2.014-1.67-3.18-3.923-3.286
		c-0.159,0-0.451-0.027-0.689-0.027h-12.06v13.518h13.014c2.571,0,4.479-1.378,4.479-3.525C59.049,33.3,57.3,32.027,55.021,31.868z
		 M51.203,30.755c-0.079,0.027-0.265,0.027-0.397,0.027h-3.684v-3.419h3.684c0.133,0,0.318,0.027,0.397,0.027
		c0.769,0.132,1.405,0.769,1.405,1.696S51.972,30.623,51.203,30.755z M51.654,36.533c-0.106,0.026-0.345,0.053-0.478,0.053h-4.055
		v-3.711h4.055c0.133,0,0.371,0.027,0.478,0.054c0.795,0.159,1.431,0.874,1.431,1.802C53.085,35.685,52.449,36.374,51.654,36.533z"
		/>
</g>
</svg>
