<?xml version="1.0" encoding="utf-8"?>
<!-- Generator: Adobe Illustrator 16.0.0, SVG Export Plug-In . SVG Version: 6.00 Build 0)  -->
<!DOCTYPE svg PUBLIC "-//W3C//DTD SVG 1.1//EN" "http://www.w3.org/Graphics/SVG/1.1/DTD/svg11.dtd">
<svg version="1.1" id="Layer_1" xmlns="http://www.w3.org/2000/svg" xmlns:xlink="http://www.w3.org/1999/xlink" x="0px" y="0px"
	 width="64px" height="64px" viewBox="0 0 64 64" enable-background="new 0 0 64 64" xml:space="preserve">
<g>
	<path d="M59.568,14.804v42.852c0,2.344-1.942,4.285-4.285,4.285H8.146c-2.343,0-4.285-1.941-4.285-4.285V14.804
		c0-2.344,1.942-4.285,4.285-4.285h4.285V7.305c0-2.946,2.41-5.356,5.356-5.356h2.143c2.946,0,5.356,2.41,5.356,5.356v3.214h12.856
		V7.305c0-2.946,2.41-5.356,5.355-5.356h2.143c2.947,0,5.357,2.41,5.357,5.356v3.214h4.285
		C57.626,10.519,59.568,12.46,59.568,14.804z M55.283,23.374H8.146v34.281h47.137V23.374z M16.716,16.946
		c0,0.603,0.469,1.071,1.071,1.071h2.143c0.603,0,1.071-0.469,1.071-1.071V7.305c0-0.603-0.469-1.071-1.071-1.071h-2.143
		c-0.603,0-1.071,0.469-1.071,1.071V16.946z M41.355,38.372c0.604,0,1.072,0.469,1.072,1.071v2.143c0,0.603-0.469,1.071-1.072,1.071
		h-7.498v7.499c0,0.603-0.469,1.071-1.072,1.071h-2.143c-0.603,0-1.071-0.469-1.071-1.071v-7.499h-7.499
		c-0.603,0-1.071-0.469-1.071-1.071v-2.143c0-0.603,0.469-1.071,1.071-1.071h7.499v-7.499c0-0.603,0.469-1.071,1.071-1.071h2.143
		c0.603,0,1.072,0.469,1.072,1.071v7.499H41.355z M42.428,16.946c0,0.603,0.469,1.071,1.07,1.071h2.143
		c0.604,0,1.072-0.469,1.072-1.071V7.305c0-0.603-0.469-1.071-1.072-1.071h-2.143c-0.602,0-1.07,0.469-1.07,1.071V16.946z"/>
</g>
</svg>
