<?xml version="1.0" encoding="utf-8"?>
<!-- Generator: Adobe Illustrator 16.0.0, SVG Export Plug-In . SVG Version: 6.00 Build 0)  -->
<!DOCTYPE svg PUBLIC "-//W3C//DTD SVG 1.1//EN" "http://www.w3.org/Graphics/SVG/1.1/DTD/svg11.dtd">
<svg version="1.1" id="Layer_1" xmlns="http://www.w3.org/2000/svg" xmlns:xlink="http://www.w3.org/1999/xlink" x="0px" y="0px"
	 width="64px" height="64px" viewBox="0 0 64 64" enable-background="new 0 0 64 64" xml:space="preserve">
<g>
	<path d="M61.117,50.34c0,4.721-3.85,8.57-8.57,8.57H9.695c-4.72,0-8.57-3.85-8.57-8.57H61.117z M50.404,37.484h-2.143v1.071
		c0,4.118-3.381,7.499-7.499,7.499H17.194c-4.118,0-7.499-3.381-7.499-7.499v-24.64c0-1.172,0.971-2.143,2.143-2.143h38.566
		c7.098,0,12.855,5.758,12.855,12.855S57.502,37.484,50.404,37.484z M50.404,18.201h-2.143v12.855h2.143
		c3.549,0,6.428-2.879,6.428-6.428S53.953,18.201,50.404,18.201z"/>
</g>
</svg>
