<?xml version="1.0" encoding="utf-8"?>
<!-- Generator: Adobe Illustrator 16.0.0, SVG Export Plug-In . SVG Version: 6.00 Build 0)  -->
<!DOCTYPE svg PUBLIC "-//W3C//DTD SVG 1.1//EN" "http://www.w3.org/Graphics/SVG/1.1/DTD/svg11.dtd">
<svg version="1.1" id="Layer_1" xmlns="http://www.w3.org/2000/svg" xmlns:xlink="http://www.w3.org/1999/xlink" x="0px" y="0px"
	 width="64px" height="64px" viewBox="0 0 64 64" enable-background="new 0 0 64 64" xml:space="preserve">
<g>
	<path d="M63.133,56.552H0.851V9.841h3.893v42.818h58.389V56.552z M59.24,27.936c0,0.852-1.034,1.308-1.673,0.669l-3.68-3.68
		l-19.25,19.25c-0.396,0.396-1.004,0.396-1.399,0l-7.085-7.086l-12.651,12.65l-5.839-5.838l17.791-17.791
		c0.395-0.395,1.003-0.395,1.398,0l7.085,7.085l14.111-14.11l-3.68-3.68c-0.639-0.638-0.183-1.672,0.669-1.672h13.229
		c0.548,0,0.974,0.426,0.974,0.973V27.936z"/>
</g>
</svg>
