<?xml version="1.0" encoding="utf-8"?>
<!-- Generator: Adobe Illustrator 16.0.0, SVG Export Plug-In . SVG Version: 6.00 Build 0)  -->
<!DOCTYPE svg PUBLIC "-//W3C//DTD SVG 1.1//EN" "http://www.w3.org/Graphics/SVG/1.1/DTD/svg11.dtd">
<svg version="1.1" id="Layer_1" xmlns="http://www.w3.org/2000/svg" xmlns:xlink="http://www.w3.org/1999/xlink" x="0px" y="0px"
	 width="64px" height="64px" viewBox="0 0 64 64" enable-background="new 0 0 64 64" xml:space="preserve">
<g>
	<path d="M59.389,57.745c0,2.344-1.941,4.285-4.285,4.285H7.967c-2.343,0-4.285-1.941-4.285-4.285V14.894
		c0-2.344,1.942-4.285,4.285-4.285h4.285V7.395c0-2.946,2.41-5.356,5.356-5.356h2.143c2.946,0,5.356,2.41,5.356,5.356v3.214h12.855
		V7.395c0-2.946,2.41-5.356,5.356-5.356h2.143c2.946,0,5.356,2.41,5.356,5.356v3.214h4.285c2.344,0,4.285,1.941,4.285,4.285V57.745z
		 M55.104,57.745V23.464H7.967v34.281H55.104z M20.822,7.395c0-0.603-0.469-1.071-1.071-1.071h-2.143
		c-0.603,0-1.071,0.469-1.071,1.071v9.642c0,0.603,0.469,1.071,1.071,1.071h2.143c0.603,0,1.071-0.469,1.071-1.071V7.395z
		 M39.336,49.944c-0.402,0.402-1.072,0.402-1.507,0l-6.294-6.327l-6.294,6.327c-0.435,0.402-1.104,0.402-1.506,0l-1.54-1.539
		c-0.402-0.402-0.402-1.071,0-1.507l6.327-6.294l-6.327-6.294c-0.402-0.436-0.402-1.104,0-1.507l1.54-1.539
		c0.402-0.402,1.071-0.402,1.506,0l6.294,6.293l6.294-6.293c0.435-0.402,1.104-0.402,1.507,0l1.539,1.539
		c0.402,0.402,0.402,1.071,0,1.507l-6.293,6.294l6.293,6.294c0.402,0.436,0.402,1.104,0,1.507L39.336,49.944z M46.533,7.395
		c0-0.603-0.469-1.071-1.071-1.071h-2.143c-0.603,0-1.071,0.469-1.071,1.071v9.642c0,0.603,0.469,1.071,1.071,1.071h2.143
		c0.603,0,1.071-0.469,1.071-1.071V7.395z"/>
</g>
</svg>
