<?xml version="1.0" encoding="utf-8"?>
<!-- Generator: Adobe Illustrator 16.0.0, SVG Export Plug-In . SVG Version: 6.00 Build 0)  -->
<!DOCTYPE svg PUBLIC "-//W3C//DTD SVG 1.1//EN" "http://www.w3.org/Graphics/SVG/1.1/DTD/svg11.dtd">
<svg version="1.1" id="Layer_1" xmlns="http://www.w3.org/2000/svg" xmlns:xlink="http://www.w3.org/1999/xlink" x="0px" y="0px"
	 width="64px" height="64px" viewBox="0 0 64 64" enable-background="new 0 0 64 64" xml:space="preserve">
<g>
	<path d="M31.57,54c-1.641,0-3.281-0.1-4.854-0.268c-4.385,3.883-9.608,6.629-15.399,8.102c-1.206,0.336-2.511,0.57-3.816,0.736
		c-0.067,0-0.134,0-0.167,0c-0.669,0-1.272-0.535-1.439-1.271c0-0.033,0-0.033,0-0.033c-0.167-0.838,0.401-1.34,0.904-1.941
		c2.109-2.377,4.52-4.387,6.093-9.977C5.993,45.43,1.574,39.371,1.574,32.575c0-11.852,13.425-21.426,29.996-21.426
		s29.996,9.574,29.996,21.426C61.566,44.426,48.142,54,31.57,54z M5.859,32.575c0,4.988,3.348,9.742,9.14,13.023l2.912,1.674
		l-0.904,3.213c-0.636,2.377-1.473,4.219-2.343,5.76c3.381-1.406,6.461-3.314,9.207-5.725l1.439-1.273l1.908,0.201
		c1.439,0.168,2.913,0.268,4.352,0.268c13.927,0,25.711-7.834,25.711-17.14c0-9.307-11.784-17.141-25.711-17.141
		S5.859,23.268,5.859,32.575z"/>
</g>
</svg>
