<?xml version="1.0" encoding="utf-8"?>
<!-- Generator: Adobe Illustrator 16.0.0, SVG Export Plug-In . SVG Version: 6.00 Build 0)  -->
<!DOCTYPE svg PUBLIC "-//W3C//DTD SVG 1.1//EN" "http://www.w3.org/Graphics/SVG/1.1/DTD/svg11.dtd">
<svg version="1.1" id="Layer_1" xmlns="http://www.w3.org/2000/svg" xmlns:xlink="http://www.w3.org/1999/xlink" x="0px" y="0px"
	 width="64px" height="64px" viewBox="0 0 64 64" enable-background="new 0 0 64 64" xml:space="preserve">
<g>
	<path d="M48.928,28.199c0,9.475-10.545,17.141-23.568,17.141c-2.042,0-4.018-0.201-5.892-0.535
		c-2.779,1.975-5.926,3.414-9.307,4.285c-0.904,0.233-1.875,0.401-2.879,0.535c-0.033,0-0.067,0-0.1,0
		c-0.502,0-0.971-0.401-1.071-0.971c-0.134-0.637,0.301-1.038,0.669-1.474c1.306-1.473,2.778-2.778,3.917-5.557
		c-5.424-3.147-8.905-8.001-8.905-13.425c0-9.475,10.545-17.141,23.568-17.141S48.928,18.725,48.928,28.199z M6.077,28.199
		c0,3.683,2.478,7.231,6.763,9.709l3.247,1.874l-1.172,2.812c0.703-0.401,1.406-0.837,2.076-1.306l1.473-1.038l1.774,0.335
		c1.674,0.302,3.381,0.469,5.122,0.469c10.445,0,19.283-5.893,19.283-12.855S35.805,15.344,25.36,15.344
		C14.915,15.344,6.077,21.236,6.077,28.199z M56.795,55.751c0.369,0.436,0.805,0.837,0.67,1.474
		c-0.134,0.603-0.636,1.038-1.172,0.971c-1.004-0.134-1.975-0.302-2.879-0.535c-3.381-0.871-6.527-2.311-9.307-4.285
		c-1.875,0.334-3.85,0.535-5.893,0.535c-6.059,0-11.616-1.674-15.801-4.419c0.971,0.066,1.976,0.134,2.946,0.134
		c7.198,0,13.994-2.075,19.183-5.825c5.59-4.084,8.67-9.608,8.67-15.601c0-1.741-0.268-3.448-0.77-5.089
		c5.658,3.113,9.34,8.068,9.34,13.659c0,5.457-3.48,10.277-8.904,13.425C54.018,52.973,55.49,54.278,56.795,55.751z"/>
</g>
</svg>
