<?xml version="1.0" encoding="utf-8"?>
<!-- Generator: Adobe Illustrator 16.0.0, SVG Export Plug-In . SVG Version: 6.00 Build 0)  -->
<!DOCTYPE svg PUBLIC "-//W3C//DTD SVG 1.1//EN" "http://www.w3.org/Graphics/SVG/1.1/DTD/svg11.dtd">
<svg version="1.1" id="Layer_1" xmlns="http://www.w3.org/2000/svg" xmlns:xlink="http://www.w3.org/1999/xlink" x="0px" y="0px"
	 width="64px" height="64px" viewBox="0 0 64 64" enable-background="new 0 0 64 64" xml:space="preserve">
<g>
	<path d="M31.735,58.195c-14.194,0-25.711-11.518-25.711-25.711c0-14.194,11.517-25.711,25.711-25.711S57.446,18.29,57.446,32.484
		C57.446,46.678,45.93,58.195,31.735,58.195z M48.407,25.521l-3.046-3.013c-0.402-0.401-0.938-0.636-1.507-0.636
		s-1.104,0.234-1.507,0.636L28.689,36.133l-7.566-7.566c-0.402-0.402-0.938-0.636-1.507-0.636c-0.569,0-1.104,0.234-1.506,0.636
		l-3.046,3.013c-0.402,0.402-0.603,0.971-0.603,1.54s0.201,1.104,0.603,1.507l12.119,12.119c0.401,0.4,0.971,0.635,1.506,0.635
		c0.569,0,1.138-0.234,1.54-0.635l18.178-18.179c0.401-0.402,0.603-0.938,0.603-1.506C49.01,26.491,48.809,25.922,48.407,25.521z"/>
</g>
</svg>
