<?xml version="1.0" encoding="utf-8"?>
<!-- Generator: Adobe Illustrator 16.0.0, SVG Export Plug-In . SVG Version: 6.00 Build 0)  -->
<!DOCTYPE svg PUBLIC "-//W3C//DTD SVG 1.1//EN" "http://www.w3.org/Graphics/SVG/1.1/DTD/svg11.dtd">
<svg version="1.1" id="Layer_1" xmlns="http://www.w3.org/2000/svg" xmlns:xlink="http://www.w3.org/1999/xlink" x="0px" y="0px"
	 width="64px" height="64px" viewBox="0 0 64 64" enable-background="new 0 0 64 64" xml:space="preserve">
<g>
	<path d="M31.461,58.035c-14.194,0-25.711-11.517-25.711-25.711S17.267,6.613,31.461,6.613S57.172,18.13,57.172,32.324
		S45.655,58.035,31.461,58.035z M48.166,37.045c0.838-0.837,0.838-2.177,0-3.014L32.967,18.833c-0.836-0.837-2.175-0.837-3.012,0
		L14.755,34.031c-0.837,0.837-0.837,2.177,0,3.014l3.415,3.414c0.837,0.837,2.176,0.837,3.013,0l10.278-10.277l10.277,10.277
		c0.838,0.837,2.176,0.837,3.014,0L48.166,37.045z"/>
</g>
</svg>
