<?xml version="1.0" encoding="utf-8"?>
<!-- Generator: Adobe Illustrator 16.0.0, SVG Export Plug-In . SVG Version: 6.00 Build 0)  -->
<!DOCTYPE svg PUBLIC "-//W3C//DTD SVG 1.1//EN" "http://www.w3.org/Graphics/SVG/1.1/DTD/svg11.dtd">
<svg version="1.1" id="Layer_1" xmlns="http://www.w3.org/2000/svg" xmlns:xlink="http://www.w3.org/1999/xlink" x="0px" y="0px"
	 width="64px" height="64px" viewBox="0 0 64 64" enable-background="new 0 0 64 64" xml:space="preserve">
<g>
	<path d="M29.551,26.396c0,2.712-1.741,5.155-4.285,6.06v26.079c0,2.344-1.942,4.285-4.285,4.285h-4.285
		c-2.343,0-4.285-1.941-4.285-4.285V32.456c-2.544-0.904-4.285-3.348-4.285-6.06V4.971c0-1.172,0.971-2.143,2.143-2.143
		s2.143,0.971,2.143,2.143v13.927c0,1.172,0.971,2.143,2.143,2.143s2.143-0.971,2.143-2.143V4.971c0-1.172,0.971-2.143,2.143-2.143
		s2.143,0.971,2.143,2.143v13.927c0,1.172,0.971,2.143,2.143,2.143s2.143-0.971,2.143-2.143V4.971c0-1.172,0.971-2.143,2.143-2.143
		s2.143,0.971,2.143,2.143V26.396z M55.262,58.535c0,2.344-1.941,4.285-4.285,4.285h-4.285c-2.344,0-4.285-1.941-4.285-4.285V41.395
		h-7.499c-0.569,0-1.071-0.502-1.071-1.071V13.541c0-5.893,4.82-10.713,10.713-10.713h8.57c1.172,0,2.143,0.971,2.143,2.143V58.535z
		"/>
</g>
</svg>
