<?xml version="1.0" encoding="utf-8"?>
<!-- Generator: Adobe Illustrator 16.0.0, SVG Export Plug-In . SVG Version: 6.00 Build 0)  -->
<!DOCTYPE svg PUBLIC "-//W3C//DTD SVG 1.1//EN" "http://www.w3.org/Graphics/SVG/1.1/DTD/svg11.dtd">
<svg version="1.1" id="Layer_1" xmlns="http://www.w3.org/2000/svg" xmlns:xlink="http://www.w3.org/1999/xlink" x="0px" y="0px"
	 width="64px" height="64px" viewBox="0 0 64 64" enable-background="new 0 0 64 64" xml:space="preserve">
<g>
	<path d="M62.844,49.484c0,1.871-1.551,3.422-3.422,3.422H4.672c-1.871,0-3.422-1.551-3.422-3.422V15.266
		c0-1.871,1.551-3.422,3.422-3.422h54.75c1.871,0,3.422,1.551,3.422,3.422V49.484z M10.393,31.226
		c-1.176-0.428-1.817-0.775-1.817-1.31c0-0.455,0.374-0.695,1.016-0.695c1.229,0,2.459,0.454,3.315,0.882l0.481-2.994
		c-0.668-0.321-2.058-0.855-3.983-0.855c-1.364,0-2.486,0.348-3.289,1.016c-0.855,0.695-1.283,1.711-1.283,2.914
		c0,2.192,1.337,3.155,3.529,3.93c1.39,0.509,1.871,0.855,1.871,1.417c0,0.535-0.455,0.829-1.283,0.829
		c-1.016,0-2.7-0.508-3.796-1.149l-0.481,3.021c0.936,0.535,2.673,1.097,4.491,1.097c1.443,0,2.62-0.348,3.449-0.989
		c0.909-0.722,1.363-1.765,1.363-3.128C13.975,32.963,12.612,32.027,10.393,31.226z M22.369,26.494h-2.566v-3.609l-3.448,0.562
		l-0.481,3.047l-1.229,0.214l-0.455,2.753h1.658v5.854c0,1.524,0.401,2.566,1.176,3.208c0.668,0.535,1.631,0.803,2.968,0.803
		c1.042,0,1.657-0.188,2.112-0.295v-3.154c-0.241,0.054-0.802,0.188-1.176,0.188c-0.775,0-1.123-0.428-1.123-1.337v-5.267h2.059
		L22.369,26.494z M30.309,26.414c-0.267-0.054-0.508-0.081-0.749-0.081c-1.123,0-2.032,0.588-2.379,1.658l-0.268-1.497h-3.502
		v12.591h4.01v-8.18c0.508-0.615,1.23-0.829,2.192-0.829c0.214,0,0.428,0,0.695,0.053V26.414z M33.304,21.013
		c-1.177,0-2.112,0.936-2.112,2.112c0,1.177,0.936,2.139,2.112,2.139c1.176,0,2.111-0.962,2.111-2.139
		C35.415,21.949,34.479,21.013,33.304,21.013z M35.309,39.085V26.494h-4.01v12.591H35.309z M46.724,27.643
		c-0.722-0.936-1.711-1.39-2.968-1.39c-1.149,0-2.165,0.481-3.128,1.497l-0.214-1.256h-3.528v17.243l4.01-0.668v-4.037
		c0.615,0.188,1.257,0.295,1.818,0.295c0.989,0,2.459-0.268,3.582-1.498c1.096-1.176,1.631-2.994,1.631-5.399
		C47.927,30.29,47.525,28.659,46.724,27.643z M43.382,35.396c-0.321,0.589-0.829,0.937-1.39,0.937c-0.401,0-0.775-0.081-1.097-0.241
		v-5.988c0.695-0.722,1.31-0.802,1.524-0.802c1.016,0,1.523,1.123,1.523,3.262C43.943,33.792,43.756,34.728,43.382,35.396z
		 M58.139,27.964c-0.882-1.123-2.192-1.711-3.85-1.711c-3.422,0-5.534,2.513-5.534,6.576c0,2.246,0.562,3.957,1.685,5.026
		c0.989,0.989,2.433,1.471,4.304,1.471c1.711,0,3.288-0.401,4.277-1.07l-0.428-2.753c-0.989,0.534-2.139,0.829-3.422,0.829
		c-0.774,0-1.31-0.161-1.684-0.509c-0.428-0.347-0.669-0.936-0.749-1.764h6.63c0.027-0.188,0.054-1.097,0.054-1.391
		C59.422,30.664,58.994,29.087,58.139,27.964z M52.712,31.6c0.106-1.791,0.588-2.62,1.497-2.62s1.39,0.855,1.443,2.62H52.712z"/>
</g>
</svg>
