<?xml version="1.0" encoding="utf-8"?>
<!-- Generator: Adobe Illustrator 16.0.0, SVG Export Plug-In . SVG Version: 6.00 Build 0)  -->
<!DOCTYPE svg PUBLIC "-//W3C//DTD SVG 1.1//EN" "http://www.w3.org/Graphics/SVG/1.1/DTD/svg11.dtd">
<svg version="1.1" id="Layer_1" xmlns="http://www.w3.org/2000/svg" xmlns:xlink="http://www.w3.org/1999/xlink" x="0px" y="0px"
	 width="64px" height="64px" viewBox="0 0 64 64" enable-background="new 0 0 64 64" xml:space="preserve">
<g>
	<path d="M59.928,57.925c0,2.344-1.941,4.285-4.285,4.285H8.506c-2.343,0-4.285-1.941-4.285-4.285V15.073
		c0-2.344,1.942-4.285,4.285-4.285h4.285V7.574c0-2.946,2.41-5.356,5.356-5.356h2.143c2.946,0,5.356,2.41,5.356,5.356v3.214h12.855
		V7.574c0-2.946,2.41-5.356,5.357-5.356h2.143c2.945,0,5.355,2.41,5.355,5.356v3.214h4.285c2.344,0,4.285,1.941,4.285,4.285V57.925z
		 M55.643,57.925V23.644H8.506v34.281H55.643z M21.362,7.574c0-0.603-0.469-1.071-1.071-1.071h-2.143
		c-0.603,0-1.071,0.469-1.071,1.071v9.642c0,0.603,0.469,1.071,1.071,1.071h2.143c0.603,0,1.071-0.469,1.071-1.071V7.574z
		 M30.702,51.631c-0.435,0.401-1.105,0.401-1.54,0l-9.642-9.642c-0.402-0.436-0.402-1.104,0-1.507l1.54-1.539
		c0.402-0.402,1.071-0.402,1.506,0l7.365,7.364l14.865-14.863c0.435-0.402,1.104-0.402,1.506,0l1.54,1.539
		c0.401,0.402,0.401,1.071,0,1.507L30.702,51.631z M47.072,7.574c0-0.603-0.469-1.071-1.07-1.071h-2.143
		c-0.604,0-1.072,0.469-1.072,1.071v9.642c0,0.603,0.469,1.071,1.072,1.071h2.143c0.602,0,1.07-0.469,1.07-1.071V7.574z"/>
</g>
</svg>
