<?xml version="1.0" encoding="utf-8"?>
<!-- Generator: Adobe Illustrator 16.0.0, SVG Export Plug-In . SVG Version: 6.00 Build 0)  -->
<!DOCTYPE svg PUBLIC "-//W3C//DTD SVG 1.1//EN" "http://www.w3.org/Graphics/SVG/1.1/DTD/svg11.dtd">
<svg version="1.1" id="Layer_1" xmlns="http://www.w3.org/2000/svg" xmlns:xlink="http://www.w3.org/1999/xlink" x="0px" y="0px"
	 width="64px" height="64px" viewBox="0 0 64 64" enable-background="new 0 0 64 64" xml:space="preserve">
<g>
	<path d="M60.129,50.787c0,1.774-1.439,3.214-3.213,3.214H7.636c-1.774,0-3.214-1.439-3.214-3.214V40.074
		c0-1.774,1.439-3.214,3.214-3.214h15.567l4.52,4.553c1.238,1.205,2.845,1.875,4.553,1.875s3.314-0.67,4.552-1.875l4.554-4.553
		h15.534c1.773,0,3.213,1.439,3.213,3.214V50.787z M48.78,23.369L33.782,38.367c-0.401,0.435-0.971,0.636-1.506,0.636
		s-1.105-0.201-1.506-0.636L15.771,23.369c-0.636-0.603-0.804-1.54-0.469-2.344c0.334-0.771,1.104-1.306,1.975-1.306h8.57V4.722
		c0-1.172,0.971-2.143,2.143-2.143h8.57c1.172,0,2.143,0.971,2.143,2.143V19.72h8.57c0.871,0,1.641,0.535,1.976,1.306
		C49.584,21.829,49.416,22.767,48.78,23.369z M45.131,45.431c-1.172,0-2.143,0.971-2.143,2.143s0.971,2.143,2.143,2.143
		s2.143-0.971,2.143-2.143S46.303,45.431,45.131,45.431z M53.701,45.431c-1.172,0-2.143,0.971-2.143,2.143s0.971,2.143,2.143,2.143
		s2.143-0.971,2.143-2.143S54.873,45.431,53.701,45.431z"/>
</g>
</svg>
