<?xml version="1.0" encoding="utf-8"?>
<!-- Generator: Adobe Illustrator 16.0.0, SVG Export Plug-In . SVG Version: 6.00 Build 0)  -->
<!DOCTYPE svg PUBLIC "-//W3C//DTD SVG 1.1//EN" "http://www.w3.org/Graphics/SVG/1.1/DTD/svg11.dtd">
<svg version="1.1" id="Layer_1" xmlns="http://www.w3.org/2000/svg" xmlns:xlink="http://www.w3.org/1999/xlink" x="0px" y="0px"
	 width="64px" height="64px" viewBox="0 0 64 64" enable-background="new 0 0 64 64" xml:space="preserve">
<g>
	<path d="M21.105,35.896c0,1.774-1.439,3.214-3.214,3.214h-6.428c-1.774,0-3.214-1.439-3.214-3.214v-6.428
		c0-1.774,1.439-3.214,3.214-3.214h6.428c1.774,0,3.214,1.439,3.214,3.214V35.896z M38.246,35.896c0,1.774-1.439,3.214-3.214,3.214
		h-6.428c-1.774,0-3.214-1.439-3.214-3.214v-6.428c0-1.774,1.439-3.214,3.214-3.214h6.428c1.774,0,3.214,1.439,3.214,3.214V35.896z
		 M55.387,35.896c0,1.774-1.439,3.214-3.214,3.214h-6.428c-1.774,0-3.214-1.439-3.214-3.214v-6.428c0-1.774,1.439-3.214,3.214-3.214
		h6.428c1.774,0,3.214,1.439,3.214,3.214V35.896z"/>
</g>
</svg>
