<?xml version="1.0" encoding="utf-8"?>
<!-- Generator: Adobe Illustrator 16.0.0, SVG Export Plug-In . SVG Version: 6.00 Build 0)  -->
<!DOCTYPE svg PUBLIC "-//W3C//DTD SVG 1.1//EN" "http://www.w3.org/Graphics/SVG/1.1/DTD/svg11.dtd">
<svg version="1.1" id="Layer_1" xmlns="http://www.w3.org/2000/svg" xmlns:xlink="http://www.w3.org/1999/xlink" x="0px" y="0px"
	 width="64px" height="64px" viewBox="0 0 64 64" enable-background="new 0 0 64 64" xml:space="preserve">
<g>
	<path d="M61.566,24.273L50.854,34.986c-0.201,0.201-0.503,0.302-0.771,0.302c-0.569,0-1.071-0.502-1.071-1.071v-6.428H2.946
		c-0.569,0-1.071-0.502-1.071-1.071V20.29c0-0.569,0.502-1.071,1.071-1.071h46.065v-6.428c0-0.603,0.469-1.071,1.071-1.071
		c0.302,0,0.569,0.134,0.804,0.335l10.68,10.68c0.2,0.2,0.301,0.502,0.301,0.77S61.767,24.073,61.566,24.273z M61.867,48.144
		c0,0.569-0.502,1.071-1.071,1.071H14.73v6.428c0,0.569-0.469,1.071-1.071,1.071c-0.301,0-0.569-0.134-0.804-0.335L2.176,45.666
		c-0.201-0.201-0.301-0.469-0.301-0.736c0-0.302,0.101-0.569,0.301-0.77l10.713-10.713c0.201-0.201,0.502-0.302,0.77-0.302
		c0.569,0,1.071,0.469,1.071,1.071v6.428h46.065c0.569,0,1.071,0.469,1.071,1.071V48.144z"/>
</g>
</svg>
