<?xml version="1.0" encoding="utf-8"?>
<!-- Generator: Adobe Illustrator 16.0.0, SVG Export Plug-In . SVG Version: 6.00 Build 0)  -->
<!DOCTYPE svg PUBLIC "-//W3C//DTD SVG 1.1//EN" "http://www.w3.org/Graphics/SVG/1.1/DTD/svg11.dtd">
<svg version="1.1" id="Layer_1" xmlns="http://www.w3.org/2000/svg" xmlns:xlink="http://www.w3.org/1999/xlink" x="0px" y="0px"
	 width="64px" height="64px" viewBox="0 0 64 64" enable-background="new 0 0 64 64" xml:space="preserve">
<g>
	<path d="M61.294,37.055c-6.16,10.145-17.442,16.973-29.327,16.973c-11.885,0-23.167-6.863-29.327-16.973
		c-0.402-0.703-0.669-1.473-0.669-2.311c0-0.836,0.268-1.607,0.669-2.309c6.16-10.11,17.442-16.974,29.327-16.974
		c11.884,0,23.167,6.863,29.327,16.974c0.401,0.702,0.669,1.473,0.669,2.309C61.963,35.582,61.695,36.352,61.294,37.055z
		 M44.924,22.927c1.338,2.276,2.041,4.888,2.041,7.532c0,8.269-6.729,14.998-14.998,14.998s-14.998-6.729-14.998-14.998
		c0-2.645,0.703-5.256,2.042-7.532c-5.222,2.678-9.575,6.896-12.755,11.817c5.725,8.838,14.964,14.998,25.711,14.998
		s19.986-6.16,25.71-14.998C54.498,29.824,50.146,25.605,44.924,22.927z M31.967,20.282c-5.591,0-10.177,4.587-10.177,10.178
		c0,0.87,0.736,1.607,1.607,1.607s1.607-0.737,1.607-1.607c0-3.816,3.147-6.963,6.963-6.963c0.871,0,1.607-0.737,1.607-1.607
		S32.838,20.282,31.967,20.282z"/>
</g>
</svg>
