<?xml version="1.0" encoding="utf-8"?>
<!-- Generator: Adobe Illustrator 16.0.0, SVG Export Plug-In . SVG Version: 6.00 Build 0)  -->
<!DOCTYPE svg PUBLIC "-//W3C//DTD SVG 1.1//EN" "http://www.w3.org/Graphics/SVG/1.1/DTD/svg11.dtd">
<svg version="1.1" id="Layer_1" xmlns="http://www.w3.org/2000/svg" xmlns:xlink="http://www.w3.org/1999/xlink" x="0px" y="0px"
	 width="64px" height="64px" viewBox="0 0 64 64" enable-background="new 0 0 64 64" xml:space="preserve">
<g>
	<path d="M45.604,17.056c-7.064,12.621-14.061,25.309-21.125,37.93l-1.641,2.979c-0.201,0.335-0.569,0.536-0.938,0.536
		c-0.603,0-3.783-1.941-4.486-2.344c-0.335-0.2-0.536-0.535-0.536-0.938c0-0.535,1.138-2.343,1.473-2.912
		C11.858,49.361,6.401,44.34,2.551,38.313c-0.435-0.669-0.669-1.473-0.669-2.31c0-0.804,0.234-1.641,0.669-2.31
		C9.18,23.517,19.524,16.721,31.877,16.721c2.009,0,4.05,0.201,6.026,0.569l1.808-3.247c0.201-0.335,0.536-0.536,0.938-0.536
		c0.604,0,3.75,1.941,4.453,2.344c0.334,0.2,0.535,0.535,0.535,0.903C45.637,16.821,45.637,16.988,45.604,17.056z M23.073,43.838
		c-3.883-2.812-6.193-7.332-6.193-12.119c0-2.645,0.703-5.256,2.042-7.532c-5.222,2.678-9.575,6.896-12.755,11.817
		c3.481,5.39,8.403,9.909,14.295,12.554L23.073,43.838z M31.877,21.541c-5.591,0-10.177,4.587-10.177,10.178
		c0,0.87,0.736,1.607,1.607,1.607s1.607-0.737,1.607-1.607c0-3.85,3.147-6.963,6.963-6.963c0.871,0,1.607-0.737,1.607-1.607
		S32.748,21.541,31.877,21.541z M61.204,38.313c-1.038,1.708-2.344,3.349-3.649,4.854C50.993,50.7,41.954,55.287,31.877,55.287
		l2.478-4.419c9.741-0.837,18.01-6.763,23.232-14.864c-2.477-3.85-5.657-7.231-9.44-9.843l2.109-3.749
		c4.151,2.778,8.336,6.963,10.947,11.282c0.435,0.736,0.669,1.439,0.669,2.31S61.639,37.577,61.204,38.313z M37.234,45.713
		l9.373-16.807c0.168,0.938,0.268,1.875,0.268,2.812C46.875,37.945,43.025,43.503,37.234,45.713z"/>
</g>
</svg>
