<?xml version="1.0" encoding="utf-8"?>
<!-- Generator: Adobe Illustrator 16.0.0, SVG Export Plug-In . SVG Version: 6.00 Build 0)  -->
<!DOCTYPE svg PUBLIC "-//W3C//DTD SVG 1.1//EN" "http://www.w3.org/Graphics/SVG/1.1/DTD/svg11.dtd">
<svg version="1.1" id="Layer_1" xmlns="http://www.w3.org/2000/svg" xmlns:xlink="http://www.w3.org/1999/xlink" x="0px" y="0px"
	 width="64px" height="64px" viewBox="0 0 64 64" enable-background="new 0 0 64 64" xml:space="preserve">
<g>
	<path d="M57.547,8.959v45.73c0,1.573-1.271,2.846-2.846,2.846h-13.09V37.616h6.662l1.004-7.768h-7.666v-4.954
		c0-2.243,0.603-3.75,3.85-3.75l4.085-0.033v-6.93c-0.703-0.101-3.147-0.302-5.96-0.302c-5.925,0-10.01,3.616-10.01,10.244v5.725
		h-6.695v7.768h6.695v19.919H8.971c-1.574,0-2.846-1.272-2.846-2.846V8.959c0-1.573,1.272-2.846,2.846-2.846h45.73
		C56.275,6.113,57.547,7.386,57.547,8.959z"/>
</g>
</svg>
