<?xml version="1.0" encoding="utf-8"?>
<!-- Generator: Adobe Illustrator 16.0.0, SVG Export Plug-In . SVG Version: 6.00 Build 0)  -->
<!DOCTYPE svg PUBLIC "-//W3C//DTD SVG 1.1//EN" "http://www.w3.org/Graphics/SVG/1.1/DTD/svg11.dtd">
<svg version="1.1" id="Layer_1" xmlns="http://www.w3.org/2000/svg" xmlns:xlink="http://www.w3.org/1999/xlink" x="0px" y="0px"
	 width="64px" height="64px" viewBox="0 0 64 64" enable-background="new 0 0 64 64" xml:space="preserve">
<g>
	<path d="M58.303,20.339v38.567c0,1.773-1.439,3.213-3.214,3.213H10.095c-1.774,0-3.214-1.439-3.214-3.213V5.341
		c0-1.774,1.439-3.214,3.214-3.214h29.996c1.774,0,4.251,1.038,5.49,2.276l10.445,10.445C57.266,16.087,58.303,18.565,58.303,20.339
		z M54.018,23.553H40.091c-1.774,0-3.214-1.439-3.214-3.214V6.413H11.166v51.421h42.852V23.553z M20.808,27.838h23.568
		c0.603,0,1.071,0.469,1.071,1.071v2.143c0,0.603-0.469,1.071-1.071,1.071H20.808c-0.603,0-1.071-0.469-1.071-1.071V28.91
		C19.736,28.307,20.205,27.838,20.808,27.838z M45.447,37.48v2.143c0,0.602-0.469,1.07-1.071,1.07H20.808
		c-0.603,0-1.071-0.469-1.071-1.07V37.48c0-0.604,0.469-1.072,1.071-1.072h23.568C44.979,36.408,45.447,36.877,45.447,37.48z
		 M45.447,46.051v2.143c0,0.602-0.469,1.07-1.071,1.07H20.808c-0.603,0-1.071-0.469-1.071-1.07v-2.143
		c0-0.604,0.469-1.072,1.071-1.072h23.568C44.979,44.979,45.447,45.447,45.447,46.051z M41.162,19.268H53.75
		c-0.201-0.569-0.502-1.139-0.736-1.373L42.535,7.417c-0.234-0.234-0.804-0.535-1.373-0.736V19.268z"/>
</g>
</svg>
