<?xml version="1.0" encoding="utf-8"?>
<!-- Generator: Adobe Illustrator 16.0.0, SVG Export Plug-In . SVG Version: 6.00 Build 0)  -->
<!DOCTYPE svg PUBLIC "-//W3C//DTD SVG 1.1//EN" "http://www.w3.org/Graphics/SVG/1.1/DTD/svg11.dtd">
<svg version="1.1" id="Layer_1" xmlns="http://www.w3.org/2000/svg" xmlns:xlink="http://www.w3.org/1999/xlink" x="0px" y="0px"
	 width="64px" height="64px" viewBox="0 0 64 64" enable-background="new 0 0 64 64" xml:space="preserve">
<g>
	<path d="M63.09,54.806c0,2.868-2.348,5.215-5.215,5.215H5.726c-2.868,0-5.215-2.347-5.215-5.215V11.001
		c0-2.868,2.347-5.215,5.215-5.215h52.149c2.867,0,5.215,2.347,5.215,5.215V54.806z M13.027,12.044c0-1.141-0.945-2.086-2.086-2.086
		H6.769c-1.141,0-2.086,0.945-2.086,2.086v4.172c0,1.141,0.945,2.086,2.086,2.086h4.172c1.141,0,2.086-0.945,2.086-2.086V12.044z
		 M13.027,24.56c0-1.141-0.945-2.086-2.086-2.086H6.769c-1.141,0-2.086,0.945-2.086,2.086v4.172c0,1.141,0.945,2.086,2.086,2.086
		h4.172c1.141,0,2.086-0.945,2.086-2.086V24.56z M13.027,37.075c0-1.141-0.945-2.086-2.086-2.086H6.769
		c-1.141,0-2.086,0.945-2.086,2.086v4.172c0,1.141,0.945,2.086,2.086,2.086h4.172c1.141,0,2.086-0.945,2.086-2.086V37.075z
		 M13.027,49.591c0-1.141-0.945-2.086-2.086-2.086H6.769c-1.141,0-2.086,0.945-2.086,2.086v4.172c0,1.141,0.945,2.086,2.086,2.086
		h4.172c1.141,0,2.086-0.945,2.086-2.086V49.591z M46.402,12.044c0-1.141-0.945-2.086-2.086-2.086H19.285
		c-1.141,0-2.086,0.945-2.086,2.086v16.688c0,1.141,0.945,2.086,2.086,2.086h25.032c1.141,0,2.086-0.945,2.086-2.086V12.044z
		 M46.402,37.075c0-1.141-0.945-2.086-2.086-2.086H19.285c-1.141,0-2.086,0.945-2.086,2.086v16.688c0,1.141,0.945,2.086,2.086,2.086
		h25.032c1.141,0,2.086-0.945,2.086-2.086V37.075z M58.918,12.044c0-1.141-0.945-2.086-2.086-2.086H52.66
		c-1.142,0-2.086,0.945-2.086,2.086v4.172c0,1.141,0.944,2.086,2.086,2.086h4.172c1.141,0,2.086-0.945,2.086-2.086V12.044z
		 M58.918,24.56c0-1.141-0.945-2.086-2.086-2.086H52.66c-1.142,0-2.086,0.945-2.086,2.086v4.172c0,1.141,0.944,2.086,2.086,2.086
		h4.172c1.141,0,2.086-0.945,2.086-2.086V24.56z M58.918,37.075c0-1.141-0.945-2.086-2.086-2.086H52.66
		c-1.142,0-2.086,0.945-2.086,2.086v4.172c0,1.141,0.944,2.086,2.086,2.086h4.172c1.141,0,2.086-0.945,2.086-2.086V37.075z
		 M58.918,49.591c0-1.141-0.945-2.086-2.086-2.086H52.66c-1.142,0-2.086,0.945-2.086,2.086v4.172c0,1.141,0.944,2.086,2.086,2.086
		h4.172c1.141,0,2.086-0.945,2.086-2.086V49.591z"/>
</g>
</svg>
