<?xml version="1.0" encoding="utf-8"?>
<!-- Generator: Adobe Illustrator 16.0.0, SVG Export Plug-In . SVG Version: 6.00 Build 0)  -->
<!DOCTYPE svg PUBLIC "-//W3C//DTD SVG 1.1//EN" "http://www.w3.org/Graphics/SVG/1.1/DTD/svg11.dtd">
<svg version="1.1" id="Layer_1" xmlns="http://www.w3.org/2000/svg" xmlns:xlink="http://www.w3.org/1999/xlink" x="0px" y="0px"
	 width="64px" height="64px" viewBox="0 0 64 64" enable-background="new 0 0 64 64" xml:space="preserve">
<g>
	<path d="M57.493,19.979v38.566c0,1.774-1.439,3.214-3.214,3.214H9.285c-1.774,0-3.214-1.439-3.214-3.214V4.981
		c0-1.774,1.439-3.214,3.214-3.214h29.996c1.774,0,4.252,1.038,5.49,2.276l10.445,10.445C56.455,15.728,57.493,18.205,57.493,19.979
		z M53.208,23.193H39.281c-1.774,0-3.214-1.439-3.214-3.214V6.053H10.356v51.422h42.852V23.193z M27.497,31.229v18.211
		c0,0.436-0.268,0.838-0.669,1.005c-0.134,0.033-0.268,0.067-0.402,0.067c-0.268,0-0.536-0.101-0.77-0.302l-5.557-5.591h-4.386
		c-0.603,0-1.071-0.469-1.071-1.071V37.12c0-0.603,0.469-1.071,1.071-1.071h4.386l5.557-5.591c0.335-0.302,0.77-0.401,1.172-0.234
		S27.497,30.793,27.497,31.229z M35.297,47.666c1.875-2.009,2.913-4.587,2.913-7.332s-1.038-5.323-2.913-7.332
		c-0.803-0.87-2.176-0.903-3.046-0.1c-0.837,0.803-0.904,2.176-0.067,3.046c1.105,1.205,1.741,2.745,1.741,4.386
		s-0.636,3.181-1.741,4.386c-0.837,0.87-0.77,2.243,0.067,3.046c0.435,0.369,0.971,0.569,1.474,0.569
		C34.293,48.335,34.862,48.101,35.297,47.666z M42.461,52.486c2.779-3.415,4.319-7.733,4.319-12.152s-1.54-8.737-4.319-12.152
		c-0.736-0.938-2.108-1.071-3.012-0.335c-0.938,0.771-1.072,2.109-0.302,3.047c2.176,2.678,3.348,5.959,3.348,9.44
		s-1.172,6.763-3.348,9.44c-0.771,0.938-0.636,2.276,0.302,3.014c0.401,0.334,0.869,0.502,1.338,0.502
		C41.424,53.29,42.026,53.022,42.461,52.486z M40.353,18.908H52.94c-0.201-0.569-0.503-1.139-0.737-1.373L41.725,7.057
		c-0.234-0.234-0.803-0.535-1.372-0.736V18.908z"/>
</g>
</svg>
