<?xml version="1.0" encoding="utf-8"?>
<!-- Generator: Adobe Illustrator 16.0.0, SVG Export Plug-In . SVG Version: 6.00 Build 0)  -->
<!DOCTYPE svg PUBLIC "-//W3C//DTD SVG 1.1//EN" "http://www.w3.org/Graphics/SVG/1.1/DTD/svg11.dtd">
<svg version="1.1" id="Layer_1" xmlns="http://www.w3.org/2000/svg" xmlns:xlink="http://www.w3.org/1999/xlink" x="0px" y="0px"
	 width="64px" height="64px" viewBox="0 0 64 64" enable-background="new 0 0 64 64" xml:space="preserve">
<g>
	<path d="M57.943,55.162c0,1.773-1.439,3.213-3.215,3.213H9.735c-1.774,0-3.214-1.439-3.214-3.213V10.167
		c0-1.774,1.439-3.214,3.214-3.214h31.068c1.773,0,4.218,1.004,5.49,2.276l9.373,9.374c1.272,1.272,2.277,3.716,2.277,5.49V55.162z
		 M53.658,54.09V24.094c0-0.636-0.57-2.009-1.005-2.444l-9.407-9.407c-0.469-0.469-1.774-1.004-2.443-1.004v13.927
		c0,1.774-1.439,3.214-3.215,3.214H18.305c-1.774,0-3.214-1.439-3.214-3.214V11.239h-4.285V54.09h4.285V40.164
		c0-1.775,1.439-3.215,3.214-3.215h27.853c1.775,0,3.215,1.439,3.215,3.215V54.09H53.658z M45.088,54.09V41.234H19.376V54.09H45.088
		z M36.518,12.31c0-0.569-0.502-1.071-1.072-1.071h-6.427c-0.569,0-1.071,0.502-1.071,1.071v10.713c0,0.569,0.502,1.071,1.071,1.071
		h6.427c0.57,0,1.072-0.502,1.072-1.071V12.31z"/>
</g>
</svg>
