<?xml version="1.0" encoding="utf-8"?>
<!-- Generator: Adobe Illustrator 16.0.0, SVG Export Plug-In . SVG Version: 6.00 Build 0)  -->
<!DOCTYPE svg PUBLIC "-//W3C//DTD SVG 1.1//EN" "http://www.w3.org/Graphics/SVG/1.1/DTD/svg11.dtd">
<svg version="1.1" id="Layer_1" xmlns="http://www.w3.org/2000/svg" xmlns:xlink="http://www.w3.org/1999/xlink" x="0px" y="0px"
	 width="64px" height="64px" viewBox="0 0 64 64" enable-background="new 0 0 64 64" xml:space="preserve">
<g>
	<path d="M57.583,20.25v38.566c0,1.774-1.439,3.214-3.214,3.214H9.375c-1.774,0-3.214-1.439-3.214-3.214V5.252
		c0-1.774,1.439-3.214,3.214-3.214h29.996c1.774,0,4.252,1.038,5.49,2.276L55.307,14.76C56.545,15.998,57.583,18.476,57.583,20.25z
		 M53.298,23.464H39.371c-1.774,0-3.214-1.439-3.214-3.214V6.323H10.446v51.422h42.852V23.464z M14.731,29.892
		c0-3.549,2.879-6.428,6.428-6.428s6.428,2.879,6.428,6.428s-2.879,6.428-6.428,6.428S14.731,33.44,14.731,29.892z M49.013,53.46
		H14.731v-6.428l6.428-6.428l4.285,4.285L38.3,32.034l10.713,10.713V53.46z M40.442,19.179H53.03
		c-0.201-0.569-0.503-1.139-0.737-1.373L41.814,7.327c-0.234-0.234-0.803-0.535-1.372-0.736V19.179z"/>
</g>
</svg>
