<?xml version="1.0" encoding="utf-8"?>
<!-- Generator: Adobe Illustrator 16.0.0, SVG Export Plug-In . SVG Version: 6.00 Build 0)  -->
<!DOCTYPE svg PUBLIC "-//W3C//DTD SVG 1.1//EN" "http://www.w3.org/Graphics/SVG/1.1/DTD/svg11.dtd">
<svg version="1.1" id="Layer_1" xmlns="http://www.w3.org/2000/svg" xmlns:xlink="http://www.w3.org/1999/xlink" x="0px" y="0px"
	 width="64px" height="64px" viewBox="0 0 64 64" enable-background="new 0 0 64 64" xml:space="preserve">
<g>
	<path d="M57.854,20.521v38.566c0,1.774-1.439,3.214-3.215,3.214H9.645c-1.774,0-3.214-1.439-3.214-3.214V5.522
		c0-1.774,1.439-3.214,3.214-3.214h29.996c1.775,0,4.252,1.038,5.49,2.276L55.576,15.03C56.815,16.269,57.854,18.746,57.854,20.521z
		 M53.568,23.734H39.641c-1.773,0-3.213-1.439-3.213-3.214V6.594H10.716v51.422h42.852V23.734z M36.428,32.305V45.16
		c0,2.344-1.942,4.285-4.286,4.285H19.287c-2.343,0-4.285-1.941-4.285-4.285V32.305c0-2.344,1.942-4.285,4.285-4.285h12.855
		C34.485,28.02,36.428,29.961,36.428,32.305z M49.283,29.091v19.283c0,0.436-0.268,0.837-0.67,1.004
		c-0.135,0.034-0.268,0.067-0.402,0.067c-0.268,0-0.568-0.101-0.77-0.302l-8.871-8.904v-3.014l8.871-8.904
		c0.201-0.201,0.502-0.302,0.77-0.302c0.135,0,0.268,0.033,0.402,0.067C49.016,28.254,49.283,28.655,49.283,29.091z M40.713,19.449
		h12.588c-0.201-0.569-0.503-1.139-0.737-1.373L42.085,7.598c-0.234-0.234-0.804-0.535-1.372-0.736V19.449z"/>
</g>
</svg>
