<?xml version="1.0" encoding="utf-8"?>
<!-- Generator: Adobe Illustrator 16.0.0, SVG Export Plug-In . SVG Version: 6.00 Build 0)  -->
<!DOCTYPE svg PUBLIC "-//W3C//DTD SVG 1.1//EN" "http://www.w3.org/Graphics/SVG/1.1/DTD/svg11.dtd">
<svg version="1.1" id="Layer_1" xmlns="http://www.w3.org/2000/svg" xmlns:xlink="http://www.w3.org/1999/xlink" x="0px" y="0px"
	 width="64px" height="64px" viewBox="0 0 64 64" enable-background="new 0 0 64 64" xml:space="preserve">
<g>
	<path d="M14.431,57.033V7.754c0-1.172,0.669-1.473,1.506-0.636l23.77,23.769c0.201,0.201,0.334,0.402,0.436,0.637V8.826
		c0-1.172,0.971-2.143,2.143-2.143h4.285c1.172,0,2.143,0.971,2.143,2.143v47.137c0,1.172-0.971,2.143-2.143,2.143h-4.285
		c-1.172,0-2.143-0.971-2.143-2.143V33.264c-0.102,0.234-0.234,0.436-0.436,0.637l-23.77,23.77
		C15.101,58.506,14.431,58.205,14.431,57.033z"/>
</g>
</svg>
