<?xml version="1.0" encoding="utf-8"?>
<!-- Generator: Adobe Illustrator 16.0.0, SVG Export Plug-In . SVG Version: 6.00 Build 0)  -->
<!DOCTYPE svg PUBLIC "-//W3C//DTD SVG 1.1//EN" "http://www.w3.org/Graphics/SVG/1.1/DTD/svg11.dtd">
<svg version="1.1" id="Layer_1" xmlns="http://www.w3.org/2000/svg" xmlns:xlink="http://www.w3.org/1999/xlink" x="0px" y="0px"
	 width="64px" height="64px" viewBox="0 0 64 64" enable-background="new 0 0 64 64" xml:space="preserve">
<g>
	<path d="M62.017,18.647v40.709c0,1.774-1.439,3.214-3.214,3.214H26.664c-1.774,0-3.214-1.439-3.214-3.214v-9.642H5.238
		c-1.774,0-3.214-1.439-3.214-3.214V24.004c0-1.774,1.038-4.252,2.276-5.49L17.96,4.854c1.239-1.238,3.716-2.276,5.49-2.276h13.927
		c1.774,0,3.214,1.439,3.214,3.214v10.98c1.306-0.77,2.979-1.339,4.285-1.339h13.927C60.577,15.434,62.017,16.873,62.017,18.647z
		 M36.306,20.79V6.863H23.45V20.79c0,1.774-1.439,3.214-3.214,3.214H6.31V45.43H23.45v-8.57c0-1.774,1.038-4.252,2.276-5.49
		L36.306,20.79z M9.155,19.719h10.01V9.709L9.155,19.719z M57.731,19.719H44.876v13.927c0,1.774-1.439,3.214-3.214,3.214H27.735
		v21.426h29.996V19.719z M30.581,32.574h10.01v-10.01L30.581,32.574z"/>
</g>
</svg>
