<?xml version="1.0" encoding="utf-8"?>
<!-- Generator: Adobe Illustrator 16.0.0, SVG Export Plug-In . SVG Version: 6.00 Build 0)  -->
<!DOCTYPE svg PUBLIC "-//W3C//DTD SVG 1.1//EN" "http://www.w3.org/Graphics/SVG/1.1/DTD/svg11.dtd">
<svg version="1.1" id="Layer_1" xmlns="http://www.w3.org/2000/svg" xmlns:xlink="http://www.w3.org/1999/xlink" x="0px" y="0px"
	 width="64px" height="64px" viewBox="0 0 64 64" enable-background="new 0 0 64 64" xml:space="preserve">
<g>
	<path d="M57.403,23.644v35.353c0,1.774-1.439,3.214-3.214,3.214H9.195c-1.774,0-3.214-1.439-3.214-3.214V5.432
		c0-1.774,1.439-3.214,3.214-3.214h26.782V20.43c0,1.774,1.439,3.214,3.214,3.214H57.403z M44.548,29
		c0-0.603-0.469-1.071-1.071-1.071H19.908c-0.603,0-1.071,0.469-1.071,1.071v2.143c0,0.603,0.469,1.071,1.071,1.071h23.568
		c0.603,0,1.071-0.469,1.071-1.071V29z M44.548,37.57c0-0.603-0.469-1.071-1.071-1.071H19.908c-0.603,0-1.071,0.469-1.071,1.071
		v2.143c0,0.603,0.469,1.071,1.071,1.071h23.568c0.603,0,1.071-0.469,1.071-1.071V37.57z M44.548,46.141
		c0-0.603-0.469-1.071-1.071-1.071H19.908c-0.603,0-1.071,0.469-1.071,1.071v2.143c0,0.603,0.469,1.071,1.071,1.071h23.568
		c0.603,0,1.071-0.469,1.071-1.071V46.141z M56.064,19.358H40.263V3.557c0.469,0.302,0.87,0.603,1.205,0.938l13.659,13.659
		C55.461,18.488,55.763,18.89,56.064,19.358z"/>
</g>
</svg>
