<?xml version="1.0" encoding="utf-8"?>
<!-- Generator: Adobe Illustrator 16.0.0, SVG Export Plug-In . SVG Version: 6.00 Build 0)  -->
<!DOCTYPE svg PUBLIC "-//W3C//DTD SVG 1.1//EN" "http://www.w3.org/Graphics/SVG/1.1/DTD/svg11.dtd">
<svg version="1.1" id="Layer_1" xmlns="http://www.w3.org/2000/svg" xmlns:xlink="http://www.w3.org/1999/xlink" x="0px" y="0px"
	 width="64px" height="64px" viewBox="0 0 64 64" enable-background="new 0 0 64 64" xml:space="preserve">
<g>
	<path d="M59.139,47.941c0,4.117-3.382,7.498-7.5,7.498H10.93c-4.118,0-7.499-3.381-7.499-7.498V15.802
		c0-4.118,3.381-7.499,7.499-7.499h10.713c4.118,0,7.499,3.381,7.499,7.499v1.071h22.497c4.118,0,7.5,3.381,7.5,7.499V47.941z
		 M54.854,24.373c0-1.774-1.439-3.214-3.215-3.214H28.071c-1.774,0-3.214-1.439-3.214-3.214v-2.143c0-1.774-1.439-3.214-3.214-3.214
		H10.93c-1.774,0-3.214,1.439-3.214,3.214v32.139c0,1.773,1.439,3.213,3.214,3.213h40.708c1.775,0,3.215-1.439,3.215-3.213V24.373z"
		/>
</g>
</svg>
