<?xml version="1.0" encoding="utf-8"?>
<!-- Generator: Adobe Illustrator 16.0.0, SVG Export Plug-In . SVG Version: 6.00 Build 0)  -->
<!DOCTYPE svg PUBLIC "-//W3C//DTD SVG 1.1//EN" "http://www.w3.org/Graphics/SVG/1.1/DTD/svg11.dtd">
<svg version="1.1" id="Layer_1" xmlns="http://www.w3.org/2000/svg" xmlns:xlink="http://www.w3.org/1999/xlink" x="0px" y="0px"
	 width="64px" height="64px" viewBox="0 0 64 64" enable-background="new 0 0 64 64" xml:space="preserve">
<g>
	<path d="M57.492,20.34v38.566c0,1.774-1.439,3.214-3.213,3.214H9.285c-1.774,0-3.214-1.439-3.214-3.214V5.342
		c0-1.774,1.439-3.214,3.214-3.214h29.997c1.773,0,4.251,1.038,5.49,2.276L55.217,14.85C56.455,16.088,57.492,18.565,57.492,20.34z
		 M53.207,23.554H39.281c-1.775,0-3.215-1.439-3.215-3.214V6.413h-25.71v51.422h42.851V23.554z M13.871,31.421h2.343l5.491,22.129
		h5.323l4.285-16.236c0.167-0.503,0.268-1.005,0.335-1.54c0.033-0.269,0.067-0.536,0.067-0.804h0.134l0.101,0.804
		c0.1,0.469,0.134,1.004,0.301,1.54l4.285,16.236h5.323l5.491-22.129h2.343v-3.582H39.648v3.582h3.014l-3.314,14.663
		c-0.134,0.536-0.201,1.105-0.234,1.54l-0.066,0.703h-0.135c0-0.201-0.066-0.469-0.1-0.703c-0.102-0.435-0.168-1.004-0.302-1.54
		l-4.821-18.245h-3.816l-4.821,18.245c-0.134,0.536-0.167,1.105-0.268,1.54l-0.134,0.703h-0.134l-0.067-0.703
		c-0.034-0.435-0.101-1.004-0.234-1.54l-3.314-14.663h3.013v-3.582H13.871V31.421z M40.352,19.269h12.588
		c-0.201-0.569-0.502-1.139-0.736-1.373L41.725,7.417c-0.234-0.234-0.803-0.535-1.373-0.736V19.269z"/>
</g>
</svg>
