<?xml version="1.0" encoding="utf-8"?>
<!-- Generator: Adobe Illustrator 16.0.0, SVG Export Plug-In . SVG Version: 6.00 Build 0)  -->
<!DOCTYPE svg PUBLIC "-//W3C//DTD SVG 1.1//EN" "http://www.w3.org/Graphics/SVG/1.1/DTD/svg11.dtd">
<svg version="1.1" id="Layer_1" xmlns="http://www.w3.org/2000/svg" xmlns:xlink="http://www.w3.org/1999/xlink" x="0px" y="0px"
	 width="64px" height="64px" viewBox="0 0 64 64" enable-background="new 0 0 64 64" xml:space="preserve">
<g>
	<path d="M62.005,38.468l-9.634,11.854c-1.86,2.285-5.42,3.983-8.359,3.983H8.485c-4.017,0-7.314-3.298-7.314-7.314V15.643
		c0-4.017,3.298-7.314,7.314-7.314h10.449c4.017,0,7.314,3.298,7.314,7.314v1.045h17.763c4.017,0,7.314,3.298,7.314,7.314v5.225
		h6.27c2.221,0,4.441,1.012,5.421,3.102c0.327,0.686,0.49,1.437,0.49,2.22C63.507,35.986,62.886,37.357,62.005,38.468z
		 M47.146,29.227v-5.225c0-1.73-1.403-3.135-3.135-3.135H25.204c-1.73,0-3.135-1.404-3.135-3.135v-2.09
		c0-1.73-1.404-3.135-3.135-3.135H8.485c-1.73,0-3.135,1.404-3.135,3.135v27.854l8.359-10.285c1.894-2.319,5.388-3.984,8.359-3.984
		H47.146z M57.596,33.406H22.069c-1.73,0-4.017,1.077-5.126,2.416L7.342,47.676c-0.294,0.392-0.587,0.816-0.587,1.307
		c0,0.914,1.012,1.143,1.73,1.143h35.527c1.731,0,4.017-1.077,5.127-2.449l9.601-11.854c0.294-0.358,0.588-0.783,0.588-1.273
		C59.327,33.635,58.314,33.406,57.596,33.406z"/>
</g>
</svg>
