<?xml version="1.0" encoding="utf-8"?>
<!-- Generator: Adobe Illustrator 16.0.0, SVG Export Plug-In . SVG Version: 6.00 Build 0)  -->
<!DOCTYPE svg PUBLIC "-//W3C//DTD SVG 1.1//EN" "http://www.w3.org/Graphics/SVG/1.1/DTD/svg11.dtd">
<svg version="1.1" id="Layer_1" xmlns="http://www.w3.org/2000/svg" xmlns:xlink="http://www.w3.org/1999/xlink" x="0px" y="0px"
	 width="64px" height="64px" viewBox="0 0 64 64" enable-background="new 0 0 64 64" xml:space="preserve">
<g>
	<path d="M57.422,16.38v32.139c0,5.323-4.318,9.642-9.642,9.642h-6.294V38.24h6.662l1.004-7.766h-7.666V25.52
		c0-2.243,0.603-3.75,3.85-3.75l4.085-0.034v-6.93c-0.703-0.101-3.147-0.302-5.96-0.302c-5.925,0-10.01,3.616-10.01,10.245v5.725
		h-6.695v7.766h6.695v19.92h-17.81C10.319,58.16,6,53.842,6,48.519V16.38c0-5.323,4.319-9.642,9.642-9.642H47.78
		C53.104,6.738,57.422,11.057,57.422,16.38z"/>
</g>
</svg>
