<?xml version="1.0" encoding="utf-8"?>
<!-- Generator: Adobe Illustrator 16.0.0, SVG Export Plug-In . SVG Version: 6.00 Build 0)  -->
<!DOCTYPE svg PUBLIC "-//W3C//DTD SVG 1.1//EN" "http://www.w3.org/Graphics/SVG/1.1/DTD/svg11.dtd">
<svg version="1.1" id="Layer_1" xmlns="http://www.w3.org/2000/svg" xmlns:xlink="http://www.w3.org/1999/xlink" x="0px" y="0px"
	 width="64px" height="64px" viewBox="0 0 64 64" enable-background="new 0 0 64 64" xml:space="preserve">
<g>
	<path d="M42.574,35.4c0,0.423-0.326,0.912-0.749,0.978l-5.05,0.781c-0.261,0.848-0.619,1.662-1.042,2.476
		c0.912,1.304,1.889,2.509,2.932,3.747c0.13,0.195,0.228,0.391,0.228,0.651c0,0.229-0.064,0.456-0.228,0.619
		c-0.651,0.88-4.301,4.854-5.245,4.854c-0.261,0-0.488-0.098-0.684-0.228l-3.747-2.932c-0.814,0.423-1.629,0.749-2.508,1.01
		c-0.163,1.661-0.326,3.453-0.75,5.049c-0.13,0.456-0.521,0.782-0.977,0.782h-6.06c-0.456,0-0.912-0.358-0.977-0.814l-0.75-4.984
		c-0.847-0.261-1.662-0.619-2.443-1.01l-3.844,2.899c-0.163,0.163-0.423,0.228-0.651,0.228c-0.261,0-0.489-0.098-0.684-0.26
		c-0.847-0.782-4.691-4.269-4.691-5.213c0-0.229,0.098-0.424,0.228-0.619c0.945-1.237,1.922-2.443,2.867-3.714
		c-0.456-0.879-0.847-1.759-1.141-2.671l-4.952-0.782c-0.456-0.065-0.782-0.488-0.782-0.944v-6.027c0-0.423,0.326-0.912,0.75-0.977
		l5.049-0.782c0.261-0.847,0.619-1.662,1.042-2.476c-0.912-1.303-1.89-2.508-2.932-3.747c-0.13-0.195-0.228-0.423-0.228-0.651
		s0.065-0.456,0.228-0.651c0.652-0.88,4.3-4.822,5.245-4.822c0.261,0,0.489,0.098,0.684,0.228l3.747,2.932
		c0.814-0.423,1.629-0.75,2.508-1.042c0.163-1.629,0.326-3.421,0.75-5.017c0.13-0.456,0.521-0.782,0.977-0.782h6.06
		c0.456,0,0.912,0.358,0.977,0.814l0.75,4.984c0.847,0.261,1.662,0.619,2.443,1.01l3.844-2.899c0.195-0.163,0.423-0.228,0.651-0.228
		c0.261,0,0.488,0.098,0.685,0.261c0.847,0.782,4.69,4.3,4.69,5.212c0,0.228-0.098,0.423-0.228,0.619
		c-0.945,1.271-1.922,2.443-2.834,3.714c0.423,0.879,0.814,1.759,1.107,2.671l4.951,0.75c0.456,0.098,0.782,0.521,0.782,0.978V35.4z
		 M21.725,23.998c-4.593,0-8.34,3.747-8.34,8.34c0,4.594,3.747,8.34,8.34,8.34s8.34-3.746,8.34-8.34
		C30.064,27.745,26.318,23.998,21.725,23.998z M63.424,17.938c0,0.489-4.202,0.945-4.854,1.01c-0.26,0.619-0.586,1.172-0.977,1.694
		c0.293,0.651,1.661,3.909,1.661,4.496c0,0.098-0.032,0.163-0.13,0.228c-0.392,0.228-3.877,2.313-4.04,2.313
		c-0.424,0-2.867-3.258-3.192-3.746c-0.326,0.032-0.651,0.065-0.978,0.065s-0.651-0.033-0.978-0.065
		c-0.325,0.488-2.769,3.746-3.192,3.746c-0.163,0-3.648-2.085-4.04-2.313c-0.098-0.065-0.13-0.163-0.13-0.228
		c0-0.554,1.368-3.844,1.661-4.496c-0.391-0.521-0.717-1.075-0.977-1.694c-0.652-0.065-4.854-0.521-4.854-1.01v-4.561
		c0-0.489,4.202-0.945,4.854-1.01c0.26-0.586,0.586-1.172,0.977-1.694c-0.293-0.651-1.661-3.942-1.661-4.496
		c0-0.065,0.032-0.163,0.13-0.228c0.392-0.195,3.877-2.28,4.04-2.28c0.424,0,2.867,3.225,3.192,3.713
		c0.326-0.032,0.651-0.065,0.978-0.065s0.651,0.033,0.978,0.065c0.912-1.271,1.89-2.541,2.997-3.648l0.195-0.065
		c0.163,0,3.648,2.052,4.04,2.28c0.098,0.065,0.13,0.163,0.13,0.228c0,0.586-1.368,3.844-1.661,4.496
		c0.391,0.521,0.717,1.107,0.977,1.694c0.652,0.065,4.854,0.521,4.854,1.01V17.938z M63.424,51.298c0,0.489-4.202,0.945-4.854,1.01
		c-0.26,0.619-0.586,1.173-0.977,1.694c0.293,0.651,1.661,3.909,1.661,4.496c0,0.098-0.032,0.162-0.13,0.228
		c-0.392,0.229-3.877,2.313-4.04,2.313c-0.424,0-2.867-3.258-3.192-3.747c-0.326,0.033-0.651,0.065-0.978,0.065
		s-0.651-0.032-0.978-0.065c-0.325,0.489-2.769,3.747-3.192,3.747c-0.163,0-3.648-2.085-4.04-2.313
		c-0.098-0.065-0.13-0.163-0.13-0.228c0-0.555,1.368-3.845,1.661-4.496c-0.391-0.521-0.717-1.075-0.977-1.694
		c-0.652-0.064-4.854-0.521-4.854-1.01v-4.561c0-0.489,4.202-0.945,4.854-1.01c0.26-0.587,0.586-1.173,0.977-1.694
		c-0.293-0.651-1.661-3.941-1.661-4.496c0-0.064,0.032-0.162,0.13-0.228c0.392-0.195,3.877-2.28,4.04-2.28
		c0.424,0,2.867,3.225,3.192,3.714c0.326-0.033,0.651-0.065,0.978-0.065s0.651,0.032,0.978,0.065
		c0.912-1.271,1.89-2.541,2.997-3.649l0.195-0.064c0.163,0,3.648,2.052,4.04,2.28c0.098,0.065,0.13,0.163,0.13,0.228
		c0,0.587-1.368,3.845-1.661,4.496c0.391,0.521,0.717,1.107,0.977,1.694c0.652,0.064,4.854,0.521,4.854,1.01V51.298z M50.914,11.488
		c-2.28,0-4.17,1.89-4.17,4.17c0,2.313,1.89,4.17,4.17,4.17c2.313,0,4.17-1.89,4.17-4.17S53.194,11.488,50.914,11.488z
		 M50.914,44.848c-2.28,0-4.17,1.89-4.17,4.17c0,2.313,1.89,4.17,4.17,4.17c2.313,0,4.17-1.89,4.17-4.17
		S53.194,44.848,50.914,44.848z"/>
</g>
</svg>
