<?xml version="1.0" encoding="utf-8"?>
<!-- Generator: Adobe Illustrator 16.0.0, SVG Export Plug-In . SVG Version: 6.00 Build 0)  -->
<!DOCTYPE svg PUBLIC "-//W3C//DTD SVG 1.1//EN" "http://www.w3.org/Graphics/SVG/1.1/DTD/svg11.dtd">
<svg version="1.1" id="Layer_1" xmlns="http://www.w3.org/2000/svg" xmlns:xlink="http://www.w3.org/1999/xlink" x="0px" y="0px"
	 width="64px" height="64px" viewBox="0 0 64 64" enable-background="new 0 0 64 64" xml:space="preserve">
<g>
	<path d="M56.797,36.107c0,0.502-0.402,1.104-0.938,1.205l-6.193,0.938c-0.368,1.071-0.77,2.075-1.306,3.046
		c1.138,1.641,2.344,3.114,3.582,4.62c0.201,0.234,0.335,0.536,0.335,0.837c0,0.302-0.101,0.536-0.301,0.771
		c-0.804,1.071-5.323,5.992-6.462,5.992c-0.302,0-0.603-0.134-0.87-0.301l-4.62-3.616c-0.971,0.502-2.009,0.938-3.046,1.272
		c-0.234,2.042-0.436,4.218-0.971,6.227c-0.135,0.536-0.604,0.938-1.206,0.938H27.37c-0.603,0-1.139-0.436-1.206-1.004l-0.937-6.16
		c-1.038-0.335-2.042-0.736-3.013-1.239l-4.72,3.583c-0.234,0.2-0.536,0.301-0.837,0.301c-0.302,0-0.603-0.134-0.837-0.368
		c-1.774-1.607-4.118-3.683-5.524-5.624c-0.167-0.234-0.234-0.503-0.234-0.771c0-0.301,0.1-0.535,0.268-0.77
		c1.138-1.54,2.377-3.014,3.515-4.587c-0.569-1.071-1.038-2.176-1.373-3.314l-6.126-0.903c-0.569-0.101-0.971-0.637-0.971-1.205
		v-7.433c0-0.502,0.402-1.104,0.904-1.205l6.227-0.938c0.334-1.071,0.77-2.075,1.306-3.08c-1.138-1.606-2.344-3.113-3.582-4.619
		c-0.201-0.234-0.335-0.503-0.335-0.804c0-0.302,0.134-0.536,0.301-0.771c0.803-1.104,5.323-5.992,6.461-5.992
		c0.301,0,0.603,0.134,0.87,0.335l4.62,3.582c0.971-0.502,2.009-0.938,3.046-1.272c0.234-2.042,0.435-4.218,0.971-6.227
		c0.134-0.536,0.603-0.938,1.206-0.938h7.432c0.603,0,1.139,0.436,1.206,1.004l0.937,6.16c1.038,0.335,2.042,0.736,3.013,1.239
		l4.754-3.583c0.201-0.2,0.502-0.301,0.804-0.301s0.603,0.134,0.837,0.335c1.774,1.641,4.118,3.716,5.523,5.691
		c0.168,0.2,0.234,0.469,0.234,0.736c0,0.301-0.1,0.535-0.268,0.77c-1.138,1.54-2.377,3.014-3.515,4.587
		c0.569,1.071,1.038,2.176,1.372,3.28l6.127,0.938c0.568,0.101,0.971,0.637,0.971,1.205V36.107z M31.086,23.754
		c-4.72,0-8.57,3.85-8.57,8.57s3.85,8.57,8.57,8.57c4.721,0,8.57-3.85,8.57-8.57S35.807,23.754,31.086,23.754z"/>
</g>
</svg>
