<?xml version="1.0" encoding="utf-8"?>
<!-- Generator: Adobe Illustrator 16.0.0, SVG Export Plug-In . SVG Version: 6.00 Build 0)  -->
<!DOCTYPE svg PUBLIC "-//W3C//DTD SVG 1.1//EN" "http://www.w3.org/Graphics/SVG/1.1/DTD/svg11.dtd">
<svg version="1.1" id="Layer_1" xmlns="http://www.w3.org/2000/svg" xmlns:xlink="http://www.w3.org/1999/xlink" x="0px" y="0px"
	 width="64px" height="64px" viewBox="0 0 64 64" enable-background="new 0 0 64 64" xml:space="preserve">
<g enable-background="new    ">
	<path d="M56.854,36.197c-0.167,0.201-0.435,0.335-0.703,0.369c-0.033,0-0.066,0-0.1,0c-0.269,0-0.503-0.067-0.703-0.234
		L32.182,17.015L9.015,36.332c-0.234,0.167-0.502,0.268-0.804,0.234c-0.268-0.034-0.536-0.168-0.703-0.369l-2.075-2.477
		c-0.369-0.436-0.301-1.139,0.134-1.507l24.07-20.053c1.406-1.172,3.683-1.172,5.089,0l8.168,6.83v-6.528
		c0-0.603,0.469-1.071,1.071-1.071h6.428c0.603,0,1.071,0.469,1.071,1.071v13.659l7.332,6.093c0.435,0.368,0.502,1.071,0.134,1.507
		L56.854,36.197z M51.465,52.1c0,1.172-0.971,2.143-2.143,2.143H36.467V41.387h-8.57v12.855H15.041
		c-1.172,0-2.143-0.971-2.143-2.143V36.03c0-0.067,0.034-0.134,0.034-0.201l19.25-15.868l19.25,15.868
		c0.033,0.067,0.033,0.134,0.033,0.201V52.1z"/>
</g>
</svg>
