<?xml version="1.0" encoding="utf-8"?>
<!-- Generator: Adobe Illustrator 16.0.0, SVG Export Plug-In . SVG Version: 6.00 Build 0)  -->
<!DOCTYPE svg PUBLIC "-//W3C//DTD SVG 1.1//EN" "http://www.w3.org/Graphics/SVG/1.1/DTD/svg11.dtd">
<svg version="1.1" id="Layer_1" xmlns="http://www.w3.org/2000/svg" xmlns:xlink="http://www.w3.org/1999/xlink" x="0px" y="0px"
	 width="64px" height="64px" viewBox="0 0 64 64" enable-background="new 0 0 64 64" xml:space="preserve">
<g>
	<path d="M58.244,33.114H45.891l-3.715-7.398c-0.369-0.771-1.239-1.239-2.076-1.172c-0.904,0.101-1.641,0.67-1.875,1.54
		l-4.318,14.396l-6.562-22.966c-0.268-0.904-1.105-1.54-2.109-1.54c-0.971,0-1.808,0.67-2.042,1.607L19.31,33.114H5.149
		c-1.774-2.678-3.448-6.193-3.448-10.043c0-9.81,5.993-15.668,16.002-15.668c5.858,0,11.349,4.62,13.994,7.231
		c2.645-2.611,8.135-7.231,13.994-7.231c10.01,0,16.003,5.858,16.003,15.668C61.693,26.921,60.02,30.437,58.244,33.114z
		 M54.764,37.399c-0.402,0.436-0.67,0.67-0.737,0.736L33.17,58.223c-0.402,0.401-0.938,0.603-1.473,0.603s-1.071-0.201-1.473-0.603
		L9.333,38.069c-0.067-0.034-0.334-0.269-0.703-0.67h12.354c0.971,0,1.841-0.67,2.076-1.607l2.343-9.407l6.361,22.33
		c0.268,0.904,1.105,1.54,2.076,1.54c0.938,0,1.773-0.636,2.041-1.54l4.889-16.236l1.875,3.749c0.367,0.703,1.104,1.172,1.908,1.172
		H54.764z"/>
</g>
</svg>
