<?xml version="1.0" encoding="utf-8"?>
<!-- Generator: Adobe Illustrator 16.0.0, SVG Export Plug-In . SVG Version: 6.00 Build 0)  -->
<!DOCTYPE svg PUBLIC "-//W3C//DTD SVG 1.1//EN" "http://www.w3.org/Graphics/SVG/1.1/DTD/svg11.dtd">
<svg version="1.1" id="Layer_1" xmlns="http://www.w3.org/2000/svg" xmlns:xlink="http://www.w3.org/1999/xlink" x="0px" y="0px"
	 width="64px" height="64px" viewBox="0 0 64 64" enable-background="new 0 0 64 64" xml:space="preserve">
<g>
	<path d="M54.027,38.496L33.17,58.583c-0.401,0.401-0.937,0.603-1.473,0.603s-1.071-0.201-1.473-0.603L9.334,38.43
		c-0.268-0.234-7.633-6.964-7.633-14.998c0-9.81,5.993-15.668,16.002-15.668c5.858,0,11.349,4.62,13.994,7.231
		c2.645-2.611,8.135-7.231,13.994-7.231c10.01,0,16.002,5.858,16.002,15.668C61.693,31.466,54.328,38.195,54.027,38.496z
		 M45.691,12.049c-4.988,0-10.613,5.39-12.354,7.466c-0.804,0.971-2.478,0.971-3.281,0c-1.741-2.076-7.365-7.466-12.353-7.466
		c-5.356,0-11.717,1.976-11.717,11.383c0,6.126,6.193,11.817,6.26,11.884l19.451,18.748L51.114,35.35
		c0.101-0.101,6.294-5.792,6.294-11.918C57.408,14.024,51.047,12.049,45.691,12.049z"/>
</g>
</svg>
