<?xml version="1.0" encoding="utf-8"?>
<!-- Generator: Adobe Illustrator 16.0.0, SVG Export Plug-In . SVG Version: 6.00 Build 0)  -->
<!DOCTYPE svg PUBLIC "-//W3C//DTD SVG 1.1//EN" "http://www.w3.org/Graphics/SVG/1.1/DTD/svg11.dtd">
<svg version="1.1" id="Layer_1" xmlns="http://www.w3.org/2000/svg" xmlns:xlink="http://www.w3.org/1999/xlink" x="0px" y="0px"
	 width="64px" height="64px" viewBox="0 0 64 64" enable-background="new 0 0 64 64" xml:space="preserve">
<g>
	<path d="M41.754,32.174c6.562,4.352,12.487,13.324,12.487,25.71h3.214c0.603,0,1.071,0.469,1.071,1.072V61.1
		c0,0.602-0.469,1.07-1.071,1.07H8.176c-0.603,0-1.071-0.469-1.071-1.07v-2.143c0-0.604,0.469-1.072,1.071-1.072h3.214
		c0-12.387,5.926-21.358,12.487-25.71C17.315,27.822,11.39,18.85,11.39,6.463H8.176c-0.603,0-1.071-0.469-1.071-1.071V3.25
		c0-0.603,0.469-1.071,1.071-1.071h49.279c0.603,0,1.071,0.469,1.071,1.071v2.143c0,0.603-0.469,1.071-1.071,1.071h-3.214
		C54.241,18.85,48.315,27.822,41.754,32.174z M15.675,6.463c0,1.473,0.101,2.913,0.301,4.285h33.678
		c0.201-1.373,0.302-2.812,0.302-4.285H15.675z M36.666,34.316h-7.701c-6.662,2.679-13.291,11.551-13.291,23.568h34.281
		C49.956,45.867,43.328,36.995,36.666,34.316z"/>
</g>
</svg>
