<?xml version="1.0" encoding="utf-8"?>
<!-- Generator: Adobe Illustrator 16.0.0, SVG Export Plug-In . SVG Version: 6.00 Build 0)  -->
<!DOCTYPE svg PUBLIC "-//W3C//DTD SVG 1.1//EN" "http://www.w3.org/Graphics/SVG/1.1/DTD/svg11.dtd">
<svg version="1.1" id="Layer_1" xmlns="http://www.w3.org/2000/svg" xmlns:xlink="http://www.w3.org/1999/xlink" x="0px" y="0px"
	 width="64px" height="64px" viewBox="0 0 64 64" enable-background="new 0 0 64 64" xml:space="preserve">
<g>
	<path d="M58.213,3.519v4.285c0,0.603-0.469,1.071-1.071,1.071H7.862c-0.603,0-1.071-0.469-1.071-1.071V3.519
		c0-0.603,0.469-1.071,1.071-1.071h49.279C57.744,2.448,58.213,2.917,58.213,3.519z M58.213,57.084v4.285
		c0,0.602-0.469,1.07-1.071,1.07H7.862c-0.603,0-1.071-0.469-1.071-1.07v-4.285c0-0.604,0.469-1.072,1.071-1.072h49.279
		C57.744,56.012,58.213,56.48,58.213,57.084z M27.146,32.444c-6.16-4.084-15.366-10.144-16.002-21.426h42.718
		C53.225,22.3,44.019,28.359,37.858,32.444c6.16,4.084,15.366,10.144,16.003,21.425H11.143
		C11.779,42.588,20.985,36.528,27.146,32.444z"/>
</g>
</svg>
