<?xml version="1.0" encoding="utf-8"?>
<!-- Generator: Adobe Illustrator 16.0.0, SVG Export Plug-In . SVG Version: 6.00 Build 0)  -->
<!DOCTYPE svg PUBLIC "-//W3C//DTD SVG 1.1//EN" "http://www.w3.org/Graphics/SVG/1.1/DTD/svg11.dtd">
<svg version="1.1" id="Layer_1" xmlns="http://www.w3.org/2000/svg" xmlns:xlink="http://www.w3.org/1999/xlink" x="0px" y="0px"
	 width="64px" height="64px" viewBox="0 0 64 64" enable-background="new 0 0 64 64" xml:space="preserve">
<g>
	<path d="M40.541,32.265c6.561,4.353,12.486,13.324,12.486,25.711h3.215c0.602,0,1.07,0.469,1.07,1.071v2.143
		c0,0.603-0.469,1.071-1.07,1.071H6.962c-0.603,0-1.071-0.469-1.071-1.071v-2.143c0-0.603,0.469-1.071,1.071-1.071h3.214
		c0-12.387,5.926-21.358,12.487-25.711C16.102,27.913,10.176,18.94,10.176,6.554H6.962c-0.603,0-1.071-0.469-1.071-1.071V3.34
		c0-0.603,0.469-1.071,1.071-1.071h49.28c0.602,0,1.07,0.469,1.07,1.071v2.143c0,0.603-0.469,1.071-1.07,1.071h-3.215
		C53.027,18.94,47.102,27.913,40.541,32.265z M14.461,6.554c0,4.888,1.105,9.207,2.846,12.855h28.589
		c1.741-3.649,2.846-7.968,2.846-12.855H14.461z M35.452,34.407h-7.7c-4.453,1.808-8.905,6.394-11.382,12.855h30.464
		C44.357,40.801,39.904,36.215,35.452,34.407z"/>
</g>
</svg>
