<?xml version="1.0" encoding="utf-8"?>
<!-- Generator: Adobe Illustrator 16.0.0, SVG Export Plug-In . SVG Version: 6.00 Build 0)  -->
<!DOCTYPE svg PUBLIC "-//W3C//DTD SVG 1.1//EN" "http://www.w3.org/Graphics/SVG/1.1/DTD/svg11.dtd">
<svg version="1.1" id="Layer_1" xmlns="http://www.w3.org/2000/svg" xmlns:xlink="http://www.w3.org/1999/xlink" x="0px" y="0px"
	 width="64px" height="64px" viewBox="0 0 64 64" enable-background="new 0 0 64 64" xml:space="preserve">
<g>
	<path d="M41.17,32.174c6.562,4.352,12.488,13.324,12.488,25.71h3.213c0.604,0,1.072,0.469,1.072,1.072V61.1
		c0,0.602-0.469,1.07-1.072,1.07H7.592c-0.603,0-1.071-0.469-1.071-1.07v-2.143c0-0.604,0.469-1.072,1.071-1.072h3.214
		c0-12.387,5.926-21.358,12.487-25.71C16.732,27.822,10.806,18.85,10.806,6.463H7.592c-0.603,0-1.071-0.469-1.071-1.071V3.25
		c0-0.603,0.469-1.071,1.071-1.071h49.279c0.604,0,1.072,0.469,1.072,1.071v2.143c0,0.603-0.469,1.071-1.072,1.071h-3.213
		C53.658,18.85,47.732,27.822,41.17,32.174z M49.373,6.463H15.091c0,12.219,6.83,21.158,13.592,23.702
		c0.837,0.301,1.406,1.105,1.406,2.009s-0.569,1.708-1.406,2.009c-6.762,2.543-13.592,11.482-13.592,23.701h34.282
		c0-12.219-6.83-21.158-13.592-23.701c-0.838-0.302-1.406-1.105-1.406-2.009s0.568-1.708,1.406-2.009
		C42.543,27.622,49.373,18.683,49.373,6.463z"/>
</g>
</svg>
