<?xml version="1.0" encoding="utf-8"?>
<!-- Generator: Adobe Illustrator 16.0.0, SVG Export Plug-In . SVG Version: 6.00 Build 0)  -->
<!DOCTYPE svg PUBLIC "-//W3C//DTD SVG 1.1//EN" "http://www.w3.org/Graphics/SVG/1.1/DTD/svg11.dtd">
<svg version="1.1" id="Layer_1" xmlns="http://www.w3.org/2000/svg" xmlns:xlink="http://www.w3.org/1999/xlink" x="0px" y="0px"
	 width="64px" height="64px" viewBox="0 0 64 64" enable-background="new 0 0 64 64" xml:space="preserve">
<g>
	<path d="M43.217,51.857c0,1.172-0.971,2.143-2.143,2.143h-17.14c-1.172,0-2.143-0.971-2.143-2.143v-4.285
		c0-1.172,0.971-2.143,2.143-2.143h2.143V32.574h-2.143c-1.172,0-2.143-0.971-2.143-2.143v-4.285c0-1.172,0.971-2.143,2.143-2.143
		h12.855c1.172,0,2.143,0.971,2.143,2.143V45.43h2.143c1.172,0,2.143,0.971,2.143,2.143V51.857z M38.932,15.434
		c0,1.172-0.971,2.143-2.143,2.143h-8.57c-1.172,0-2.143-0.971-2.143-2.143V9.006c0-1.172,0.971-2.143,2.143-2.143h8.57
		c1.172,0,2.143,0.971,2.143,2.143V15.434z"/>
</g>
</svg>
