<?xml version="1.0" encoding="utf-8"?>
<!-- Generator: Adobe Illustrator 16.0.0, SVG Export Plug-In . SVG Version: 6.00 Build 0)  -->
<!DOCTYPE svg PUBLIC "-//W3C//DTD SVG 1.1//EN" "http://www.w3.org/Graphics/SVG/1.1/DTD/svg11.dtd">
<svg version="1.1" id="Layer_1" xmlns="http://www.w3.org/2000/svg" xmlns:xlink="http://www.w3.org/1999/xlink" x="0px" y="0px"
	 width="64px" height="64px" viewBox="0 0 64 64" enable-background="new 0 0 64 64" xml:space="preserve">
<g>
	<path d="M57.797,51.44c0,3.615-2.979,6.595-6.596,6.595H12.97c-3.616,0-6.595-2.979-6.595-6.595V13.208
		c0-3.615,2.979-6.595,6.595-6.595h38.231c3.616,0,6.596,2.979,6.596,6.595V51.44z M51.972,28.374h-4.52
		c0.436,1.372,0.669,2.879,0.669,4.386c0,8.57-7.164,15.5-16.001,15.5c-8.805,0-15.969-6.93-15.969-15.5
		c0-1.507,0.234-3.014,0.67-4.386H12.1v21.693c0,1.139,0.904,2.042,2.042,2.042H49.93c1.139,0,2.042-0.903,2.042-2.042V28.374z
		 M32.12,22.214c-5.691,0-10.312,4.486-10.312,10.01c0,5.524,4.62,10.01,10.312,10.01c5.724,0,10.344-4.485,10.344-10.01
		C42.464,26.7,37.844,22.214,32.12,22.214z M51.972,14.648c0-1.272-1.038-2.311-2.31-2.311h-5.826c-1.271,0-2.309,1.038-2.309,2.311
		v5.523c0,1.272,1.037,2.31,2.309,2.31h5.826c1.271,0,2.31-1.037,2.31-2.31V14.648z"/>
</g>
</svg>
