<?xml version="1.0" encoding="utf-8"?>
<!-- Generator: Adobe Illustrator 16.0.0, SVG Export Plug-In . SVG Version: 6.00 Build 0)  -->
<!DOCTYPE svg PUBLIC "-//W3C//DTD SVG 1.1//EN" "http://www.w3.org/Graphics/SVG/1.1/DTD/svg11.dtd">
<svg version="1.1" id="Layer_1" xmlns="http://www.w3.org/2000/svg" xmlns:xlink="http://www.w3.org/1999/xlink" x="0px" y="0px"
	 width="64px" height="64px" viewBox="0 0 64 64" enable-background="new 0 0 64 64" xml:space="preserve">
<g>
	<path d="M32.413,58.285c-14.194,0-25.711-11.516-25.711-25.71c0-14.194,11.517-25.711,25.711-25.711
		c14.195,0,25.71,11.517,25.71,25.711C58.123,46.77,46.607,58.285,32.413,58.285z M40.982,43.287c0-0.602-0.469-1.07-1.07-1.07
		h-3.215V25.076c0-0.603-0.469-1.071-1.07-1.071H24.914c-0.603,0-1.071,0.469-1.071,1.071v5.356c0,0.603,0.469,1.071,1.071,1.071
		h3.214v10.713h-3.214c-0.603,0-1.071,0.469-1.071,1.07v5.357c0,0.602,0.469,1.07,1.071,1.07h14.999c0.602,0,1.07-0.469,1.07-1.07
		V43.287z M36.697,13.292c0-0.603-0.469-1.071-1.07-1.071h-6.428c-0.603,0-1.071,0.469-1.071,1.071v5.356
		c0,0.603,0.469,1.071,1.071,1.071h6.428c0.602,0,1.07-0.469,1.07-1.071V13.292z"/>
</g>
</svg>
