<?xml version="1.0" encoding="utf-8"?>
<!-- Generator: Adobe Illustrator 16.0.0, SVG Export Plug-In . SVG Version: 6.00 Build 0)  -->
<!DOCTYPE svg PUBLIC "-//W3C//DTD SVG 1.1//EN" "http://www.w3.org/Graphics/SVG/1.1/DTD/svg11.dtd">
<svg version="1.1" id="Layer_1" xmlns="http://www.w3.org/2000/svg" xmlns:xlink="http://www.w3.org/1999/xlink" x="0px" y="0px"
	 width="64px" height="64px" viewBox="0 0 64 64" enable-background="new 0 0 64 64" xml:space="preserve">
<g>
	<path d="M62.822,52.244c0,2.852-2.332,5.184-5.183,5.184H5.809c-2.851,0-5.183-2.332-5.183-5.184V12.853
		c0-2.851,2.333-5.183,5.183-5.183H57.64c2.851,0,5.183,2.333,5.183,5.183V52.244z M5.809,11.816c-0.551,0-1.037,0.486-1.037,1.037
		v39.391c0,0.551,0.486,1.037,1.037,1.037H57.64c0.551,0,1.036-0.486,1.036-1.037V12.853c0-0.551-0.485-1.037-1.036-1.037H5.809z
		 M15.138,28.402c-3.434,0-6.22-2.786-6.22-6.22s2.786-6.22,6.22-6.22s6.22,2.786,6.22,6.22S18.572,28.402,15.138,28.402z
		 M54.529,49.135H8.918v-6.22l10.366-10.366l5.183,5.184l16.586-16.586l13.476,13.476V49.135z"/>
</g>
</svg>
