<?xml version="1.0" encoding="utf-8"?>
<!-- Generator: Adobe Illustrator 16.0.0, SVG Export Plug-In . SVG Version: 6.00 Build 0)  -->
<!DOCTYPE svg PUBLIC "-//W3C//DTD SVG 1.1//EN" "http://www.w3.org/Graphics/SVG/1.1/DTD/svg11.dtd">
<svg version="1.1" id="Layer_1" xmlns="http://www.w3.org/2000/svg" xmlns:xlink="http://www.w3.org/1999/xlink" x="0px" y="0px"
	 width="64px" height="64px" viewBox="0 0 64 64" enable-background="new 0 0 64 64" xml:space="preserve">
<g>
	<path d="M61.963,48.643c0,2.947-2.41,5.357-5.355,5.357H7.328c-2.946,0-5.356-2.41-5.356-5.357V12.219
		c0-2.946,2.41-5.356,5.356-5.356h49.28c2.945,0,5.355,2.41,5.355,5.356V48.643z M57.678,20.79c0-0.569-0.502-1.071-1.07-1.071
		H7.328c-0.569,0-1.071,0.502-1.071,1.071v27.853c0,0.57,0.502,1.072,1.071,1.072h49.28c0.568,0,1.07-0.502,1.07-1.072V20.79z
		 M14.827,27.217c0,0.569-0.502,1.071-1.071,1.071h-2.143c-0.569,0-1.071-0.502-1.071-1.071v-2.143c0-0.569,0.502-1.071,1.071-1.071
		h2.143c0.569,0,1.071,0.502,1.071,1.071V27.217z M14.827,35.787c0,0.57-0.502,1.072-1.071,1.072h-2.143
		c-0.569,0-1.071-0.502-1.071-1.072v-2.143c0-0.568,0.502-1.071,1.071-1.071h2.143c0.569,0,1.071,0.502,1.071,1.071V35.787z
		 M14.827,44.357c0,0.57-0.502,1.072-1.071,1.072h-2.143c-0.569,0-1.071-0.502-1.071-1.072v-2.143c0-0.568,0.502-1.07,1.071-1.07
		h2.143c0.569,0,1.071,0.502,1.071,1.07V44.357z M53.393,27.217c0,0.569-0.502,1.071-1.07,1.071H20.183
		c-0.569,0-1.071-0.502-1.071-1.071v-2.143c0-0.569,0.502-1.071,1.071-1.071h32.139c0.568,0,1.07,0.502,1.07,1.071V27.217z
		 M53.393,35.787c0,0.57-0.502,1.072-1.07,1.072H20.183c-0.569,0-1.071-0.502-1.071-1.072v-2.143c0-0.568,0.502-1.071,1.071-1.071
		h32.139c0.568,0,1.07,0.502,1.07,1.071V35.787z M53.393,44.357c0,0.57-0.502,1.072-1.07,1.072H20.183
		c-0.569,0-1.071-0.502-1.071-1.072v-2.143c0-0.568,0.502-1.07,1.071-1.07h32.139c0.568,0,1.07,0.502,1.07,1.07V44.357z"/>
</g>
</svg>
