<?xml version="1.0" encoding="utf-8"?>
<!-- Generator: Adobe Illustrator 16.0.0, SVG Export Plug-In . SVG Version: 6.00 Build 0)  -->
<!DOCTYPE svg PUBLIC "-//W3C//DTD SVG 1.1//EN" "http://www.w3.org/Graphics/SVG/1.1/DTD/svg11.dtd">
<svg version="1.1" id="Layer_1" xmlns="http://www.w3.org/2000/svg" xmlns:xlink="http://www.w3.org/1999/xlink" x="0px" y="0px"
	 width="64px" height="64px" viewBox="0 0 64 64" enable-background="new 0 0 64 64" xml:space="preserve">
<g>
	<path d="M10.271,14.812c0,0.569-0.502,1.071-1.071,1.071H2.772c-0.569,0-1.071-0.502-1.071-1.071V8.384
		c0-0.569,0.502-1.071,1.071-1.071H9.2c0.569,0,1.071,0.502,1.071,1.071V14.812z M10.271,27.667c0,0.569-0.502,1.071-1.071,1.071
		H2.772c-0.569,0-1.071-0.502-1.071-1.071V21.24c0-0.569,0.502-1.071,1.071-1.071H9.2c0.569,0,1.071,0.502,1.071,1.071V27.667z
		 M10.271,40.523c0,0.568-0.502,1.07-1.071,1.07H2.772c-0.569,0-1.071-0.502-1.071-1.07v-6.428c0-0.57,0.502-1.072,1.071-1.072H9.2
		c0.569,0,1.071,0.502,1.071,1.072V40.523z M10.271,53.379c0,0.568-0.502,1.07-1.071,1.07H2.772c-0.569,0-1.071-0.502-1.071-1.07
		v-6.428c0-0.57,0.502-1.072,1.071-1.072H9.2c0.569,0,1.071,0.502,1.071,1.072V53.379z M61.693,14.812
		c0,0.569-0.502,1.071-1.071,1.071H15.628c-0.569,0-1.071-0.502-1.071-1.071V8.384c0-0.569,0.502-1.071,1.071-1.071h44.994
		c0.569,0,1.071,0.502,1.071,1.071V14.812z M61.693,27.667c0,0.569-0.502,1.071-1.071,1.071H15.628
		c-0.569,0-1.071-0.502-1.071-1.071V21.24c0-0.569,0.502-1.071,1.071-1.071h44.994c0.569,0,1.071,0.502,1.071,1.071V27.667z
		 M61.693,40.523c0,0.568-0.502,1.07-1.071,1.07H15.628c-0.569,0-1.071-0.502-1.071-1.07v-6.428c0-0.57,0.502-1.072,1.071-1.072
		h44.994c0.569,0,1.071,0.502,1.071,1.072V40.523z M61.693,53.379c0,0.568-0.502,1.07-1.071,1.07H15.628
		c-0.569,0-1.071-0.502-1.071-1.07v-6.428c0-0.57,0.502-1.072,1.071-1.072h44.994c0.569,0,1.071,0.502,1.071,1.072V53.379z"/>
</g>
</svg>
