<?xml version="1.0" encoding="utf-8"?>
<!-- Generator: Adobe Illustrator 16.0.0, SVG Export Plug-In . SVG Version: 6.00 Build 0)  -->
<!DOCTYPE svg PUBLIC "-//W3C//DTD SVG 1.1//EN" "http://www.w3.org/Graphics/SVG/1.1/DTD/svg11.dtd">
<svg version="1.1" id="Layer_1" xmlns="http://www.w3.org/2000/svg" xmlns:xlink="http://www.w3.org/1999/xlink" x="0px" y="0px"
	 width="64px" height="64px" viewBox="0 0 64 64" enable-background="new 0 0 64 64" xml:space="preserve">
<g>
	<path d="M7.858,21.862c-3.549,0-6.428-2.879-6.428-6.428S4.31,9.006,7.858,9.006s6.428,2.879,6.428,6.428
		S11.407,21.862,7.858,21.862z M7.858,39.002c-3.549,0-6.428-2.879-6.428-6.427c0-3.549,2.879-6.428,6.428-6.428
		s6.428,2.879,6.428,6.428C14.286,36.123,11.407,39.002,7.858,39.002z M7.858,56.143c-3.549,0-6.428-2.879-6.428-6.428
		s2.879-6.428,6.428-6.428s6.428,2.879,6.428,6.428S11.407,56.143,7.858,56.143z M61.423,18.648c0,0.569-0.502,1.071-1.071,1.071
		H19.643c-0.569,0-1.071-0.502-1.071-1.071V12.22c0-0.569,0.502-1.071,1.071-1.071h40.709c0.569,0,1.071,0.502,1.071,1.071V18.648z
		 M61.423,35.789c0,0.568-0.502,1.07-1.071,1.07H19.643c-0.569,0-1.071-0.502-1.071-1.07v-6.428c0-0.569,0.502-1.071,1.071-1.071
		h40.709c0.569,0,1.071,0.502,1.071,1.071V35.789z M61.423,52.93c0,0.568-0.502,1.07-1.071,1.07H19.643
		c-0.569,0-1.071-0.502-1.071-1.07v-6.428c0-0.57,0.502-1.072,1.071-1.072h40.709c0.569,0,1.071,0.502,1.071,1.072V52.93z"/>
</g>
</svg>
