<?xml version="1.0" encoding="utf-8"?>
<!-- Generator: Adobe Illustrator 16.0.0, SVG Export Plug-In . SVG Version: 6.00 Build 0)  -->
<!DOCTYPE svg PUBLIC "-//W3C//DTD SVG 1.1//EN" "http://www.w3.org/Graphics/SVG/1.1/DTD/svg11.dtd">
<svg version="1.1" id="Layer_1" xmlns="http://www.w3.org/2000/svg" xmlns:xlink="http://www.w3.org/1999/xlink" x="0px" y="0px"
	 width="64px" height="64px" viewBox="0 0 64 64" enable-background="new 0 0 64 64" xml:space="preserve">
<g>
	<path d="M14.343,40.424H2.224c-0.101-0.602-0.201-1.205-0.201-1.807c0-6.194,7.566-7.131,7.566-9.944
		c0-1.138-0.703-1.74-1.808-1.74c-1.171,0-2.143,1.004-2.711,1.941l-2.846-1.976c1.104-2.31,3.381-3.615,5.925-3.615
		c3.114,0,5.792,1.841,5.792,5.155c0,4.956-7.265,6.059-7.365,8.67h4.251v-2.008h3.515V40.424z M7.915,61.85
		c-2.109,0-4.251-0.703-5.758-2.209l1.908-2.945c0.904,0.836,2.276,1.506,3.548,1.506c1.172,0,2.411-0.568,2.411-1.908
		c0-1.875-2.143-1.975-3.515-1.875l-0.871-1.875c1.205-1.539,2.31-3.246,3.75-4.553v-0.033c-1.071,0-2.176,0.066-3.247,0.066v1.775
		H2.592v-5.09H13.74v2.947l-3.18,3.85c2.243,0.535,3.716,2.275,3.716,4.586C14.276,59.775,11.397,61.85,7.915,61.85z M14.376,18.999
		H3.162v-3.314h3.582c0-2.712,0.033-5.423,0.033-8.135V7.147H6.71C6.342,7.884,5.672,8.386,5.036,8.956L2.659,6.411L7.212,2.16
		h3.548v13.524h3.616V18.999z M61.514,17.927c0,0.569-0.502,1.071-1.072,1.071H19.733c-0.603,0-1.071-0.502-1.071-1.071V11.5
		c0-0.569,0.469-1.071,1.071-1.071h40.708c0.57,0,1.072,0.502,1.072,1.071V17.927z M61.514,35.068c0,0.568-0.502,1.07-1.072,1.07
		H19.733c-0.603,0-1.071-0.502-1.071-1.07V28.64c0-0.603,0.469-1.071,1.071-1.071h40.708c0.57,0,1.072,0.469,1.072,1.071V35.068z
		 M61.514,52.209c0,0.568-0.502,1.07-1.072,1.07H19.733c-0.603,0-1.071-0.502-1.071-1.07v-6.428c0-0.604,0.469-1.072,1.071-1.072
		h40.708c0.57,0,1.072,0.469,1.072,1.072V52.209z"/>
</g>
</svg>
