<?xml version="1.0" encoding="utf-8"?>
<!-- Generator: Adobe Illustrator 16.0.0, SVG Export Plug-In . SVG Version: 6.00 Build 0)  -->
<!DOCTYPE svg PUBLIC "-//W3C//DTD SVG 1.1//EN" "http://www.w3.org/Graphics/SVG/1.1/DTD/svg11.dtd">
<svg version="1.1" id="Layer_1" xmlns="http://www.w3.org/2000/svg" xmlns:xlink="http://www.w3.org/1999/xlink" x="0px" y="0px"
	 width="64px" height="64px" viewBox="0 0 64 64" enable-background="new 0 0 64 64" xml:space="preserve">
<g>
	<path d="M57.604,54.971c-25.878-8.235-25.911-8.235-25.911-8.235c-0.536,0.234-24.54,8.336-24.874,8.336
		c-0.268,0-0.502-0.167-0.603-0.436c0-0.033-0.034-0.066-0.034-0.101V18.446c0.034-0.101,0.067-0.268,0.134-0.335
		c0.201-0.233,0.469-0.301,0.67-0.368c0.1-0.033,2.143-0.702,4.988-1.674V3.214l18.681,6.628c0.234-0.067,21.058-7.265,21.359-7.265
		c0.367,0,0.669,0.268,0.669,0.703v13.993l4.921,1.574V54.971z M30.721,45.731V11.182l-23.233,7.8v34.516L30.721,45.731z
		 M25.934,37.964c-0.435-0.2-2.411-1.306-2.913-1.64c-0.502-0.335-2.411-1.909-2.645-2.009c-1.205,1.841-2.745,4.017-4.486,6.06
		c-0.603,0.702-2.41,2.979-3.515,3.682c-0.167,0.101-1.138,0.201-1.272,0.135c0.536-0.402,2.076-2.311,2.745-3.08
		c0.837-0.971,4.821-6.528,5.49-7.801c0.703-1.271,2.812-5.49,2.913-5.892c-0.335-0.034-2.979,0.87-3.683,1.104
		c-0.669,0.201-2.511,0.636-2.645,0.736c-0.134,0.134-0.034,0.536-0.101,0.67s-0.669,0.435-1.038,0.502
		c-0.335,0.101-1.105,0.134-1.574,0c-0.435-0.101-0.837-0.535-0.938-0.703c0,0-0.134-0.201-0.167-0.77
		c0.401-0.135,1.071-0.168,1.808-0.368c0.736-0.201,2.544-0.737,3.515-1.071c0.971-0.335,2.846-1.038,3.415-1.172
		c0.603-0.101,2.109-1.105,2.913-1.373c0.804-0.268,1.373-0.603,1.406-0.436c0.034,0.168,0,0.904-0.034,1.105
		c-0.033,0.167-1.64,3.314-1.875,3.816c-0.134,0.268-1.071,2.042-2.578,4.386c0.536,0.234,1.674,0.703,2.143,0.938
		c0.569,0.268,4.553,1.941,4.753,2.008c0.201,0.067,0.569,1.607,0.502,1.875C28.01,38.901,26.369,38.132,25.934,37.964z
		 M21.08,23.334c-0.334,0.637-1.171,1.071-1.674,1.272c-0.502,0.201-1.339,0.401-2.009,0.401c-0.301-0.033-0.904-0.134-1.64-0.87
		c-0.402-0.436-0.703-1.606-0.569-1.473c0.134,0.134,1.105,0.268,1.54,0.167s1.473-0.401,1.942-0.535
		c0.502-0.168,1.506-0.436,1.841-0.469c0.334,0,0.603,0.134,0.703,0.568C21.314,22.966,21.146,23.2,21.08,23.334z M47.896,55.406
		l-1.808,5.356l-1.34-2.21c-2.711,1.741-6.059,3.08-9.239,3.616c-0.972,0.2-2.075,0.401-3.046,0.401H29.65
		c-3.548,0-10.01-2.109-12.822-4.151c-0.201-0.167-0.268-0.301-0.268-0.535c0-0.368,0.268-0.637,0.603-0.637
		c0.302,0,1.875,0.971,2.31,1.172c3.013,1.507,7.231,2.879,10.613,2.879c4.184,0,7.03-0.535,10.846-2.176
		c1.105-0.502,2.076-1.139,3.113-1.707l-1.439-2.444L47.896,55.406z M51.377,16.84V4.118L32.194,10.68L51.377,16.84z M52.448,43.923
		l-6.06-21.994l-3.348-1.038l-7.23,17.944l3.414,1.037l1.506-3.683l7.064,2.177l1.238,4.52L52.448,43.923z M46.69,34.315
		l-4.653-1.406l2.544-6.193L46.69,34.315z"/>
</g>
</svg>
