<?xml version="1.0" encoding="utf-8"?>
<!-- Generator: Adobe Illustrator 16.0.0, SVG Export Plug-In . SVG Version: 6.00 Build 0)  -->
<!DOCTYPE svg PUBLIC "-//W3C//DTD SVG 1.1//EN" "http://www.w3.org/Graphics/SVG/1.1/DTD/svg11.dtd">
<svg version="1.1" id="Layer_1" xmlns="http://www.w3.org/2000/svg" xmlns:xlink="http://www.w3.org/1999/xlink" x="0px" y="0px"
	 width="64px" height="64px" viewBox="0 0 64 64" enable-background="new 0 0 64 64" xml:space="preserve">
<g>
	<path d="M63.046,6.727v42.883c0,0.792-0.487,1.522-1.218,1.797l-19.492,7.797c-0.488,0.213-0.975,0.213-1.463,0l-18.761-7.492
		L3.351,59.203c-0.244,0.122-0.487,0.152-0.731,0.152c-0.396,0-0.761-0.122-1.097-0.335c-0.518-0.365-0.853-0.975-0.853-1.614
		V14.523c0-0.792,0.487-1.522,1.218-1.797L21.381,4.93c0.487-0.213,0.975-0.213,1.462,0l18.761,7.492L60.365,4.93
		c0.609-0.243,1.279-0.183,1.828,0.183C62.711,5.479,63.046,6.087,63.046,6.727z M4.569,54.513l16.568-6.608V9.225L4.569,15.833
		V54.513z M23.087,47.904l17.543,7.005v-38.68L23.087,9.225V47.904z M59.147,9.62l-16.568,6.609v38.68L59.147,48.3V9.62z"/>
</g>
</svg>
