<?xml version="1.0" encoding="utf-8"?>
<!-- Generator: Adobe Illustrator 16.0.0, SVG Export Plug-In . SVG Version: 6.00 Build 0)  -->
<!DOCTYPE svg PUBLIC "-//W3C//DTD SVG 1.1//EN" "http://www.w3.org/Graphics/SVG/1.1/DTD/svg11.dtd">
<svg version="1.1" id="Layer_1" xmlns="http://www.w3.org/2000/svg" xmlns:xlink="http://www.w3.org/1999/xlink" x="0px" y="0px"
	 width="64px" height="64px" viewBox="0 0 64 64" enable-background="new 0 0 64 64" xml:space="preserve">
<g>
	<path d="M56.863,17.577c0,1.172-0.971,2.143-2.143,2.143H7.583c-1.172,0-2.143-0.971-2.143-2.143v-4.285
		c0-1.172,0.971-2.143,2.143-2.143h47.137c1.172,0,2.143,0.971,2.143,2.143V17.577z M56.863,34.717c0,1.172-0.971,2.143-2.143,2.143
		H7.583c-1.172,0-2.143-0.971-2.143-2.143v-4.285c0-1.172,0.971-2.143,2.143-2.143h47.137c1.172,0,2.143,0.971,2.143,2.143V34.717z
		 M56.863,51.857c0,1.172-0.971,2.143-2.143,2.143H7.583c-1.172,0-2.143-0.971-2.143-2.143v-4.285c0-1.172,0.971-2.143,2.143-2.143
		h47.137c1.172,0,2.143,0.971,2.143,2.143V51.857z"/>
</g>
</svg>
