<?xml version="1.0" encoding="utf-8"?>
<!-- Generator: Adobe Illustrator 16.0.0, SVG Export Plug-In . SVG Version: 6.00 Build 0)  -->
<!DOCTYPE svg PUBLIC "-//W3C//DTD SVG 1.1//EN" "http://www.w3.org/Graphics/SVG/1.1/DTD/svg11.dtd">
<svg version="1.1" id="Layer_1" xmlns="http://www.w3.org/2000/svg" xmlns:xlink="http://www.w3.org/1999/xlink" x="0px" y="0px"
	 width="64px" height="64px" viewBox="0 0 64 64" enable-background="new 0 0 64 64" xml:space="preserve">
<g>
	<path d="M56.413,47.122c0,4.721-7.063,6.428-10.713,6.428s-10.713-1.707-10.713-6.428s7.063-6.428,10.713-6.428
		c2.21,0,4.419,0.401,6.428,1.306V24.022l-25.711,7.935v23.735c0,4.721-7.064,6.428-10.713,6.428S4.991,60.413,4.991,55.692
		s7.064-6.428,10.713-6.428c2.209,0,4.419,0.401,6.428,1.306V18.197c0-1.406,0.938-2.645,2.276-3.08l27.854-8.57
		c0.301-0.101,0.603-0.134,0.938-0.134c1.774,0,3.214,1.439,3.214,3.214V47.122z"/>
</g>
</svg>
