<?xml version="1.0" encoding="utf-8"?>
<!-- Generator: Adobe Illustrator 16.0.0, SVG Export Plug-In . SVG Version: 6.00 Build 0)  -->
<!DOCTYPE svg PUBLIC "-//W3C//DTD SVG 1.1//EN" "http://www.w3.org/Graphics/SVG/1.1/DTD/svg11.dtd">
<svg version="1.1" id="Layer_1" xmlns="http://www.w3.org/2000/svg" xmlns:xlink="http://www.w3.org/1999/xlink" x="0px" y="0px"
	 width="64px" height="64px" viewBox="0 0 64 64" enable-background="new 0 0 64 64" xml:space="preserve">
<g>
	<path d="M47.518,29.996L35.332,55.908c-0.703,1.473-2.244,2.377-3.851,2.377c-1.607,0-3.147-0.904-3.816-2.377L15.446,29.996
		c-0.871-1.841-1.105-3.95-1.105-5.992c0-9.475,7.667-17.141,17.141-17.141c9.474,0,17.141,7.666,17.141,17.141
		C48.622,26.046,48.388,28.155,47.518,29.996z M31.481,15.434c-4.72,0-8.57,3.85-8.57,8.57s3.85,8.57,8.57,8.57
		c4.72,0,8.57-3.85,8.57-8.57S36.201,15.434,31.481,15.434z"/>
</g>
</svg>
