<?xml version="1.0" encoding="utf-8"?>
<!-- Generator: Adobe Illustrator 16.0.0, SVG Export Plug-In . SVG Version: 6.00 Build 0)  -->
<!DOCTYPE svg PUBLIC "-//W3C//DTD SVG 1.1//EN" "http://www.w3.org/Graphics/SVG/1.1/DTD/svg11.dtd">
<svg version="1.1" id="Layer_1" xmlns="http://www.w3.org/2000/svg" xmlns:xlink="http://www.w3.org/1999/xlink" x="0px" y="0px"
	 width="64px" height="64px" viewBox="0 0 64 64" enable-background="new 0 0 64 64" xml:space="preserve">
<g>
	<path d="M31.211,58.285C17.017,58.285,5.5,46.769,5.5,32.574S17.017,6.863,31.211,6.863S56.922,18.38,56.922,32.574
		S45.405,58.285,31.211,58.285z M31.211,11.148c-11.818,0-21.426,9.608-21.426,21.426S19.393,54,31.211,54
		c11.818,0,21.426-9.608,21.426-21.426S43.029,11.148,31.211,11.148z M22.641,28.289c-2.377,0-4.285-1.908-4.285-4.285
		s1.908-4.285,4.285-4.285s4.285,1.908,4.285,4.285S25.018,28.289,22.641,28.289z M31.211,47.572
		c-5.658,0-10.579-3.615-12.253-9.006c-0.368-1.138,0.268-2.31,1.406-2.678c1.104-0.368,2.31,0.268,2.678,1.406
		c1.104,3.582,4.419,5.992,8.168,5.992c3.75,0,7.064-2.41,8.168-5.992c0.369-1.139,1.574-1.774,2.713-1.406
		c1.104,0.368,1.74,1.54,1.372,2.678C41.79,43.957,36.869,47.572,31.211,47.572z M39.781,28.289c-2.377,0-4.285-1.908-4.285-4.285
		s1.908-4.285,4.285-4.285s4.285,1.908,4.285,4.285S42.158,28.289,39.781,28.289z"/>
</g>
</svg>
