<?xml version="1.0" encoding="utf-8"?>
<!-- Generator: Adobe Illustrator 16.0.0, SVG Export Plug-In . SVG Version: 6.00 Build 0)  -->
<!DOCTYPE svg PUBLIC "-//W3C//DTD SVG 1.1//EN" "http://www.w3.org/Graphics/SVG/1.1/DTD/svg11.dtd">
<svg version="1.1" id="Layer_1" xmlns="http://www.w3.org/2000/svg" xmlns:xlink="http://www.w3.org/1999/xlink" x="0px" y="0px"
	 width="64px" height="64px" viewBox="0 0 64 64" enable-background="new 0 0 64 64" xml:space="preserve">
<g>
	<path d="M42.406,26.396v4.285c0,5.893-4.82,10.713-10.713,10.713c-1.272,0-2.511-0.234-3.649-0.636l-3.214,3.214
		c2.042,1.071,4.385,1.707,6.863,1.707c8.27,0,14.998-6.729,14.998-14.998v-4.285c0-1.172,0.971-2.143,2.143-2.143
		s2.143,0.971,2.143,2.143v4.285c0,9.909-7.499,18.078-17.141,19.149v4.419h8.57c1.172,0,2.143,0.971,2.143,2.143
		s-0.971,2.143-2.143,2.143H20.98c-1.172,0-2.143-0.971-2.143-2.143s0.971-2.143,2.143-2.143h8.57v-4.419
		c-2.846-0.302-5.524-1.272-7.867-2.712l-8.503,8.504c-0.435,0.435-1.105,0.435-1.54,0l-2.745-2.746
		c-0.435-0.435-0.435-1.104,0-1.539l41.312-41.312c0.435-0.435,1.104-0.435,1.539,0l2.746,2.746c0.435,0.435,0.435,1.104,0,1.539
		L42.406,26.396z M13.816,37.846c-0.904-2.209-1.406-4.62-1.406-7.164v-4.285c0-1.172,0.971-2.143,2.143-2.143
		s2.143,0.971,2.143,2.143v4.285c0,1.306,0.201,2.578,0.502,3.783L13.816,37.846z M20.98,30.682V13.541
		c0-5.893,4.821-10.713,10.713-10.713c4.62,0,8.57,2.979,10.076,7.063L20.98,30.682z"/>
</g>
</svg>
