<?xml version="1.0" encoding="utf-8"?>
<!-- Generator: Adobe Illustrator 16.0.0, SVG Export Plug-In . SVG Version: 6.00 Build 0)  -->
<!DOCTYPE svg PUBLIC "-//W3C//DTD SVG 1.1//EN" "http://www.w3.org/Graphics/SVG/1.1/DTD/svg11.dtd">
<svg version="1.1" id="Layer_1" xmlns="http://www.w3.org/2000/svg" xmlns:xlink="http://www.w3.org/1999/xlink" x="0px" y="0px"
	 width="64px" height="64px" viewBox="0 0 64 64" enable-background="new 0 0 64 64" xml:space="preserve">
<g>
	<path d="M31.211,58.16C17.017,58.16,5.5,46.644,5.5,32.449S17.017,6.738,31.211,6.738s25.711,11.517,25.711,25.711
		S45.405,58.16,31.211,58.16z M31.211,11.023c-11.818,0-21.426,9.608-21.426,21.426s9.608,21.426,21.426,21.426
		c11.818,0,21.426-9.608,21.426-21.426S43.029,11.023,31.211,11.023z M22.641,28.164c-2.377,0-4.285-1.908-4.285-4.285
		s1.908-4.285,4.285-4.285s4.285,1.908,4.285,4.285S25.018,28.164,22.641,28.164z M42.092,46.275
		c-1.139,0.368-2.344-0.268-2.713-1.406c-1.104-3.582-4.418-5.992-8.168-5.992c-3.75,0-7.064,2.41-8.168,5.992
		c-0.368,1.139-1.574,1.774-2.678,1.406c-1.138-0.368-1.774-1.54-1.406-2.678c1.674-5.391,6.595-9.006,12.253-9.006
		c5.658,0,10.579,3.615,12.253,9.006C43.832,44.735,43.195,45.907,42.092,46.275z M39.781,28.164c-2.377,0-4.285-1.908-4.285-4.285
		s1.908-4.285,4.285-4.285s4.285,1.908,4.285,4.285S42.158,28.164,39.781,28.164z"/>
</g>
</svg>
