<?xml version="1.0" encoding="utf-8"?>
<!-- Generator: Adobe Illustrator 16.0.0, SVG Export Plug-In . SVG Version: 6.00 Build 0)  -->
<!DOCTYPE svg PUBLIC "-//W3C//DTD SVG 1.1//EN" "http://www.w3.org/Graphics/SVG/1.1/DTD/svg11.dtd">
<svg version="1.1" id="Layer_1" xmlns="http://www.w3.org/2000/svg" xmlns:xlink="http://www.w3.org/1999/xlink" x="0px" y="0px"
	 width="64px" height="64px" viewBox="0 0 64 64" enable-background="new 0 0 64 64" xml:space="preserve">
<g>
	<path d="M43.336,49.84c0,2.344-1.941,4.285-4.285,4.285H21.91c-2.343,0-4.285-1.941-4.285-4.285V15.559
		c0-2.344,1.942-4.285,4.285-4.285h17.141c2.344,0,4.285,1.941,4.285,4.285V49.84z M40.122,20.915c0-0.569-0.502-1.071-1.071-1.071
		H21.91c-0.569,0-1.071,0.502-1.071,1.071v23.568c0,0.569,0.502,1.071,1.071,1.071h17.141c0.569,0,1.071-0.502,1.071-1.071V20.915z
		 M33.158,15.559h-5.356c-0.301,0-0.536,0.234-0.536,0.535c0,0.302,0.234,0.536,0.536,0.536h5.356c0.302,0,0.536-0.234,0.536-0.536
		C33.694,15.793,33.46,15.559,33.158,15.559z M30.48,47.162c-1.473,0-2.678,1.205-2.678,2.678s1.205,2.678,2.678,2.678
		s2.678-1.205,2.678-2.678S31.954,47.162,30.48,47.162z"/>
</g>
</svg>
