<?xml version="1.0" encoding="utf-8"?>
<!-- Generator: Adobe Illustrator 16.0.0, SVG Export Plug-In . SVG Version: 6.00 Build 0)  -->
<!DOCTYPE svg PUBLIC "-//W3C//DTD SVG 1.1//EN" "http://www.w3.org/Graphics/SVG/1.1/DTD/svg11.dtd">
<svg version="1.1" id="Layer_1" xmlns="http://www.w3.org/2000/svg" xmlns:xlink="http://www.w3.org/1999/xlink" x="0px" y="0px"
	 width="64px" height="64px" viewBox="0 0 64 64" enable-background="new 0 0 64 64" xml:space="preserve">
<g>
	<path d="M32.211,58.535C18.017,58.535,6.5,47.019,6.5,32.824S18.017,7.113,32.211,7.113S57.922,18.63,57.922,32.824
		S46.405,58.535,32.211,58.535z M32.211,11.398c-11.818,0-21.426,9.608-21.426,21.426S20.393,54.25,32.211,54.25
		c11.818,0,21.426-9.608,21.426-21.426S44.029,11.398,32.211,11.398z M23.641,28.539c-2.377,0-4.285-1.908-4.285-4.285
		s1.908-4.285,4.285-4.285s4.285,1.908,4.285,4.285S26.018,28.539,23.641,28.539z M42.924,41.395H21.498
		c-1.172,0-2.143-0.971-2.143-2.143s0.971-2.143,2.143-2.143h21.426c1.172,0,2.143,0.971,2.143,2.143S44.096,41.395,42.924,41.395z
		 M40.781,28.539c-2.377,0-4.285-1.908-4.285-4.285s1.908-4.285,4.285-4.285s4.285,1.908,4.285,4.285S43.158,28.539,40.781,28.539z"
		/>
</g>
</svg>
