<?xml version="1.0" encoding="utf-8"?>
<!-- Generator: Adobe Illustrator 16.0.0, SVG Export Plug-In . SVG Version: 6.00 Build 0)  -->
<!DOCTYPE svg PUBLIC "-//W3C//DTD SVG 1.1//EN" "http://www.w3.org/Graphics/SVG/1.1/DTD/svg11.dtd">
<svg version="1.1" id="Layer_1" xmlns="http://www.w3.org/2000/svg" xmlns:xlink="http://www.w3.org/1999/xlink" x="0px" y="0px"
	 width="64px" height="64px" viewBox="0 0 64 64" enable-background="new 0 0 64 64" xml:space="preserve">
<g>
	<path d="M50.152,19.179c0,9.475-7.666,17.141-17.141,17.141c-9.474,0-17.141-7.666-17.141-17.141S23.538,2.038,33.012,2.038
		C42.486,2.038,50.152,9.704,50.152,19.179z M34.083,8.466c0-0.603-0.469-1.071-1.071-1.071c-6.495,0-11.784,5.289-11.784,11.784
		c0,0.603,0.469,1.071,1.071,1.071s1.071-0.469,1.071-1.071c0-5.323,4.319-9.642,9.642-9.642
		C33.614,9.537,34.083,9.068,34.083,8.466z M37.297,37.96v21.928c0,1.172-0.971,2.143-2.143,2.143h-4.285
		c-1.172,0-2.143-0.971-2.143-2.143V37.96c1.373,0.335,2.812,0.502,4.285,0.502C34.484,38.462,35.924,38.295,37.297,37.96z"/>
</g>
</svg>
