<?xml version="1.0" encoding="utf-8"?>
<!-- Generator: Adobe Illustrator 16.0.0, SVG Export Plug-In . SVG Version: 6.00 Build 0)  -->
<!DOCTYPE svg PUBLIC "-//W3C//DTD SVG 1.1//EN" "http://www.w3.org/Graphics/SVG/1.1/DTD/svg11.dtd">
<svg version="1.1" id="Layer_1" xmlns="http://www.w3.org/2000/svg" xmlns:xlink="http://www.w3.org/1999/xlink" x="0px" y="0px"
	 width="64px" height="64px" viewBox="0 0 64 64" enable-background="new 0 0 64 64" xml:space="preserve">
<g>
	<path d="M51.441,30.682c0,9.909-7.499,18.078-17.141,19.149v4.419h8.57c1.172,0,2.143,0.971,2.143,2.143s-0.971,2.143-2.143,2.143
		H21.445c-1.172,0-2.143-0.971-2.143-2.143s0.971-2.143,2.143-2.143h8.57v-4.419c-9.642-1.071-17.141-9.24-17.141-19.149v-4.285
		c0-1.172,0.971-2.143,2.143-2.143s2.143,0.971,2.143,2.143v4.285c0,8.269,6.729,14.998,14.998,14.998
		c8.27,0,14.998-6.729,14.998-14.998v-4.285c0-1.172,0.971-2.143,2.143-2.143s2.143,0.971,2.143,2.143V30.682z M42.871,30.682
		c0,5.893-4.82,10.713-10.713,10.713c-5.892,0-10.713-4.82-10.713-10.713V13.541c0-5.893,4.821-10.713,10.713-10.713
		c5.893,0,10.713,4.82,10.713,10.713V30.682z"/>
</g>
</svg>
