<?xml version="1.0" encoding="utf-8"?>
<!-- Generator: Adobe Illustrator 16.0.0, SVG Export Plug-In . SVG Version: 6.00 Build 0)  -->
<!DOCTYPE svg PUBLIC "-//W3C//DTD SVG 1.1//EN" "http://www.w3.org/Graphics/SVG/1.1/DTD/svg11.dtd">
<svg version="1.1" id="Layer_1" xmlns="http://www.w3.org/2000/svg" xmlns:xlink="http://www.w3.org/1999/xlink" x="0px" y="0px"
	 width="64px" height="64px" viewBox="0 0 64 64" enable-background="new 0 0 64 64" xml:space="preserve">
<g>
	<path d="M20.003,3.649v49.279c0,0.402-0.234,0.77-0.569,0.938l-16.069,8.57C3.198,62.537,3.03,62.57,2.863,62.57
		c-0.569,0-1.071-0.502-1.071-1.072V12.219c0-0.401,0.234-0.77,0.569-0.938l16.069-8.57c0.167-0.101,0.334-0.134,0.502-0.134
		C19.501,2.578,20.003,3.08,20.003,3.649z M23.686,2.678l17.14,8.57c0.369,0.201,0.604,0.569,0.604,0.971v49.279
		c0,0.57-0.502,1.072-1.072,1.072c-0.167,0-0.334-0.033-0.469-0.102l-17.14-8.57c-0.368-0.201-0.603-0.568-0.603-0.971V3.649
		c0-0.569,0.502-1.071,1.071-1.071C23.385,2.578,23.552,2.611,23.686,2.678z M61.783,3.649v49.279c0,0.402-0.234,0.77-0.568,0.938
		l-16.07,8.57c-0.166,0.102-0.334,0.135-0.502,0.135c-0.568,0-1.07-0.502-1.07-1.072V12.219c0-0.401,0.234-0.77,0.568-0.938
		l16.07-8.57c0.166-0.101,0.334-0.134,0.502-0.134C61.281,2.578,61.783,3.08,61.783,3.649z"/>
</g>
</svg>
