<?xml version="1.0" encoding="utf-8"?>
<!-- Generator: Adobe Illustrator 16.0.0, SVG Export Plug-In . SVG Version: 6.00 Build 0)  -->
<!DOCTYPE svg PUBLIC "-//W3C//DTD SVG 1.1//EN" "http://www.w3.org/Graphics/SVG/1.1/DTD/svg11.dtd">
<svg version="1.1" id="Layer_1" xmlns="http://www.w3.org/2000/svg" xmlns:xlink="http://www.w3.org/1999/xlink" x="0px" y="0px"
	 width="64px" height="64px" viewBox="0 0 64 64" enable-background="new 0 0 64 64" xml:space="preserve">
<g>
	<path d="M32.336,58.285c-14.161,0-25.711-11.55-25.711-25.711c0-13.894,10.88-25.176,24.74-25.678
		c0.937-0.033,1.707,0.502,2.042,1.306c0.368,0.837,0.134,1.808-0.502,2.411c-3.817,3.481-5.926,8.235-5.926,13.391
		c0,10.043,8.169,18.212,18.212,18.212c2.645,0,5.189-0.569,7.633-1.707c0.837-0.368,1.774-0.201,2.41,0.435
		c0.637,0.637,0.804,1.607,0.436,2.411C51.485,52.427,42.312,58.285,32.336,58.285z M45.191,46.501
		c-12.42,0-22.497-10.077-22.497-22.497c0-4.252,1.239-8.403,3.481-11.951C17.271,14.697,10.91,22.865,10.91,32.574
		C10.91,44.392,20.518,54,32.336,54c6.461,0,12.521-2.946,16.538-7.801C47.669,46.4,46.43,46.501,45.191,46.501z"/>
</g>
</svg>
