<?xml version="1.0" encoding="utf-8"?>
<!-- Generator: Adobe Illustrator 16.0.0, SVG Export Plug-In . SVG Version: 6.00 Build 0)  -->
<!DOCTYPE svg PUBLIC "-//W3C//DTD SVG 1.1//EN" "http://www.w3.org/Graphics/SVG/1.1/DTD/svg11.dtd">
<svg version="1.1" id="Layer_1" xmlns="http://www.w3.org/2000/svg" xmlns:xlink="http://www.w3.org/1999/xlink" x="0px" y="0px"
	 width="64px" height="64px" viewBox="0 0 64 64" enable-background="new 0 0 64 64" xml:space="preserve">
<g>
	<path d="M34.409,47.542c-0.732,0.732-1.13,1.74-1.13,2.778c0,1.008,0.397,2.016,1.13,2.748l2.534,2.534
		c-0.427,0.062-0.885,0.092-1.343,0.092H8.915c-4.885,0-8.152-2.932-8.152-7.908c0-6.9,1.618-17.495,10.564-17.495
		c0.488,0,0.824,0.214,1.191,0.519c2.931,2.321,5.923,3.725,9.74,3.725s6.809-1.404,9.74-3.725c0.367-0.305,0.703-0.519,1.191-0.519
		c0.58,0,1.16,0.061,1.74,0.183c-1.008,0.977-1.649,1.771-1.649,3.237c0,1.038,0.397,2.046,1.13,2.778l5.526,5.526L34.409,47.542z
		 M10.533,20.521c0-6.473,5.251-11.725,11.725-11.725s11.725,5.251,11.725,11.725S28.73,32.245,22.257,32.245
		S10.533,26.994,10.533,20.521z M62.744,49.618c0.183,0.184,0.274,0.428,0.274,0.702c0,0.244-0.092,0.489-0.274,0.672l-4.152,4.152
		c-0.184,0.184-0.428,0.275-0.672,0.275c-0.275,0-0.52-0.092-0.702-0.275l-7.603-7.603l-7.604,7.603
		c-0.183,0.184-0.427,0.275-0.702,0.275c-0.244,0-0.488-0.092-0.672-0.275l-4.152-4.152c-0.183-0.183-0.274-0.428-0.274-0.672
		c0-0.274,0.092-0.519,0.274-0.702l7.603-7.603l-7.603-7.603c-0.183-0.183-0.274-0.428-0.274-0.702c0-0.244,0.092-0.488,0.274-0.672
		l4.152-4.152c0.184-0.184,0.428-0.275,0.672-0.275c0.275,0,0.52,0.091,0.702,0.275l7.604,7.603l7.603-7.603
		c0.183-0.184,0.427-0.275,0.702-0.275c0.244,0,0.488,0.091,0.672,0.275l4.152,4.152c0.183,0.184,0.274,0.428,0.274,0.672
		c0,0.274-0.092,0.52-0.274,0.702l-7.603,7.603L62.744,49.618z"/>
</g>
</svg>
