<?xml version="1.0" encoding="utf-8"?>
<!-- Generator: Adobe Illustrator 16.0.0, SVG Export Plug-In . SVG Version: 6.00 Build 0)  -->
<!DOCTYPE svg PUBLIC "-//W3C//DTD SVG 1.1//EN" "http://www.w3.org/Graphics/SVG/1.1/DTD/svg11.dtd">
<svg version="1.1" id="Layer_1" xmlns="http://www.w3.org/2000/svg" xmlns:xlink="http://www.w3.org/1999/xlink" x="0px" y="0px"
	 width="64px" height="64px" viewBox="0 0 64 64" enable-background="new 0 0 64 64" xml:space="preserve">
<g>
	<path d="M31.062,58.465c-14.194,0-25.711-11.517-25.711-25.711S16.868,7.043,31.062,7.043c14.194,0,25.711,11.517,25.711,25.711
		S45.256,58.465,31.062,58.465z M31.062,14.542c-10.043,0-18.212,8.169-18.212,18.212s8.168,18.212,18.212,18.212
		s18.211-8.169,18.211-18.212S41.105,14.542,31.062,14.542z M43.918,34.595L25.706,45.308c-0.335,0.201-0.703,0.302-1.071,0.302
		s-0.736-0.101-1.071-0.268c-0.669-0.402-1.071-1.105-1.071-1.875V22.041c0-0.77,0.402-1.473,1.071-1.875
		c0.669-0.368,1.506-0.368,2.143,0.034l18.212,10.713c0.669,0.368,1.07,1.071,1.07,1.841S44.587,34.227,43.918,34.595z"/>
</g>
</svg>
