<?xml version="1.0" encoding="utf-8"?>
<!-- Generator: Adobe Illustrator 16.0.0, SVG Export Plug-In . SVG Version: 6.00 Build 0)  -->
<!DOCTYPE svg PUBLIC "-//W3C//DTD SVG 1.1//EN" "http://www.w3.org/Graphics/SVG/1.1/DTD/svg11.dtd">
<svg version="1.1" id="Layer_1" xmlns="http://www.w3.org/2000/svg" xmlns:xlink="http://www.w3.org/1999/xlink" x="0px" y="0px"
	 width="64px" height="64px" viewBox="0 0 64 64" enable-background="new 0 0 64 64" xml:space="preserve">
<g>
	<path d="M33.64,4.578c10.513,0,20.087,7.231,20.087,18.312c0,10.411-5.322,21.961-17.174,21.961c-2.812,0-6.361-1.405-7.733-4.017
		c-2.544,10.076-2.344,11.583-7.968,19.283l-0.469,0.167l-0.301-0.335c-0.201-2.109-0.502-4.185-0.502-6.294
		c0-6.829,3.147-16.705,4.687-23.334c-0.837-1.707-1.071-3.783-1.071-5.657c0-3.382,2.343-7.667,6.16-7.667
		c2.812,0,4.319,2.143,4.319,4.788c0,4.352-2.946,8.436-2.946,12.654c0,2.879,2.377,4.888,5.155,4.888
		c7.7,0,10.077-11.114,10.077-17.04c0-7.935-5.624-12.253-13.224-12.253c-8.838,0-15.668,6.36-15.668,15.333
		c0,4.318,2.645,6.528,2.645,7.565c0,0.871-0.636,3.95-1.741,3.95c-0.167,0-0.402-0.066-0.569-0.1
		c-4.788-1.44-6.528-7.834-6.528-12.22C10.875,12.211,22.19,4.578,33.64,4.578z"/>
</g>
</svg>
