<?xml version="1.0" encoding="utf-8"?>
<!-- Generator: Adobe Illustrator 16.0.0, SVG Export Plug-In . SVG Version: 6.00 Build 0)  -->
<!DOCTYPE svg PUBLIC "-//W3C//DTD SVG 1.1//EN" "http://www.w3.org/Graphics/SVG/1.1/DTD/svg11.dtd">
<svg version="1.1" id="Layer_1" xmlns="http://www.w3.org/2000/svg" xmlns:xlink="http://www.w3.org/1999/xlink" x="0px" y="0px"
	 width="64px" height="64px" viewBox="0 0 64 64" enable-background="new 0 0 64 64" xml:space="preserve">
<g>
	<path d="M57.297,48.519c0,5.323-4.318,9.642-9.642,9.642H15.517c-5.323,0-9.642-4.318-9.642-9.642V16.38
		c0-5.323,4.319-9.642,9.642-9.642h32.139c5.323,0,9.642,4.318,9.642,9.642V48.519z M48.66,41.856
		c-0.201-0.603-5.09-3.08-6.026-3.615c-0.636-0.368-1.406-1.105-2.177-1.105c-1.473,0-3.648,4.386-4.954,4.386
		c-0.669,0-1.507-0.603-2.109-0.938c-4.419-2.477-7.465-5.523-9.943-9.942c-0.334-0.603-0.937-1.439-0.937-2.109
		c0-1.306,4.385-3.481,4.385-4.955c0-0.77-0.736-1.539-1.104-2.176c-0.536-0.938-3.013-5.825-3.616-6.025
		c-0.167-0.067-0.368-0.067-0.536-0.067c-0.871,0-2.578,0.401-3.381,0.736c-2.209,1.005-3.816,5.223-3.816,7.532
		c0,2.243,0.904,4.285,1.674,6.361c2.678,7.331,10.646,15.299,17.978,17.978c2.075,0.77,4.118,1.674,6.36,1.674
		c2.311,0,6.529-1.607,7.533-3.816c0.334-0.804,0.736-2.511,0.736-3.381C48.727,42.225,48.727,42.023,48.66,41.856z"/>
</g>
</svg>
