<?xml version="1.0" encoding="utf-8"?>
<!-- Generator: Adobe Illustrator 16.0.0, SVG Export Plug-In . SVG Version: 6.00 Build 0)  -->
<!DOCTYPE svg PUBLIC "-//W3C//DTD SVG 1.1//EN" "http://www.w3.org/Graphics/SVG/1.1/DTD/svg11.dtd">
<svg version="1.1" id="Layer_1" xmlns="http://www.w3.org/2000/svg" xmlns:xlink="http://www.w3.org/1999/xlink" x="0px" y="0px"
	 width="64px" height="64px" viewBox="0 0 64 64" enable-background="new 0 0 64 64" xml:space="preserve">
<g>
	<path d="M47.761,30.522L19.907,58.376H5.98V44.449l27.854-27.854L47.761,30.522z M21.179,51.044l-7.867-7.867l-3.046,3.047v3.582
		h4.285v4.285h3.582L21.179,51.044z M34.905,22.287c-0.2,0-0.401,0.066-0.569,0.234L16.191,40.666
		c-0.167,0.168-0.234,0.368-0.234,0.569c0,0.436,0.301,0.736,0.736,0.736c0.201,0,0.402-0.066,0.569-0.234l18.145-18.145
		c0.167-0.168,0.234-0.368,0.234-0.569C35.642,22.588,35.34,22.287,34.905,22.287z M55.461,22.822l-5.558,5.558L35.977,14.453
		l5.557-5.523c0.771-0.804,1.875-1.272,3.014-1.272s2.243,0.469,3.047,1.272l7.867,7.833c0.77,0.804,1.238,1.908,1.238,3.047
		S56.23,22.053,55.461,22.822z"/>
</g>
</svg>
