<?xml version="1.0" encoding="utf-8"?>
<!-- Generator: Adobe Illustrator 16.0.0, SVG Export Plug-In . SVG Version: 6.00 Build 0)  -->
<!DOCTYPE svg PUBLIC "-//W3C//DTD SVG 1.1//EN" "http://www.w3.org/Graphics/SVG/1.1/DTD/svg11.dtd">
<svg version="1.1" id="Layer_1" xmlns="http://www.w3.org/2000/svg" xmlns:xlink="http://www.w3.org/1999/xlink" x="0px" y="0px"
	 width="64px" height="64px" viewBox="0 0 64 64" enable-background="new 0 0 64 64" xml:space="preserve">
<g>
	<path d="M57.922,16.13v32.139c0,5.323-4.318,9.642-9.642,9.642H24.009c1.105-1.573,2.913-4.285,3.616-7.03
		c0,0,0.301-1.139,1.774-6.997c0.904,1.707,3.482,3.181,6.226,3.181c8.17,0,13.727-7.466,13.727-17.442
		c0-7.532-6.395-14.562-16.104-14.562c-12.085,0-18.178,8.671-18.178,15.902c0,4.352,1.674,8.235,5.223,9.708
		c0.569,0.234,1.104,0,1.272-0.636c0.101-0.436,0.368-1.573,0.502-2.042c0.167-0.637,0.1-0.871-0.369-1.406
		c-1.004-1.239-1.674-2.778-1.674-5.021c0-6.428,4.821-12.152,12.521-12.152c6.829,0,10.579,4.15,10.579,9.741
		c0,7.332-3.248,13.525-8.068,13.525c-2.645,0-4.653-2.21-4.018-4.921c0.77-3.214,2.243-6.696,2.243-9.006
		c0-2.075-1.105-3.816-3.415-3.816c-2.712,0-4.888,2.812-4.888,6.562c0,0,0,2.41,0.804,4.051c-2.779,11.784-3.281,13.86-3.281,13.86
		c-0.737,3.079-0.435,6.662-0.234,8.503h-6.126c-5.323,0-9.642-4.318-9.642-9.642V16.13c0-5.323,4.319-9.642,9.642-9.642H48.28
		C53.604,6.488,57.922,10.807,57.922,16.13z"/>
</g>
</svg>
