<?xml version="1.0" encoding="utf-8"?>
<!-- Generator: Adobe Illustrator 16.0.0, SVG Export Plug-In . SVG Version: 6.00 Build 0)  -->
<!DOCTYPE svg PUBLIC "-//W3C//DTD SVG 1.1//EN" "http://www.w3.org/Graphics/SVG/1.1/DTD/svg11.dtd">
<svg version="1.1" id="Layer_1" xmlns="http://www.w3.org/2000/svg" xmlns:xlink="http://www.w3.org/1999/xlink" x="0px" y="0px"
	 width="64px" height="64px" viewBox="0 0 64 64" enable-background="new 0 0 64 64" xml:space="preserve">
<g>
	<path d="M57.694,48.645c0,5.322-4.319,9.641-9.642,9.641H15.914c-5.323,0-9.642-4.318-9.642-9.641V16.505
		c0-5.323,4.319-9.642,9.642-9.642h32.139c5.322,0,9.642,4.318,9.642,9.642V48.645z M42.696,31.503l-9.642-9.642L14.843,40.074
		v9.641h9.642L42.696,31.503z M24.886,44.76l-1.741,1.742h-1.875v-3.215h-3.214v-1.875l1.741-1.74L24.886,44.76z M33.557,27.62
		l-9.742,9.742c-0.301,0.303-0.77,0.369-1.004,0.102c-0.268-0.234-0.201-0.703,0.101-1.004l9.742-9.743
		c0.301-0.302,0.77-0.368,1.004-0.101C33.926,26.85,33.858,27.319,33.557,27.62z M47.919,26.281c1.239-1.238,1.239-3.314,0-4.553
		l-5.089-5.089c-1.238-1.238-3.314-1.238-4.553,0l-3.08,3.08l9.642,9.642L47.919,26.281z"/>
</g>
</svg>
