<?xml version="1.0" encoding="utf-8"?>
<!-- Generator: Adobe Illustrator 16.0.0, SVG Export Plug-In . SVG Version: 6.00 Build 0)  -->
<!DOCTYPE svg PUBLIC "-//W3C//DTD SVG 1.1//EN" "http://www.w3.org/Graphics/SVG/1.1/DTD/svg11.dtd">
<svg version="1.1" id="Layer_1" xmlns="http://www.w3.org/2000/svg" xmlns:xlink="http://www.w3.org/1999/xlink" x="0px" y="0px"
	 width="64px" height="64px" viewBox="0 0 64 64" enable-background="new 0 0 64 64" xml:space="preserve">
<g>
	<path d="M45.147,58.062c-2.946,0-5.792-1.272-7.867-3.348L11.268,28.734c-2.377-2.41-3.783-5.69-3.783-9.072
		c0-7.097,5.591-12.755,12.688-12.755c3.415,0,6.696,1.373,9.14,3.783l20.254,20.287c0.201,0.201,0.335,0.469,0.335,0.737
		c0,0.702-1.875,2.577-2.577,2.577c-0.302,0-0.57-0.134-0.771-0.335l-20.288-20.32c-1.607-1.574-3.783-2.578-6.06-2.578
		c-4.754,0-8.437,3.85-8.437,8.57c0,2.276,0.938,4.452,2.544,6.06L40.293,51.7c1.272,1.272,3.047,2.109,4.854,2.109
		c2.846,0,4.954-2.109,4.954-4.954c0-1.842-0.836-3.583-2.108-4.854L28.542,24.55c-0.536-0.502-1.272-0.803-2.009-0.803
		c-1.272,0-2.243,0.937-2.243,2.242c0,0.737,0.334,1.44,0.837,1.976L38.854,41.69c0.201,0.201,0.335,0.469,0.335,0.737
		c0,0.702-1.908,2.61-2.611,2.61c-0.268,0-0.536-0.134-0.736-0.334L22.115,30.978c-1.339-1.306-2.109-3.146-2.109-4.988
		c0-3.683,2.879-6.562,6.562-6.562c1.875,0,3.683,0.771,4.988,2.109l19.45,19.45c2.109,2.076,3.348,4.922,3.348,7.868
		C54.354,54.077,50.37,58.062,45.147,58.062z"/>
</g>
</svg>
