<?xml version="1.0" encoding="utf-8"?>
<!-- Generator: Adobe Illustrator 16.0.0, SVG Export Plug-In . SVG Version: 6.00 Build 0)  -->
<!DOCTYPE svg PUBLIC "-//W3C//DTD SVG 1.1//EN" "http://www.w3.org/Graphics/SVG/1.1/DTD/svg11.dtd">
<svg version="1.1" id="Layer_1" xmlns="http://www.w3.org/2000/svg" xmlns:xlink="http://www.w3.org/1999/xlink" x="0px" y="0px"
	 width="64px" height="64px" viewBox="0 0 64 64" enable-background="new 0 0 64 64" xml:space="preserve">
<g>
	<path d="M31.586,57.535c-2.544,0-4.955-0.368-7.298-1.071c0.971-1.54,2.076-3.516,2.611-5.49c0,0,0.301-1.139,1.808-7.063
		c0.87,1.707,3.481,3.214,6.26,3.214c8.27,0,13.894-7.533,13.894-17.644c0-7.6-6.461-14.729-16.304-14.729
		c-12.186,0-18.346,8.771-18.346,16.069c0,4.419,1.674,8.369,5.256,9.842c0.569,0.234,1.105,0,1.272-0.669
		c0.134-0.436,0.401-1.574,0.536-2.043c0.167-0.669,0.1-0.87-0.368-1.439c-1.038-1.238-1.708-2.812-1.708-5.055
		c0-6.495,4.854-12.32,12.654-12.32c6.896,0,10.713,4.219,10.713,9.876c0,7.399-3.281,13.659-8.168,13.659
		c-2.679,0-4.688-2.209-4.051-4.954c0.77-3.248,2.276-6.763,2.276-9.106c0-2.109-1.138-3.884-3.481-3.884
		c-2.745,0-4.955,2.846-4.955,6.662c0,0,0,2.444,0.837,4.085c-2.812,11.918-3.314,13.993-3.314,13.993
		c-0.469,1.942-0.502,4.118-0.435,5.926c-9.073-3.983-15.4-13.022-15.4-23.568c0-14.194,11.517-25.711,25.711-25.711
		S57.297,17.63,57.297,31.824S45.78,57.535,31.586,57.535z"/>
</g>
</svg>
