<?xml version="1.0" encoding="utf-8"?>
<!-- Generator: Adobe Illustrator 16.0.0, SVG Export Plug-In . SVG Version: 6.00 Build 0)  -->
<!DOCTYPE svg PUBLIC "-//W3C//DTD SVG 1.1//EN" "http://www.w3.org/Graphics/SVG/1.1/DTD/svg11.dtd">
<svg version="1.1" id="Layer_1" xmlns="http://www.w3.org/2000/svg" xmlns:xlink="http://www.w3.org/1999/xlink" x="0px" y="0px"
	 width="64px" height="64px" viewBox="0 0 64 64" enable-background="new 0 0 64 64" xml:space="preserve">
<g>
	<path d="M11.376,35.79H7.023c-3.249,0-6.302-1.56-6.302-5.165c0-2.632-0.098-11.468,4.028-11.468c0.682,0,4.061,2.761,8.446,2.761
		c1.494,0,2.924-0.26,4.321-0.747c-0.098,0.715-0.163,1.429-0.163,2.144c0,2.956,0.942,5.88,2.631,8.316
		C16.606,31.729,13.553,33.191,11.376,35.79z M13.195,19.157c-4.581,0-8.316-3.736-8.316-8.316s3.736-8.316,8.316-8.316
		s8.316,3.736,8.316,8.316S17.776,19.157,13.195,19.157z M46.104,60.739H17.711c-5.198,0-8.674-3.151-8.674-8.414
		c0-7.342,1.722-18.614,11.24-18.614c1.104,0,5.133,4.516,11.63,4.516s10.525-4.516,11.63-4.516c9.519,0,11.24,11.272,11.24,18.614
		C54.777,57.588,51.302,60.739,46.104,60.739z M31.907,35.79c-6.887,0-12.475-5.587-12.475-12.475s5.587-12.475,12.475-12.475
		c6.887,0,12.475,5.587,12.475,12.475S38.794,35.79,31.907,35.79z M50.619,19.157c-4.58,0-8.316-3.736-8.316-8.316
		s3.736-8.316,8.316-8.316s8.316,3.736,8.316,8.316S55.199,19.157,50.619,19.157z M56.791,35.79h-4.353
		c-2.177-2.599-5.23-4.061-8.609-4.158c1.689-2.437,2.632-5.36,2.632-8.316c0-0.715-0.065-1.429-0.162-2.144
		c1.396,0.487,2.826,0.747,4.32,0.747c4.386,0,7.764-2.761,8.446-2.761c4.126,0,4.028,8.836,4.028,11.468
		C63.094,34.23,60.04,35.79,56.791,35.79z"/>
</g>
</svg>
