<?xml version="1.0" encoding="utf-8"?>
<!-- Generator: Adobe Illustrator 16.0.0, SVG Export Plug-In . SVG Version: 6.00 Build 0)  -->
<!DOCTYPE svg PUBLIC "-//W3C//DTD SVG 1.1//EN" "http://www.w3.org/Graphics/SVG/1.1/DTD/svg11.dtd">
<svg version="1.1" id="Layer_1" xmlns="http://www.w3.org/2000/svg" xmlns:xlink="http://www.w3.org/1999/xlink" x="0px" y="0px"
	 width="64px" height="64px" viewBox="0 0 64 64" enable-background="new 0 0 64 64" xml:space="preserve">
<g>
	<path d="M33.131,46.915h7.738v7.194c-1.48,1.089-3.354,1.512-5.168,1.512H9.282c-4.836,0-8.071-2.901-8.071-7.829
		c0-6.831,1.602-17.32,10.459-17.32c0.483,0,0.816,0.211,1.179,0.514c2.962,2.268,5.834,3.688,9.643,3.688s6.68-1.421,9.643-3.688
		c0.363-0.302,0.695-0.514,1.179-0.514c2.569,0,4.837,0.967,6.56,2.902h-6.741c-2.115,0-3.869,1.753-3.869,3.869v5.803
		C29.262,45.162,31.016,46.915,33.131,46.915z M10.884,20.799c0-6.408,5.199-11.607,11.607-11.607s11.607,5.199,11.607,11.607
		s-5.199,11.607-11.607,11.607S10.884,27.207,10.884,20.799z M62.15,36.275c0.514,0,0.967,0.453,0.967,0.968v5.803
		c0,0.515-0.453,0.968-0.967,0.968H51.51v10.64c0,0.515-0.453,0.968-0.967,0.968h-5.805c-0.514,0-0.967-0.453-0.967-0.968v-10.64
		H33.131c-0.513,0-0.967-0.453-0.967-0.968v-5.803c0-0.515,0.454-0.968,0.967-0.968h10.641v-10.64c0-0.514,0.453-0.967,0.967-0.967
		h5.805c0.514,0,0.967,0.454,0.967,0.967v10.64H62.15z"/>
</g>
</svg>
