<?xml version="1.0" encoding="utf-8"?>
<!-- Generator: Adobe Illustrator 16.0.0, SVG Export Plug-In . SVG Version: 6.00 Build 0)  -->
<!DOCTYPE svg PUBLIC "-//W3C//DTD SVG 1.1//EN" "http://www.w3.org/Graphics/SVG/1.1/DTD/svg11.dtd">
<svg version="1.1" id="Layer_1" xmlns="http://www.w3.org/2000/svg" xmlns:xlink="http://www.w3.org/1999/xlink" x="0px" y="0px"
	 width="64px" height="64px" viewBox="0 0 64 64" enable-background="new 0 0 64 64" xml:space="preserve">
<g>
	<path d="M57.492,26.557c0,1.172-0.971,2.143-2.143,2.143H40.352c-0.87,0-1.641-0.535-1.975-1.339
		c-0.335-0.771-0.168-1.708,0.469-2.311l4.619-4.619c-3.146-2.913-7.297-4.587-11.683-4.587c-9.441,0-17.141,7.7-17.141,17.141
		c0,9.441,7.7,17.14,17.141,17.14c5.323,0,10.244-2.41,13.525-6.662c0.168-0.234,0.469-0.367,0.77-0.4
		c0.302,0,0.604,0.1,0.838,0.301l4.586,4.619c0.402,0.369,0.402,1.004,0.066,1.439c-4.887,5.893-12.118,9.273-19.785,9.273
		c-14.161,0-25.711-11.549-25.711-25.71c0-14.161,11.55-25.711,25.711-25.711c6.595,0,12.99,2.645,17.71,7.098l4.352-4.319
		c0.603-0.636,1.54-0.803,2.344-0.469c0.77,0.335,1.305,1.105,1.305,1.976V26.557z"/>
</g>
</svg>
