<?xml version="1.0" encoding="utf-8"?>
<!-- Generator: Adobe Illustrator 16.0.0, SVG Export Plug-In . SVG Version: 6.00 Build 0)  -->
<!DOCTYPE svg PUBLIC "-//W3C//DTD SVG 1.1//EN" "http://www.w3.org/Graphics/SVG/1.1/DTD/svg11.dtd">
<svg version="1.1" id="Layer_1" xmlns="http://www.w3.org/2000/svg" xmlns:xlink="http://www.w3.org/1999/xlink" x="0px" y="0px"
	 width="64px" height="64px" viewBox="0 0 64 64" enable-background="new 0 0 64 64" xml:space="preserve">
<g>
	<path d="M50.008,44.357c0,5.324-4.318,9.643-9.642,9.643H12.513c-5.323,0-9.642-4.318-9.642-9.643V16.504
		c0-5.323,4.319-9.642,9.642-9.642h27.854c1.339,0,2.679,0.268,3.917,0.837c0.301,0.134,0.535,0.436,0.603,0.771
		c0.067,0.368-0.034,0.702-0.302,0.971l-1.641,1.64c-0.301,0.302-0.702,0.402-1.07,0.269c-0.502-0.134-1.005-0.201-1.507-0.201
		H12.513c-2.946,0-5.356,2.41-5.356,5.356v27.853c0,2.947,2.41,5.357,5.356,5.357h27.854c2.946,0,5.356-2.41,5.356-5.357v-4.217
		c0-0.27,0.101-0.537,0.301-0.738l2.143-2.143c0.336-0.334,0.771-0.4,1.172-0.234c0.402,0.168,0.67,0.537,0.67,0.973V44.357z
		 M56.436,22.932L33.938,45.43h-9.642v-9.643l22.497-22.497L56.436,22.932z M36.482,38.332l-5.088-5.088l-3.883,3.883v1.875h3.214
		v3.213H32.6L36.482,38.332z M46.225,18.145L34.508,29.862c-0.302,0.302-0.335,0.804-0.033,1.104
		c0.301,0.302,0.803,0.269,1.104-0.033l11.717-11.717c0.302-0.302,0.335-0.804,0.034-1.105
		C47.028,17.81,46.526,17.843,46.225,18.145z M58.578,20.79l-9.642-9.642l3.08-3.08c1.239-1.238,3.313-1.238,4.553,0l5.089,5.089
		c1.238,1.238,1.238,3.314,0,4.553L58.578,20.79z"/>
</g>
</svg>
