<?xml version="1.0" encoding="utf-8"?>
<!-- Generator: Adobe Illustrator 16.0.0, SVG Export Plug-In . SVG Version: 6.00 Build 0)  -->
<!DOCTYPE svg PUBLIC "-//W3C//DTD SVG 1.1//EN" "http://www.w3.org/Graphics/SVG/1.1/DTD/svg11.dtd">
<svg version="1.1" id="Layer_1" xmlns="http://www.w3.org/2000/svg" xmlns:xlink="http://www.w3.org/1999/xlink" x="0px" y="0px"
	 width="64px" height="64px" viewBox="0 0 64 64" enable-background="new 0 0 64 64" xml:space="preserve">
<g>
	<path d="M62.654,49.271c0,1.861-1.543,3.404-3.404,3.404H4.781c-1.862,0-3.404-1.543-3.404-3.404V15.228
		c0-1.862,1.542-3.404,3.404-3.404H59.25c1.861,0,3.404,1.542,3.404,3.404V49.271z M11.324,24.988H7.068
		c-0.266,0-0.532,0.213-0.559,0.505L4.781,36.345c-0.026,0.213,0.133,0.426,0.346,0.426h2.021c0.292,0,0.559-0.213,0.585-0.506
		l0.479-2.925c0.106-0.771,1.41-0.506,1.915-0.506c3.032,0,4.894-1.809,4.894-4.867C15.021,25.733,13.292,24.988,11.324,24.988z
		 M9.515,30.467l-0.877,0.026l0.452-2.846c0.026-0.186,0.186-0.292,0.346-0.292h0.505c1.197,0,2.101,0.16,1.862,1.596
		C11.59,30.308,10.686,30.467,9.515,30.467z M24.33,29.323c0.026-0.212-0.133-0.425-0.346-0.425h-2.021
		c-0.399,0-0.426,0.585-0.452,0.877c-0.612-0.904-1.516-1.063-2.527-1.063c-2.606,0-4.601,2.287-4.601,4.813
		c0,2.074,1.303,3.431,3.378,3.431c0.958,0,2.154-0.425,2.819-1.17c-0.053,0.16-0.106,0.399-0.106,0.559
		c0,0.239,0.106,0.426,0.346,0.426h1.835c0.292,0,0.532-0.213,0.585-0.506L24.33,29.323z M18.851,34.803
		c-0.984,0-1.702-0.559-1.702-1.596c0-1.304,1.011-2.341,2.314-2.341c0.984,0,1.729,0.611,1.729,1.649
		C21.191,33.818,20.154,34.803,18.851,34.803z M34.782,28.898h-2.048c-0.187,0-0.373,0.106-0.479,0.266l-2.819,4.148l-1.17-3.989
		c-0.08-0.239-0.319-0.425-0.585-0.425h-1.995c-0.186,0-0.346,0.186-0.346,0.373c0,0.133,2.075,6.144,2.261,6.702
		c-0.292,0.398-2.181,2.872-2.181,3.191c0,0.187,0.16,0.346,0.346,0.346h2.048c0.186,0,0.372-0.106,0.479-0.266l6.782-9.788
		c0.054-0.053,0.054-0.106,0.054-0.186C35.128,29.084,34.968,28.898,34.782,28.898z M41.537,24.988h-4.229
		c-0.293,0-0.559,0.213-0.585,0.505l-1.729,10.851c-0.026,0.213,0.134,0.426,0.347,0.426h2.181c0.213,0,0.372-0.16,0.426-0.346
		l0.479-3.085c0.106-0.771,1.409-0.506,1.914-0.506c3.032,0,4.894-1.809,4.894-4.867C45.233,25.733,43.505,24.988,41.537,24.988z
		 M39.729,30.467l-0.851,0.026l0.452-2.846c0.026-0.186,0.159-0.292,0.346-0.292h0.479c0.904,0,1.915,0.053,1.915,1.197
		C42.069,30.148,41.111,30.467,39.729,30.467z M54.543,29.323c0.026-0.212-0.134-0.425-0.347-0.425h-2.021
		c-0.399,0-0.426,0.585-0.452,0.877c-0.585-0.904-1.489-1.063-2.527-1.063c-2.606,0-4.601,2.287-4.601,4.813
		c0,2.074,1.303,3.431,3.378,3.431c0.983,0,2.181-0.425,2.818-1.17c-0.026,0.16-0.105,0.399-0.105,0.559
		c0,0.239,0.105,0.426,0.346,0.426h1.835c0.292,0,0.531-0.213,0.585-0.506L54.543,29.323z M49.09,34.803
		c-0.983,0-1.729-0.559-1.729-1.596c0-1.304,1.011-2.341,2.314-2.341c0.983,0,1.729,0.611,1.729,1.649
		C51.404,33.818,50.367,34.803,49.09,34.803z M59.25,25.361c0-0.213-0.159-0.373-0.346-0.373h-1.968
		c-0.16,0-0.319,0.133-0.346,0.292l-1.729,11.064l-0.026,0.054c0,0.186,0.159,0.372,0.372,0.372h1.756
		c0.266,0,0.532-0.213,0.559-0.506l1.729-10.877V25.361z"/>
</g>
</svg>
