<?xml version="1.0" encoding="utf-8"?>
<!-- Generator: Adobe Illustrator 16.0.0, SVG Export Plug-In . SVG Version: 6.00 Build 0)  -->
<!DOCTYPE svg PUBLIC "-//W3C//DTD SVG 1.1//EN" "http://www.w3.org/Graphics/SVG/1.1/DTD/svg11.dtd">
<svg version="1.1" id="Layer_1" xmlns="http://www.w3.org/2000/svg" xmlns:xlink="http://www.w3.org/1999/xlink" x="0px" y="0px"
	 width="64px" height="64px" viewBox="0 0 64 64" enable-background="new 0 0 64 64" xml:space="preserve">
<g>
	<path d="M50.305,22.665c-1.74,5.055-5.021,8.671-10.11,10.545c-2.712,0.972-5.558,1.373-8.437,1.406c-2.009,0.033-4.017,0-6.026,0
		c-2.176,0-3.549,1.071-3.95,3.214c-0.469,2.545-2.31,14.396-2.846,17.743c-0.034,0.234-0.134,0.335-0.402,0.335H8.658
		c-1.004,0-1.741-0.87-1.607-1.841l7.767-49.246c0.201-1.272,1.339-2.243,2.645-2.243h20.02c1.439,0,4.754,0.636,6.997,1.507
		c4.754,1.841,7.365,5.591,7.365,10.679C51.845,17.509,51.209,20.12,50.305,22.665z M57.469,31.034
		c-2.176,11.048-9.508,14.864-18.915,14.864h-1.473c-1.139,0-2.075,0.837-2.276,1.976L34.67,48.51l-1.841,11.583l-0.067,0.502
		c-0.234,1.139-1.171,1.976-2.31,1.976h-8.403c-0.938,0-1.54-0.77-1.406-1.707c0.603-3.75,1.172-7.499,1.774-11.249
		c0.603-3.749,1.206-7.466,1.808-11.215c0.1-0.804,0.636-1.238,1.439-1.238c1.339,0,2.678-0.034,4.386,0
		c2.41,0.033,5.189-0.101,7.9-0.703c3.615-0.804,6.896-2.276,9.608-4.821c2.444-2.276,4.084-5.089,5.188-8.235
		c0.502-1.473,0.904-2.946,1.172-4.452c0.067-0.402,0.168-0.335,0.402-0.168c1.841,1.373,2.879,3.214,3.28,5.424
		C58.038,26.214,57.938,28.523,57.469,31.034z"/>
</g>
</svg>
