<?xml version="1.0" encoding="utf-8"?>
<!-- Generator: Adobe Illustrator 16.0.0, SVG Export Plug-In . SVG Version: 6.00 Build 0)  -->
<!DOCTYPE svg PUBLIC "-//W3C//DTD SVG 1.1//EN" "http://www.w3.org/Graphics/SVG/1.1/DTD/svg11.dtd">
<svg version="1.1" id="Layer_1" xmlns="http://www.w3.org/2000/svg" xmlns:xlink="http://www.w3.org/1999/xlink" x="0px" y="0px"
	 width="64px" height="64px" viewBox="0 0 64 64" enable-background="new 0 0 64 64" xml:space="preserve">
<g>
	<path d="M54.1,48.744c-0.703,1.641-2.578,2.712-4.085,3.549C48.039,53.364,46.031,54,43.787,54c-3.113,0-5.925-1.272-8.771-2.31
		c-2.042-0.737-4.018-1.641-5.858-2.779c-5.691-3.515-12.554-10.378-16.069-16.069c-1.139-1.841-2.042-3.816-2.779-5.858
		C9.272,24.138,8,21.326,8,18.212c0-2.243,0.636-4.251,1.708-6.227c0.837-1.507,1.908-3.381,3.548-4.084
		c1.105-0.503,3.448-1.038,4.653-1.038c0.234,0,0.469,0,0.703,0.101c0.703,0.234,1.439,1.875,1.774,2.544
		c1.071,1.908,2.109,3.851,3.214,5.725c0.536,0.871,1.54,1.942,1.54,2.979c0,2.042-6.06,5.022-6.06,6.83
		c0,0.903,0.837,2.075,1.306,2.879c3.381,6.093,7.6,10.312,13.692,13.692c0.804,0.469,1.976,1.306,2.88,1.306
		c1.807,0,4.787-6.06,6.828-6.06c1.039,0,2.109,1.004,2.98,1.54c1.875,1.104,3.816,2.143,5.725,3.214
		c0.67,0.335,2.31,1.071,2.544,1.774c0.101,0.234,0.101,0.469,0.101,0.703C55.137,45.296,54.602,47.64,54.1,48.744z"/>
</g>
</svg>
