<?xml version="1.0" encoding="utf-8"?>
<!-- Generator: Adobe Illustrator 16.0.0, SVG Export Plug-In . SVG Version: 6.00 Build 0)  -->
<!DOCTYPE svg PUBLIC "-//W3C//DTD SVG 1.1//EN" "http://www.w3.org/Graphics/SVG/1.1/DTD/svg11.dtd">
<svg version="1.1" id="Layer_1" xmlns="http://www.w3.org/2000/svg" xmlns:xlink="http://www.w3.org/1999/xlink" x="0px" y="0px"
	 width="64px" height="64px" viewBox="0 0 64 64" enable-background="new 0 0 64 64" xml:space="preserve">
<g>
	<path d="M46.143,58.195h-29.26c-5.356,0-8.938-3.215-8.938-8.672c0-6.662,1.339-17.173,9.307-18.915
		c-0.536,1.272-0.736,2.645-0.736,4.018v6.795c-2.578,0.904-4.285,3.348-4.285,6.061c0,3.549,2.879,6.428,6.428,6.428
		s6.428-2.879,6.428-6.428c0-2.713-1.741-5.156-4.285-6.061v-6.795c0-1.105,0.101-2.21,0.837-3.114
		c2.812,2.209,6.294,3.481,9.876,3.481s7.063-1.271,9.876-3.481c0.736,0.903,0.837,2.008,0.837,3.114v2.143
		c-4.72,0-8.57,3.85-8.57,8.57v2.979c-0.669,0.604-1.071,1.473-1.071,2.377c0,1.775,1.439,3.215,3.214,3.215
		s3.214-1.439,3.214-3.215c0-0.904-0.402-1.773-1.071-2.377V45.34c0-2.344,1.942-4.285,4.285-4.285s4.285,1.941,4.285,4.285v2.979
		c-0.669,0.604-1.071,1.473-1.071,2.377c0,1.775,1.439,3.215,3.214,3.215s3.214-1.439,3.214-3.215c0-0.904-0.402-1.773-1.071-2.377
		V45.34c0-3.047-1.641-5.893-4.285-7.398c0-2.445,0.234-5.056-0.736-7.333c7.968,1.741,9.307,12.252,9.307,18.915
		C55.081,54.98,51.499,58.195,46.143,58.195z M18.657,49.625c-1.172,0-2.143-0.971-2.143-2.143s0.971-2.143,2.143-2.143
		s2.143,0.971,2.143,2.143S19.829,49.625,18.657,49.625z M31.513,32.484c-7.097,0-12.855-5.758-12.855-12.855
		S24.416,6.773,31.513,6.773c7.097,0,12.855,5.758,12.855,12.855S38.609,32.484,31.513,32.484z"/>
</g>
</svg>
