<?xml version="1.0" encoding="utf-8"?>
<!-- Generator: Adobe Illustrator 16.0.0, SVG Export Plug-In . SVG Version: 6.00 Build 0)  -->
<!DOCTYPE svg PUBLIC "-//W3C//DTD SVG 1.1//EN" "http://www.w3.org/Graphics/SVG/1.1/DTD/svg11.dtd">
<svg version="1.1" id="Layer_1" xmlns="http://www.w3.org/2000/svg" xmlns:xlink="http://www.w3.org/1999/xlink" x="0px" y="0px"
	 width="64px" height="64px" viewBox="0 0 64 64" enable-background="new 0 0 64 64" xml:space="preserve">
<g>
	<path d="M40.359,35.099c-1.975,1.139-3.214,3.448-3.214,4.419c0,0.737-0.569,1.607-1.339,1.607h-8.035
		c-0.736,0-1.205-1.139-1.205-1.875v-1.506c0-4.051,4.018-7.533,6.963-8.872c2.578-1.172,3.649-2.276,3.649-4.419
		c0-1.875-2.444-3.549-5.155-3.549c-1.507,0-2.879,0.469-3.616,0.971c-0.804,0.569-1.607,1.373-3.582,3.851
		c-0.268,0.334-0.669,0.535-1.038,0.535c-0.301,0-0.569-0.101-0.837-0.268l-5.49-4.185c-0.569-0.436-0.703-1.172-0.335-1.774
		c3.616-5.993,8.705-8.905,15.534-8.905c7.165,0,15.199,5.725,15.199,13.391C47.858,30.881,43.539,33.324,40.359,35.099z
		 M37.279,52.642c0,0.736-0.603,1.339-1.339,1.339h-8.035c-0.736,0-1.339-0.603-1.339-1.339v-8.035c0-0.736,0.603-1.339,1.339-1.339
		h8.035c0.736,0,1.339,0.603,1.339,1.339V52.642z"/>
</g>
</svg>
