<?xml version="1.0" encoding="utf-8"?>
<!-- Generator: Adobe Illustrator 16.0.0, SVG Export Plug-In . SVG Version: 6.00 Build 0)  -->
<!DOCTYPE svg PUBLIC "-//W3C//DTD SVG 1.1//EN" "http://www.w3.org/Graphics/SVG/1.1/DTD/svg11.dtd">
<svg version="1.1" id="Layer_1" xmlns="http://www.w3.org/2000/svg" xmlns:xlink="http://www.w3.org/1999/xlink" x="0px" y="0px"
	 width="64px" height="64px" viewBox="0 0 64 64" enable-background="new 0 0 64 64" xml:space="preserve">
<g>
	<path d="M31.375,58.445c-14.194,0-25.711-11.518-25.711-25.711c0-14.194,11.517-25.711,25.711-25.711
		c14.195,0,25.71,11.517,25.71,25.711C57.086,46.928,45.57,58.445,31.375,58.445z M32.045,15.593c-5.457,0-9.541,2.344-12.42,7.131
		c-0.301,0.469-0.167,1.071,0.268,1.406l4.419,3.348c0.167,0.134,0.402,0.201,0.636,0.201c0.301,0,0.636-0.135,0.837-0.402
		c1.573-2.009,2.243-2.611,2.879-3.08c0.569-0.401,1.674-0.803,2.879-0.803c2.143,0,4.117,1.372,4.117,2.845
		c0,1.741-0.903,2.611-2.946,3.549c-2.376,1.071-5.624,3.851-5.624,7.097v1.205c0,0.604,0.469,1.072,1.071,1.072h6.428
		c0.602,0,1.07-0.469,1.07-1.072c0-0.77,0.971-2.41,2.545-3.314c2.545-1.439,6.025-3.38,6.025-8.469
		C44.23,20.18,37.803,15.593,32.045,15.593z M35.66,42.375c0-0.602-0.469-1.07-1.07-1.07h-6.428c-0.603,0-1.071,0.469-1.071,1.07
		v6.428c0,0.604,0.469,1.072,1.071,1.072h6.428c0.602,0,1.07-0.469,1.07-1.072V42.375z"/>
</g>
</svg>
