<?xml version="1.0" encoding="utf-8"?>
<!-- Generator: Adobe Illustrator 16.0.0, SVG Export Plug-In . SVG Version: 6.00 Build 0)  -->
<!DOCTYPE svg PUBLIC "-//W3C//DTD SVG 1.1//EN" "http://www.w3.org/Graphics/SVG/1.1/DTD/svg11.dtd">
<svg version="1.1" id="Layer_1" xmlns="http://www.w3.org/2000/svg" xmlns:xlink="http://www.w3.org/1999/xlink" x="0px" y="0px"
	 width="64px" height="64px" viewBox="0 0 64 64" enable-background="new 0 0 64 64" xml:space="preserve">
<g>
	<path d="M56.301,36.79C53.456,48.642,43.68,56.91,31.327,56.91c-6.528,0-12.855-2.578-17.609-7.098l-4.319,4.319
		c-0.401,0.401-0.937,0.636-1.506,0.636c-1.172,0-2.143-0.971-2.143-2.143V37.627c0-1.172,0.971-2.143,2.143-2.143h14.998
		c1.172,0,2.143,0.971,2.143,2.143c0,0.569-0.234,1.104-0.636,1.507l-4.586,4.586c3.147,2.946,7.332,4.62,11.65,4.62
		c5.959,0,11.482-3.08,14.596-8.169c0.805-1.306,1.206-2.577,1.775-3.917c0.167-0.468,0.502-0.77,1.004-0.77h6.428
		c0.603,0,1.071,0.502,1.071,1.071C56.335,36.623,56.335,36.723,56.301,36.79z M57.172,24.771c0,1.172-0.971,2.143-2.143,2.143
		H40.031c-1.172,0-2.143-0.971-2.143-2.143c0-0.569,0.234-1.104,0.637-1.507l4.619-4.619c-3.18-2.946-7.365-4.587-11.684-4.587
		c-5.959,0-11.483,3.08-14.596,8.169c-0.804,1.306-1.206,2.577-1.774,3.917c-0.167,0.468-0.502,0.77-1.004,0.77H7.424
		c-0.603,0-1.071-0.502-1.071-1.071c0-0.067,0-0.167,0-0.234c2.879-11.885,12.755-20.12,25.108-20.12
		c6.562,0,12.956,2.611,17.71,7.098l4.353-4.319c0.4-0.401,0.937-0.636,1.506-0.636c1.172,0,2.143,0.971,2.143,2.143V24.771z"/>
</g>
</svg>
