<?xml version="1.0" encoding="utf-8"?>
<!-- Generator: Adobe Illustrator 16.0.0, SVG Export Plug-In . SVG Version: 6.00 Build 0)  -->
<!DOCTYPE svg PUBLIC "-//W3C//DTD SVG 1.1//EN" "http://www.w3.org/Graphics/SVG/1.1/DTD/svg11.dtd">
<svg version="1.1" id="Layer_1" xmlns="http://www.w3.org/2000/svg" xmlns:xlink="http://www.w3.org/1999/xlink" x="0px" y="0px"
	 width="64px" height="64px" viewBox="0 0 64 64" enable-background="new 0 0 64 64" xml:space="preserve">
<g>
	<path d="M31.336,57.91c-7.667,0-14.897-3.381-19.785-9.273c-0.335-0.436-0.302-1.071,0.067-1.439l4.586-4.62
		c0.234-0.2,0.536-0.301,0.837-0.301c0.301,0.033,0.603,0.167,0.77,0.401c3.281,4.252,8.202,6.662,13.525,6.662
		c9.441,0,17.141-7.7,17.141-17.141s-7.699-17.141-17.141-17.141c-4.386,0-8.537,1.674-11.65,4.587l4.586,4.619
		c0.636,0.603,0.804,1.54,0.469,2.311c-0.334,0.804-1.104,1.339-1.975,1.339H7.768c-1.172,0-2.143-0.971-2.143-2.143V10.773
		c0-0.87,0.536-1.641,1.339-1.976c0.77-0.334,1.708-0.167,2.31,0.469l4.352,4.319c4.721-4.453,11.115-7.098,17.71-7.098
		c14.161,0,25.711,11.55,25.711,25.711S45.497,57.91,31.336,57.91z"/>
</g>
</svg>
