<?xml version="1.0" encoding="utf-8"?>
<!-- Generator: Adobe Illustrator 16.0.0, SVG Export Plug-In . SVG Version: 6.00 Build 0)  -->
<!DOCTYPE svg PUBLIC "-//W3C//DTD SVG 1.1//EN" "http://www.w3.org/Graphics/SVG/1.1/DTD/svg11.dtd">
<svg version="1.1" id="Layer_1" xmlns="http://www.w3.org/2000/svg" xmlns:xlink="http://www.w3.org/1999/xlink" x="0px" y="0px"
	 width="64px" height="64px" viewBox="0 0 64 64" enable-background="new 0 0 64 64" xml:space="preserve">
<g>
	<path d="M57.49,55.922c-0.368,0.77-0.736,1.841-1.238,2.544c-0.234,0.335-0.469,0.569-0.938,0.569c-0.67,0-1.071-0.535-1.071-1.172
		c0-0.535,0.134-1.138,0.167-1.674c0.101-1.372,0.168-2.745,0.168-4.117c0-15.97-9.475-18.748-23.903-18.748h-7.499v8.57
		c0,1.172-0.971,2.143-2.143,2.143c-0.569,0-1.105-0.234-1.506-0.636L2.386,26.261c-0.402-0.402-0.636-0.938-0.636-1.507
		s0.234-1.104,0.636-1.507L19.527,6.106c0.401-0.401,0.937-0.636,1.506-0.636c1.172,0,2.143,0.971,2.143,2.143v8.57h7.499
		c10.98,0,24.64,1.941,29.293,13.491c1.406,3.549,1.774,7.399,1.774,11.148C61.742,45.51,59.398,51.637,57.49,55.922z"/>
</g>
</svg>
