<?xml version="1.0" encoding="utf-8"?>
<!-- Generator: Adobe Illustrator 16.0.0, SVG Export Plug-In . SVG Version: 6.00 Build 0)  -->
<!DOCTYPE svg PUBLIC "-//W3C//DTD SVG 1.1//EN" "http://www.w3.org/Graphics/SVG/1.1/DTD/svg11.dtd">
<svg version="1.1" id="Layer_1" xmlns="http://www.w3.org/2000/svg" xmlns:xlink="http://www.w3.org/1999/xlink" x="0px" y="0px"
	 width="64px" height="64px" viewBox="0 0 64 64" enable-background="new 0 0 64 64" xml:space="preserve">
<g>
	<path d="M23.176,41.145c0,0.87-0.536,1.641-1.306,1.976c-0.268,0.1-0.569,0.167-0.837,0.167c-0.569,0-1.105-0.201-1.506-0.636
		L2.386,25.511c-0.837-0.837-0.837-2.177,0-3.014L19.527,5.356c0.603-0.636,1.54-0.803,2.343-0.469
		c0.77,0.335,1.306,1.105,1.306,1.976v2.31L9.885,22.497c-0.837,0.837-0.837,2.177,0,3.014l13.291,13.29V41.145z M56.252,57.716
		c-0.168,0.368-0.535,0.569-0.938,0.569c-0.101,0-0.201,0-0.301-0.033c-0.503-0.168-0.805-0.637-0.771-1.139
		c0.971-9.14-0.167-15.165-3.549-18.915c-2.845-3.18-7.466-4.888-14.663-5.457v8.403c0,0.87-0.535,1.641-1.306,1.976
		c-0.268,0.1-0.569,0.167-0.837,0.167c-0.569,0-1.105-0.201-1.506-0.636L15.242,25.511c-0.837-0.837-0.837-2.177,0-3.014
		L32.382,5.356c0.602-0.636,1.54-0.803,2.343-0.469c0.771,0.335,1.306,1.105,1.306,1.976v8.771c9.24,0.636,15.835,3.08,20.053,7.398
		c5.056,5.188,5.658,12.219,5.658,17.04C61.742,47.037,56.486,57.281,56.252,57.716z"/>
</g>
</svg>
