<?xml version="1.0" encoding="utf-8"?>
<!-- Generator: Adobe Illustrator 16.0.0, SVG Export Plug-In . SVG Version: 6.00 Build 0)  -->
<!DOCTYPE svg PUBLIC "-//W3C//DTD SVG 1.1//EN" "http://www.w3.org/Graphics/SVG/1.1/DTD/svg11.dtd">
<svg version="1.1" id="Layer_1" xmlns="http://www.w3.org/2000/svg" xmlns:xlink="http://www.w3.org/1999/xlink" x="0px" y="0px"
	 width="64px" height="64px" viewBox="0 0 64 64" enable-background="new 0 0 64 64" xml:space="preserve">
<g>
	<path d="M61.941,16.703L51.229,27.416c-0.201,0.201-0.503,0.302-0.771,0.302c-0.569,0-1.071-0.469-1.071-1.071v-6.428h-8.57
		c-4.453,0-6.562,3.047-8.437,6.662c-0.971,1.875-1.808,3.816-2.611,5.725c-3.716,8.638-8.068,17.609-18.948,17.609H3.321
		c-0.603,0-1.071-0.469-1.071-1.071v-6.428c0-0.603,0.469-1.071,1.071-1.071h7.499c4.453,0,6.562-3.047,8.437-6.662
		c0.971-1.875,1.808-3.816,2.611-5.725c3.716-8.638,8.068-17.609,18.948-17.609h8.57V5.221c0-0.603,0.469-1.071,1.071-1.071
		c0.302,0,0.569,0.134,0.804,0.335l10.68,10.68c0.2,0.2,0.301,0.502,0.301,0.77S62.142,16.503,61.941,16.703z M19.96,28.32
		c-1.942-4.051-4.084-8.102-9.14-8.102H3.321c-0.603,0-1.071-0.469-1.071-1.071V12.72c0-0.603,0.469-1.071,1.071-1.071h7.499
		c5.959,0,10.345,2.778,13.726,7.532C22.671,22.06,21.299,25.174,19.96,28.32z M61.941,46.699L51.229,57.412
		c-0.201,0.201-0.503,0.302-0.771,0.302c-0.569,0-1.071-0.502-1.071-1.071v-6.428c-9.943,0-16.069,1.172-22.263-7.532
		c1.841-2.879,3.214-5.993,4.553-9.14c1.942,4.051,4.085,8.102,9.14,8.102h8.57v-6.428c0-0.603,0.469-1.071,1.071-1.071
		c0.302,0,0.569,0.134,0.804,0.335l10.68,10.68c0.2,0.2,0.301,0.502,0.301,0.77S62.142,46.499,61.941,46.699z"/>
</g>
</svg>
