<?xml version="1.0" encoding="utf-8"?>
<!-- Generator: Adobe Illustrator 16.0.0, SVG Export Plug-In . SVG Version: 6.00 Build 0)  -->
<!DOCTYPE svg PUBLIC "-//W3C//DTD SVG 1.1//EN" "http://www.w3.org/Graphics/SVG/1.1/DTD/svg11.dtd">
<svg version="1.1" id="Layer_1" xmlns="http://www.w3.org/2000/svg" xmlns:xlink="http://www.w3.org/1999/xlink" x="0px" y="0px"
	 width="64px" height="64px" viewBox="0 0 64 64" enable-background="new 0 0 64 64" xml:space="preserve">
<g>
	<path d="M61.105,25.761L43.965,42.901c-0.4,0.401-0.937,0.636-1.506,0.636c-1.172,0-2.143-0.971-2.143-2.143v-8.57h-7.499
		c-14.429,0-23.903,2.778-23.903,18.748c0,1.372,0.067,2.745,0.167,4.117c0.034,0.536,0.167,1.139,0.167,1.674
		c0,0.637-0.402,1.172-1.071,1.172c-0.469,0-0.703-0.234-0.938-0.569c-0.502-0.703-0.87-1.774-1.239-2.544
		C4.093,51.137,1.75,45.01,1.75,40.323c0-3.749,0.368-7.6,1.774-11.148c4.653-11.55,18.312-13.491,29.293-13.491h7.499v-8.57
		c0-1.172,0.971-2.143,2.143-2.143c0.569,0,1.105,0.234,1.506,0.636l17.141,17.141c0.402,0.402,0.637,0.938,0.637,1.507
		S61.508,25.358,61.105,25.761z"/>
</g>
</svg>
