<?xml version="1.0" encoding="utf-8"?>
<!-- Generator: Adobe Illustrator 16.0.0, SVG Export Plug-In . SVG Version: 6.00 Build 0)  -->
<!DOCTYPE svg PUBLIC "-//W3C//DTD SVG 1.1//EN" "http://www.w3.org/Graphics/SVG/1.1/DTD/svg11.dtd">
<svg version="1.1" id="Layer_1" xmlns="http://www.w3.org/2000/svg" xmlns:xlink="http://www.w3.org/1999/xlink" x="0px" y="0px"
	 width="64px" height="64px" viewBox="0 0 64 64" enable-background="new 0 0 64 64" xml:space="preserve">
<g>
	<path d="M62.109,4.548l-8.57,51.422c-0.1,0.635-0.502,1.172-1.071,1.506c-0.302,0.168-0.669,0.268-1.038,0.268
		c-0.268,0-0.535-0.066-0.803-0.166l-17.643-7.199l-9.977,10.947c-0.401,0.469-0.971,0.703-1.573,0.703
		c-0.268,0-0.536-0.033-0.77-0.133c-0.837-0.336-1.373-1.139-1.373-2.01V44.756L3.49,38.295c-0.77-0.303-1.272-1.006-1.339-1.842
		c-0.067-0.805,0.368-1.574,1.071-1.975L58.93,2.339c0.703-0.436,1.606-0.402,2.275,0.066C61.908,2.908,62.244,3.711,62.109,4.548z
		 M57.154,8.298L9.148,35.984l11.249,4.586l28.891-21.392L33.285,45.859l16.471,6.73L57.154,8.298z"/>
</g>
</svg>
