<?xml version="1.0" encoding="utf-8"?>
<!-- Generator: Adobe Illustrator 16.0.0, SVG Export Plug-In . SVG Version: 6.00 Build 0)  -->
<!DOCTYPE svg PUBLIC "-//W3C//DTD SVG 1.1//EN" "http://www.w3.org/Graphics/SVG/1.1/DTD/svg11.dtd">
<svg version="1.1" id="Layer_1" xmlns="http://www.w3.org/2000/svg" xmlns:xlink="http://www.w3.org/1999/xlink" x="0px" y="0px"
	 width="64px" height="64px" viewBox="0 0 64 64" enable-background="new 0 0 64 64" xml:space="preserve">
<g>
	<path d="M57.014,62.57c-1.139,0-2.244-0.469-3.014-1.272L42.518,49.849C38.601,52.561,33.914,54,29.16,54
		C16.137,54,5.591,43.454,5.591,30.432S16.137,6.863,29.16,6.863s23.569,10.546,23.569,23.568c0,4.754-1.439,9.44-4.152,13.357
		L60.06,55.272c0.771,0.77,1.239,1.874,1.239,3.013C61.299,60.662,59.391,62.57,57.014,62.57z M29.16,15.434
		c-8.269,0-14.998,6.729-14.998,14.998S20.891,45.43,29.16,45.43S44.158,38.7,44.158,30.432S37.429,15.434,29.16,15.434z
		 M39.873,31.503c0,0.569-0.502,1.071-1.072,1.071h-7.499v7.499c0,0.569-0.502,1.071-1.071,1.071h-2.143
		c-0.569,0-1.071-0.502-1.071-1.071v-7.499h-7.499c-0.569,0-1.071-0.502-1.071-1.071V29.36c0-0.569,0.502-1.071,1.071-1.071h7.499
		V20.79c0-0.569,0.502-1.071,1.071-1.071h2.143c0.569,0,1.071,0.502,1.071,1.071v7.499h7.499c0.57,0,1.072,0.502,1.072,1.071V31.503
		z"/>
</g>
</svg>
