<?xml version="1.0" encoding="utf-8"?>
<!-- Generator: Adobe Illustrator 16.0.0, SVG Export Plug-In . SVG Version: 6.00 Build 0)  -->
<!DOCTYPE svg PUBLIC "-//W3C//DTD SVG 1.1//EN" "http://www.w3.org/Graphics/SVG/1.1/DTD/svg11.dtd">
<svg version="1.1" id="Layer_1" xmlns="http://www.w3.org/2000/svg" xmlns:xlink="http://www.w3.org/1999/xlink" x="0px" y="0px"
	 width="64px" height="64px" viewBox="0 0 64 64" enable-background="new 0 0 64 64" xml:space="preserve">
<g>
	<path d="M48.893,7.574v49.28c0,1.172-0.67,1.473-1.507,0.635l-23.77-23.768c-0.201-0.201-0.334-0.402-0.435-0.637v22.697
		c0,1.172-0.971,2.143-2.143,2.143h-4.285c-1.172,0-2.143-0.971-2.143-2.143V8.645c0-1.172,0.971-2.143,2.143-2.143h4.285
		c1.172,0,2.143,0.971,2.143,2.143v22.698c0.101-0.234,0.234-0.436,0.435-0.637l23.77-23.769
		C48.223,6.101,48.893,6.402,48.893,7.574z"/>
</g>
</svg>
