<?xml version="1.0" encoding="utf-8"?>
<!-- Generator: Adobe Illustrator 16.0.0, SVG Export Plug-In . SVG Version: 6.00 Build 0)  -->
<!DOCTYPE svg PUBLIC "-//W3C//DTD SVG 1.1//EN" "http://www.w3.org/Graphics/SVG/1.1/DTD/svg11.dtd">
<svg version="1.1" id="Layer_1" xmlns="http://www.w3.org/2000/svg" xmlns:xlink="http://www.w3.org/1999/xlink" x="0px" y="0px"
	 width="64px" height="64px" viewBox="0 0 64 64" enable-background="new 0 0 64 64" xml:space="preserve">
<g>
	<path d="M57.618,48.019c0,5.323-4.319,9.642-9.642,9.642H15.838c-5.323,0-9.642-4.318-9.642-9.642V15.88
		c0-5.323,4.319-9.642,9.642-9.642h32.139c5.322,0,9.642,4.318,9.642,9.642V48.019z M51.625,27.028c0.838-0.837,0.838-2.177,0-3.014
		L39.842,12.23c-0.604-0.636-1.541-0.803-2.311-0.469c-0.803,0.335-1.339,1.105-1.339,1.976v5.356
		c-19.216,0-21.426,11.015-21.426,19.283c0,6.729,5.39,13.257,5.591,13.525c0.234,0.268,0.536,0.401,0.837,0.401
		c0.134,0,0.301-0.033,0.435-0.101c0.436-0.167,0.703-0.636,0.636-1.104c-1.004-8.068-0.368-13.09,2.076-15.835
		c2.042-2.311,5.591-3.314,11.851-3.314v5.356c0,0.87,0.536,1.641,1.339,1.976c0.234,0.1,0.536,0.167,0.804,0.167
		c0.569,0,1.104-0.234,1.507-0.636L51.625,27.028z"/>
</g>
</svg>
