<?xml version="1.0" encoding="utf-8"?>
<!-- Generator: Adobe Illustrator 16.0.0, SVG Export Plug-In . SVG Version: 6.00 Build 0)  -->
<!DOCTYPE svg PUBLIC "-//W3C//DTD SVG 1.1//EN" "http://www.w3.org/Graphics/SVG/1.1/DTD/svg11.dtd">
<svg version="1.1" id="Layer_1" xmlns="http://www.w3.org/2000/svg" xmlns:xlink="http://www.w3.org/1999/xlink" x="0px" y="0px"
	 width="64px" height="64px" viewBox="0 0 64 64" enable-background="new 0 0 64 64" xml:space="preserve">
<g>
	<path d="M58.957,34.718c0,1.071-0.803,2.009-1.908,2.143l-34.95,4.084c0.134,0.736,0.435,1.574,0.435,2.344
		s-0.469,1.473-0.804,2.143h30.799c1.172,0,2.143,0.971,2.143,2.143s-0.971,2.143-2.143,2.143H18.249
		c-1.172,0-2.143-0.971-2.143-2.143c0-1.038,1.573-3.615,2.042-4.587l-5.925-27.552h-6.83c-1.172,0-2.143-0.971-2.143-2.143
		s0.971-2.143,2.143-2.143h8.57c2.276,0,2.31,2.678,2.645,4.285h40.207c1.172,0,2.143,0.971,2.143,2.143V34.718z M20.391,58.286
		c-2.377,0-4.285-1.908-4.285-4.285s1.908-4.285,4.285-4.285s4.285,1.908,4.285,4.285S22.768,58.286,20.391,58.286z M43.959,24.005
		c-0.568,0-1.104,0.234-1.506,0.636l-4.922,4.888V19.72c0-1.172-0.971-2.143-2.143-2.143s-2.143,0.971-2.143,2.143v9.809
		l-4.921-4.888c-0.401-0.401-0.937-0.636-1.506-0.636c-1.172,0-2.143,0.971-2.143,2.143c0,0.569,0.234,1.104,0.636,1.507l8.57,8.57
		c0.401,0.401,0.938,0.636,1.506,0.636c0.57,0,1.105-0.234,1.507-0.636l8.57-8.57c0.401-0.402,0.636-0.938,0.636-1.507
		C46.102,24.976,45.131,24.005,43.959,24.005z M50.387,58.286c-2.377,0-4.285-1.908-4.285-4.285s1.908-4.285,4.285-4.285
		s4.285,1.908,4.285,4.285S52.764,58.286,50.387,58.286z"/>
</g>
</svg>
