<?xml version="1.0" encoding="utf-8"?>
<!-- Generator: Adobe Illustrator 16.0.0, SVG Export Plug-In . SVG Version: 6.00 Build 0)  -->
<!DOCTYPE svg PUBLIC "-//W3C//DTD SVG 1.1//EN" "http://www.w3.org/Graphics/SVG/1.1/DTD/svg11.dtd">
<svg version="1.1" id="Layer_1" xmlns="http://www.w3.org/2000/svg" xmlns:xlink="http://www.w3.org/1999/xlink" x="0px" y="0px"
	 width="64px" height="64px" viewBox="0 0 64 64" enable-background="new 0 0 64 64" xml:space="preserve">
<g>
	<path d="M52.762,45.858c0,5.323-4.318,9.642-9.642,9.642H15.267c-5.323,0-9.642-4.318-9.642-9.642V18.005
		c0-5.323,4.319-9.642,9.642-9.642h8.537c0.569,0,1.071,0.469,1.071,1.071c0,0.536-0.368,0.971-0.87,1.071
		c-1.674,0.569-3.181,1.238-4.453,2.009c-0.167,0.066-0.335,0.134-0.536,0.134h-3.75c-2.946,0-5.356,2.41-5.356,5.356v27.854
		c0,2.946,2.41,5.356,5.356,5.356H43.12c2.946,0,5.356-2.41,5.356-5.356v-7.164c0-0.402,0.234-0.771,0.603-0.971
		c0.669-0.302,1.272-0.737,1.808-1.239c0.302-0.301,0.77-0.435,1.172-0.268s0.703,0.535,0.703,0.971V45.858z M47.84,33.438
		c-0.4,0.435-0.937,0.636-1.506,0.636c-0.268,0-0.569-0.067-0.837-0.167c-0.771-0.335-1.306-1.105-1.306-1.976v-6.428h-5.356
		c-7.365,0-12.052,1.406-14.663,4.386c-2.712,3.113-3.515,8.135-2.478,15.835c0.067,0.469-0.234,0.938-0.669,1.138
		c-0.134,0.034-0.268,0.067-0.402,0.067c-0.335,0-0.669-0.167-0.871-0.436c-0.234-0.334-5.557-7.867-5.557-14.562
		c0-8.972,2.812-19.283,24.64-19.283h5.356V6.221c0-0.87,0.535-1.641,1.306-1.976c0.268-0.1,0.569-0.167,0.837-0.167
		c0.569,0,1.105,0.234,1.506,0.636l12.855,12.855c0.838,0.837,0.838,2.177,0,3.014L47.84,33.438z"/>
</g>
</svg>
