<?xml version="1.0" encoding="utf-8"?>
<!-- Generator: Adobe Illustrator 16.0.0, SVG Export Plug-In . SVG Version: 6.00 Build 0)  -->
<!DOCTYPE svg PUBLIC "-//W3C//DTD SVG 1.1//EN" "http://www.w3.org/Graphics/SVG/1.1/DTD/svg11.dtd">
<svg version="1.1" id="Layer_1" xmlns="http://www.w3.org/2000/svg" xmlns:xlink="http://www.w3.org/1999/xlink" x="0px" y="0px"
	 width="64px" height="64px" viewBox="0 0 64 64" enable-background="new 0 0 64 64" xml:space="preserve">
<g>
	<path d="M45.808,20.274c29.667,0,16.633,6.599-1.69,22.959c5.808-10.089,25.768-19.033-6.953-18.542
		C5.779,25.155,3.925,15.611,0.543,10.54C8.587,19.02,16.141,20.274,45.808,20.274z M17.177,55.749c-2.481,0-4.472-1.99-4.472-4.472
		s1.991-4.499,4.472-4.499c2.481,0,4.499,2.018,4.499,4.499S19.658,55.749,17.177,55.749z M37.627,55.749
		c-2.481,0-4.499-1.99-4.499-4.472s2.018-4.499,4.499-4.499s4.472,2.018,4.472,4.499S40.108,55.749,37.627,55.749z"/>
</g>
</svg>
