<?xml version="1.0" encoding="utf-8"?>
<!-- Generator: Adobe Illustrator 16.0.0, SVG Export Plug-In . SVG Version: 6.00 Build 0)  -->
<!DOCTYPE svg PUBLIC "-//W3C//DTD SVG 1.1//EN" "http://www.w3.org/Graphics/SVG/1.1/DTD/svg11.dtd">
<svg version="1.1" id="Layer_1" xmlns="http://www.w3.org/2000/svg" xmlns:xlink="http://www.w3.org/1999/xlink" x="0px" y="0px"
	 width="64px" height="64px" viewBox="0 0 64 64" enable-background="new 0 0 64 64" xml:space="preserve">
<g>
	<path d="M55.663,61.85c-1.138,0-2.243-0.469-3.013-1.271L41.167,49.129c-3.917,2.711-8.604,4.15-13.357,4.15
		c-13.023,0-23.568-10.545-23.568-23.568c0-13.022,10.545-23.568,23.568-23.568c13.022,0,23.568,10.546,23.568,23.568
		c0,4.753-1.439,9.441-4.151,13.357l11.482,11.484c0.771,0.77,1.239,1.873,1.239,3.012C59.948,59.908,58.006,61.85,55.663,61.85z
		 M27.81,14.713c-8.269,0-14.998,6.729-14.998,14.998c0,8.269,6.729,14.998,14.998,14.998c8.269,0,14.998-6.729,14.998-14.998
		C42.808,21.443,36.078,14.713,27.81,14.713z"/>
</g>
</svg>
