<?xml version="1.0" encoding="utf-8"?>
<!-- Generator: Adobe Illustrator 16.0.0, SVG Export Plug-In . SVG Version: 6.00 Build 0)  -->
<!DOCTYPE svg PUBLIC "-//W3C//DTD SVG 1.1//EN" "http://www.w3.org/Graphics/SVG/1.1/DTD/svg11.dtd">
<svg version="1.1" id="Layer_1" xmlns="http://www.w3.org/2000/svg" xmlns:xlink="http://www.w3.org/1999/xlink" x="0px" y="0px"
	 width="64px" height="64px" viewBox="0 0 64 64" enable-background="new 0 0 64 64" xml:space="preserve">
<g>
	<path d="M14.624,19.344H7.125v-4.285h7.499V19.344z M36.05,36.484H7.125v-4.285H36.05V36.484z M18.909,53.625H7.125V49.34h11.784
		V53.625z M28.551,12.916v8.57c0,1.172-0.971,2.143-2.143,2.143h-8.57c-1.172,0-2.143-0.971-2.143-2.143v-8.57
		c0-1.172,0.971-2.143,2.143-2.143h8.57C27.58,10.773,28.551,11.744,28.551,12.916z M32.836,47.197v8.57
		c0,1.172-0.971,2.143-2.143,2.143h-8.57c-1.172,0-2.143-0.971-2.143-2.143v-8.57c0-1.172,0.971-2.143,2.143-2.143h8.57
		C31.865,45.055,32.836,46.025,32.836,47.197z M58.547,19.344H29.622v-4.285h28.925V19.344z M58.547,53.625h-24.64V49.34h24.64
		V53.625z M49.977,30.057v8.57c0,1.172-0.971,2.143-2.143,2.143h-8.57c-1.172,0-2.143-0.971-2.143-2.143v-8.57
		c0-1.172,0.971-2.143,2.143-2.143h8.57C49.006,27.914,49.977,28.885,49.977,30.057z M58.547,36.484h-7.499v-4.285h7.499V36.484z"/>
</g>
</svg>
