<?xml version="1.0" encoding="utf-8"?>
<!-- Generator: Adobe Illustrator 16.0.0, SVG Export Plug-In . SVG Version: 6.00 Build 0)  -->
<!DOCTYPE svg PUBLIC "-//W3C//DTD SVG 1.1//EN" "http://www.w3.org/Graphics/SVG/1.1/DTD/svg11.dtd">
<svg version="1.1" id="Layer_1" xmlns="http://www.w3.org/2000/svg" xmlns:xlink="http://www.w3.org/1999/xlink" x="0px" y="0px"
	 width="64px" height="64px" viewBox="0 0 64 64" enable-background="new 0 0 64 64" xml:space="preserve">
<g>
	<path d="M59.35,42.393l-9.775,3.214v10.244c0,0.334-0.168,0.669-0.436,0.87c-0.301,0.201-0.636,0.268-0.971,0.134l-9.775-3.146
		l-6.026,8.302c-0.201,0.269-0.536,0.436-0.871,0.436s-0.669-0.167-0.871-0.436L24.6,53.708l-9.775,3.146
		c-0.335,0.134-0.669,0.067-0.971-0.134c-0.268-0.201-0.436-0.536-0.436-0.87V45.606l-9.775-3.214
		c-0.301-0.101-0.569-0.335-0.669-0.67c-0.101-0.335-0.067-0.703,0.134-0.971l6.026-8.303l-6.026-8.303
		c-0.201-0.301-0.234-0.636-0.134-0.971c0.1-0.335,0.368-0.569,0.669-0.67l9.775-3.214V9.048c0-0.334,0.167-0.669,0.436-0.87
		c0.301-0.201,0.636-0.268,0.971-0.134L24.6,11.19l6.026-8.302c0.402-0.536,1.339-0.536,1.741,0l6.026,8.302l9.775-3.146
		c0.335-0.134,0.67-0.067,0.971,0.134c0.268,0.201,0.436,0.536,0.436,0.87v10.244l9.775,3.214c0.301,0.101,0.569,0.335,0.67,0.67
		c0.1,0.335,0.066,0.67-0.135,0.971l-6.025,8.303l6.025,8.303c0.201,0.268,0.234,0.636,0.135,0.971
		C59.919,42.058,59.65,42.292,59.35,42.393z M31.496,13.166c-10.646,0-19.283,8.638-19.283,19.283s8.637,19.283,19.283,19.283
		c10.646,0,19.283-8.638,19.283-19.283S42.143,13.166,31.496,13.166z"/>
</g>
</svg>
