<?xml version="1.0" encoding="utf-8"?>
<!-- Generator: Adobe Illustrator 16.0.0, SVG Export Plug-In . SVG Version: 6.00 Build 0)  -->
<!DOCTYPE svg PUBLIC "-//W3C//DTD SVG 1.1//EN" "http://www.w3.org/Graphics/SVG/1.1/DTD/svg11.dtd">
<svg version="1.1" id="Layer_1" xmlns="http://www.w3.org/2000/svg" xmlns:xlink="http://www.w3.org/1999/xlink" x="0px" y="0px"
	 width="64px" height="64px" viewBox="0 0 64 64" enable-background="new 0 0 64 64" xml:space="preserve">
<g>
	<path d="M58.897,25.845L46.745,37.697l2.88,16.738c0.033,0.234,0.033,0.436,0.033,0.67c0,0.871-0.402,1.674-1.373,1.674
		c-0.469,0-0.938-0.168-1.339-0.402l-15.032-7.9l-15.032,7.9c-0.435,0.234-0.87,0.402-1.339,0.402c-0.971,0-1.406-0.803-1.406-1.674
		c0-0.234,0.034-0.436,0.067-0.67l2.879-16.738L4.898,25.845c-0.402-0.435-0.837-1.004-0.837-1.606c0-1.004,1.038-1.406,1.875-1.54
		l16.806-2.444l7.532-15.231c0.302-0.637,0.871-1.373,1.641-1.373s1.339,0.736,1.64,1.373l7.533,15.231l16.805,2.444
		c0.805,0.134,1.875,0.536,1.875,1.54C59.768,24.841,59.333,25.411,58.897,25.845z"/>
</g>
</svg>
