<?xml version="1.0" encoding="utf-8"?>
<!-- Generator: Adobe Illustrator 16.0.0, SVG Export Plug-In . SVG Version: 6.00 Build 0)  -->
<!DOCTYPE svg PUBLIC "-//W3C//DTD SVG 1.1//EN" "http://www.w3.org/Graphics/SVG/1.1/DTD/svg11.dtd">
<svg version="1.1" id="Layer_1" xmlns="http://www.w3.org/2000/svg" xmlns:xlink="http://www.w3.org/1999/xlink" x="0px" y="0px"
	 width="64px" height="64px" viewBox="0 0 64 64" enable-background="new 0 0 64 64" xml:space="preserve">
<g>
	<path d="M46.539,58.285H17.28c-5.323,0-8.938-3.247-8.938-8.671c0-7.565,1.774-19.183,11.583-19.183
		c1.038,0,5.423,4.653,11.985,4.653c6.561,0,10.948-4.653,11.985-4.653c9.809,0,11.584,11.617,11.584,19.183
		C55.479,55.038,51.862,58.285,46.539,58.285z M31.91,32.574c-7.097,0-12.855-5.758-12.855-12.855S24.812,6.863,31.91,6.863
		s12.856,5.758,12.856,12.855S39.007,32.574,31.91,32.574z"/>
</g>
</svg>
