<?xml version="1.0" encoding="utf-8"?>
<!-- Generator: Adobe Illustrator 16.0.0, SVG Export Plug-In . SVG Version: 6.00 Build 0)  -->
<!DOCTYPE svg PUBLIC "-//W3C//DTD SVG 1.1//EN" "http://www.w3.org/Graphics/SVG/1.1/DTD/svg11.dtd">
<svg version="1.1" id="Layer_1" xmlns="http://www.w3.org/2000/svg" xmlns:xlink="http://www.w3.org/1999/xlink" x="0px" y="0px"
	 width="64px" height="64px" viewBox="0 0 64 64" enable-background="new 0 0 64 64" xml:space="preserve">
<g>
	<path d="M45.377,33.956L27.165,52.168c-0.401,0.401-0.937,0.636-1.506,0.636c-1.172,0-2.143-0.971-2.143-2.143V41.02H8.518
		c-1.172,0-2.143-0.971-2.143-2.143V26.021c0-1.172,0.971-2.143,2.143-2.143h14.998v-9.642c0-1.172,0.971-2.143,2.143-2.143
		c0.569,0,1.105,0.234,1.506,0.636l18.212,18.212c0.401,0.402,0.636,0.938,0.636,1.507S45.778,33.554,45.377,33.956z M57.797,44.233
		c0,5.323-4.318,9.642-9.642,9.642H37.442c-0.569,0-1.071-0.502-1.071-1.071c0-0.938-0.436-3.214,1.071-3.214h10.713
		c2.946,0,5.356-2.41,5.356-5.356V20.665c0-2.946-2.41-5.356-5.356-5.356h-9.642c-0.837,0-2.143,0.167-2.143-1.071
		c0-0.938-0.436-3.214,1.071-3.214h10.713c5.323,0,9.642,4.318,9.642,9.642V44.233z"/>
</g>
</svg>
