<?xml version="1.0" encoding="utf-8"?>
<!-- Generator: Adobe Illustrator 16.0.0, SVG Export Plug-In . SVG Version: 6.00 Build 0)  -->
<!DOCTYPE svg PUBLIC "-//W3C//DTD SVG 1.1//EN" "http://www.w3.org/Graphics/SVG/1.1/DTD/svg11.dtd">
<svg version="1.1" id="Layer_1" xmlns="http://www.w3.org/2000/svg" xmlns:xlink="http://www.w3.org/1999/xlink" x="0px" y="0px"
	 width="64px" height="64px" viewBox="0 0 64 64" enable-background="new 0 0 64 64" xml:space="preserve">
<g>
	<path d="M2.841,35.071L2.308,38.43c-0.027,0.134-0.107,0.24-0.24,0.24s-0.213-0.106-0.24-0.24l-0.453-3.358l0.453-3.412
		c0.027-0.133,0.106-0.24,0.24-0.24s0.213,0.107,0.24,0.24L2.841,35.071z M5.293,35.071L4.6,40.482
		c-0.027,0.134-0.133,0.24-0.267,0.24s-0.24-0.106-0.24-0.267L3.48,35.071c0.613-5.518,0.613-5.518,0.613-5.518
		c0-0.133,0.106-0.24,0.24-0.24s0.24,0.107,0.267,0.24L5.293,35.071z M7.719,35.071l-0.667,6.317c0,0.16-0.133,0.293-0.293,0.293
		c-0.16,0-0.293-0.133-0.32-0.293l-0.56-6.317l0.56-6.531c0.026-0.187,0.16-0.32,0.32-0.32c0.16,0,0.293,0.133,0.293,0.32
		L7.719,35.071z M10.171,35.071l-0.613,6.504c-0.026,0.214-0.187,0.347-0.373,0.347s-0.347-0.133-0.347-0.347l-0.56-6.504
		l0.56-6.718c0-0.213,0.16-0.347,0.347-0.347s0.347,0.133,0.373,0.347L10.171,35.071z M12.624,35.071l-0.56,6.558
		c-0.027,0.239-0.213,0.427-0.426,0.427c-0.213,0-0.4-0.188-0.4-0.427l-0.533-6.558l0.533-6.238c0-0.213,0.187-0.4,0.4-0.4
		c0.213,0,0.399,0.187,0.426,0.4L12.624,35.071z M15.129,35.071l-0.56,6.558c0,0.267-0.213,0.479-0.453,0.479
		c-0.267,0-0.453-0.213-0.48-0.479l-0.48-6.558c0.48-10.13,0.48-10.13,0.48-10.13c0.027-0.267,0.213-0.48,0.48-0.48
		c0.24,0,0.453,0.213,0.453,0.48L15.129,35.071z M17.582,35.124l-0.506,6.505c0,0.293-0.24,0.506-0.507,0.506
		c-0.293,0-0.506-0.213-0.533-0.506l-0.427-6.505c0.427-12.475,0.427-12.475,0.427-12.475c0.026-0.293,0.24-0.506,0.533-0.506
		c0.267,0,0.507,0.213,0.507,0.506L17.582,35.124z M20.168,35.071l-0.48,6.451c-0.027,0.319-0.267,0.56-0.586,0.56
		c-0.293,0-0.533-0.24-0.56-0.56l-0.426-6.451l0.426-13.489c0-0.32,0.267-0.586,0.56-0.586c0.32,0,0.56,0.267,0.586,0.586
		L20.168,35.071z M22.7,35.071l-0.427-13.942c-0.026-0.347-0.293-0.64-0.64-0.64c-0.32,0-0.613,0.293-0.613,0.64l-0.374,13.942
		l0.374,6.424c0.026,0.347,0.293,0.613,0.613,0.613c0.347,0,0.613-0.267,0.64-0.613L22.7,35.071z M25.259,35.071l-0.4,6.371
		c0,0.373-0.293,0.666-0.667,0.666c-0.373,0-0.64-0.293-0.667-0.666l-0.373-6.371l0.373-13.595c0-0.374,0.293-0.667,0.667-0.667
		c0.374,0,0.667,0.293,0.667,0.667L25.259,35.071z M27.872,35.098l-0.373,6.291c0,0.4-0.32,0.72-0.72,0.72s-0.72-0.319-0.747-0.72
		l-0.32-6.291l0.32-13.115c0.027-0.427,0.347-0.747,0.747-0.747s0.693,0.32,0.72,0.747L27.872,35.098z M30.458,35.098l-0.32-15.621
		c0-0.267-0.133-0.506-0.347-0.64c-0.133-0.08-0.267-0.133-0.427-0.133c-0.16,0-0.293,0.053-0.426,0.133
		c-0.213,0.133-0.347,0.373-0.347,0.64l-0.026,0.16l-0.267,15.435c0,0,0,0.026,0.293,6.291c0,0,0,0,0,0.026
		c0,0.16,0.053,0.32,0.16,0.453c0.16,0.187,0.373,0.293,0.613,0.293c0.213,0,0.4-0.106,0.533-0.239c0.16-0.134,0.24-0.32,0.24-0.533
		l0.026-0.64L30.458,35.098z M32.776,41.256c0,0.453-0.373,0.826-0.826,0.826s-0.826-0.373-0.853-0.826l-0.16-3.039l-0.16-3.119
		l0.32-16.954v-0.08c0.027-0.24,0.133-0.48,0.32-0.64c0.133-0.106,0.32-0.187,0.533-0.187c0.133,0,0.293,0.054,0.4,0.133
		c0.24,0.133,0.4,0.4,0.426,0.693l0.374,17.034L32.776,41.256z M55.248,42.108c-20.926,0-20.952,0-20.952,0
		c-0.453-0.053-0.826-0.399-0.826-0.88V17.264c0-0.453,0.159-0.667,0.746-0.88c1.467-0.586,3.119-0.906,4.825-0.906
		c6.957,0,12.662,5.332,13.275,12.129c0.906-0.373,1.893-0.586,2.932-0.586c4.159,0,7.545,3.386,7.545,7.57
		C62.793,38.75,59.407,42.108,55.248,42.108z"/>
</g>
</svg>
