<?xml version="1.0" encoding="utf-8"?>
<!-- Generator: Adobe Illustrator 16.0.0, SVG Export Plug-In . SVG Version: 6.00 Build 0)  -->
<!DOCTYPE svg PUBLIC "-//W3C//DTD SVG 1.1//EN" "http://www.w3.org/Graphics/SVG/1.1/DTD/svg11.dtd">
<svg version="1.1" id="Layer_1" xmlns="http://www.w3.org/2000/svg" xmlns:xlink="http://www.w3.org/1999/xlink" x="0px" y="0px"
	 width="64px" height="64px" viewBox="0 0 64 64" enable-background="new 0 0 64 64" xml:space="preserve">
<g>
	<path d="M57.172,48.894c0,5.323-4.318,9.642-9.642,9.642H15.392c-5.323,0-9.642-4.318-9.642-9.642V16.755
		c0-5.323,4.319-9.642,9.642-9.642H47.53c5.323,0,9.642,4.318,9.642,9.642V48.894z M41.471,35.67c-1.875,0-3.582,0.736-4.854,1.941
		l-8.069-4.018c0.034-0.268,0.067-0.502,0.067-0.77s-0.033-0.502-0.067-0.77l8.069-4.018c1.271,1.205,2.979,1.941,4.854,1.941
		c3.917,0,7.131-3.214,7.131-7.164c0-3.917-3.214-7.131-7.131-7.131c-3.95,0-7.164,3.214-7.164,7.131
		c0,0.268,0.033,0.502,0.066,0.77l-8.068,4.018c-1.272-1.172-2.979-1.908-4.854-1.908c-3.917,0-7.131,3.181-7.131,7.131
		s3.214,7.131,7.131,7.131c1.875,0,3.582-0.736,4.854-1.908l8.068,4.018c-0.033,0.268-0.066,0.502-0.066,0.77
		c0,3.917,3.214,7.131,7.164,7.131c3.917,0,7.131-3.214,7.131-7.131C48.602,38.884,45.388,35.67,41.471,35.67z"/>
</g>
</svg>
