<?xml version="1.0" encoding="utf-8"?>
<!-- Generator: Adobe Illustrator 16.0.0, SVG Export Plug-In . SVG Version: 6.00 Build 0)  -->
<!DOCTYPE svg PUBLIC "-//W3C//DTD SVG 1.1//EN" "http://www.w3.org/Graphics/SVG/1.1/DTD/svg11.dtd">
<svg version="1.1" id="Layer_1" xmlns="http://www.w3.org/2000/svg" xmlns:xlink="http://www.w3.org/1999/xlink" x="0px" y="0px"
	 width="64px" height="64px" viewBox="0 0 64 64" enable-background="new 0 0 64 64" xml:space="preserve">
<g>
	<path d="M59.138,34.717c0,1.071-0.804,2.009-1.908,2.143l-34.951,4.084c0.134,0.736,0.435,1.574,0.435,2.344
		s-0.469,1.473-0.804,2.143h30.8c1.172,0,2.143,0.971,2.143,2.143s-0.971,2.143-2.143,2.143H18.429
		c-1.172,0-2.143-0.971-2.143-2.143c0-1.038,1.573-3.615,2.042-4.587l-5.925-27.552h-6.83c-1.172,0-2.143-0.971-2.143-2.143
		s0.971-2.143,2.143-2.143h8.57c2.276,0,2.31,2.678,2.645,4.285h40.207c1.172,0,2.143,0.971,2.143,2.143V34.717z M20.571,58.285
		c-2.377,0-4.285-1.908-4.285-4.285s1.908-4.285,4.285-4.285s4.285,1.908,4.285,4.285S22.948,58.285,20.571,58.285z M41.997,24.004
		h-4.285v-4.285c0-1.172-0.971-2.143-2.143-2.143s-2.143,0.971-2.143,2.143v4.285h-4.285c-1.172,0-2.143,0.971-2.143,2.143
		s0.971,2.143,2.143,2.143h4.285v4.285c0,1.172,0.971,2.143,2.143,2.143s2.143-0.971,2.143-2.143v-4.285h4.285
		c1.172,0,2.143-0.971,2.143-2.143S43.169,24.004,41.997,24.004z M50.567,58.285c-2.377,0-4.285-1.908-4.285-4.285
		s1.908-4.285,4.285-4.285s4.285,1.908,4.285,4.285S52.944,58.285,50.567,58.285z"/>
</g>
</svg>
