<?xml version="1.0" encoding="utf-8"?>
<!-- Generator: Adobe Illustrator 16.0.0, SVG Export Plug-In . SVG Version: 6.00 Build 0)  -->
<!DOCTYPE svg PUBLIC "-//W3C//DTD SVG 1.1//EN" "http://www.w3.org/Graphics/SVG/1.1/DTD/svg11.dtd">
<svg version="1.1" id="Layer_1" xmlns="http://www.w3.org/2000/svg" xmlns:xlink="http://www.w3.org/1999/xlink" x="0px" y="0px"
	 width="64px" height="64px" viewBox="0 0 64 64" enable-background="new 0 0 64 64" xml:space="preserve">
<g>
	<path d="M62.38,4.909L53.81,56.33c-0.101,0.637-0.502,1.172-1.071,1.508c-0.301,0.166-0.67,0.268-1.037,0.268
		c-0.268,0-0.536-0.068-0.805-0.168l-15.164-6.193l-8.102,9.877c-0.402,0.502-1.004,0.77-1.641,0.77
		c-0.234,0-0.502-0.033-0.736-0.135c-0.837-0.301-1.406-1.104-1.406-2.008V48.564l28.924-35.454L16.984,44.078L3.76,38.654
		c-0.77-0.301-1.272-1.004-1.339-1.842C2.388,36.01,2.79,35.24,3.493,34.838L59.199,2.7c0.336-0.201,0.703-0.302,1.072-0.302
		c0.435,0,0.87,0.134,1.205,0.368C62.18,3.268,62.514,4.072,62.38,4.909z"/>
</g>
</svg>
