<?xml version="1.0" encoding="utf-8"?>
<!-- Generator: Adobe Illustrator 16.0.0, SVG Export Plug-In . SVG Version: 6.00 Build 0)  -->
<!DOCTYPE svg PUBLIC "-//W3C//DTD SVG 1.1//EN" "http://www.w3.org/Graphics/SVG/1.1/DTD/svg11.dtd">
<svg version="1.1" id="Layer_1" xmlns="http://www.w3.org/2000/svg" xmlns:xlink="http://www.w3.org/1999/xlink" x="0px" y="0px"
	 width="64px" height="64px" viewBox="0 0 64 64" enable-background="new 0 0 64 64" xml:space="preserve">
<g>
	<path d="M56.743,62.21c-1.138,0-2.243-0.469-3.013-1.272L42.247,49.488C38.33,52.2,33.644,53.64,28.89,53.64
		c-13.023,0-23.568-10.546-23.568-23.568S15.867,6.503,28.89,6.503c13.022,0,23.568,10.546,23.568,23.568
		c0,4.754-1.439,9.44-4.151,13.357l11.482,11.483c0.771,0.77,1.239,1.874,1.239,3.013C61.028,60.302,59.12,62.21,56.743,62.21z
		 M28.89,15.073c-8.269,0-14.998,6.729-14.998,14.998s6.729,14.998,14.998,14.998c8.269,0,14.998-6.729,14.998-14.998
		S37.158,15.073,28.89,15.073z M39.603,31.143c0,0.569-0.502,1.071-1.071,1.071H19.248c-0.569,0-1.071-0.502-1.071-1.071V29
		c0-0.569,0.502-1.071,1.071-1.071h19.283c0.569,0,1.071,0.502,1.071,1.071V31.143z"/>
</g>
</svg>
