<?xml version="1.0" encoding="utf-8"?>
<!-- Generator: Adobe Illustrator 16.0.0, SVG Export Plug-In . SVG Version: 6.00 Build 0)  -->
<!DOCTYPE svg PUBLIC "-//W3C//DTD SVG 1.1//EN" "http://www.w3.org/Graphics/SVG/1.1/DTD/svg11.dtd">
<svg version="1.1" id="Layer_1" xmlns="http://www.w3.org/2000/svg" xmlns:xlink="http://www.w3.org/1999/xlink" x="0px" y="0px"
	 width="64px" height="64px" viewBox="0 0 64 64" enable-background="new 0 0 64 64" xml:space="preserve">
<g>
	<path d="M47.195,37.877l2.879,16.739c0.234,1.473-0.302,2.343-1.34,2.343c-0.367,0-0.836-0.134-1.338-0.401l-15.032-7.9
		l-15.032,7.9c-0.502,0.268-0.971,0.401-1.339,0.401c-1.038,0-1.574-0.87-1.339-2.343l2.879-16.739L5.348,26.025
		c-1.439-1.439-0.971-2.845,1.038-3.146l16.806-2.444l7.532-15.231c0.436-0.904,1.038-1.373,1.641-1.373s1.172,0.469,1.641,1.373
		l7.532,15.231l16.806,2.444c2.009,0.302,2.478,1.707,1.005,3.146L47.195,37.877z M52.819,26.428L40.9,24.687l-2.209-0.335
		l-1.004-2.008l-5.323-10.78v32.239l1.976,1.038l10.646,5.624L42.977,38.58l-0.401-2.21l1.64-1.573L52.819,26.428z"/>
</g>
</svg>
