<?xml version="1.0" encoding="utf-8"?>
<!-- Generator: Adobe Illustrator 16.0.0, SVG Export Plug-In . SVG Version: 6.00 Build 0)  -->
<!DOCTYPE svg PUBLIC "-//W3C//DTD SVG 1.1//EN" "http://www.w3.org/Graphics/SVG/1.1/DTD/svg11.dtd">
<svg version="1.1" id="Layer_1" xmlns="http://www.w3.org/2000/svg" xmlns:xlink="http://www.w3.org/1999/xlink" x="0px" y="0px"
	 width="64px" height="64px" viewBox="0 0 64 64" enable-background="new 0 0 64 64" xml:space="preserve">
<g>
	<path d="M57.422,47.072c0,5.926-4.787,10.713-10.713,10.713s-10.713-4.787-10.713-10.713c0-0.368,0.033-0.77,0.066-1.139
		l-12.051-6.025c-1.908,1.774-4.486,2.879-7.298,2.879C10.787,42.787,6,38,6,32.074s4.787-10.713,10.713-10.713
		c2.812,0,5.39,1.104,7.298,2.879l12.051-6.025c-0.033-0.369-0.066-0.771-0.066-1.139c0-5.926,4.787-10.713,10.713-10.713
		s10.713,4.787,10.713,10.713s-4.787,10.713-10.713,10.713c-2.812,0-5.391-1.104-7.299-2.879l-12.051,6.025
		c0.033,0.369,0.067,0.771,0.067,1.139s-0.034,0.77-0.067,1.139l12.051,6.025c1.908-1.774,4.486-2.879,7.299-2.879
		C52.635,36.359,57.422,41.146,57.422,47.072z"/>
</g>
</svg>
