<?xml version="1.0" encoding="utf-8"?>
<!-- Generator: Adobe Illustrator 16.0.0, SVG Export Plug-In . SVG Version: 6.00 Build 0)  -->
<!DOCTYPE svg PUBLIC "-//W3C//DTD SVG 1.1//EN" "http://www.w3.org/Graphics/SVG/1.1/DTD/svg11.dtd">
<svg version="1.1" id="Layer_1" xmlns="http://www.w3.org/2000/svg" xmlns:xlink="http://www.w3.org/1999/xlink" x="0px" y="0px"
	 width="64px" height="64px" viewBox="0 0 64 64" enable-background="new 0 0 64 64" xml:space="preserve">
<g>
	<path d="M55.387,45.983c0,5.323-4.318,9.642-9.642,9.642H17.892c-5.323,0-9.642-4.318-9.642-9.642V18.13
		c0-5.323,4.319-9.642,9.642-9.642h27.854c5.323,0,9.642,4.318,9.642,9.642V45.983z M17.892,12.773c-2.946,0-5.356,2.41-5.356,5.356
		v27.854c0,2.946,2.41,5.356,5.356,5.356h27.854c2.946,0,5.356-2.41,5.356-5.356V18.13c0-2.946-2.41-5.356-5.356-5.356H17.892z"/>
</g>
</svg>
