<?xml version="1.0" encoding="utf-8"?>
<!-- Generator: Adobe Illustrator 16.0.0, SVG Export Plug-In . SVG Version: 6.00 Build 0)  -->
<!DOCTYPE svg PUBLIC "-//W3C//DTD SVG 1.1//EN" "http://www.w3.org/Graphics/SVG/1.1/DTD/svg11.dtd">
<svg version="1.1" id="Layer_1" xmlns="http://www.w3.org/2000/svg" xmlns:xlink="http://www.w3.org/1999/xlink" x="0px" y="0px"
	 width="64px" height="64px" viewBox="0 0 64 64" enable-background="new 0 0 64 64" xml:space="preserve">
<g>
	<path d="M57.547,47.769c0,5.323-4.318,9.642-9.642,9.642H15.767c-5.323,0-9.642-4.318-9.642-9.642V15.63
		c0-5.323,4.319-9.642,9.642-9.642h32.139c5.323,0,9.642,4.319,9.642,9.642V47.769z M44.926,23.263
		c1.473-0.87,2.578-2.276,3.113-3.917c-1.373,0.804-2.879,1.406-4.486,1.708c-1.271-1.373-3.113-2.209-5.121-2.209
		c-3.884,0-7.031,3.147-7.031,7.03c0,0.536,0.033,1.105,0.167,1.607c-5.859-0.301-11.048-3.08-14.53-7.365
		c-0.603,1.038-0.971,2.277-0.971,3.549c0,2.444,1.138,4.586,3.046,5.858c-1.171-0.033-2.276-0.368-3.348-0.87c0,0,0,0.033,0,0.067
		c0,3.415,2.578,6.261,5.792,6.896c-0.603,0.167-1.071,0.268-1.707,0.268c-0.436,0-0.871-0.067-1.306-0.134
		c0.904,2.779,3.481,4.82,6.562,4.888c-2.411,1.875-5.423,3.013-8.738,3.013c-0.569,0-1.138-0.033-1.674-0.1
		c3.113,1.975,6.796,3.146,10.78,3.146c12.922,0,20.02-10.713,20.02-20.02c0-0.301,0-0.603-0.034-0.904
		c1.373-0.971,2.578-2.209,3.516-3.649C47.705,22.694,46.365,23.062,44.926,23.263z"/>
</g>
</svg>
