<?xml version="1.0" encoding="utf-8"?>
<!-- Generator: Adobe Illustrator 16.0.0, SVG Export Plug-In . SVG Version: 6.00 Build 0)  -->
<!DOCTYPE svg PUBLIC "-//W3C//DTD SVG 1.1//EN" "http://www.w3.org/Graphics/SVG/1.1/DTD/svg11.dtd">
<svg version="1.1" id="Layer_1" xmlns="http://www.w3.org/2000/svg" xmlns:xlink="http://www.w3.org/1999/xlink" x="0px" y="0px"
	 width="64px" height="64px" viewBox="0 0 64 64" enable-background="new 0 0 64 64" xml:space="preserve">
<g>
	<path d="M56.234,33.713c0.201,0.736,0.301,1.539,0.301,2.31c0,1.674-0.436,3.348-1.271,4.82c0.066,0.469,0.1,0.972,0.1,1.44
		c0,2.143-0.703,4.285-2.008,5.959c0.066,6.327-4.252,10.043-10.445,10.043h-1.205h-3.113c-4.754,0-9.173-1.406-13.592-2.946
		C24.028,55.004,21.317,54,20.379,54h-9.642c-2.377,0-4.285-1.908-4.285-4.285V28.289c0-2.377,1.908-4.285,4.285-4.285h9.173
		c1.306-0.87,3.582-3.884,4.586-5.189c1.138-1.473,2.31-2.912,3.582-4.285c2.009-2.143,0.938-7.432,4.285-10.713
		c0.804-0.77,1.875-1.238,3.013-1.238c3.482,0,6.83,1.238,8.471,4.486c1.037,2.042,1.172,3.983,1.172,6.227
		c0,2.344-0.604,4.353-1.607,6.428h5.893c4.619,0,8.57,3.917,8.57,8.537C57.875,30.197,57.305,32.105,56.234,33.713z M12.88,45.43
		c-1.172,0-2.143,0.971-2.143,2.143s0.971,2.143,2.143,2.143s2.143-0.971,2.143-2.143S14.052,45.43,12.88,45.43z M49.305,24.004
		H37.52c0-3.917,3.215-6.763,3.215-10.713c0-3.917-0.771-6.428-5.357-6.428c-2.143,2.176-1.037,7.298-4.285,10.713
		c-0.938,0.971-1.741,2.009-2.578,3.047c-1.507,1.941-5.491,7.666-8.135,7.666h-1.071v21.426h1.071c1.875,0,4.955,1.205,6.763,1.841
		C30.825,52.828,34.641,54,38.592,54h4.051c3.783,0,6.428-1.507,6.428-5.591c0-0.636-0.067-1.272-0.168-1.875
		c1.406-0.77,2.176-2.678,2.176-4.218c0-0.804-0.201-1.607-0.602-2.311c1.138-1.071,1.773-2.41,1.773-3.983
		c0-1.071-0.469-2.645-1.172-3.448c1.574-0.033,2.512-3.047,2.512-4.285C53.59,26.013,51.547,24.004,49.305,24.004z"/>
</g>
</svg>
