<?xml version="1.0" encoding="utf-8"?>
<!-- Generator: Adobe Illustrator 16.0.0, SVG Export Plug-In . SVG Version: 6.00 Build 0)  -->
<!DOCTYPE svg PUBLIC "-//W3C//DTD SVG 1.1//EN" "http://www.w3.org/Graphics/SVG/1.1/DTD/svg11.dtd">
<svg version="1.1" id="Layer_1" xmlns="http://www.w3.org/2000/svg" xmlns:xlink="http://www.w3.org/1999/xlink" x="0px" y="0px"
	 width="64px" height="64px" viewBox="0 0 64 64" enable-background="new 0 0 64 64" xml:space="preserve">
<g>
	<path d="M49.606,39.09L33.708,55.021c-0.776,0.745-1.845,1.198-2.946,1.198s-2.169-0.453-2.914-1.198L4.696,31.837
		c-1.651-1.619-2.946-4.76-2.946-7.059v-13.47c0-2.267,1.878-4.145,4.145-4.145h13.47c2.299,0,5.439,1.295,7.091,2.946
		l23.151,23.119c0.745,0.777,1.198,1.846,1.198,2.946S50.352,38.345,49.606,39.09z M12.111,13.381c-2.299,0-4.145,1.846-4.145,4.145
		s1.846,4.145,4.145,4.145s4.145-1.846,4.145-4.145S14.41,13.381,12.111,13.381z M62.04,39.09L46.142,55.021
		c-0.777,0.745-1.846,1.198-2.946,1.198c-1.684,0-2.525-0.777-3.627-1.91L54.787,39.09c0.745-0.745,1.198-1.813,1.198-2.914
		s-0.453-2.169-1.198-2.946L31.636,10.11c-1.651-1.651-4.792-2.946-7.091-2.946h7.253c2.299,0,5.439,1.295,7.091,2.946L62.04,33.229
		c0.745,0.777,1.198,1.846,1.198,2.946S62.785,38.345,62.04,39.09z"/>
</g>
</svg>
