<?xml version="1.0" encoding="utf-8"?>
<!-- Generator: Adobe Illustrator 16.0.0, SVG Export Plug-In . SVG Version: 6.00 Build 0)  -->
<!DOCTYPE svg PUBLIC "-//W3C//DTD SVG 1.1//EN" "http://www.w3.org/Graphics/SVG/1.1/DTD/svg11.dtd">
<svg version="1.1" id="Layer_1" xmlns="http://www.w3.org/2000/svg" xmlns:xlink="http://www.w3.org/1999/xlink" x="0px" y="0px"
	 width="64px" height="64px" viewBox="0 0 64 64" enable-background="new 0 0 64 64" xml:space="preserve">
<g>
	<path d="M19.428,39.002c0,1.172-0.971,2.143-2.143,2.143H7.644c-1.172,0-2.143-0.971-2.143-2.143V17.576
		c0-1.172,0.971-2.143,2.143-2.143h9.642c1.172,0,2.143,0.971,2.143,2.143V39.002z M14.071,21.861c0-1.205-0.971-2.143-2.143-2.143
		c-1.205,0-2.143,0.938-2.143,2.143c0,1.172,0.938,2.143,2.143,2.143C13.101,24.003,14.071,23.033,14.071,21.861z M57.225,34.014
		c0.367-1.072,0.502-2.076,0.502-2.544c0.066-1.674-0.436-3.248-1.439-4.587c0.368-1.238,0.368-2.577,0-3.917
		c-0.335-1.238-0.971-2.343-1.809-3.146c0.201-2.511-0.367-4.553-1.641-6.06c-1.439-1.707-3.648-2.578-6.594-2.611
		c-0.135,0-0.604,0-1.206,0h-2.544h-0.569c-4.787,0-9.307,1.573-12.922,2.812c-2.109,0.736-4.118,1.439-5.29,1.473
		c-1.138,0.033-2.143,0.971-2.143,2.143v21.459c0,1.105,0.938,2.041,2.042,2.143c1.239,0.1,4.453,4.084,5.926,6.025
		c1.205,1.541,2.343,2.98,3.381,4.018c1.305,1.307,1.674,3.314,2.076,5.256c0.368,1.975,0.77,4.051,2.21,5.457
		c0.4,0.402,0.937,0.637,1.506,0.637c7.499,0,7.499-5.992,7.499-8.57c0-2.746-1.005-4.688-1.875-6.428
		c-0.368-0.736-0.702-1.072-0.971-2.143h9.273c3.481,0,6.394-2.947,6.428-6.428C59.065,37.227,58.362,35.285,57.225,34.014z"/>
</g>
</svg>
