<?xml version="1.0" encoding="utf-8"?>
<!-- Generator: Adobe Illustrator 16.0.0, SVG Export Plug-In . SVG Version: 6.00 Build 0)  -->
<!DOCTYPE svg PUBLIC "-//W3C//DTD SVG 1.1//EN" "http://www.w3.org/Graphics/SVG/1.1/DTD/svg11.dtd">
<svg version="1.1" id="Layer_1" xmlns="http://www.w3.org/2000/svg" xmlns:xlink="http://www.w3.org/1999/xlink" x="0px" y="0px"
	 width="64px" height="64px" viewBox="0 0 64 64" enable-background="new 0 0 64 64" xml:space="preserve">
<g>
	<path d="M55.388,19.008c0,0.603-0.469,1.071-1.071,1.071h-3.214v31.737c0,3.682-2.41,6.829-5.356,6.829H17.893
		c-2.946,0-5.356-3.013-5.356-6.695V20.079H9.322c-0.603,0-1.071-0.469-1.071-1.071v-2.143c0-0.603,0.469-1.071,1.071-1.071h10.345
		l2.343-5.591c0.669-1.641,2.678-2.979,4.453-2.979h10.713c1.774,0,3.783,1.339,4.453,2.979l2.343,5.591h10.345
		c0.603,0,1.071,0.469,1.071,1.071V19.008z M46.817,20.079H16.821v31.737c0,1.606,0.904,2.544,1.071,2.544h27.854
		c0.168,0,1.071-0.938,1.071-2.544V20.079z M25.392,46.861c0,0.603-0.469,1.071-1.071,1.071h-2.143
		c-0.603,0-1.071-0.469-1.071-1.071V27.578c0-0.603,0.469-1.071,1.071-1.071h2.143c0.603,0,1.071,0.469,1.071,1.071V46.861z
		 M39.318,15.794l-1.607-3.917c-0.1-0.134-0.401-0.334-0.568-0.368H26.53c-0.201,0.034-0.469,0.234-0.569,0.368l-1.641,3.917H39.318
		z M33.962,46.861c0,0.603-0.469,1.071-1.071,1.071h-2.143c-0.603,0-1.071-0.469-1.071-1.071V27.578
		c0-0.603,0.469-1.071,1.071-1.071h2.143c0.603,0,1.071,0.469,1.071,1.071V46.861z M42.532,46.861c0,0.603-0.469,1.071-1.071,1.071
		h-2.143c-0.603,0-1.071-0.469-1.071-1.071V27.578c0-0.603,0.469-1.071,1.071-1.071h2.143c0.603,0,1.071,0.469,1.071,1.071V46.861z"
		/>
</g>
</svg>
