<?xml version="1.0" encoding="utf-8"?>
<!-- Generator: Adobe Illustrator 16.0.0, SVG Export Plug-In . SVG Version: 6.00 Build 0)  -->
<!DOCTYPE svg PUBLIC "-//W3C//DTD SVG 1.1//EN" "http://www.w3.org/Graphics/SVG/1.1/DTD/svg11.dtd">
<svg version="1.1" id="Layer_1" xmlns="http://www.w3.org/2000/svg" xmlns:xlink="http://www.w3.org/1999/xlink" x="0px" y="0px"
	 width="64px" height="64px" viewBox="0 0 64 64" enable-background="new 0 0 64 64" xml:space="preserve">
<g>
	<path d="M19.698,51.857c0,1.172-0.971,2.143-2.143,2.143H7.914c-1.172,0-2.143-0.971-2.143-2.143V30.432
		c0-1.172,0.971-2.143,2.143-2.143h9.642c1.172,0,2.143,0.971,2.143,2.143V51.857z M12.199,45.43c-1.205,0-2.143,0.971-2.143,2.143
		c0,1.205,0.938,2.143,2.143,2.143c1.172,0,2.143-0.938,2.143-2.143C14.342,46.4,13.371,45.43,12.199,45.43z M57.494,35.42
		c0.369,1.072,0.503,2.076,0.503,2.545c0.067,1.674-0.436,3.248-1.44,4.586c0.369,1.238,0.369,2.578,0,3.918
		c-0.334,1.238-0.971,2.342-1.807,3.146c0.2,2.51-0.369,4.553-1.641,6.059c-1.439,1.707-3.649,2.578-6.596,2.611
		c-0.134,0-0.603,0-1.205,0h-2.544h-0.569c-4.787,0-9.307-1.572-12.922-2.812c-2.109-0.736-4.118-1.439-5.29-1.473
		c-1.138-0.033-2.143-0.971-2.143-2.143V30.399c0-1.105,0.938-2.042,2.042-2.143c1.239-0.101,4.453-4.085,5.926-6.026
		c1.205-1.54,2.343-2.979,3.381-4.018c1.307-1.306,1.674-3.313,2.076-5.256c0.368-1.975,0.77-4.051,2.209-5.457
		c0.402-0.401,0.938-0.636,1.507-0.636c7.499,0,7.499,5.992,7.499,8.57c0,2.745-0.971,4.687-1.875,6.428
		c-0.368,0.736-0.703,1.071-0.971,2.143h9.273c3.481,0,6.428,2.946,6.428,6.428C59.336,32.207,58.633,34.115,57.494,35.42z"/>
</g>
</svg>
