<?xml version="1.0" encoding="utf-8"?>
<!-- Generator: Adobe Illustrator 16.0.0, SVG Export Plug-In . SVG Version: 6.00 Build 0)  -->
<!DOCTYPE svg PUBLIC "-//W3C//DTD SVG 1.1//EN" "http://www.w3.org/Graphics/SVG/1.1/DTD/svg11.dtd">
<svg version="1.1" id="Layer_1" xmlns="http://www.w3.org/2000/svg" xmlns:xlink="http://www.w3.org/1999/xlink" x="0px" y="0px"
	 width="64px" height="64px" viewBox="0 0 64 64" enable-background="new 0 0 64 64" xml:space="preserve">
<g>
	<path d="M50.566,50.519c0,2.946-2.41,5.356-5.356,5.356H17.356c-2.946,0-5.356-2.41-5.356-5.356V14.095
		c0-2.946,2.41-5.356,5.356-5.356H45.21c2.946,0,5.356,2.41,5.356,5.356V50.519z M46.281,14.095c0-0.569-0.502-1.071-1.071-1.071
		H17.356c-0.569,0-1.071,0.502-1.071,1.071v32.139c0,0.569,0.502,1.071,1.071,1.071H45.21c0.569,0,1.071-0.502,1.071-1.071V14.095z
		 M31.283,49.447c-1.172,0-2.143,0.971-2.143,2.143s0.971,2.143,2.143,2.143s2.143-0.971,2.143-2.143S32.455,49.447,31.283,49.447z"
		/>
</g>
</svg>
