<?xml version="1.0" encoding="utf-8"?>
<!-- Generator: Adobe Illustrator 16.0.0, SVG Export Plug-In . SVG Version: 6.00 Build 0)  -->
<!DOCTYPE svg PUBLIC "-//W3C//DTD SVG 1.1//EN" "http://www.w3.org/Graphics/SVG/1.1/DTD/svg11.dtd">
<svg version="1.1" id="Layer_1" xmlns="http://www.w3.org/2000/svg" xmlns:xlink="http://www.w3.org/1999/xlink" x="0px" y="0px"
	 width="64px" height="64px" viewBox="0 0 64 64" enable-background="new 0 0 64 64" xml:space="preserve">
<g>
	<path d="M62.328,18.119c-1.571,1.833-2.723,4.294-3.011,5.996c1.807,2.487,2.88,5.525,2.88,8.824c0,8.3-6.729,15.003-15.004,15.003
		c-4.713,0-8.902-2.146-11.651-5.524c0,0-1.231,1.466-3.378,4.687c-0.367-0.759-2.226-3.403-3.352-4.713
		c-2.75,3.404-6.965,5.551-11.678,5.551c-8.274,0-15.003-6.703-15.003-15.003c0-3.299,1.074-6.337,2.88-8.824
		C4.723,22.413,3.571,19.952,2,18.119h9.557c5.132-3.43,12.595-5.577,20.607-5.577c8.013,0,15.004,2.147,20.136,5.577H62.328z
		 M17.134,20.842c-6.651,0-12.071,5.42-12.071,12.097c0,6.677,5.42,12.097,12.071,12.097c6.677,0,12.097-5.42,12.097-12.097
		C29.231,26.262,23.812,20.842,17.134,20.842z M16.978,40.192c-4.033,0-7.306-3.273-7.306-7.306c0-4.006,3.273-7.279,7.306-7.279
		c4.032,0,7.279,3.273,7.279,7.279C24.256,36.919,21.01,40.192,16.978,40.192z M16.978,27.833c-2.802,0-5.054,2.278-5.054,5.054
		c0,2.802,2.252,5.054,5.054,5.054c2.775,0,5.053-2.252,5.053-5.054C22.031,30.111,19.753,27.833,16.978,27.833z M16.611,35.348
		c-1.362,0-2.461-1.1-2.461-2.461c0-1.335,1.1-2.435,2.461-2.435c1.335,0,2.435,1.1,2.435,2.435
		C19.046,34.248,17.946,35.348,16.611,35.348z M32.164,15.029c-5.368,0-10.709,1.021-15.003,2.88
		c8.3,0.026,15.003,6.729,15.003,15.03c0-8.144,6.468-14.768,14.559-15.004C42.402,16.05,37.532,15.029,32.164,15.029z
		 M47.193,20.842c-6.677,0-12.097,5.42-12.097,12.097c0,6.677,5.42,12.097,12.097,12.097c6.678,0,12.071-5.42,12.071-12.097
		C59.265,26.262,53.871,20.842,47.193,20.842z M47.168,40.14c-4.007,0-7.279-3.247-7.279-7.279s3.272-7.279,7.279-7.279
		c4.032,0,7.305,3.247,7.305,7.279S51.2,40.14,47.168,40.14z M47.168,27.807c-2.776,0-5.054,2.278-5.054,5.053
		c0,2.802,2.277,5.054,5.054,5.054c2.801,0,5.053-2.252,5.053-5.054C52.221,30.085,49.969,27.807,47.168,27.807z M46.801,35.322
		c-1.361,0-2.461-1.1-2.461-2.462c0-1.361,1.1-2.435,2.461-2.435s2.462,1.074,2.462,2.435
		C49.263,34.223,48.162,35.322,46.801,35.322z"/>
</g>
</svg>
