<?xml version="1.0" encoding="utf-8"?>
<!-- Generator: Adobe Illustrator 16.0.0, SVG Export Plug-In . SVG Version: 6.00 Build 0)  -->
<!DOCTYPE svg PUBLIC "-//W3C//DTD SVG 1.1//EN" "http://www.w3.org/Graphics/SVG/1.1/DTD/svg11.dtd">
<svg version="1.1" id="Layer_1" xmlns="http://www.w3.org/2000/svg" xmlns:xlink="http://www.w3.org/1999/xlink" x="0px" y="0px"
	 width="64px" height="64px" viewBox="0 0 64 64" enable-background="new 0 0 64 64" xml:space="preserve">
<g>
	<path d="M56.48,39.372L40.043,55.844c-0.804,0.77-1.908,1.238-3.047,1.238s-2.243-0.469-3.014-1.238L10.046,31.873
		C8.339,30.199,7,26.952,7,24.575V10.648c0-2.344,1.942-4.285,4.285-4.285h13.927c2.377,0,5.624,1.339,7.331,3.047L56.48,33.312
		c0.77,0.804,1.238,1.908,1.238,3.047S57.25,38.603,56.48,39.372z M17.713,12.791c-2.377,0-4.285,1.908-4.285,4.285
		s1.908,4.285,4.285,4.285s4.285-1.908,4.285-4.285S20.09,12.791,17.713,12.791z"/>
</g>
</svg>
