<?xml version="1.0" encoding="utf-8"?>
<!-- Generator: Adobe Illustrator 16.0.0, SVG Export Plug-In . SVG Version: 6.00 Build 0)  -->
<!DOCTYPE svg PUBLIC "-//W3C//DTD SVG 1.1//EN" "http://www.w3.org/Graphics/SVG/1.1/DTD/svg11.dtd">
<svg version="1.1" id="Layer_1" xmlns="http://www.w3.org/2000/svg" xmlns:xlink="http://www.w3.org/1999/xlink" x="0px" y="0px"
	 width="64px" height="64px" viewBox="0 0 64 64" enable-background="new 0 0 64 64" xml:space="preserve">
<g>
	<path d="M52.061,22.328c0.033,0.469,0.033,0.938,0.033,1.407c0,14.295-10.88,30.766-30.766,30.766
		c-6.126,0-11.818-1.774-16.605-4.854c0.87,0.101,1.707,0.134,2.611,0.134c5.055,0,9.708-1.707,13.424-4.619
		c-4.754-0.101-8.738-3.214-10.11-7.499c0.67,0.1,1.339,0.167,2.042,0.167c0.971,0,1.941-0.134,2.845-0.368
		c-4.955-1.005-8.67-5.356-8.67-10.612c0-0.034,0-0.101,0-0.134c1.439,0.803,3.113,1.306,4.888,1.372
		c-2.913-1.941-4.821-5.256-4.821-9.005c0-2.009,0.536-3.85,1.473-5.457c5.323,6.562,13.324,10.847,22.296,11.316
		c-0.167-0.804-0.268-1.641-0.268-2.478c0-5.959,4.821-10.813,10.813-10.813c3.114,0,5.926,1.306,7.901,3.415
		c2.443-0.468,4.787-1.373,6.862-2.611c-0.804,2.511-2.511,4.62-4.753,5.959c2.176-0.234,4.285-0.837,6.227-1.674
		C56.011,18.88,54.17,20.788,52.061,22.328z"/>
</g>
</svg>
