<?xml version="1.0" encoding="utf-8"?>
<!-- Generator: Adobe Illustrator 16.0.0, SVG Export Plug-In . SVG Version: 6.00 Build 0)  -->
<!DOCTYPE svg PUBLIC "-//W3C//DTD SVG 1.1//EN" "http://www.w3.org/Graphics/SVG/1.1/DTD/svg11.dtd">
<svg version="1.1" id="Layer_1" xmlns="http://www.w3.org/2000/svg" xmlns:xlink="http://www.w3.org/1999/xlink" x="0px" y="0px"
	 width="64px" height="64px" viewBox="0 0 64 64" enable-background="new 0 0 64 64" xml:space="preserve">
<g>
	<path d="M57.445,48.144c0,5.323-4.319,9.642-9.643,9.642H15.665c-5.323,0-9.642-4.318-9.642-9.642V16.005
		c0-5.323,4.319-9.642,9.642-9.642h32.138c5.323,0,9.643,4.318,9.643,9.642V48.144z M41.979,44.862
		c-0.804,0.402-2.311,0.737-3.449,0.737c-3.414,0.1-4.117-2.377-4.117-4.219V28.057h8.604v-6.494h-8.57V10.648
		c-6.193,0-6.293,0-6.293,0c-0.101,0-0.268,0.101-0.301,0.335c-0.368,3.314-1.942,9.206-8.437,11.55v5.523h4.352v13.994
		c0,4.787,3.515,11.616,12.855,11.449c3.147-0.067,6.662-1.373,7.433-2.511L41.979,44.862z"/>
</g>
</svg>
