<?xml version="1.0" encoding="utf-8"?>
<!-- Generator: Adobe Illustrator 16.0.0, SVG Export Plug-In . SVG Version: 6.00 Build 0)  -->
<!DOCTYPE svg PUBLIC "-//W3C//DTD SVG 1.1//EN" "http://www.w3.org/Graphics/SVG/1.1/DTD/svg11.dtd">
<svg version="1.1" id="Layer_1" xmlns="http://www.w3.org/2000/svg" xmlns:xlink="http://www.w3.org/1999/xlink" x="0px" y="0px"
	 width="64px" height="64px" viewBox="0 0 64 64" enable-background="new 0 0 64 64" xml:space="preserve">
<g>
	<path d="M29.336,50.786c0,1.172-0.971,2.143-2.143,2.143c-0.569,0-1.105-0.234-1.506-0.636L14.539,41.145H5.768
		c-1.172,0-2.143-0.971-2.143-2.143V26.146c0-1.172,0.971-2.143,2.143-2.143h8.771l11.148-11.148
		c0.401-0.401,0.937-0.636,1.506-0.636c1.172,0,2.143,0.971,2.143,2.143V50.786z M37.002,40.441
		c-0.268,0.134-0.568,0.168-0.836,0.168c-1.172,0-2.143-0.938-2.143-2.143c0-2.545,3.883-1.842,3.883-5.893
		s-3.883-3.348-3.883-5.893c0-1.205,0.971-2.143,2.143-2.143c0.268,0,0.568,0.034,0.836,0.168c3.147,1.238,5.189,4.52,5.189,7.867
		S40.149,39.169,37.002,40.441z M40.384,48.342c-0.269,0.101-0.569,0.168-0.837,0.168c-1.205,0-2.176-0.971-2.176-2.143
		c0-0.938,0.535-1.573,1.305-1.976c0.904-0.469,1.741-0.87,2.545-1.473c3.314-2.41,5.256-6.261,5.256-10.345
		s-1.941-7.935-5.256-10.345c-0.804-0.603-1.641-1.004-2.545-1.473c-0.77-0.402-1.305-1.038-1.305-1.976
		c0-1.172,0.971-2.143,2.143-2.143c0.301,0,0.602,0.067,0.87,0.168c6.294,2.645,10.378,8.972,10.378,15.768
		S46.678,45.697,40.384,48.342z M43.765,56.21c-0.268,0.1-0.569,0.167-0.87,0.167c-1.172,0-2.143-0.971-2.143-2.143
		c0-0.971,0.502-1.507,1.306-1.976c0.469-0.268,1.005-0.435,1.507-0.703c0.938-0.502,1.875-1.071,2.744-1.707
		c5.49-4.051,8.738-10.445,8.738-17.274S51.799,19.351,46.309,15.3c-0.869-0.636-1.807-1.205-2.744-1.707
		c-0.502-0.269-1.038-0.436-1.507-0.703c-0.804-0.469-1.306-1.005-1.306-1.976c0-1.172,0.971-2.143,2.143-2.143
		c0.301,0,0.603,0.067,0.87,0.167c9.44,4.051,15.567,13.358,15.567,23.636S53.205,52.159,43.765,56.21z"/>
</g>
</svg>
