<?xml version="1.0" encoding="utf-8"?>
<!-- Generator: Adobe Illustrator 16.0.0, SVG Export Plug-In . SVG Version: 6.00 Build 0)  -->
<!DOCTYPE svg PUBLIC "-//W3C//DTD SVG 1.1//EN" "http://www.w3.org/Graphics/SVG/1.1/DTD/svg11.dtd">
<svg version="1.1" id="Layer_1" xmlns="http://www.w3.org/2000/svg" xmlns:xlink="http://www.w3.org/1999/xlink" x="0px" y="0px"
	 width="64px" height="64px" viewBox="0 0 64 64" enable-background="new 0 0 64 64" xml:space="preserve">
<g>
	<path d="M57.047,48.519c0,5.323-4.318,9.642-9.642,9.642H15.267c-5.323,0-9.642-4.318-9.642-9.642V16.38
		c0-5.323,4.319-9.642,9.642-9.642h32.139c5.323,0,9.642,4.318,9.642,9.642V48.519z M43.488,16.38
		c-5.155-0.167-8.637,2.745-10.445,8.737c0.938-0.401,1.842-0.636,2.746-0.636c1.874,0,2.711,1.071,2.477,3.214
		c-0.1,1.272-0.938,3.146-2.477,5.591c-1.574,2.478-2.746,3.683-3.516,3.683c-1.004,0-1.875-1.875-2.745-5.658
		c-0.268-1.138-0.77-3.95-1.507-8.536c-0.669-4.219-2.444-6.193-5.356-5.926c-1.205,0.134-3.08,1.205-5.49,3.348
		c-1.808,1.573-3.582,3.214-5.423,4.821l1.741,2.242c1.674-1.138,2.645-1.74,2.913-1.74c1.272,0,2.478,2.009,3.582,5.992
		c1.004,3.683,2.009,7.332,3.013,11.015c1.506,3.983,3.314,5.992,5.49,5.992c3.482,0,7.768-3.281,12.822-9.843
		c4.888-6.294,7.432-11.248,7.566-14.864C49.113,18.958,47.305,16.514,43.488,16.38z"/>
</g>
</svg>
