<?xml version="1.0" encoding="utf-8"?>
<!-- Generator: Adobe Illustrator 16.0.0, SVG Export Plug-In . SVG Version: 6.00 Build 0)  -->
<!DOCTYPE svg PUBLIC "-//W3C//DTD SVG 1.1//EN" "http://www.w3.org/Graphics/SVG/1.1/DTD/svg11.dtd">
<svg version="1.1" id="Layer_1" xmlns="http://www.w3.org/2000/svg" xmlns:xlink="http://www.w3.org/1999/xlink" x="0px" y="0px"
	 width="64px" height="64px" viewBox="0 0 64 64" enable-background="new 0 0 64 64" xml:space="preserve">
<g>
	<path d="M38.211,50.786c0,1.172-0.971,2.143-2.143,2.143c-0.569,0-1.105-0.234-1.506-0.636L23.414,41.145h-8.771
		c-1.172,0-2.143-0.971-2.143-2.143V26.146c0-1.172,0.971-2.143,2.143-2.143h8.771l11.149-11.148c0.4-0.401,0.937-0.636,1.506-0.636
		c1.172,0,2.143,0.971,2.143,2.143V50.786z M45.877,40.441c-0.268,0.134-0.568,0.168-0.836,0.168c-1.172,0-2.143-0.938-2.143-2.143
		c0-2.545,3.883-1.842,3.883-5.893s-3.883-3.348-3.883-5.893c0-1.205,0.971-2.143,2.143-2.143c0.268,0,0.568,0.034,0.836,0.168
		c3.147,1.238,5.189,4.52,5.189,7.867S49.024,39.169,45.877,40.441z"/>
</g>
</svg>
