<?xml version="1.0" encoding="utf-8"?>
<!-- Generator: Adobe Illustrator 16.0.0, SVG Export Plug-In . SVG Version: 6.00 Build 0)  -->
<!DOCTYPE svg PUBLIC "-//W3C//DTD SVG 1.1//EN" "http://www.w3.org/Graphics/SVG/1.1/DTD/svg11.dtd">
<svg version="1.1" id="Layer_1" xmlns="http://www.w3.org/2000/svg" xmlns:xlink="http://www.w3.org/1999/xlink" x="0px" y="0px"
	 width="64px" height="64px" viewBox="0 0 64 64" enable-background="new 0 0 64 64" xml:space="preserve">
<g>
	<path d="M61.783,50.785c0,0.871-0.535,1.641-1.306,1.977c-0.268,0.1-0.569,0.166-0.837,0.166c-0.569,0-1.105-0.201-1.506-0.635
		L44.643,38.801v5.557c0,5.324-4.318,9.643-9.642,9.643H11.433c-5.323,0-9.642-4.318-9.642-9.643V20.79
		c0-5.323,4.319-9.642,9.642-9.642h23.568c5.323,0,9.642,4.318,9.642,9.642v5.523l13.492-13.458c0.4-0.435,0.937-0.636,1.506-0.636
		c0.268,0,0.569,0.067,0.837,0.167c0.771,0.335,1.306,1.105,1.306,1.976V50.785z"/>
</g>
</svg>
