<?xml version="1.0" encoding="utf-8"?>
<!-- Generator: Adobe Illustrator 16.0.0, SVG Export Plug-In . SVG Version: 6.00 Build 0)  -->
<!DOCTYPE svg PUBLIC "-//W3C//DTD SVG 1.1//EN" "http://www.w3.org/Graphics/SVG/1.1/DTD/svg11.dtd">
<svg version="1.1" id="Layer_1" xmlns="http://www.w3.org/2000/svg" xmlns:xlink="http://www.w3.org/1999/xlink" x="0px" y="0px"
	 width="64px" height="64px" viewBox="0 0 64 64" enable-background="new 0 0 64 64" xml:space="preserve">
<g>
	<path d="M38.369,34.717c-0.033,1.172-1.038,2.143-2.21,2.143h-8.57c-1.172,0-2.176-0.971-2.209-2.143L24.442,9.006
		c-0.033-1.172,0.904-2.143,2.076-2.143H37.23c1.172,0,2.109,0.971,2.076,2.143L38.369,34.717z M38.302,51.857
		c0,1.172-0.971,2.143-2.143,2.143h-8.57c-1.172,0-2.143-0.971-2.143-2.143v-7.499c0-1.172,0.971-2.143,2.143-2.143h8.57
		c1.172,0,2.143,0.971,2.143,2.143V51.857z"/>
</g>
</svg>
