<?xml version="1.0" encoding="utf-8"?>
<!-- Generator: Adobe Illustrator 16.0.0, SVG Export Plug-In . SVG Version: 6.00 Build 0)  -->
<!DOCTYPE svg PUBLIC "-//W3C//DTD SVG 1.1//EN" "http://www.w3.org/Graphics/SVG/1.1/DTD/svg11.dtd">
<svg version="1.1" id="Layer_1" xmlns="http://www.w3.org/2000/svg" xmlns:xlink="http://www.w3.org/1999/xlink" x="0px" y="0px"
	 width="64px" height="64px" viewBox="0 0 64 64" enable-background="new 0 0 64 64" xml:space="preserve">
<g>
	<path d="M61.527,52.318c0.736,1.305,0.703,2.912-0.067,4.217c-0.771,1.307-2.177,2.109-3.683,2.109H6.355
		c-1.506,0-2.913-0.803-3.683-2.109c-0.77-1.305-0.803-2.912-0.067-4.217L28.317,5.181c0.736-1.373,2.176-2.243,3.75-2.243
		s3.014,0.87,3.75,2.243L61.527,52.318z M36.887,21.083c0-0.2-0.1-0.469-0.334-0.636c-0.201-0.167-0.502-0.368-0.804-0.368h-7.365
		c-0.301,0-0.603,0.201-0.803,0.368c-0.234,0.167-0.335,0.502-0.335,0.703l0.569,15.299c0,0.436,0.502,0.77,1.138,0.77h6.193
		c0.603,0,1.104-0.334,1.139-0.77L36.887,21.083z M36.352,42.609c0-0.604-0.469-1.105-1.071-1.105h-6.428
		c-0.603,0-1.071,0.502-1.071,1.105v6.361c0,0.602,0.469,1.104,1.071,1.104h6.428c0.603,0,1.071-0.502,1.071-1.104V42.609z"/>
</g>
</svg>
