<?xml version="1.0" encoding="utf-8"?>
<!-- Generator: Adobe Illustrator 16.0.0, SVG Export Plug-In . SVG Version: 6.00 Build 0)  -->
<!DOCTYPE svg PUBLIC "-//W3C//DTD SVG 1.1//EN" "http://www.w3.org/Graphics/SVG/1.1/DTD/svg11.dtd">
<svg version="1.1" id="Layer_1" xmlns="http://www.w3.org/2000/svg" xmlns:xlink="http://www.w3.org/1999/xlink" x="0px" y="0px"
	 width="64px" height="64px" viewBox="0 0 64 64" enable-background="new 0 0 64 64" xml:space="preserve">
<g>
	<path d="M57.133,32.574c0,14.194-11.517,25.711-25.711,25.711S5.711,46.769,5.711,32.574S17.228,6.863,31.422,6.863
		S57.133,18.38,57.133,32.574z M36.242,16.304c0-0.234-0.1-0.469-0.334-0.603c-0.201-0.167-0.502-0.268-0.804-0.268h-7.365
		c-0.301,0-0.603,0.101-0.803,0.268c-0.234,0.134-0.335,0.368-0.335,0.603l0.569,20.79c0,0.469,0.502,0.837,1.138,0.837h6.193
		c0.603,0,1.104-0.368,1.139-0.837L36.242,16.304z M35.707,42.249c0-0.603-0.469-1.104-1.037-1.104h-6.428
		c-0.603,0-1.105,0.502-1.105,1.104v6.361c0,0.603,0.502,1.104,1.105,1.104h6.428c0.568,0,1.037-0.502,1.037-1.104V42.249z"/>
</g>
</svg>
