<?xml version="1.0" encoding="utf-8"?>
<!-- Generator: Adobe Illustrator 16.0.0, SVG Export Plug-In . SVG Version: 6.00 Build 0)  -->
<!DOCTYPE svg PUBLIC "-//W3C//DTD SVG 1.1//EN" "http://www.w3.org/Graphics/SVG/1.1/DTD/svg11.dtd">
<svg version="1.1" id="Layer_1" xmlns="http://www.w3.org/2000/svg" xmlns:xlink="http://www.w3.org/1999/xlink" x="0px" y="0px"
	 width="64px" height="64px" viewBox="0 0 64 64" enable-background="new 0 0 64 64" xml:space="preserve">
<g>
	<path d="M33.133,34.946c-3.086,6.041-6.489,12.347-9.418,18.336c-0.026,0.026-1.424,0-1.424-0.026
		c-4.459-10.422-9.128-20.763-13.587-31.211c-1.082-2.533-4.696-6.648-7.176-6.622c0-0.29-0.026-0.95-0.026-1.345h15.381v1.319
		c-1.82,0.105-5.013,1.267-4.116,3.245c2.084,4.723,9.841,22.821,11.925,27.411c1.425-2.822,5.488-10.368,7.15-13.56
		c-1.319-2.691-5.567-12.716-6.912-15.196c-0.923-1.688-3.43-1.847-5.303-1.874c0-0.422,0-0.765,0-1.319L33.16,14.13v1.24
		c-1.847,0.053-3.615,0.739-2.797,2.48c1.794,3.799,2.902,6.464,4.564,9.946c0.527-1.029,3.298-6.596,4.564-9.577
		c0.844-1.953-0.37-2.718-3.668-2.797c0.026-0.343,0-0.976,0.026-1.292c4.222-0.026,10.554-0.026,11.688-0.053v1.292
		c-2.137,0.079-4.353,1.214-5.514,3.008l-5.619,11.661c0.606,1.53,6.015,13.561,6.569,14.88l11.634-26.831
		c-0.817-2.19-3.456-2.665-4.484-2.691c0-0.343,0-0.871,0-1.319l12.136,0.105l0.026,0.053l-0.026,1.161
		c-2.665,0.079-4.274,1.504-5.303,3.826c-2.375,5.487-9.814,22.794-14.748,34.06h-1.293L33.133,34.946z"/>
</g>
</svg>
