<?xml version="1.0" encoding="utf-8"?>
<!-- Generator: Adobe Illustrator 16.0.0, SVG Export Plug-In . SVG Version: 6.00 Build 0)  -->
<!DOCTYPE svg PUBLIC "-//W3C//DTD SVG 1.1//EN" "http://www.w3.org/Graphics/SVG/1.1/DTD/svg11.dtd">
<svg version="1.1" id="Layer_1" xmlns="http://www.w3.org/2000/svg" xmlns:xlink="http://www.w3.org/1999/xlink" x="0px" y="0px"
	 width="64px" height="64px" viewBox="0 0 64 64" enable-background="new 0 0 64 64" xml:space="preserve">
<g>
	<path d="M58.297,30.904c0,13.927-11.315,25.242-25.242,25.242c-4.252,0-8.47-1.071-12.22-3.146l-13.96,4.486l4.553-13.559
		c-2.376-3.917-3.615-8.437-3.615-13.023c0-13.927,11.315-25.242,25.242-25.242S58.297,16.978,58.297,30.904z M54.079,30.904
		c0-11.583-9.441-21.023-21.024-21.023s-21.024,9.44-21.024,21.023c0,4.42,1.406,8.738,4.017,12.32l-2.645,7.8l8.102-2.577
		c3.415,2.243,7.466,3.481,11.55,3.481C44.638,51.929,54.079,42.488,54.079,30.904z M46.111,37.433
		c0.066,0.168,0.066,0.368,0.066,0.502c0,0.837-0.268,1.774-0.569,2.545c-0.77,1.875-3.883,3.08-5.791,3.08
		c-1.607,0-4.922-1.406-6.361-2.076c-4.787-2.176-7.767-5.892-10.646-10.144c-1.272-1.875-2.41-4.185-2.377-6.495v-0.268
		c0.066-2.209,0.87-3.783,2.478-5.289c0.502-0.469,1.037-0.736,1.74-0.736c0.402,0,0.804,0.1,1.239,0.1
		c0.903,0,1.071,0.269,1.406,1.139c0.234,0.569,1.941,5.122,1.941,5.457c0,1.272-2.311,2.712-2.311,3.481
		c0,0.168,0.067,0.335,0.168,0.502c0.736,1.574,2.143,3.382,3.415,4.587c1.54,1.473,3.18,2.443,5.055,3.381
		c0.234,0.134,0.469,0.234,0.736,0.234c1.005,0,2.679-3.247,3.549-3.247C40.42,34.186,45.877,37.031,46.111,37.433z"/>
</g>
</svg>
