<?xml version="1.0" encoding="utf-8"?>
<!-- Generator: Adobe Illustrator 16.0.0, SVG Export Plug-In . SVG Version: 6.00 Build 0)  -->
<!DOCTYPE svg PUBLIC "-//W3C//DTD SVG 1.1//EN" "http://www.w3.org/Graphics/SVG/1.1/DTD/svg11.dtd">
<svg version="1.1" id="Layer_1" xmlns="http://www.w3.org/2000/svg" xmlns:xlink="http://www.w3.org/1999/xlink" x="0px" y="0px"
	 width="64px" height="64px" viewBox="0 0 64 64" enable-background="new 0 0 64 64" xml:space="preserve">
<g>
	<path d="M55.522,56.139c-0.636,2.645-2.778,4.586-5.356,4.854c-6.16,0.703-12.387,0.703-18.58,0.703s-12.42,0-18.58-0.703
		c-2.578-0.268-4.754-2.209-5.356-4.854c-0.871-3.75-0.871-7.868-0.871-11.718c0-3.884,0.034-7.968,0.871-11.718
		c0.636-2.645,2.778-4.586,5.39-4.887c6.126-0.669,12.354-0.669,18.547-0.669s12.42,0,18.58,0.669
		c2.578,0.301,4.754,2.243,5.356,4.887c0.87,3.75,0.87,7.834,0.87,11.718C56.393,48.271,56.359,52.389,55.522,56.139z M20.94,36.085
		v-3.147H10.495v3.147h3.515v19.049h3.348V36.085H20.94z M26.397,1.703l-4.051,13.357v9.073h-3.348v-9.073
		c-0.301-1.64-0.971-3.983-2.042-7.097c-0.736-2.076-1.473-4.185-2.176-6.26h3.548l2.377,8.805l2.276-8.805H26.397z M29.979,55.134
		V38.596H27V51.25c-0.669,0.938-1.306,1.406-1.908,1.406c-0.402,0-0.636-0.234-0.703-0.703c-0.034-0.1-0.034-0.469-0.034-1.172
		V38.596h-2.979v13.09c0,1.172,0.101,1.941,0.268,2.443c0.268,0.838,0.971,1.239,1.942,1.239c1.071,0,2.209-0.67,3.415-2.042v1.808
		H29.979z M35.369,18.71c0,1.774-0.302,3.113-0.938,3.95c-0.837,1.138-2.009,1.708-3.549,1.708c-1.506,0-2.678-0.569-3.515-1.708
		c-0.636-0.87-0.938-2.176-0.938-3.95v-5.859c0-1.774,0.301-3.08,0.938-3.917c0.837-1.139,2.009-1.708,3.515-1.708
		c1.54,0,2.712,0.569,3.549,1.708c0.636,0.837,0.938,2.143,0.938,3.917V18.71z M32.322,12.249c0-1.54-0.435-2.31-1.439-2.31
		c-0.971,0-1.439,0.77-1.439,2.31v7.03c0,1.54,0.469,2.344,1.439,2.344c1.004,0,1.439-0.804,1.439-2.344V12.249z M41.361,43.584
		c0-1.54-0.066-2.645-0.301-3.314c-0.369-1.238-1.205-1.875-2.377-1.875c-1.105,0-2.143,0.604-3.113,1.809v-7.266h-2.98v22.196h2.98
		v-1.606c1.004,1.238,2.041,1.841,3.113,1.841c1.172,0,2.008-0.636,2.377-1.841c0.234-0.703,0.301-1.809,0.301-3.349V43.584z
		 M38.382,50.413c0,1.507-0.435,2.243-1.306,2.243c-0.502,0-1.004-0.234-1.506-0.736V41.843c0.502-0.502,1.004-0.736,1.506-0.736
		c0.871,0,1.306,0.771,1.306,2.243V50.413z M46.584,24.133h-3.047v-1.841c-1.205,1.406-2.344,2.076-3.447,2.076
		c-0.971,0-1.674-0.402-1.976-1.239c-0.167-0.502-0.269-1.306-0.269-2.511V7.428h3.047v12.287c0,0.703,0,1.104,0.033,1.171
		c0.067,0.469,0.302,0.737,0.703,0.737c0.604,0,1.239-0.469,1.908-1.44V7.428h3.047V24.133z M52.677,49.409h-3.046
		c0,1.205-0.033,1.874-0.067,2.042c-0.167,0.803-0.603,1.205-1.339,1.205c-1.038,0-1.54-0.77-1.54-2.311v-2.912h5.992v-3.448
		c0-1.774-0.302-3.046-0.903-3.884c-0.871-1.138-2.043-1.707-3.549-1.707c-1.54,0-2.712,0.569-3.582,1.707
		c-0.637,0.838-0.938,2.109-0.938,3.884v5.792c0,1.774,0.334,3.08,0.971,3.883c0.871,1.139,2.042,1.708,3.615,1.708
		c1.574,0,2.812-0.603,3.615-1.774c0.369-0.535,0.637-1.139,0.703-1.808c0.067-0.302,0.067-0.972,0.067-1.942V49.409z
		 M49.697,44.923h-3.013v-1.54c0-1.506,0.502-2.276,1.507-2.276c1.004,0,1.506,0.771,1.506,2.276V44.923z"/>
</g>
</svg>
