<?xml version="1.0" encoding="utf-8"?>
<!-- Generator: Adobe Illustrator 16.0.0, SVG Export Plug-In . SVG Version: 6.00 Build 0)  -->
<!DOCTYPE svg PUBLIC "-//W3C//DTD SVG 1.1//EN" "http://www.w3.org/Graphics/SVG/1.1/DTD/svg11.dtd">
<svg version="1.1" id="Layer_1" xmlns="http://www.w3.org/2000/svg" xmlns:xlink="http://www.w3.org/1999/xlink" x="0px" y="0px"
	 width="64px" height="64px" viewBox="0 0 64 64" enable-background="new 0 0 64 64" xml:space="preserve">
<g>
	<path d="M60.671,46.729c-0.703,3.281-3.314,5.691-6.462,6.06c-7.432,0.837-14.964,0.837-22.463,0.837s-15.032,0-22.463-0.837
		c-3.147-0.368-5.758-2.778-6.495-6.06C1.75,42.075,1.75,36.986,1.75,32.199s0-9.876,1.071-14.529
		c0.736-3.281,3.314-5.691,6.461-6.06c7.432-0.837,14.964-0.837,22.463-0.837s15.031,0,22.463,0.837
		c3.147,0.368,5.759,2.779,6.496,6.06c1.037,4.653,1.037,9.742,1.037,14.529S61.742,42.075,60.671,46.729z M43.598,30.392
		L26.457,19.679c-0.669-0.436-1.506-0.436-2.176-0.067c-0.67,0.369-1.105,1.105-1.105,1.875v21.426c0,0.77,0.435,1.506,1.105,1.875
		c0.334,0.167,0.669,0.268,1.038,0.268c0.402,0,0.804-0.101,1.138-0.335l17.141-10.713c0.636-0.368,1.004-1.071,1.004-1.808
		S44.233,30.76,43.598,30.392z"/>
</g>
</svg>
