<?xml version="1.0" encoding="utf-8"?>
<!-- Generator: Adobe Illustrator 16.0.0, SVG Export Plug-In . SVG Version: 6.00 Build 0)  -->
<!DOCTYPE svg PUBLIC "-//W3C//DTD SVG 1.1//EN" "http://www.w3.org/Graphics/SVG/1.1/DTD/svg11.dtd">
<svg version="1.1" id="Layer_1" xmlns="http://www.w3.org/2000/svg" xmlns:xlink="http://www.w3.org/1999/xlink" x="0px" y="0px"
	 width="48px" height="48px" viewBox="0 0 48 48" enable-background="new 0 0 48 48" xml:space="preserve">
<path fill="none" d="M0,0h48v48H0V0z"/>
<path d="M24,12c7.74,0,14,6.26,14,14c0,1.68-0.32,3.3-0.859,4.8l3.039,3.04C41.34,31.46,42,28.82,42,26c0-9.94-8.061-18-18-18
	c-2.82,0-5.46,0.66-7.84,1.82l3.04,3.04C20.7,12.32,22.32,12,24,12z M44,11.44l-9.2-7.72l-2.579,3.06l9.199,7.72L44,11.44z
	 M5.84,4.58L3.3,7.14L5.96,9.8l-2.22,1.86l2.84,2.84l2.22-1.88l1.6,1.6C7.66,17.38,6,21.5,6,26c0,9.939,8.04,18,18,18
	c4.5,0,8.62-1.66,11.779-4.4l4.4,4.4l2.541-2.54L7.78,6.54L5.84,4.58z M32.939,36.779C30.52,38.779,27.4,40,24,40
	c-7.74,0-14-6.26-14-14c0-3.4,1.22-6.52,3.22-8.94L32.939,36.779z M16.04,6.56L13.2,3.72l-1.72,1.42l2.84,2.84L16.04,6.56
	L16.04,6.56z"/>
</svg>
