<?xml version="1.0" encoding="utf-8"?>
<!-- Generator: Adobe Illustrator 16.0.0, SVG Export Plug-In . SVG Version: 6.00 Build 0)  -->
<!DOCTYPE svg PUBLIC "-//W3C//DTD SVG 1.1//EN" "http://www.w3.org/Graphics/SVG/1.1/DTD/svg11.dtd">
<svg version="1.1" id="Layer_1" xmlns="http://www.w3.org/2000/svg" xmlns:xlink="http://www.w3.org/1999/xlink" x="0px" y="0px"
	 width="48px" height="48px" viewBox="0 0 48 48" enable-background="new 0 0 48 48" xml:space="preserve">
<path fill="none" d="M0,0h48v48H0V0z"/>
<path d="M22,34c0,1.1,0.9,2,2,2c1.1,0,2-0.9,2-2s-0.9-2-2-2C22.9,32,22,32.9,22,34z M22,6v8h4v-3.84c6.779,0.98,12,6.78,12,13.84
	c0,7.74-6.26,14-14,14s-14-6.26-14-14c0-3.36,1.18-6.44,3.16-8.84L24,26l2.82-2.82l-13.6-13.6v0.04C8.84,12.9,6,18.1,6,24
	c0,9.939,8.04,18,18,18c9.939,0,18-8.061,18-18c0-9.94-8.061-18-18-18H22z M36,24c0-1.1-0.9-2-2-2s-2,0.9-2,2c0,1.1,0.9,2,2,2
	S36,25.1,36,24z M12,24c0,1.1,0.9,2,2,2s2-0.9,2-2c0-1.1-0.9-2-2-2S12,22.9,12,24z"/>
</svg>
