<?xml version="1.0" encoding="utf-8"?>
<!-- Generator: Adobe Illustrator 16.0.0, SVG Export Plug-In . SVG Version: 6.00 Build 0)  -->
<!DOCTYPE svg PUBLIC "-//W3C//DTD SVG 1.1//EN" "http://www.w3.org/Graphics/SVG/1.1/DTD/svg11.dtd">
<svg version="1.1" id="Layer_1" xmlns="http://www.w3.org/2000/svg" xmlns:xlink="http://www.w3.org/1999/xlink" x="0px" y="0px"
	 width="48px" height="48px" viewBox="0 0 48 48" enable-background="new 0 0 48 48" xml:space="preserve">
<path fill="none" d="M0,0h48v48H0V0z M36.62,12L31.1,22L36.62,12z"/>
<path d="M22,18h4v-6h6V8h-6V2h-4v6h-6v4h6V18z M14,36c-2.2,0-3.98,1.8-3.98,4s1.78,4,3.98,4s4-1.8,4-4S16.2,36,14,36z M34,36
	c-2.2,0-3.98,1.8-3.98,4s1.78,4,3.98,4s4-1.8,4-4S36.2,36,34,36z M14.34,29.5l0.06-0.24L16.2,26H31.1c1.5,0,2.82-0.82,3.5-2.06
	L42.32,9.92L38.84,8h-0.02l-2.2,4L31.1,22H17.06l-0.26-0.54L12.32,12l-1.9-4L8.54,4H2v4h4l7.2,15.18l-2.7,4.9
	C10.18,28.641,10,29.3,10,30c0,2.2,1.8,4,4,4h24v-4H14.84C14.58,30,14.34,29.779,14.34,29.5z"/>
</svg>
