<?xml version="1.0" encoding="utf-8"?>
<!-- Generator: Adobe Illustrator 16.0.0, SVG Export Plug-In . SVG Version: 6.00 Build 0)  -->
<!DOCTYPE svg PUBLIC "-//W3C//DTD SVG 1.1//EN" "http://www.w3.org/Graphics/SVG/1.1/DTD/svg11.dtd">
<svg version="1.1" id="Layer_1" xmlns="http://www.w3.org/2000/svg" xmlns:xlink="http://www.w3.org/1999/xlink" x="0px" y="0px"
	 width="48px" height="48px" viewBox="0 0 48 48" enable-background="new 0 0 48 48" xml:space="preserve">
<path fill="none" d="M0,0h48v48H0V0z"/>
<path d="M20.02,42.02C20.02,44.221,21.8,46,24,46s3.98-1.779,3.98-3.98H20.02z M37.76,33.641V22c0-6.5-4.5-11.94-10.58-13.38V7.18
	C27.18,5.42,25.76,4,24,4s-3.18,1.42-3.18,3.18v1.44C14.74,10.06,10.24,15.5,10.24,22v11.641L6,37.88V40h36v-2.12L37.76,33.641z
	 M32,26.02h-6v6h-4v-6h-6V22h6v-6h4v6h6V26.02z"/>
</svg>
