<?xml version="1.0" encoding="utf-8"?>
<!-- Generator: Adobe Illustrator 16.0.0, SVG Export Plug-In . SVG Version: 6.00 Build 0)  -->
<!DOCTYPE svg PUBLIC "-//W3C//DTD SVG 1.1//EN" "http://www.w3.org/Graphics/SVG/1.1/DTD/svg11.dtd">
<svg version="1.1" id="Layer_1" xmlns="http://www.w3.org/2000/svg" xmlns:xlink="http://www.w3.org/1999/xlink" x="0px" y="0px"
	 width="48px" height="48px" viewBox="0 0 48 48" enable-background="new 0 0 48 48" xml:space="preserve">
<path d="M24,12v6l8-8l-8-8v6C15.16,8,8,15.16,8,24c0,3.141,0.92,6.061,2.48,8.52l2.92-2.92c-0.9-1.66-1.4-3.58-1.4-5.6
	C12,17.38,17.38,12,24,12z M37.52,15.48L34.6,18.4C35.48,20.08,36,21.98,36,24c0,6.62-5.38,12-12,12v-6l-8,8l8,8v-6
	c8.84,0,16-7.16,16-16C40,20.86,39.08,17.94,37.52,15.48z"/>
<path fill="none" d="M0,0h48v48H0V0z"/>
</svg>
