<?xml version="1.0" encoding="utf-8"?>
<!-- Generator: Adobe Illustrator 16.0.0, SVG Export Plug-In . SVG Version: 6.00 Build 0)  -->
<!DOCTYPE svg PUBLIC "-//W3C//DTD SVG 1.1//EN" "http://www.w3.org/Graphics/SVG/1.1/DTD/svg11.dtd">
<svg version="1.1" id="Layer_1" xmlns="http://www.w3.org/2000/svg" xmlns:xlink="http://www.w3.org/1999/xlink" x="0px" y="0px"
	 width="48px" height="48px" viewBox="0 0 48 48" enable-background="new 0 0 48 48" xml:space="preserve">
<path fill="none" d="M0,0h48v48H0V0z"/>
<path d="M12,36c0,1.1,0.9,2,2,2h2v7c0,1.66,1.34,3,3,3s3-1.34,3-3v-7h4v7c0,1.66,1.34,3,3,3s3-1.34,3-3v-7h2c1.1,0,2-0.9,2-2V16H12
	V36z M7,16c-1.66,0-3,1.34-3,3v14c0,1.66,1.34,3,3,3s3-1.34,3-3V19C10,17.34,8.66,16,7,16z M41,16c-1.66,0-3,1.34-3,3v14
	c0,1.66,1.34,3,3,3s3-1.34,3-3V19C44,17.34,42.66,16,41,16z M31.061,4.32l2.6-2.6c0.4-0.4,0.4-1.02,0-1.42c-0.4-0.4-1.02-0.4-1.42,0
	l-2.961,2.96C27.7,2.46,25.9,2,24,2c-1.92,0-3.72,0.46-5.32,1.26L15.7,0.3c-0.4-0.4-1.02-0.4-1.42,0c-0.4,0.4-0.4,1.02,0,1.42
	l2.62,2.62C13.94,6.52,12,10.02,12,14h24C36,10.02,34.061,6.5,31.061,4.32z M20,10h-2V8h2V10z M30,10h-2V8h2V10z"/>
</svg>
