<?xml version="1.0" encoding="utf-8"?>
<!-- Generator: Adobe Illustrator 16.0.0, SVG Export Plug-In . SVG Version: 6.00 Build 0)  -->
<!DOCTYPE svg PUBLIC "-//W3C//DTD SVG 1.1//EN" "http://www.w3.org/Graphics/SVG/1.1/DTD/svg11.dtd">
<svg version="1.1" id="Layer_1" xmlns="http://www.w3.org/2000/svg" xmlns:xlink="http://www.w3.org/1999/xlink" x="0px" y="0px"
	 width="48px" height="48px" viewBox="0 0 48 48" enable-background="new 0 0 48 48" xml:space="preserve">
<path fill="none" d="M0,0h48v48H0V0z"/>
<path d="M44,11.44l-9.2-7.72l-2.579,3.06l9.199,7.72L44,11.44z M15.76,6.78L13.2,3.72L4,11.42l2.58,3.06L15.76,6.78z M24,8
	C14.06,8,6,16.06,6,26c0,9.939,8.04,18,18,18c9.939,0,18-8.061,18-18C42,16.06,33.939,8,24,8z M24,40c-7.74,0-14-6.26-14-14
	s6.26-14,14-14s14,6.26,14,14S31.74,40,24,40z M21.08,29.061L16.82,24.8l-2.12,2.12l6.36,6.359l12-12l-2.121-2.12L21.08,29.061z"/>
</svg>
