<?xml version="1.0" encoding="utf-8"?>
<!-- Generator: Adobe Illustrator 16.0.0, SVG Export Plug-In . SVG Version: 6.00 Build 0)  -->
<!DOCTYPE svg PUBLIC "-//W3C//DTD SVG 1.1//EN" "http://www.w3.org/Graphics/SVG/1.1/DTD/svg11.dtd">
<svg version="1.1" id="Layer_1" xmlns="http://www.w3.org/2000/svg" xmlns:xlink="http://www.w3.org/1999/xlink" x="0px" y="0px"
	 width="48px" height="48px" viewBox="0 0 48 48" enable-background="new 0 0 48 48" xml:space="preserve">
<path fill="none" d="M0,0h48v48H0V0z"/>
<path d="M40,17.38V8h-9.38L24,1.38L17.38,8H8v9.38L1.38,24L8,30.62V40h9.38L24,46.62L30.62,40H40v-9.38L46.62,24L40,17.38z M24,36
	c-1.78,0-3.48-0.4-5-1.1c4.12-1.9,7-6.061,7-10.9s-2.88-9-7-10.9c1.52-0.7,3.22-1.1,5-1.1c6.62,0,12,5.38,12,12S30.62,36,24,36z"/>
</svg>
