<?xml version="1.0" encoding="utf-8"?>
<!-- Generator: Adobe Illustrator 16.0.0, SVG Export Plug-In . SVG Version: 6.00 Build 0)  -->
<!DOCTYPE svg PUBLIC "-//W3C//DTD SVG 1.1//EN" "http://www.w3.org/Graphics/SVG/1.1/DTD/svg11.dtd">
<svg version="1.1" id="Layer_1" xmlns="http://www.w3.org/2000/svg" xmlns:xlink="http://www.w3.org/1999/xlink" x="0px" y="0px"
	 width="48px" height="48px" viewBox="0 0 48 48" enable-background="new 0 0 48 48" xml:space="preserve">
<path fill="none" d="M0,0h48v48H0V0z"/>
<path d="M38.7,20.08C37.34,13.18,31.279,8,24,8c-5.78,0-10.8,3.28-13.3,8.08C4.68,16.72,0,21.82,0,28c0,6.62,5.38,12,12,12h26
	c5.52,0,10-4.48,10-10C48,24.721,43.9,20.44,38.7,20.08z M38,36H12c-4.42,0-8-3.58-8-8s3.58-8,8-8h1.42c1.32-4.62,5.54-8,10.58-8
	c6.08,0,11,4.92,11,11v1h3c3.32,0,6,2.68,6,6S41.32,36,38,36z"/>
</svg>
