<?xml version="1.0" encoding="utf-8"?>
<!-- Generator: Adobe Illustrator 16.0.0, SVG Export Plug-In . SVG Version: 6.00 Build 0)  -->
<!DOCTYPE svg PUBLIC "-//W3C//DTD SVG 1.1//EN" "http://www.w3.org/Graphics/SVG/1.1/DTD/svg11.dtd">
<svg version="1.1" id="Layer_1" xmlns="http://www.w3.org/2000/svg" xmlns:xlink="http://www.w3.org/1999/xlink" x="0px" y="0px"
	 width="48px" height="48px" viewBox="0 0 48 48" enable-background="new 0 0 48 48" xml:space="preserve">
<path d="M24,4C12.94,4,4,12.94,4,24c0,11.061,8.94,20,20,20c11.061,0,20-8.939,20-20C44,12.94,35.061,4,24,4z M34,31.18L31.18,34
	L24,26.82L16.82,34L14,31.18L21.18,24L14,16.82L16.82,14L24,21.18L31.18,14L34,16.82L26.82,24L34,31.18z"/>
<path fill="none" d="M0,0h48v48H0V0z"/>
</svg>
