<?xml version="1.0" encoding="utf-8"?>
<!-- Generator: Adobe Illustrator 16.0.0, SVG Export Plug-In . SVG Version: 6.00 Build 0)  -->
<!DOCTYPE svg PUBLIC "-//W3C//DTD SVG 1.1//EN" "http://www.w3.org/Graphics/SVG/1.1/DTD/svg11.dtd">
<svg version="1.1" id="Layer_1" xmlns="http://www.w3.org/2000/svg" xmlns:xlink="http://www.w3.org/1999/xlink" x="0px" y="0px"
	 width="48px" height="48px" viewBox="0 0 48 48" enable-background="new 0 0 48 48" xml:space="preserve">
<path fill="none" d="M0,0h48v48H0V0z"/>
<path d="M13.24,21.58c2.88,5.66,7.52,10.279,13.18,13.18l4.4-4.4c0.539-0.539,1.34-0.719,2.039-0.479
	c2.24,0.74,4.66,1.14,7.141,1.14c1.1,0,2,0.9,2,2V40c0,1.1-0.9,2-2,2C21.22,42,6,26.779,6,8c0-1.1,0.9-2,2-2h7c1.1,0,2,0.9,2,2
	c0,2.5,0.4,4.9,1.14,7.14c0.22,0.7,0.06,1.48-0.5,2.04L13.24,21.58z"/>
</svg>
