<?xml version="1.0" encoding="utf-8"?>
<!-- Generator: Adobe Illustrator 16.0.0, SVG Export Plug-In . SVG Version: 6.00 Build 0)  -->
<!DOCTYPE svg PUBLIC "-//W3C//DTD SVG 1.1//EN" "http://www.w3.org/Graphics/SVG/1.1/DTD/svg11.dtd">
<svg version="1.1" id="Layer_1" xmlns="http://www.w3.org/2000/svg" xmlns:xlink="http://www.w3.org/1999/xlink" x="0px" y="0px"
	 width="48px" height="48px" viewBox="0 0 48 48" enable-background="new 0 0 48 48" xml:space="preserve">
<path fill="none" d="M0,0h48v48H0V0z"/>
<path d="M38.7,20.08C37.34,13.18,31.279,8,24,8c-2.96,0-5.7,0.86-8.02,2.34l2.92,2.92C20.42,12.46,22.16,12,24,12
	c6.08,0,11,4.92,11,11v1h3c3.32,0,6,2.68,6,6c0,2.26-1.279,4.221-3.12,5.24l2.899,2.9C46.32,36.32,48,33.359,48,30
	C48,24.721,43.9,20.44,38.7,20.08z M6,10.54l5.5,5.48C5.12,16.3,0,21.54,0,28c0,6.62,5.38,12,12,12h23.46l4,4L42,41.46L8.54,8
	L6,10.54z M15.46,20l16,16H12c-4.42,0-8-3.58-8-8s3.58-8,8-8H15.46z"/>
</svg>
