<?xml version="1.0" encoding="utf-8"?>
<!-- Generator: Adobe Illustrator 16.0.0, SVG Export Plug-In . SVG Version: 6.00 Build 0)  -->
<!DOCTYPE svg PUBLIC "-//W3C//DTD SVG 1.1//EN" "http://www.w3.org/Graphics/SVG/1.1/DTD/svg11.dtd">
<svg version="1.1" id="Layer_1" xmlns="http://www.w3.org/2000/svg" xmlns:xlink="http://www.w3.org/1999/xlink" x="0px" y="0px"
	 width="48px" height="48px" viewBox="0 0 48 48" enable-background="new 0 0 48 48" xml:space="preserve">
<path fill="none" d="M0,0h48v48H0V0z"/>
<path d="M24,18c-3.2,0-6.3,0.5-9.2,1.44v6.201c0,0.779-0.46,1.479-1.12,1.799c-1.96,0.98-3.74,2.24-5.32,3.701
	C8,31.5,7.5,31.7,6.96,31.7c-0.56,0-1.06-0.22-1.42-0.58l-4.96-4.96C0.22,25.82,0,25.32,0,24.76c0-0.56,0.22-1.06,0.58-1.42
	C6.68,17.56,14.92,14,24,14s17.32,3.56,23.42,9.34C47.779,23.7,48,24.2,48,24.76c0,0.561-0.221,1.061-0.58,1.42l-4.96,4.961
	c-0.36,0.359-0.86,0.58-1.42,0.58c-0.54,0-1.04-0.221-1.399-0.561c-1.58-1.48-3.381-2.721-5.341-3.7c-0.659-0.319-1.12-1-1.12-1.8
	v-6.2C30.3,18.5,27.2,18,24,18z"/>
</svg>
