<?xml version="1.0" encoding="utf-8"?>
<!-- Generator: Adobe Illustrator 16.0.0, SVG Export Plug-In . SVG Version: 6.00 Build 0)  -->
<!DOCTYPE svg PUBLIC "-//W3C//DTD SVG 1.1//EN" "http://www.w3.org/Graphics/SVG/1.1/DTD/svg11.dtd">
<svg version="1.1" id="Layer_1" xmlns="http://www.w3.org/2000/svg" xmlns:xlink="http://www.w3.org/1999/xlink" x="0px" y="0px"
	 width="48px" height="48px" viewBox="0 0 48 48" enable-background="new 0 0 48 48" xml:space="preserve">
<path fill="none" d="M0,0h48v48H0V0z"/>
<path d="M20,40H10v4h10v4l6-6l-6-6V40z M28,40v4h10v-4H28z M34,0H14c-2.2,0-4,1.8-4,4v28c0,2.2,1.8,4,4,4h20c2.2,0,4-1.8,4-4V4
	C38,1.8,36.2,0,34,0z M24,12c-2.22,0-4-1.8-4-4s1.78-4,3.98-4c2.2,0,4,1.8,4,4C28,10.2,26.2,12,24,12z"/>
</svg>
