<?xml version="1.0" encoding="utf-8"?>
<!-- Generator: Adobe Illustrator 16.0.0, SVG Export Plug-In . SVG Version: 6.00 Build 0)  -->
<!DOCTYPE svg PUBLIC "-//W3C//DTD SVG 1.1//EN" "http://www.w3.org/Graphics/SVG/1.1/DTD/svg11.dtd">
<svg version="1.1" id="Layer_1" xmlns="http://www.w3.org/2000/svg" xmlns:xlink="http://www.w3.org/1999/xlink" x="0px" y="0px"
	 width="48px" height="48px" viewBox="0 0 48 48" enable-background="new 0 0 48 48" xml:space="preserve">
<path fill="none" d="M0,0h48v48H0V0z"/>
<path d="M28,10c0-2.2-1.8-4-4-4h-2V4c0-1.1-0.9-2-2-2h-8c-1.1,0-2,0.9-2,2v2H8c-2.2,0-4,1.8-4,4v30c0,2.2,1.8,4,4,4h16
	c2.2,0,4-1.8,4-4h16V10H28z M24,36h-4v-4h4V36z M24,18h-4v-4h4V18z M32,36h-4v-4h4V36z M32,18h-4v-4h4V18z M40,36h-4v-4h4V36z
	 M40,18h-4v-4h4V18z"/>
</svg>
