<?xml version="1.0" encoding="utf-8"?>
<!-- Generator: Adobe Illustrator 16.0.0, SVG Export Plug-In . SVG Version: 6.00 Build 0)  -->
<!DOCTYPE svg PUBLIC "-//W3C//DTD SVG 1.1//EN" "http://www.w3.org/Graphics/SVG/1.1/DTD/svg11.dtd">
<svg version="1.1" id="Layer_1" xmlns="http://www.w3.org/2000/svg" xmlns:xlink="http://www.w3.org/1999/xlink" x="0px" y="0px"
	 width="48px" height="48px" viewBox="0 0 48 48" enable-background="new 0 0 48 48" xml:space="preserve">
<path d="M40,12h-4.359C35.859,11.38,36,10.7,36,10c0-3.32-2.68-6-6-6c-2.1,0-3.92,1.08-5,2.7l-1,1.34l-1-1.36
	C21.92,5.08,20.1,4,18,4c-3.32,0-6,2.68-6,6c0,0.7,0.14,1.38,0.36,2H8c-2.22,0-3.98,1.78-3.98,4L4,38c0,2.221,1.78,4,4,4h32
	c2.221,0,4-1.779,4-4V16C44,13.78,42.221,12,40,12z M30,8c1.1,0,2,0.9,2,2s-0.9,2-2,2s-2-0.9-2-2S28.9,8,30,8z M18,8
	c1.1,0,2,0.9,2,2s-0.9,2-2,2s-2-0.9-2-2S16.9,8,18,8z M40,38H8v-4h32V38z M40,28H8V16h10.16L14,21.66L17.24,24L22,17.52l2-2.72
	l2,2.72L30.76,24L34,21.66L29.84,16H40V28z"/>
<path fill="none" d="M0,0h48v48H0V0z"/>
</svg>
