<?xml version="1.0" encoding="utf-8"?>
<!-- Generator: Adobe Illustrator 16.0.0, SVG Export Plug-In . SVG Version: 6.00 Build 0)  -->
<!DOCTYPE svg PUBLIC "-//W3C//DTD SVG 1.1//EN" "http://www.w3.org/Graphics/SVG/1.1/DTD/svg11.dtd">
<svg version="1.1" id="Layer_1" xmlns="http://www.w3.org/2000/svg" xmlns:xlink="http://www.w3.org/1999/xlink" x="0px" y="0px"
	 width="48px" height="48px" viewBox="0 0 48 48" enable-background="new 0 0 48 48" xml:space="preserve">
<path fill="none" d="M0,0h48v48H0V0z"/>
<path d="M18.8,21l9.54-16.52C26.939,4.18,25.5,4,24,4c-4.8,0-9.2,1.7-12.64,4.5l7.32,12.7L18.8,21z M43.08,18
	c-1.84-5.84-6.301-10.52-12-12.68L23.76,18H43.08z M43.6,20H28.62l0.58,1l9.521,16.5C42,33.939,44,29.221,44,24
	C44,22.62,43.859,21.3,43.6,20z M17.08,24l-7.8-13.5C6.02,14.06,4,18.78,4,24c0,1.38,0.14,2.7,0.4,4h14.98L17.08,24z M4.92,30
	c1.84,5.84,6.3,10.52,12,12.68L24.24,30H4.92z M27.46,30l-7.8,13.52C21.06,43.82,22.5,44,24,44c4.8,0,9.2-1.7,12.641-4.5l-7.32-12.7
	L27.46,30L27.46,30z"/>
</svg>
