<?xml version="1.0" encoding="utf-8"?>
<!-- Generator: Adobe Illustrator 16.0.0, SVG Export Plug-In . SVG Version: 6.00 Build 0)  -->
<!DOCTYPE svg PUBLIC "-//W3C//DTD SVG 1.1//EN" "http://www.w3.org/Graphics/SVG/1.1/DTD/svg11.dtd">
<svg version="1.1" id="Layer_1" xmlns="http://www.w3.org/2000/svg" xmlns:xlink="http://www.w3.org/1999/xlink" x="0px" y="0px"
	 width="48px" height="48px" viewBox="0 0 48 48" enable-background="new 0 0 48 48" xml:space="preserve">
<path fill="none" d="M0,0h48v48H0V0z"/>
<path d="M24,38c-2.2,0-4,1.8-4,4s1.8,4,4,4s4-1.8,4-4S26.2,38,24,38z M12,2C9.8,2,8,3.8,8,6s1.8,4,4,4s4-1.8,4-4S14.2,2,12,2z
	 M12,14c-2.2,0-4,1.8-4,4s1.8,4,4,4s4-1.8,4-4S14.2,14,12,14z M12,26c-2.2,0-4,1.8-4,4s1.8,4,4,4s4-1.8,4-4S14.2,26,12,26z M36,10
	c2.2,0,4-1.8,4-4s-1.8-4-4-4s-4,1.8-4,4S33.8,10,36,10z M24,26c-2.2,0-4,1.8-4,4s1.8,4,4,4s4-1.8,4-4S26.2,26,24,26z M36,26
	c-2.2,0-4,1.8-4,4s1.8,4,4,4s4-1.8,4-4S38.2,26,36,26z M36,14c-2.2,0-4,1.8-4,4s1.8,4,4,4s4-1.8,4-4S38.2,14,36,14z M24,14
	c-2.2,0-4,1.8-4,4s1.8,4,4,4s4-1.8,4-4S26.2,14,24,14z M24,2c-2.2,0-4,1.8-4,4s1.8,4,4,4s4-1.8,4-4S26.2,2,24,2z"/>
</svg>
