<?xml version="1.0" encoding="utf-8"?>
<!-- Generator: Adobe Illustrator 16.0.0, SVG Export Plug-In . SVG Version: 6.00 Build 0)  -->
<!DOCTYPE svg PUBLIC "-//W3C//DTD SVG 1.1//EN" "http://www.w3.org/Graphics/SVG/1.1/DTD/svg11.dtd">
<svg version="1.1" id="Layer_1" xmlns="http://www.w3.org/2000/svg" xmlns:xlink="http://www.w3.org/1999/xlink" x="0px" y="0px"
	 width="48px" height="48px" viewBox="0 0 48 48" enable-background="new 0 0 48 48" xml:space="preserve">
<path d="M34,24H24v10h10V24z M32,2v4H16V2h-4v4h-2c-2.22,0-3.98,1.8-3.98,4L6,38c0,2.2,1.78,4,4,4h28c2.2,0,4-1.8,4-4V10
	c0-2.2-1.8-4-4-4h-2V2H32z M38,38H10V16h28V38z"/>
<path fill="none" d="M0,0h48v48H0V0z"/>
</svg>
