<?xml version="1.0" encoding="utf-8"?>
<!-- Generator: Adobe Illustrator 16.0.0, SVG Export Plug-In . SVG Version: 6.00 Build 0)  -->
<!DOCTYPE svg PUBLIC "-//W3C//DTD SVG 1.1//EN" "http://www.w3.org/Graphics/SVG/1.1/DTD/svg11.dtd">
<svg version="1.1" id="Layer_1" xmlns="http://www.w3.org/2000/svg" xmlns:xlink="http://www.w3.org/1999/xlink" x="0px" y="0px"
	 width="48px" height="48px" viewBox="0 0 48 48" enable-background="new 0 0 48 48" xml:space="preserve">
<path d="M40,12H24l-4-4H8c-2.2,0-3.98,1.8-3.98,4L4,36c0,2.2,1.8,4,4,4h32c2.2,0,4-1.8,4-4V16C44,13.8,42.2,12,40,12z M30,18
	c2.2,0,4,1.8,4,4s-1.8,4-4,4s-4-1.8-4-4S27.8,18,30,18z M38,34H22v-2c0-2.66,5.34-4,8-4s8,1.34,8,4V34z"/>
<path fill="none" d="M0,0h48v48H0V0z"/>
</svg>
