<?xml version="1.0" encoding="utf-8"?>
<!-- Generator: Adobe Illustrator 16.0.0, SVG Export Plug-In . SVG Version: 6.00 Build 0)  -->
<!DOCTYPE svg PUBLIC "-//W3C//DTD SVG 1.1//EN" "http://www.w3.org/Graphics/SVG/1.1/DTD/svg11.dtd">
<svg version="1.1" id="Layer_1" xmlns="http://www.w3.org/2000/svg" xmlns:xlink="http://www.w3.org/1999/xlink" x="0px" y="0px"
	 width="48px" height="48px" viewBox="0 0 48 48" enable-background="new 0 0 48 48" xml:space="preserve">
<path fill="none" d="M0,0h48v48H0V0z"/>
<path d="M33,6c-3.48,0-6.82,1.62-9,4.18C21.82,7.62,18.48,6,15,6C8.84,6,4,10.84,4,17c0,7.561,6.8,13.721,17.1,23.08L24,42.7
	l2.9-2.64C37.2,30.721,44,24.561,44,17C44,10.84,39.16,6,33,6z M24.2,37.1L24,37.3l-0.2-0.2C14.28,28.48,8,22.78,8,17c0-4,3-7,7-7
	c3.08,0,6.08,1.98,7.14,4.72h3.74C26.92,11.98,29.92,10,33,10c4,0,7,3,7,7C40,22.78,33.721,28.48,24.2,37.1z"/>
</svg>
