<?xml version="1.0" encoding="utf-8"?>
<!-- Generator: Adobe Illustrator 16.0.0, SVG Export Plug-In . SVG Version: 6.00 Build 0)  -->
<!DOCTYPE svg PUBLIC "-//W3C//DTD SVG 1.1//EN" "http://www.w3.org/Graphics/SVG/1.1/DTD/svg11.dtd">
<svg version="1.1" id="Layer_1" xmlns="http://www.w3.org/2000/svg" xmlns:xlink="http://www.w3.org/1999/xlink" x="0px" y="0px"
	 width="48px" height="48px" viewBox="0 0 48 48" enable-background="new 0 0 48 48" xml:space="preserve">
<path fill="none" d="M0,0h48v48H0V0z"/>
<path d="M16,20h-6v-6H6v6H0v4h6v6h4v-6h6V20z M36,22c3.32,0,5.98-2.68,5.98-6s-2.66-6-5.98-6c-0.641,0-1.26,0.1-1.82,0.28
	C35.32,11.9,35.98,13.86,35.98,16s-0.681,4.08-1.801,5.72C34.74,21.9,35.359,22,36,22z M26,22c3.32,0,5.98-2.68,5.98-6
	s-2.66-6-5.98-6c-3.32,0-6,2.68-6,6S22.68,22,26,22z M39.24,26.32C40.9,27.779,42,29.641,42,32v4h6v-4
	C48,28.92,43.26,27.02,39.24,26.32z M26,26c-4,0-12,2-12,6v4h24v-4C38,28,30,26,26,26z"/>
</svg>
