<?xml version="1.0" encoding="utf-8"?>
<!-- Generator: Adobe Illustrator 16.0.0, SVG Export Plug-In . SVG Version: 6.00 Build 0)  -->
<!DOCTYPE svg PUBLIC "-//W3C//DTD SVG 1.1//EN" "http://www.w3.org/Graphics/SVG/1.1/DTD/svg11.dtd">
<svg version="1.1" id="Layer_1" xmlns="http://www.w3.org/2000/svg" xmlns:xlink="http://www.w3.org/1999/xlink" x="0px" y="0px"
	 width="48px" height="48px" viewBox="0 0 48 48" enable-background="new 0 0 48 48" xml:space="preserve">
<path d="M24,8V2l-8,8l8,8v-6c6.62,0,12,5.38,12,12c0,2.02-0.5,3.939-1.4,5.6l2.92,2.92C39.08,30.061,40,27.141,40,24
	C40,15.16,32.84,8,24,8z M24,36c-6.62,0-12-5.38-12-12c0-2.02,0.5-3.94,1.4-5.6l-2.92-2.92C8.92,17.94,8,20.86,8,24
	c0,8.84,7.16,16,16,16v6l8-8l-8-8V36z"/>
<path fill="none" d="M0,0h48v48H0V0z"/>
</svg>
