<?xml version="1.0" encoding="utf-8"?>
<!-- Generator: Adobe Illustrator 16.0.0, SVG Export Plug-In . SVG Version: 6.00 Build 0)  -->
<!DOCTYPE svg PUBLIC "-//W3C//DTD SVG 1.1//EN" "http://www.w3.org/Graphics/SVG/1.1/DTD/svg11.dtd">
<svg version="1.1" id="Layer_1" xmlns="http://www.w3.org/2000/svg" xmlns:xlink="http://www.w3.org/1999/xlink" x="0px" y="0px"
	 width="48px" height="48px" viewBox="0 0 48 48" enable-background="new 0 0 48 48" xml:space="preserve">
<path fill="none" d="M0,0h48v48H0V0z M23.5,22.94l-0.22-0.22L23.5,22.94z"/>
<path d="M24,13c2.76,0,5,2.24,5,5c0,1.48-0.66,2.78-1.66,3.7l7.26,7.26C36.561,25.24,38,21.36,38,18c0-7.74-6.26-14-14-14
	c-3.96,0-7.52,1.66-10.08,4.3l6.38,6.38C21.22,13.64,22.52,13,24,13z M32.74,32.2l-9.26-9.26l-0.22-0.22L6.54,6L4,8.54l6.36,6.36
	C10.14,15.9,10,16.94,10,18c0,10.5,14,26,14,26s3.34-3.7,6.76-8.7l6.7,6.7L40,39.46L32.74,32.2z"/>
</svg>
