<?xml version="1.0" encoding="utf-8"?>
<!-- Generator: Adobe Illustrator 16.0.0, SVG Export Plug-In . SVG Version: 6.00 Build 0)  -->
<!DOCTYPE svg PUBLIC "-//W3C//DTD SVG 1.1//EN" "http://www.w3.org/Graphics/SVG/1.1/DTD/svg11.dtd">
<svg version="1.1" id="Layer_1" xmlns="http://www.w3.org/2000/svg" xmlns:xlink="http://www.w3.org/1999/xlink" x="0px" y="0px"
	 width="48px" height="48px" viewBox="0 0 48 48" enable-background="new 0 0 48 48" xml:space="preserve">
<path fill="none" d="M0,0h48v48H0V0z"/>
<path d="M38,4H10C7.78,4,6,5.8,6,8v28c0,2.2,1.78,4,4,4h8l6,6l6-6h8c2.2,0,4-1.8,4-4V8C42,5.8,40.2,4,38,4z M26,36h-4v-4h4V36z
	 M30.141,20.5l-1.801,1.84C26.9,23.8,26,25,26,28h-4v-1c0-2.2,0.9-4.2,2.34-5.66l2.48-2.52C27.561,18.1,28,17.1,28,16
	c0-2.2-1.8-4-4-4s-4,1.8-4,4h-4c0-4.42,3.58-8,8-8s8,3.58,8,8C32,17.76,31.279,19.36,30.141,20.5z"/>
</svg>
