<?xml version="1.0" encoding="utf-8"?>
<!-- Generator: Adobe Illustrator 16.0.0, SVG Export Plug-In . SVG Version: 6.00 Build 0)  -->
<!DOCTYPE svg PUBLIC "-//W3C//DTD SVG 1.1//EN" "http://www.w3.org/Graphics/SVG/1.1/DTD/svg11.dtd">
<svg version="1.1" id="Layer_1" xmlns="http://www.w3.org/2000/svg" xmlns:xlink="http://www.w3.org/1999/xlink" x="0px" y="0px"
	 width="48px" height="48px" viewBox="0 0 48 48" enable-background="new 0 0 48 48" xml:space="preserve">
<path d="M24,28c3.32,0,5.98-2.68,5.98-6L30,10c0-3.32-2.68-6-6-6c-3.32,0-6,2.68-6,6v12C18,25.32,20.68,28,24,28z M21.6,9.8
	c0-1.32,1.08-2.4,2.4-2.4c1.32,0,2.4,1.08,2.4,2.4L26.38,22.2c0,1.32-1.06,2.399-2.38,2.399c-1.32,0-2.4-1.08-2.4-2.399V9.8z
	 M34.6,22c0,6-5.08,10.2-10.6,10.2c-5.52,0-10.6-4.2-10.6-10.2H10c0,6.82,5.44,12.46,12,13.439V42h4v-6.561
	C32.561,34.48,38,28.84,38,22H34.6z"/>
<path fill="none" d="M0,0h48v48H0V0z"/>
</svg>
