<?xml version="1.0" encoding="utf-8"?>
<!-- Generator: Adobe Illustrator 16.0.0, SVG Export Plug-In . SVG Version: 6.00 Build 0)  -->
<!DOCTYPE svg PUBLIC "-//W3C//DTD SVG 1.1//EN" "http://www.w3.org/Graphics/SVG/1.1/DTD/svg11.dtd">
<svg version="1.1" id="Layer_1" xmlns="http://www.w3.org/2000/svg" xmlns:xlink="http://www.w3.org/1999/xlink" x="0px" y="0px"
	 width="48px" height="48px" viewBox="0 0 48 48" enable-background="new 0 0 48 48" xml:space="preserve">
<path d="M41,6l-0.32,0.06L30,10.2L18,6L6.72,9.8C6.3,9.94,6,10.3,6,10.76V41c0,0.561,0.44,1,1,1l0.32-0.061L18,37.8L30,42
	l11.279-3.8C41.7,38.061,42,37.7,42,37.24V7C42,6.44,41.561,6,41,6z M30,38l-12-4.221V10l12,4.22V38z"/>
<path fill="none" d="M0,0h48v48H0V0z"/>
</svg>
