<?xml version="1.0" encoding="utf-8"?>
<!-- Generator: Adobe Illustrator 16.0.0, SVG Export Plug-In . SVG Version: 6.00 Build 0)  -->
<!DOCTYPE svg PUBLIC "-//W3C//DTD SVG 1.1//EN" "http://www.w3.org/Graphics/SVG/1.1/DTD/svg11.dtd">
<svg version="1.1" id="Layer_1" xmlns="http://www.w3.org/2000/svg" xmlns:xlink="http://www.w3.org/1999/xlink" x="0px" y="0px"
	 width="48px" height="48px" viewBox="0 0 48 48" enable-background="new 0 0 48 48" xml:space="preserve">
<path fill="none" d="M0,0h48v48H0V0z"/>
<path d="M23.98,4C12.94,4,4,12.96,4,24s8.94,20,19.98,20C35.04,44,44,35.04,44,24S35.04,4,23.98,4z M24,40c-8.84,0-16-7.16-16-16
	S15.16,8,24,8s16,7.16,16,16S32.84,40,24,40z M31,22c1.66,0,3-1.34,3-3s-1.34-3-3-3s-3,1.34-3,3S29.34,22,31,22z M17,22
	c1.66,0,3-1.34,3-3s-1.34-3-3-3s-3,1.34-3,3S15.34,22,17,22z M24,28c-4.66,0-8.62,2.92-10.22,7h20.441C32.62,30.92,28.66,28,24,28z"
	/>
</svg>
