<?xml version="1.0" encoding="utf-8"?>
<!-- Generator: Adobe Illustrator 16.0.0, SVG Export Plug-In . SVG Version: 6.00 Build 0)  -->
<!DOCTYPE svg PUBLIC "-//W3C//DTD SVG 1.1//EN" "http://www.w3.org/Graphics/SVG/1.1/DTD/svg11.dtd">
<svg version="1.1" id="Layer_1" xmlns="http://www.w3.org/2000/svg" xmlns:xlink="http://www.w3.org/1999/xlink" x="0px" y="0px"
	 width="48px" height="48px" viewBox="0 0 48 48" enable-background="new 0 0 48 48" xml:space="preserve">
<path fill="none" d="M0,0h48v48H0V0z"/>
<path d="M13.16,7.16L10.3,4.3C5.52,7.94,2.36,13.6,2.06,20h4C6.36,14.7,9.08,10.06,13.16,7.16z M39.939,20h4
	c-0.299-6.4-3.459-12.06-8.26-15.7L32.82,7.16C36.92,10.06,39.641,14.7,39.939,20z M36,21c0-6.14-4.26-11.28-10-12.64V7
	c0-1.66-1.34-3-3-3s-3,1.34-3,3v1.36C14.26,9.72,10,14.86,10,21v11l-4,4v2h34v-2l-4-4V21z M23,44c0.28,0,0.54-0.02,0.8-0.08
	c1.3-0.26,2.38-1.16,2.88-2.359c0.2-0.48,0.32-1,0.32-1.561h-8C19,42.2,20.8,44,23,44z"/>
</svg>
