<?xml version="1.0" encoding="utf-8"?>
<!-- Generator: Adobe Illustrator 16.0.0, SVG Export Plug-In . SVG Version: 6.00 Build 0)  -->
<!DOCTYPE svg PUBLIC "-//W3C//DTD SVG 1.1//EN" "http://www.w3.org/Graphics/SVG/1.1/DTD/svg11.dtd">
<svg version="1.1" id="Layer_1" xmlns="http://www.w3.org/2000/svg" xmlns:xlink="http://www.w3.org/1999/xlink" x="0px" y="0px"
	 width="48px" height="48px" viewBox="0 0 48 48" enable-background="new 0 0 48 48" xml:space="preserve">
<path d="M23,44c2.2,0,4-1.8,4-4h-8C19,42.2,20.8,44,23,44z M36,32V21c0-6.14-4.26-11.28-10-12.64V7c0-1.66-1.34-3-3-3s-3,1.34-3,3
	v1.36C14.26,9.72,10,14.86,10,21v11l-4,4v2h34v-2L36,32z"/>
<path fill="none" d="M0,0h48v48H0V0z"/>
</svg>
