<?xml version="1.0" encoding="utf-8"?>
<!-- Generator: Adobe Illustrator 16.0.0, SVG Export Plug-In . SVG Version: 6.00 Build 0)  -->
<!DOCTYPE svg PUBLIC "-//W3C//DTD SVG 1.1//EN" "http://www.w3.org/Graphics/SVG/1.1/DTD/svg11.dtd">
<svg version="1.1" id="Layer_1" xmlns="http://www.w3.org/2000/svg" xmlns:xlink="http://www.w3.org/1999/xlink" x="0px" y="0px"
	 width="48px" height="48px" viewBox="0 0 48 48" enable-background="new 0 0 48 48" xml:space="preserve">
<path fill="none" d="M0,0h48v48H0V0z"/>
<path d="M33,26c-2.4,0-6.141,0.68-9,2c-2.86-1.34-6.6-2-9-2c-4.34,0-13,2.16-13,6.5V38h44v-5.5C46,28.16,37.34,26,33,26z M25,35H5
	v-2.5c0-1.08,5.12-3.5,10-3.5s10,2.42,10,3.5V35z M43,35H28v-2.5c0-0.92-0.4-1.721-1.04-2.439C28.721,29.46,30.88,29,33,29
	c4.88,0,10,2.42,10,3.5V35z M15,24c3.86,0,7-3.14,7-7s-3.14-7-7-7s-7,3.14-7,7S11.14,24,15,24z M15,13c2.2,0,4,1.8,4,4s-1.8,4-4,4
	s-4-1.8-4-4S12.8,13,15,13z M33,24c3.859,0,7-3.14,7-7s-3.141-7-7-7s-7,3.14-7,7S29.141,24,33,24z M33,13c2.2,0,4,1.8,4,4
	s-1.8,4-4,4s-4-1.8-4-4S30.8,13,33,13z"/>
</svg>
