<?xml version="1.0" encoding="utf-8"?>
<!-- Generator: Adobe Illustrator 16.0.0, SVG Export Plug-In . SVG Version: 6.00 Build 0)  -->
<!DOCTYPE svg PUBLIC "-//W3C//DTD SVG 1.1//EN" "http://www.w3.org/Graphics/SVG/1.1/DTD/svg11.dtd">
<svg version="1.1" id="Layer_1" xmlns="http://www.w3.org/2000/svg" xmlns:xlink="http://www.w3.org/1999/xlink" x="0px" y="0px"
	 width="48px" height="48px" viewBox="0 0 48 48" enable-background="new 0 0 48 48" xml:space="preserve">
<path d="M31,2H15c-2.76,0-5,2.24-5,5v34c0,2.76,2.24,5,5,5h16c2.76,0,5-2.24,5-5V7C36,4.24,33.76,2,31,2z M23,44c-1.66,0-3-1.34-3-3
	s1.34-3,3-3s3,1.34,3,3S24.66,44,23,44z M32,36H14V8h18V36z"/>
<path fill="none" d="M0,0h48v48H0V0z"/>
</svg>
