<?xml version="1.0" encoding="utf-8"?>
<!-- Generator: Adobe Illustrator 16.0.0, SVG Export Plug-In . SVG Version: 6.00 Build 0)  -->
<!DOCTYPE svg PUBLIC "-//W3C//DTD SVG 1.1//EN" "http://www.w3.org/Graphics/SVG/1.1/DTD/svg11.dtd">
<svg version="1.1" id="Layer_1" xmlns="http://www.w3.org/2000/svg" xmlns:xlink="http://www.w3.org/1999/xlink" x="0px" y="0px"
	 width="48px" height="48px" viewBox="0 0 48 48" enable-background="new 0 0 48 48" xml:space="preserve">
<path fill="none" d="M0,0h48v48H0V0z"/>
<path d="M30,24c4.42,0,8-3.58,8-8s-3.58-8-8-8s-8,3.58-8,8S25.58,24,30,24z M12,20v-6H8v6H2v4h6v6h4v-6h6v-4H12z M30,28
	c-5.34,0-16,2.68-16,8v4h32v-4C46,30.68,35.34,28,30,28z"/>
</svg>
