<?xml version="1.0" encoding="utf-8"?>
<!-- Generator: Adobe Illustrator 16.0.0, SVG Export Plug-In . SVG Version: 6.00 Build 0)  -->
<!DOCTYPE svg PUBLIC "-//W3C//DTD SVG 1.1//EN" "http://www.w3.org/Graphics/SVG/1.1/DTD/svg11.dtd">
<svg version="1.1" id="Layer_1" xmlns="http://www.w3.org/2000/svg" xmlns:xlink="http://www.w3.org/1999/xlink" x="0px" y="0px"
	 width="48px" height="48px" viewBox="0 0 48 48" enable-background="new 0 0 48 48" xml:space="preserve">
<path d="M24,11.8c2.32,0,4.2,1.88,4.2,4.2s-1.88,4.2-4.2,4.2c-2.32,0-4.2-1.88-4.2-4.2S21.68,11.8,24,11.8 M24,29.8
	c5.939,0,12.2,2.921,12.2,4.2v2.2H11.8V34C11.8,32.721,18.06,29.8,24,29.8 M24,8c-4.42,0-8,3.58-8,8s3.58,8,8,8s8-3.58,8-8
	S28.42,8,24,8z M24,26c-5.34,0-16,2.68-16,8v6h32v-6C40,28.68,29.34,26,24,26z"/>
<path fill="none" d="M0,0h48v48H0V0z"/>
</svg>
