<?xml version="1.0" encoding="utf-8"?>
<!-- Generator: Adobe Illustrator 16.0.0, SVG Export Plug-In . SVG Version: 6.00 Build 0)  -->
<!DOCTYPE svg PUBLIC "-//W3C//DTD SVG 1.1//EN" "http://www.w3.org/Graphics/SVG/1.1/DTD/svg11.dtd">
<svg version="1.1" id="Layer_1" xmlns="http://www.w3.org/2000/svg" xmlns:xlink="http://www.w3.org/1999/xlink" x="0px" y="0px"
	 width="48px" height="48px" viewBox="0 0 48 48" enable-background="new 0 0 48 48" xml:space="preserve">
<path d="M38,6h-2V2h-4v4H16V2h-4v4h-2c-2.22,0-4,1.8-4,4v28c0,2.2,1.78,4,4,4h28c2.2,0,4-1.8,4-4V10C42,7.8,40.2,6,38,6z M24,12
	c3.32,0,6,2.68,6,6s-2.68,6-6,6c-3.32,0-6-2.68-6-6S20.68,12,24,12z M36,36H12v-2c0-4,8-6.2,12-6.2S36,30,36,34V36z"/>
<path fill="none" d="M0,0h48v48H0V0z"/>
</svg>
