<?xml version="1.0" encoding="utf-8"?>
<!-- Generator: Adobe Illustrator 16.0.0, SVG Export Plug-In . SVG Version: 6.00 Build 0)  -->
<!DOCTYPE svg PUBLIC "-//W3C//DTD SVG 1.1//EN" "http://www.w3.org/Graphics/SVG/1.1/DTD/svg11.dtd">
<svg version="1.1" id="Layer_1" xmlns="http://www.w3.org/2000/svg" xmlns:xlink="http://www.w3.org/1999/xlink" x="0px" y="0px"
	 width="48px" height="48px" viewBox="0 0 48 48" enable-background="new 0 0 48 48" xml:space="preserve">
<path fill="none" d="M0,0h48v48H0V0z"/>
<path d="M32,22c3.32,0,5.98-2.68,5.98-6s-2.66-6-5.98-6s-6,2.68-6,6S28.68,22,32,22z M16,22c3.32,0,5.98-2.68,5.98-6s-2.66-6-5.98-6
	s-6,2.68-6,6S12.68,22,16,22z M16,26c-4.66,0-14,2.34-14,7v5h28v-5C30,28.34,20.66,26,16,26z M32,26c-0.58,0-1.24,0.04-1.939,0.1
	C32.38,27.779,34,30.04,34,33v5h12v-5C46,28.34,36.66,26,32,26z"/>
</svg>
