<?xml version="1.0" encoding="utf-8"?>
<!-- Generator: Adobe Illustrator 16.0.0, SVG Export Plug-In . SVG Version: 6.00 Build 0)  -->
<!DOCTYPE svg PUBLIC "-//W3C//DTD SVG 1.1//EN" "http://www.w3.org/Graphics/SVG/1.1/DTD/svg11.dtd">
<svg version="1.1" id="Layer_1" xmlns="http://www.w3.org/2000/svg" xmlns:xlink="http://www.w3.org/1999/xlink" x="0px" y="0px"
	 width="48px" height="48px" viewBox="0 0 48 48" enable-background="new 0 0 48 48" xml:space="preserve">
<path fill="none" d="M0,0h48v48H0V0z"/>
<path d="M24,20c-2.2,0-4,1.8-4,4s1.8,4,4,4s4-1.8,4-4S26.2,20,24,20z M38,6H10c-2.22,0-4,1.8-4,4v28c0,2.2,1.78,4,4,4h28
	c2.221,0,4-1.8,4-4V10C42,7.8,40.221,6,38,6z M34.5,24c0,0.46-0.04,0.92-0.1,1.359l2.959,2.32c0.261,0.221,0.341,0.6,0.16,0.9
	l-2.799,4.84c-0.181,0.301-0.541,0.42-0.861,0.301l-3.479-1.4c-0.72,0.56-1.521,1.02-2.36,1.38l-0.52,3.7
	c-0.061,0.34-0.359,0.6-0.7,0.6h-5.6c-0.34,0-0.64-0.26-0.7-0.58l-0.52-3.699c-0.86-0.361-1.64-0.82-2.36-1.381l-3.48,1.4
	c-0.32,0.119-0.68,0-0.86-0.301l-2.8-4.84c-0.18-0.3-0.1-0.68,0.16-0.899l2.96-2.32c-0.06-0.46-0.1-0.92-0.1-1.38
	s0.04-0.92,0.1-1.36l-2.96-2.32c-0.26-0.22-0.34-0.6-0.16-0.9l2.8-4.84c0.18-0.3,0.54-0.42,0.86-0.3l3.48,1.4
	c0.72-0.56,1.52-1.02,2.36-1.38l0.52-3.7c0.06-0.34,0.36-0.6,0.7-0.6h5.6c0.341,0,0.64,0.26,0.7,0.58l0.52,3.7
	c0.86,0.36,1.641,0.82,2.36,1.38l3.479-1.4c0.32-0.12,0.681,0,0.861,0.3l2.799,4.84c0.181,0.3,0.101,0.68-0.16,0.9L34.4,22.62
	C34.46,23.08,34.5,23.54,34.5,24z"/>
</svg>
