<?xml version="1.0" encoding="utf-8"?>
<!-- Generator: Adobe Illustrator 16.0.0, SVG Export Plug-In . SVG Version: 6.00 Build 0)  -->
<!DOCTYPE svg PUBLIC "-//W3C//DTD SVG 1.1//EN" "http://www.w3.org/Graphics/SVG/1.1/DTD/svg11.dtd">
<svg version="1.1" id="Layer_1" xmlns="http://www.w3.org/2000/svg" xmlns:xlink="http://www.w3.org/1999/xlink" x="0px" y="0px"
	 width="48px" height="48px" viewBox="0 0 48 48" enable-background="new 0 0 48 48" xml:space="preserve">
<path fill="none" d="M0,0h48v48H0V0z"/>
<path d="M36,32.16c-1.52,0-2.88,0.6-3.92,1.54l-14.26-8.3C17.92,24.939,18,24.48,18,24s-0.08-0.94-0.18-1.4l14.1-8.22
	C33,15.38,34.42,16,36,16c3.32,0,6-2.68,6-6s-2.68-6-6-6s-6,2.68-6,6c0,0.48,0.08,0.94,0.18,1.4l-14.1,8.22C15,18.62,13.58,18,12,18
	c-3.32,0-6,2.68-6,6c0,3.32,2.68,6,6,6c1.58,0,3-0.62,4.08-1.62l14.24,8.32c-0.1,0.42-0.16,0.86-0.16,1.3
	c0,3.221,2.619,5.84,5.84,5.84s5.84-2.619,5.84-5.84S39.221,32.16,36,32.16z"/>
</svg>
