<?xml version="1.0" encoding="utf-8"?>
<!-- Generator: Adobe Illustrator 16.0.0, SVG Export Plug-In . SVG Version: 6.00 Build 0)  -->
<!DOCTYPE svg PUBLIC "-//W3C//DTD SVG 1.1//EN" "http://www.w3.org/Graphics/SVG/1.1/DTD/svg11.dtd">
<svg version="1.1" id="Layer_1" xmlns="http://www.w3.org/2000/svg" xmlns:xlink="http://www.w3.org/1999/xlink" x="0px" y="0px"
	 width="48px" height="48px" viewBox="0 0 48 48" enable-background="new 0 0 48 48" xml:space="preserve">
<path fill="none" d="M0,0h48v48H0V0z"/>
<path d="M34.42,18L25.66,4.88c-0.381-0.56-1.02-0.84-1.66-0.84c-0.64,0-1.28,0.28-1.66,0.86L13.58,18H4c-1.1,0-2,0.9-2,2
	c0,0.18,0.02,0.36,0.08,0.54l5.08,18.54C7.62,40.76,9.16,42,11,42h26c1.84,0,3.38-1.24,3.859-2.92l5.08-18.54L46,20c0-1.1-0.9-2-2-2
	H34.42z M18,18l6-8.8l6,8.8H18z M24,34c-2.2,0-4-1.8-4-4s1.8-4,4-4s4,1.8,4,4S26.2,34,24,34z"/>
</svg>
