<?xml version="1.0" encoding="utf-8"?>
<!-- Generator: Adobe Illustrator 16.0.0, SVG Export Plug-In . SVG Version: 6.00 Build 0)  -->
<!DOCTYPE svg PUBLIC "-//W3C//DTD SVG 1.1//EN" "http://www.w3.org/Graphics/SVG/1.1/DTD/svg11.dtd">
<svg version="1.1" id="Layer_1" xmlns="http://www.w3.org/2000/svg" xmlns:xlink="http://www.w3.org/1999/xlink" x="0px" y="0px"
	 width="48px" height="48px" viewBox="0 0 48 48" enable-background="new 0 0 48 48" xml:space="preserve">
<path d="M6,18H2v22c0,2.221,1.78,4,4,4h28c2.221,0,4-1.779,4-4H6V18z M36,10V6c0-2.22-1.779-4-4-4h-8c-2.22,0-4,1.78-4,4v4H10v22
	c0,2.221,1.78,4,4,4h28c2.221,0,4-1.779,4-4V10H36z M24,6h8v4h-8V6z M24,30V16l11,6L24,30z"/>
<path fill="none" d="M0,0h48v48H0V0z"/>
</svg>
