<?xml version="1.0" encoding="utf-8"?>
<!-- Generator: Adobe Illustrator 16.0.0, SVG Export Plug-In . SVG Version: 6.00 Build 0)  -->
<!DOCTYPE svg PUBLIC "-//W3C//DTD SVG 1.1//EN" "http://www.w3.org/Graphics/SVG/1.1/DTD/svg11.dtd">
<svg version="1.1" id="Layer_1" xmlns="http://www.w3.org/2000/svg" xmlns:xlink="http://www.w3.org/1999/xlink" x="0px" y="0px"
	 width="48px" height="48px" viewBox="0 0 48 48" enable-background="new 0 0 48 48" xml:space="preserve">
<path fill="none" d="M0,0h48v48H0V0z"/>
<path d="M34,6H10c-2.22,0-4,1.8-4,4v28c0,2.2,1.78,4,4,4h28c2.2,0,4-1.8,4-4V14L34,6z M24,38c-3.32,0-6-2.68-6-6s2.68-6,6-6
	c3.32,0,6,2.68,6,6S27.32,38,24,38z M30,18H10v-8h20V18z"/>
</svg>
