<?xml version="1.0" encoding="utf-8"?>
<!-- Generator: Adobe Illustrator 16.0.0, SVG Export Plug-In . SVG Version: 6.00 Build 0)  -->
<!DOCTYPE svg PUBLIC "-//W3C//DTD SVG 1.1//EN" "http://www.w3.org/Graphics/SVG/1.1/DTD/svg11.dtd">
<svg version="1.1" id="Layer_1" xmlns="http://www.w3.org/2000/svg" xmlns:xlink="http://www.w3.org/1999/xlink" x="0px" y="0px"
	 width="48px" height="48px" viewBox="0 0 48 48" enable-background="new 0 0 48 48" xml:space="preserve">
<path d="M14,36c-2.2,0-3.98,1.8-3.98,4s1.78,4,3.98,4s4-1.8,4-4S16.2,36,14,36z M2,4v4h4l7.2,15.18l-2.7,4.9
	C10.18,28.641,10,29.3,10,30c0,2.2,1.8,4,4,4h24v-4H14.84c-0.28,0-0.5-0.221-0.5-0.5l0.06-0.24L16.2,26H31.1
	c1.5,0,2.82-0.82,3.5-2.06l7.16-12.98C41.92,10.68,42,10.34,42,10c0-1.1-0.9-2-2-2H10.42L8.54,4H2z M34,36c-2.2,0-3.98,1.8-3.98,4
	s1.78,4,3.98,4s4-1.8,4-4S36.2,36,34,36z"/>
<path fill="none" d="M0,0h48v48H0V0z"/>
</svg>
