<?xml version="1.0" encoding="utf-8"?>
<!-- Generator: Adobe Illustrator 16.0.0, SVG Export Plug-In . SVG Version: 6.00 Build 0)  -->
<!DOCTYPE svg PUBLIC "-//W3C//DTD SVG 1.1//EN" "http://www.w3.org/Graphics/SVG/1.1/DTD/svg11.dtd">
<svg version="1.1" id="Layer_1" xmlns="http://www.w3.org/2000/svg" xmlns:xlink="http://www.w3.org/1999/xlink" x="0px" y="0px"
	 width="48px" height="48px" viewBox="0 0 48 48" enable-background="new 0 0 48 48" xml:space="preserve">
<path fill="none" d="M0,0h48v48H0V0z"/>
<path d="M38.859,25.96C38.939,25.32,39,24.68,39,24c0-0.68-0.061-1.32-0.141-1.96l4.221-3.3c0.38-0.3,0.48-0.84,0.24-1.28l-4-6.92
	c-0.24-0.44-0.78-0.6-1.221-0.44l-4.979,2c-1.04-0.8-2.16-1.46-3.38-1.96l-0.76-5.3C28.92,4.36,28.5,4,28,4h-8
	c-0.5,0-0.92,0.36-0.98,0.84l-0.76,5.3c-1.22,0.5-2.34,1.18-3.38,1.96l-4.98-2c-0.46-0.18-0.98,0-1.22,0.44l-4,6.92
	c-0.26,0.44-0.14,0.98,0.24,1.28l4.22,3.3C9.06,22.68,9,23.34,9,24s0.06,1.32,0.14,1.96l-4.22,3.3c-0.38,0.301-0.48,0.84-0.24,1.28
	l4,6.92c0.24,0.44,0.78,0.601,1.22,0.44l4.98-2c1.04,0.8,2.16,1.459,3.38,1.959l0.76,5.301C19.08,43.641,19.5,44,20,44h8
	c0.5,0,0.92-0.359,0.98-0.84l0.76-5.301c1.22-0.5,2.34-1.18,3.38-1.959l4.979,2c0.461,0.18,0.98,0,1.221-0.44l4-6.92
	c0.24-0.44,0.14-0.979-0.24-1.28L38.859,25.96z M24,31c-3.86,0-7-3.141-7-7c0-3.86,3.14-7,7-7c3.859,0,7,3.14,7,7
	C31,27.859,27.859,31,24,31z"/>
</svg>
