<?xml version="1.0" encoding="utf-8"?>
<!-- Generator: Adobe Illustrator 16.0.0, SVG Export Plug-In . SVG Version: 6.00 Build 0)  -->
<!DOCTYPE svg PUBLIC "-//W3C//DTD SVG 1.1//EN" "http://www.w3.org/Graphics/SVG/1.1/DTD/svg11.dtd">
<svg version="1.1" id="Layer_1" xmlns="http://www.w3.org/2000/svg" xmlns:xlink="http://www.w3.org/1999/xlink" x="0px" y="0px"
	 width="48px" height="48px" viewBox="0 0 48 48" enable-background="new 0 0 48 48" xml:space="preserve">
<path fill="none" d="M0,0h48v48H0V0z"/>
<path d="M30,6H12c-1.66,0-3.08,1-3.68,2.44l-6.04,14.1C2.1,23,2,23.48,2,24v3.82l0.02,0.02L2,28c0,2.2,1.8,4,4,4h12.62l-1.9,9.141
	l-0.06,0.639c0,0.82,0.34,1.58,0.88,2.121l2.12,2.1l13.18-13.18C33.561,32.1,34,31.1,34,30V10C34,7.8,32.2,6,30,6z M38,6v24h8V6H38z
	"/>
</svg>
