<?xml version="1.0" encoding="utf-8"?>
<!-- Generator: Adobe Illustrator 16.0.0, SVG Export Plug-In . SVG Version: 6.00 Build 0)  -->
<!DOCTYPE svg PUBLIC "-//W3C//DTD SVG 1.1//EN" "http://www.w3.org/Graphics/SVG/1.1/DTD/svg11.dtd">
<svg version="1.1" id="Layer_1" xmlns="http://www.w3.org/2000/svg" xmlns:xlink="http://www.w3.org/1999/xlink" x="0px" y="0px"
	 width="48px" height="48px" viewBox="0 0 48 48" enable-background="new 0 0 48 48" xml:space="preserve">
<path d="M24,12c0-1.1-0.9-2-2-2H11.64l1.32-6.36L13,3.18c0-0.62-0.26-1.18-0.66-1.6L10.76,0L0.88,9.88C0.34,10.42,0,11.18,0,12v13
	c0,1.66,1.34,3,3,3h13.5c1.24,0,2.3-0.76,2.76-1.82l4.52-10.58c0.14-0.34,0.22-0.72,0.22-1.1V12z M45,20H31.5
	c-1.24,0-2.3,0.76-2.76,1.82L24.22,32.4C24.08,32.74,24,33.12,24,33.5V36c0,1.1,0.9,2,2,2h10.359l-1.319,6.359L35,44.84
	c0,0.62,0.26,1.18,0.66,1.6L37.24,48l9.88-9.88C47.66,37.58,48,36.82,48,36V23C48,21.34,46.66,20,45,20z"/>
<path fill="none" d="M0,0h48v48H0V0z"/>
</svg>
