<?xml version="1.0" encoding="utf-8"?>
<!-- Generator: Adobe Illustrator 16.0.0, SVG Export Plug-In . SVG Version: 6.00 Build 0)  -->
<!DOCTYPE svg PUBLIC "-//W3C//DTD SVG 1.1//EN" "http://www.w3.org/Graphics/SVG/1.1/DTD/svg11.dtd">
<svg version="1.1" id="Layer_1" xmlns="http://www.w3.org/2000/svg" xmlns:xlink="http://www.w3.org/1999/xlink" x="0px" y="0px"
	 width="48px" height="48px" viewBox="0 0 48 48" enable-background="new 0 0 48 48" xml:space="preserve">
<path fill="none" d="M0,0h48v48H0V0z"/>
<path d="M2,42h8V18H2V42z M46,20c0-2.2-1.8-4-4-4H29.38l1.899-9.14l0.061-0.64c0-0.82-0.34-1.58-0.88-2.12L28.34,2L15.18,15.18
	C14.44,15.9,14,16.9,14,18v20c0,2.2,1.8,4,4,4h18c1.66,0,3.08-1,3.68-2.439l6.041-14.101C45.9,25,46,24.52,46,24v-3.82l-0.02-0.02
	L46,20z"/>
</svg>
