<?xml version="1.0" encoding="utf-8"?>
<!-- Generator: Adobe Illustrator 16.0.0, SVG Export Plug-In . SVG Version: 6.00 Build 0)  -->
<!DOCTYPE svg PUBLIC "-//W3C//DTD SVG 1.1//EN" "http://www.w3.org/Graphics/SVG/1.1/DTD/svg11.dtd">
<svg version="1.1" id="Layer_1" xmlns="http://www.w3.org/2000/svg" xmlns:xlink="http://www.w3.org/1999/xlink" x="0px" y="0px"
	 width="48px" height="48px" viewBox="0 0 48 48" enable-background="new 0 0 48 48" xml:space="preserve">
<path d="M36,6v4h-4V6H16v4h-4V6H8v36h4v-4h4v4h16v-4h4v4h4V6H36z M16,34h-4v-4h4V34z M16,26h-4v-4h4V26z M16,18h-4v-4h4V18z M36,34
	h-4v-4h4V34z M36,26h-4v-4h4V26z M36,18h-4v-4h4V18z"/>
<path fill="none" d="M0,0h48v48H0V0z"/>
</svg>
