<?xml version="1.0" encoding="utf-8"?>
<!-- Generator: Adobe Illustrator 16.0.0, SVG Export Plug-In . SVG Version: 6.00 Build 0)  -->
<!DOCTYPE svg PUBLIC "-//W3C//DTD SVG 1.1//EN" "http://www.w3.org/Graphics/SVG/1.1/DTD/svg11.dtd">
<svg version="1.1" id="Layer_1" xmlns="http://www.w3.org/2000/svg" xmlns:xlink="http://www.w3.org/1999/xlink" x="0px" y="0px"
	 width="48px" height="48px" viewBox="0 0 48 48" enable-background="new 0 0 48 48" xml:space="preserve">
<path fill="none" d="M0,0h48v48H0V0z"/>
<path d="M30,2H18v4h12V2z M22,28h4V16h-4V28z M38.061,14.78l2.84-2.84c-0.86-1.02-1.801-1.98-2.82-2.82l-2.84,2.84
	C32.141,9.48,28.24,8,24,8C14.06,8,6,16.06,6,26c0,9.939,8.04,18,18,18s18-8.061,18-18C42,21.76,40.52,17.86,38.061,14.78z M24,40
	c-7.74,0-14-6.26-14-14s6.26-14,14-14s14,6.26,14,14S31.74,40,24,40z"/>
</svg>
